<?xml version="1.0" encoding="utf-8"?>
<!-- Generator: Adobe Illustrator 25.3.1, SVG Export Plug-In . SVG Version: 6.00 Build 0)  -->
<svg version="1.1" id="Layer_1" xmlns="http://www.w3.org/2000/svg" xmlns:xlink="http://www.w3.org/1999/xlink" x="0px" y="0px"
	 viewBox="0 0 560.4 90.4" style="enable-background:new 0 0 560.4 90.4;" xml:space="preserve">
<style type="text/css">
	.st0{fill:url(#SVGID_1_);}
	.st1{fill:url(#SVGID_2_);}
	.st2{fill:#BE1E2D;}
	.st3{fill:url(#SVGID_3_);}
	.st4{fill:url(#SVGID_4_);}
	.st5{fill:url(#SVGID_5_);}
	.st6{fill:url(#SVGID_6_);}
	.st7{fill:url(#SVGID_7_);}
	.st8{fill:url(#SVGID_8_);}
	.st9{fill:url(#SVGID_9_);}
	.st10{fill:url(#SVGID_10_);}
	.st11{fill:url(#SVGID_11_);}
	.st12{fill:url(#SVGID_12_);}
	.st13{fill:url(#SVGID_13_);}
	.st14{fill:url(#SVGID_14_);}
	.st15{fill:url(#SVGID_15_);}
	.st16{fill:url(#SVGID_16_);}
	.st17{fill:url(#SVGID_17_);}
	.st18{fill:url(#SVGID_18_);}
	.st19{fill:url(#SVGID_19_);}
	.st20{fill:url(#SVGID_20_);}
	.st21{fill:url(#SVGID_21_);}
	.st22{fill:url(#SVGID_22_);}
	.st23{fill:url(#SVGID_23_);}
	.st24{fill:url(#SVGID_24_);}
	.st25{fill:url(#SVGID_25_);}
	.st26{fill:url(#SVGID_26_);}
	.st27{fill:url(#SVGID_27_);}
	.st28{fill:url(#SVGID_28_);}
	.st29{fill:url(#SVGID_29_);}
	.st30{fill:url(#SVGID_30_);}
	.st31{fill:url(#SVGID_31_);}
	.st32{fill:url(#SVGID_32_);}
	.st33{fill:url(#SVGID_33_);}
	.st34{fill:url(#SVGID_34_);}
	.st35{fill:url(#SVGID_35_);}
	.st36{fill:url(#SVGID_36_);}
	.st37{fill:url(#SVGID_37_);}
	.st38{fill:url(#SVGID_38_);}
	.st39{fill:url(#SVGID_39_);}
	.st40{fill:url(#SVGID_40_);}
	.st41{fill:url(#SVGID_41_);}
	.st42{fill:url(#SVGID_42_);}
	.st43{fill:url(#SVGID_43_);}
	.st44{fill:url(#SVGID_44_);}
	.st45{fill:url(#SVGID_45_);}
	.st46{fill:url(#SVGID_46_);}
	.st47{fill:url(#SVGID_47_);}
	.st48{fill:url(#SVGID_48_);}
	.st49{fill:url(#SVGID_49_);}
	.st50{fill:url(#SVGID_50_);}
	.st51{fill:url(#SVGID_51_);}
	.st52{fill:url(#SVGID_52_);}
	.st53{fill:url(#SVGID_53_);}
	.st54{fill:url(#SVGID_54_);}
	.st55{fill:url(#SVGID_55_);}
	.st56{fill:url(#SVGID_56_);}
	.st57{fill:url(#SVGID_57_);}
	.st58{fill:url(#SVGID_58_);}
	.st59{fill:url(#SVGID_59_);}
	.st60{fill:url(#SVGID_60_);}
	.st61{fill:url(#SVGID_61_);}
	.st62{fill:url(#SVGID_62_);}
	.st63{fill:url(#SVGID_63_);}
	.st64{fill:url(#SVGID_64_);}
	.st65{fill:url(#SVGID_65_);}
	.st66{fill:url(#SVGID_66_);}
	.st67{fill:url(#SVGID_67_);}
	.st68{fill:url(#SVGID_68_);}
	.st69{fill:url(#SVGID_69_);}
	.st70{fill:url(#SVGID_70_);}
	.st71{fill:url(#SVGID_71_);}
	.st72{fill:url(#SVGID_72_);}
	.st73{fill:url(#SVGID_73_);}
	.st74{fill:none;}
	.st75{fill:url(#SVGID_74_);}
	.st76{fill:url(#SVGID_75_);}
	.st77{fill:url(#SVGID_76_);}
	.st78{fill:url(#SVGID_77_);}
	.st79{fill:url(#SVGID_78_);}
	.st80{fill:url(#SVGID_79_);}
	.st81{fill:url(#SVGID_80_);}
	.st82{fill:url(#SVGID_81_);}
	.st83{fill:url(#SVGID_82_);}
	.st84{fill:url(#SVGID_83_);}
	.st85{fill:#EA3033;}
	.st86{fill:#915715;}
</style>
<linearGradient id="SVGID_1_" gradientUnits="userSpaceOnUse" x1="53.9569" y1="88.4558" x2="47.6456" y2="3.6579" gradientTransform="matrix(1 0 0 -1 -3.523621e-03 91.2725)">
	<stop  offset="0" style="stop-color:#F4CD49"/>
	<stop  offset="0.31" style="stop-color:#F9C122"/>
	<stop  offset="0.69" style="stop-color:#F6C911"/>
	<stop  offset="1" style="stop-color:#F39D20"/>
</linearGradient>
<circle class="st0" cx="50.8" cy="45.2" r="42.5"/>
<radialGradient id="SVGID_2_" cx="76.56" cy="15.7756" r="72.4" gradientTransform="matrix(1 0 0 -1 -4.405224e-03 91.2721)" gradientUnits="userSpaceOnUse">
	<stop  offset="0" style="stop-color:#ED302A"/>
	<stop  offset="0.41" style="stop-color:#EC1C24"/>
	<stop  offset="1" style="stop-color:#BE151B"/>
</radialGradient>
<circle class="st1" cx="50.8" cy="45.2" r="36.4"/>
<path class="st2" d="M26.5,46.2v-1.4h3.1v1.4h-0.9V52h-1.4v-5.8H26.5z"/>
<path class="st2" d="M30.2,52v-7.1h1.4v2.7h0.8v-2.7h1.4V52h-1.4v-3h-0.8v3H30.2z"/>
<path class="st2" d="M34.5,50.1v-5.2h1.3v5.2c0,0.2,0,0.4,0.1,0.5c0,0.1,0.2,0.2,0.3,0.2c0.1,0,0.2-0.1,0.3-0.1
	c0.1-0.2,0.1-0.4,0.1-0.6v-5.2H38v5.2c0,0.5-0.1,1.1-0.5,1.5c-0.3,0.4-0.8,0.6-1.3,0.6c-0.5,0-0.9-0.2-1.3-0.5
	C34.7,51.2,34.5,50.6,34.5,50.1z"/>
<path class="st2" d="M38.8,44.8h3v1.4h-1.6v1.4h1.5V49h-1.5v1.6h1.7V52h-3.1V44.8z M39.2,44.4l0.6-1.2h1l0.5,1.2h-0.8l-0.3-0.7
	l-0.4,0.7H39.2z M41.5,42.4h1l-0.7,1.1h-0.6L41.5,42.4z"/>
<path class="st2" d="M44.7,52v-7.1h1.5l1.1,4.2v-4.2h1.3V52h-1.5L46,47.6V52H44.7z"/>
<path class="st2" d="M49.3,52v-7.1h1.4v2.7h0.8v-2.7h1.4V52h-1.4v-3h-0.8v3H49.3z"/>
<path class="st2" d="M54.5,44.8h1.8l1.1,7.2h-1.4l-0.1-1.3h-1L54.7,52h-1.4L54.5,44.8z M55.5,43.2l0.3,1.2h-0.7l-0.8-1.2H55.5z
	 M55,49.5h0.7L55.4,46L55,49.5z"/>
<path class="st2" d="M59.9,52v-7.1h1.5l1.1,4.2v-4.2h1.3V52h-1.5l-1.1-4.4V52L59.9,52z"/>
<path class="st2" d="M67.9,44.1h1v1.2l-0.5,0.6h-0.3v4.2c0,0.5-0.1,1.1-0.5,1.5c-0.7,0.7-1.8,0.7-2.5,0.1c0,0-0.1-0.1-0.1-0.1
	c-0.3-0.4-0.5-1-0.5-1.5v-5.2h1.4v5.2c0,0.2,0,0.4,0.1,0.5c0,0.1,0.1,0.2,0.3,0.2c0.1,0,0.2,0,0.3-0.1c0.1-0.2,0.1-0.4,0.1-0.6v-5.2
	h1.2L67.9,44.1z"/>
<path class="st2" d="M72.2,45.8c0.1,0.3,0.2,0.7,0.2,1v3.3c0,0.5-0.1,1.1-0.5,1.5c-0.7,0.7-1.8,0.7-2.5,0.1c0,0-0.1-0.1-0.1-0.1
	c-0.3-0.4-0.5-1-0.5-1.5v-3.2c0-0.6,0.1-1.1,0.5-1.6c0.3-0.3,0.8-0.5,1.3-0.5c0.4,0,0.7,0.1,1,0.3v-1h1v1.2L72.2,45.8z M70.5,43.2
	h1.1l-0.8,1.2h-0.7L70.5,43.2z M70.2,50.2c0,0.2,0,0.3,0.1,0.5c0.1,0.1,0.2,0.2,0.3,0.2c0.2,0,0.3-0.1,0.3-0.2c0-0.1,0-0.3,0-0.4
	v-3.5c0-0.1,0-0.3,0-0.4c0-0.1-0.2-0.2-0.3-0.2c-0.2,0-0.3,0.1-0.3,0.2c0,0.1,0,0.3,0,0.4L70.2,50.2z"/>
<path class="st2" d="M73.1,50.1v-3.2c0-0.6,0.1-1.1,0.5-1.6c0.3-0.3,0.8-0.5,1.3-0.5c0.5,0,0.9,0.2,1.3,0.5c0.3,0.4,0.5,1,0.5,1.5
	v0.7h-1.3v-0.8c0-0.1,0-0.3,0-0.4c0-0.2-0.2-0.3-0.3-0.2c-0.2,0-0.3,0.1-0.3,0.2c0,0.1-0.1,0.3-0.1,0.4v3.5c0,0.2,0,0.3,0.1,0.5
	c0.1,0.1,0.2,0.2,0.3,0.2c0.2,0,0.3-0.1,0.3-0.2c0-0.1,0-0.3,0-0.4v-1h1.3v0.9c0,0.5-0.1,1.1-0.5,1.5c-0.3,0.4-0.8,0.6-1.3,0.6
	c-0.5,0-1-0.2-1.3-0.5C73.3,51.2,73.1,50.6,73.1,50.1z"/>
<radialGradient id="SVGID_3_" cx="28.32" cy="42.8256" r="2.76" gradientTransform="matrix(1 0 0 -1 0 91.2756)" gradientUnits="userSpaceOnUse">
	<stop  offset="0.14" style="stop-color:#FDCD07"/>
	<stop  offset="1" style="stop-color:#F4CE35"/>
</radialGradient>
<path class="st3" d="M26.8,46.2v-1.4h3.1v1.4H29V52h-1.4v-5.8H26.8z"/>
<radialGradient id="SVGID_4_" cx="32.19" cy="42.8256" r="2.82" gradientTransform="matrix(1 0 0 -1 0 91.2756)" gradientUnits="userSpaceOnUse">
	<stop  offset="0.14" style="stop-color:#FDCD07"/>
	<stop  offset="1" style="stop-color:#F4CE35"/>
</radialGradient>
<path class="st4" d="M30.4,52v-7.1h1.4v2.7h0.8v-2.7h1.4V52h-1.4v-3h-0.8v3H30.4z"/>
<radialGradient id="SVGID_5_" cx="36.47" cy="42.7746" r="2.8606" gradientTransform="matrix(1 0 0 -1 0 91.2756)" gradientUnits="userSpaceOnUse">
	<stop  offset="0.14" style="stop-color:#FDCD07"/>
	<stop  offset="1" style="stop-color:#F4CE35"/>
</radialGradient>
<path class="st5" d="M34.7,50.1v-5.2h1.4v5.2c0,0.2,0,0.4,0,0.5c0,0.1,0.2,0.2,0.3,0.2c0.1,0,0.2,0,0.3-0.1c0.1-0.2,0.1-0.4,0.1-0.6
	v-5.2h1.4v5.2c0,0.5-0.1,1.1-0.5,1.5c-0.3,0.4-0.8,0.6-1.3,0.6c-0.5,0-1-0.2-1.3-0.5C34.9,51.2,34.7,50.6,34.7,50.1z"/>
<radialGradient id="SVGID_6_" cx="40.87" cy="44.0756" r="3.66" gradientTransform="matrix(1 0 0 -1 0 91.2756)" gradientUnits="userSpaceOnUse">
	<stop  offset="0.14" style="stop-color:#FDCD07"/>
	<stop  offset="1" style="stop-color:#F4CE35"/>
</radialGradient>
<path class="st6" d="M39,44.8h3v1.4h-1.7v1.4h1.5V49h-1.5v1.6h1.7V52H39V44.8z M39.5,44.4l0.6-1.2h1l0.5,1.2h-0.8l-0.3-0.7l-0.4,0.7
	H39.5z M41.7,42.4h1L42,43.5h-0.6L41.7,42.4z"/>
<radialGradient id="SVGID_7_" cx="46.82" cy="42.8306" r="2.8857" gradientTransform="matrix(1 0 0 -1 0 91.2756)" gradientUnits="userSpaceOnUse">
	<stop  offset="0.14" style="stop-color:#FDCD07"/>
	<stop  offset="1" style="stop-color:#F4CE35"/>
</radialGradient>
<path class="st7" d="M44.9,52v-7.1h1.5l1.1,4.2v-4.2h1.3V52h-1.5l-1.1-4.4V52L44.9,52z"/>
<radialGradient id="SVGID_8_" cx="51.3" cy="42.8256" r="2.82" gradientTransform="matrix(1 0 0 -1 0 91.2756)" gradientUnits="userSpaceOnUse">
	<stop  offset="0.14" style="stop-color:#FDCD07"/>
	<stop  offset="1" style="stop-color:#F4CE35"/>
</radialGradient>
<path class="st8" d="M49.5,52v-7.1h1.4v2.7h0.8v-2.7H53V52h-1.4v-3h-0.8v3H49.5z"/>
<radialGradient id="SVGID_9_" cx="55.58" cy="43.6556" r="3.427" gradientTransform="matrix(1 0 0 -1 0 91.2756)" gradientUnits="userSpaceOnUse">
	<stop  offset="0.14" style="stop-color:#FDCD07"/>
	<stop  offset="1" style="stop-color:#F4CE35"/>
</radialGradient>
<path class="st9" d="M54.7,44.8h1.8l1.1,7.2h-1.4L56,50.8h-1L54.9,52h-1.4L54.7,44.8z M55.7,43.2l0.3,1.2h-0.7l-0.8-1.2H55.7z
	 M55.2,49.5h0.7L55.6,46L55.2,49.5z"/>
<radialGradient id="SVGID_10_" cx="62.07" cy="42.8256" r="2.89" gradientTransform="matrix(1 0 0 -1 0 91.2756)" gradientUnits="userSpaceOnUse">
	<stop  offset="0.14" style="stop-color:#FDCD07"/>
	<stop  offset="1" style="stop-color:#F4CE35"/>
</radialGradient>
<path class="st10" d="M60.1,52v-7.1h1.5l1.1,4.2v-4.2H64V52h-1.5l-1.1-4.4V52H60.1z"/>
<radialGradient id="SVGID_11_" cx="66.96" cy="43.1772" r="3.2383" gradientTransform="matrix(1 0 0 -1 0 91.2756)" gradientUnits="userSpaceOnUse">
	<stop  offset="0.14" style="stop-color:#FDCD07"/>
	<stop  offset="1" style="stop-color:#F4CE35"/>
</radialGradient>
<path class="st11" d="M68.1,44.1h1v1.2l-0.5,0.6h-0.3v4.2c0,0.5-0.1,1.1-0.5,1.5c-0.7,0.7-1.8,0.7-2.5,0.1c0,0-0.1-0.1-0.1-0.1
	c-0.3-0.4-0.5-1-0.5-1.5v-5.2h1.4v5.2c0,0.2,0,0.4,0.1,0.5c0,0.1,0.2,0.2,0.3,0.2c0.1,0,0.2,0,0.3-0.1c0.1-0.2,0.1-0.4,0.1-0.6v-5.2
	h1.2L68.1,44.1z"/>
<radialGradient id="SVGID_12_" cx="70.98" cy="43.6026" r="3.4254" gradientTransform="matrix(1 0 0 -1 0 91.2756)" gradientUnits="userSpaceOnUse">
	<stop  offset="0.14" style="stop-color:#FDCD07"/>
	<stop  offset="1" style="stop-color:#F4CE35"/>
</radialGradient>
<path class="st12" d="M72.4,45.8c0.1,0.3,0.2,0.7,0.2,1v3.3c0,0.5-0.1,1.1-0.5,1.5c-0.7,0.7-1.8,0.7-2.5,0.1c0,0-0.1-0.1-0.1-0.1
	c-0.3-0.4-0.5-1-0.5-1.5v-3.2c0-0.6,0.1-1.1,0.5-1.6c0.3-0.3,0.8-0.5,1.3-0.5c0.4,0,0.7,0.1,1,0.3v-1h1v1.2L72.4,45.8z M70.7,43.2
	h1.1l-0.8,1.2h-0.7L70.7,43.2z M70.4,50.2c0,0.2,0,0.3,0.1,0.5c0.1,0.1,0.2,0.2,0.3,0.2c0.2,0,0.3-0.1,0.3-0.2c0-0.1,0-0.3,0-0.4
	v-3.5c0-0.1,0-0.3,0-0.4c0-0.1-0.2-0.2-0.3-0.2c-0.2,0-0.3,0.1-0.3,0.2c0,0.1,0,0.3,0,0.4L70.4,50.2z"/>
<radialGradient id="SVGID_13_" cx="75.11" cy="42.8256" r="2.89" gradientTransform="matrix(1 0 0 -1 0 91.2756)" gradientUnits="userSpaceOnUse">
	<stop  offset="0.14" style="stop-color:#FDCD07"/>
	<stop  offset="1" style="stop-color:#F4CE35"/>
</radialGradient>
<path class="st13" d="M73.4,50.1v-3.2c0-0.6,0.1-1.1,0.5-1.6c0.3-0.3,0.8-0.5,1.3-0.5c0.5,0,0.9,0.2,1.3,0.5c0.3,0.4,0.5,1,0.5,1.5
	v0.7h-1.4v-0.8c0-0.1,0-0.3,0-0.4c0-0.2-0.2-0.3-0.3-0.2c-0.2,0-0.3,0.1-0.3,0.2c0,0.1,0,0.3,0,0.4v3.5c0,0.2,0,0.3,0.1,0.5
	c0.1,0.1,0.2,0.2,0.3,0.2c0.2,0,0.3-0.1,0.3-0.2c0-0.1,0-0.3,0-0.4v-1h1.4v0.9c0,0.5-0.1,1.1-0.5,1.5c-0.3,0.4-0.8,0.6-1.3,0.6
	c-0.5,0-1-0.2-1.3-0.5C73.5,51.2,73.3,50.6,73.4,50.1z"/>
<radialGradient id="SVGID_14_" cx="51.43" cy="65.9556" r="14.1" gradientTransform="matrix(1 0 0 -1 0 91.2756)" gradientUnits="userSpaceOnUse">
	<stop  offset="0" style="stop-color:#F6EA89"/>
	<stop  offset="0.31" style="stop-color:#F9C122"/>
	<stop  offset="0.69" style="stop-color:#F6C911"/>
	<stop  offset="1" style="stop-color:#F6B11B"/>
</radialGradient>
<path class="st14" d="M46.5,26.5l-3,9.2l7.8-5.7l7.8,5.7l-3-9.2l7.9-5.7h-9.7l-3-9.2l-3,9.2h-9.6L46.5,26.5z M50.3,24
	c-0.1,0.1-0.1,0.2-0.2,0.3l-9.9-3.2h8L50.3,24z M54,20.8l-2,2.8c-0.1-0.1-0.3-0.1-0.5-0.1V13.2L54,20.8z M56.1,26.2l-3.4-1.1
	c0-0.1,0-0.3,0-0.4l9.8-3.2L56.1,26.2z M51.5,29.9v-3.8c0.1,0,0.2,0,0.2,0l6.2,8.5L51.5,29.9z M46.7,26.7l3.6-1.2
	c0,0.1,0.1,0.1,0.2,0.2l-6.2,8.6L46.7,26.7z"/>
<radialGradient id="SVGID_15_" cx="50.52" cy="9.4156" r="17.76" gradientTransform="matrix(1 0 0 -1 0 91.2756)" gradientUnits="userSpaceOnUse">
	<stop  offset="0" style="stop-color:#F6EA89"/>
	<stop  offset="0.31" style="stop-color:#F9C122"/>
	<stop  offset="0.69" style="stop-color:#F6C911"/>
	<stop  offset="1" style="stop-color:#F6B11B"/>
</radialGradient>
<path class="st15" d="M72.2,72.9l-2.8,1.3c-0.9-1.6-2-3-3.3-4.3l1.7-2.8l-4.8-3.6L60.8,66c-1.8-0.9-3.7-1.5-5.6-1.9l-0.5-3.5h-5.9
	L48.4,64c-1.9,0.3-3.8,0.9-5.5,1.7l-2.5-2.4L35.7,67l1.7,2.7c-1.4,1.3-2.5,2.8-3.4,4.5l-2.8-1.3L29.9,75c2.4,1.7,5,3.1,7.8,4.2
	c2.5-7.7,10.8-12,18.5-9.5c4.3,1.4,7.7,4.7,9.3,8.9c2.7-1.2,5.2-2.7,7.5-4.4L72.2,72.9z"/>
<radialGradient id="SVGID_16_" cx="59.75" cy="-1.6744" r="31.44" gradientTransform="matrix(1 0 0 -1 0 91.2756)" gradientUnits="userSpaceOnUse">
	<stop  offset="0" style="stop-color:#F7F2BB"/>
	<stop  offset="0.72" style="stop-color:#FDCD07"/>
	<stop  offset="1" style="stop-color:#F4CE35"/>
</radialGradient>
<path class="st16" d="M31.8,70.3c0,0-1.8-1.8,1.1-4.8C32.9,65.5,33.9,70.1,31.8,70.3z"/>
<radialGradient id="SVGID_17_" cx="59.75" cy="-1.6744" r="31.44" gradientTransform="matrix(1 0 0 -1 0 91.2756)" gradientUnits="userSpaceOnUse">
	<stop  offset="0" style="stop-color:#F7F2BB"/>
	<stop  offset="0.72" style="stop-color:#FDCD07"/>
	<stop  offset="1" style="stop-color:#F4CE35"/>
</radialGradient>
<path class="st17" d="M31.9,70.3c0,0-0.9,2.2-4.7,0.6C27.1,70.9,30.8,68.5,31.9,70.3z"/>
<radialGradient id="SVGID_18_" cx="59.75" cy="-1.6744" r="31.44" gradientTransform="matrix(1 0 0 -1 0 91.2756)" gradientUnits="userSpaceOnUse">
	<stop  offset="0" style="stop-color:#F7F2BB"/>
	<stop  offset="0.72" style="stop-color:#FDCD07"/>
	<stop  offset="1" style="stop-color:#F4CE35"/>
</radialGradient>
<path class="st18" d="M29,67.9c0,0-1.4,2-4.8-0.5C24.2,67.3,28.4,65.9,29,67.9z"/>
<radialGradient id="SVGID_19_" cx="59.75" cy="-1.6744" r="31.44" gradientTransform="matrix(1 0 0 -1 0 91.2756)" gradientUnits="userSpaceOnUse">
	<stop  offset="0" style="stop-color:#F7F2BB"/>
	<stop  offset="0.72" style="stop-color:#FDCD07"/>
	<stop  offset="1" style="stop-color:#F4CE35"/>
</radialGradient>
<path class="st19" d="M26.8,65.1c0,0-1.5,1.9-4.8-0.9C22,64.2,26.3,63.1,26.8,65.1z"/>
<radialGradient id="SVGID_20_" cx="59.75" cy="-1.6744" r="31.44" gradientTransform="matrix(1 0 0 -1 0 91.2756)" gradientUnits="userSpaceOnUse">
	<stop  offset="0" style="stop-color:#F7F2BB"/>
	<stop  offset="0.72" style="stop-color:#FDCD07"/>
	<stop  offset="1" style="stop-color:#F4CE35"/>
</radialGradient>
<path class="st20" d="M24.5,61.7c0,0-1.5,1.7-4.8-1.2C19.7,60.5,24,59.6,24.5,61.7z"/>
<radialGradient id="SVGID_21_" cx="59.75" cy="-1.6744" r="31.44" gradientTransform="matrix(1 0 0 -1 0 91.2756)" gradientUnits="userSpaceOnUse">
	<stop  offset="0" style="stop-color:#F7F2BB"/>
	<stop  offset="0.72" style="stop-color:#FDCD07"/>
	<stop  offset="1" style="stop-color:#F4CE35"/>
</radialGradient>
<path class="st21" d="M23.3,58.8c0,0-1.7,1.5-4.9-1.6C18.4,57.2,22.9,56.8,23.3,58.8z"/>
<radialGradient id="SVGID_22_" cx="59.75" cy="-1.6744" r="31.44" gradientTransform="matrix(1 0 0 -1 0 91.2756)" gradientUnits="userSpaceOnUse">
	<stop  offset="0" style="stop-color:#F7F2BB"/>
	<stop  offset="0.72" style="stop-color:#FDCD07"/>
	<stop  offset="1" style="stop-color:#F4CE35"/>
</radialGradient>
<path class="st22" d="M21.7,55.5c0,0-2.1,1-4.3-2.9C17.4,52.5,21.9,53.4,21.7,55.5z"/>
<radialGradient id="SVGID_23_" cx="59.75" cy="-1.6744" r="31.44" gradientTransform="matrix(1 0 0 -1 0 91.2756)" gradientUnits="userSpaceOnUse">
	<stop  offset="0" style="stop-color:#F7F2BB"/>
	<stop  offset="0.72" style="stop-color:#FDCD07"/>
	<stop  offset="1" style="stop-color:#F4CE35"/>
</radialGradient>
<path class="st23" d="M20.5,51.5c0,0-2.3,0.8-3.9-3.6C16.6,47.9,21.1,49.4,20.5,51.5z"/>
<radialGradient id="SVGID_24_" cx="59.75" cy="-1.6744" r="31.44" gradientTransform="matrix(1 0 0 -1 0 91.2756)" gradientUnits="userSpaceOnUse">
	<stop  offset="0" style="stop-color:#F7F2BB"/>
	<stop  offset="0.72" style="stop-color:#FDCD07"/>
	<stop  offset="1" style="stop-color:#F4CE35"/>
</radialGradient>
<path class="st24" d="M20,47.3c0,0-2.4,0.4-3.3-4C16.7,43.2,20.2,44.7,20,47.3z"/>
<radialGradient id="SVGID_25_" cx="59.75" cy="-1.6744" r="31.44" gradientTransform="matrix(1 0 0 -1 0 91.2756)" gradientUnits="userSpaceOnUse">
	<stop  offset="0" style="stop-color:#F7F2BB"/>
	<stop  offset="0.72" style="stop-color:#FDCD07"/>
	<stop  offset="1" style="stop-color:#F4CE35"/>
</radialGradient>
<path class="st25" d="M20,43.8c0,0-2.4-0.4-2.2-4.8C17.8,38.9,20.9,41.5,20,43.8z"/>
<radialGradient id="SVGID_26_" cx="59.75" cy="-1.6744" r="31.44" gradientTransform="matrix(1 0 0 -1 0 91.2756)" gradientUnits="userSpaceOnUse">
	<stop  offset="0" style="stop-color:#F7F2BB"/>
	<stop  offset="0.72" style="stop-color:#FDCD07"/>
	<stop  offset="1" style="stop-color:#F4CE35"/>
</radialGradient>
<path class="st26" d="M20.7,39.8c0,0-2.4-0.6-1.9-5C18.8,34.8,21.8,37.5,20.7,39.8z"/>
<radialGradient id="SVGID_27_" cx="59.75" cy="-1.6744" r="31.44" gradientTransform="matrix(1 0 0 -1 0 91.2756)" gradientUnits="userSpaceOnUse">
	<stop  offset="0" style="stop-color:#F7F2BB"/>
	<stop  offset="0.72" style="stop-color:#FDCD07"/>
	<stop  offset="1" style="stop-color:#F4CE35"/>
</radialGradient>
<path class="st27" d="M21.9,36.5c0,0-2.5-1-1.4-5.6C20.5,30.9,23.3,34.3,21.9,36.5z"/>
<radialGradient id="SVGID_28_" cx="59.75" cy="-1.6744" r="31.44" gradientTransform="matrix(1 0 0 -1 0 91.2756)" gradientUnits="userSpaceOnUse">
	<stop  offset="0" style="stop-color:#F7F2BB"/>
	<stop  offset="0.72" style="stop-color:#FDCD07"/>
	<stop  offset="1" style="stop-color:#F4CE35"/>
</radialGradient>
<path class="st28" d="M23.4,33.4c0,0-2.3-1.5-0.4-5.7C23,27.7,25.2,31.6,23.4,33.4z"/>
<radialGradient id="SVGID_29_" cx="59.75" cy="-1.6744" r="31.44" gradientTransform="matrix(1 0 0 -1 0 91.2756)" gradientUnits="userSpaceOnUse">
	<stop  offset="0" style="stop-color:#F7F2BB"/>
	<stop  offset="0.72" style="stop-color:#FDCD07"/>
	<stop  offset="1" style="stop-color:#F4CE35"/>
</radialGradient>
<path class="st29" d="M25.1,30.5c0,0-1.9-1.8,0.5-5.2C25.6,25.3,27,29.2,25.1,30.5z"/>
<radialGradient id="SVGID_30_" cx="59.75" cy="-1.6744" r="31.44" gradientTransform="matrix(1 0 0 -1 0 91.2756)" gradientUnits="userSpaceOnUse">
	<stop  offset="0" style="stop-color:#F7F2BB"/>
	<stop  offset="0.72" style="stop-color:#FDCD07"/>
	<stop  offset="1" style="stop-color:#F4CE35"/>
</radialGradient>
<path class="st30" d="M27.1,27.7c0,0-1.5-2.3,1.6-4.8C28.7,22.9,29.2,27,27.1,27.7z"/>
<radialGradient id="SVGID_31_" cx="59.75" cy="-1.6744" r="31.44" gradientTransform="matrix(1 0 0 -1 0 91.2756)" gradientUnits="userSpaceOnUse">
	<stop  offset="0" style="stop-color:#F7F2BB"/>
	<stop  offset="0.72" style="stop-color:#FDCD07"/>
	<stop  offset="1" style="stop-color:#F4CE35"/>
</radialGradient>
<path class="st31" d="M28.9,67.8c0,0-1.8-1.8,1.2-4.5C30.1,63.3,31,67.8,28.9,67.8z"/>
<radialGradient id="SVGID_32_" cx="59.75" cy="-1.6744" r="31.44" gradientTransform="matrix(1 0 0 -1 0 91.2756)" gradientUnits="userSpaceOnUse">
	<stop  offset="0" style="stop-color:#F7F2BB"/>
	<stop  offset="0.72" style="stop-color:#FDCD07"/>
	<stop  offset="1" style="stop-color:#F4CE35"/>
</radialGradient>
<path class="st32" d="M26.8,65.2c0,0-1.7-1.9,1.3-4.4C28,60.8,28.9,65.1,26.8,65.2z"/>
<radialGradient id="SVGID_33_" cx="59.75" cy="-1.6744" r="31.44" gradientTransform="matrix(1 0 0 -1 0 91.2756)" gradientUnits="userSpaceOnUse">
	<stop  offset="0" style="stop-color:#F7F2BB"/>
	<stop  offset="0.72" style="stop-color:#FDCD07"/>
	<stop  offset="1" style="stop-color:#F4CE35"/>
</radialGradient>
<path class="st33" d="M24.5,61.7c0,0-1.5-2.2,1.8-4.1C26.4,57.5,26.6,62,24.5,61.7z"/>
<radialGradient id="SVGID_34_" cx="59.75" cy="-1.6744" r="31.44" gradientTransform="matrix(1 0 0 -1 0 91.2756)" gradientUnits="userSpaceOnUse">
	<stop  offset="0" style="stop-color:#F7F2BB"/>
	<stop  offset="0.72" style="stop-color:#FDCD07"/>
	<stop  offset="1" style="stop-color:#F4CE35"/>
</radialGradient>
<path class="st34" d="M23.3,58.8c0,0-1.7-2.1,1.4-4.2C24.7,54.6,25.3,59.1,23.3,58.8z"/>
<radialGradient id="SVGID_35_" cx="59.75" cy="-1.6744" r="31.44" gradientTransform="matrix(1 0 0 -1 0 91.2756)" gradientUnits="userSpaceOnUse">
	<stop  offset="0" style="stop-color:#F7F2BB"/>
	<stop  offset="0.72" style="stop-color:#FDCD07"/>
	<stop  offset="1" style="stop-color:#F4CE35"/>
</radialGradient>
<path class="st35" d="M21.7,55.5c0,0-1.3-2.4,2.1-3.8C23.8,51.6,23.7,56.2,21.7,55.5z"/>
<radialGradient id="SVGID_36_" cx="59.75" cy="-1.6744" r="31.44" gradientTransform="matrix(1 0 0 -1 0 91.2756)" gradientUnits="userSpaceOnUse">
	<stop  offset="0" style="stop-color:#F7F2BB"/>
	<stop  offset="0.72" style="stop-color:#FDCD07"/>
	<stop  offset="1" style="stop-color:#F4CE35"/>
</radialGradient>
<path class="st36" d="M20.4,51.5c0,0-0.6-2.7,3-3C23.5,48.5,22.2,52.8,20.4,51.5z"/>
<radialGradient id="SVGID_37_" cx="59.75" cy="-1.6744" r="31.44" gradientTransform="matrix(1 0 0 -1 0 91.2756)" gradientUnits="userSpaceOnUse">
	<stop  offset="0" style="stop-color:#F7F2BB"/>
	<stop  offset="0.72" style="stop-color:#FDCD07"/>
	<stop  offset="1" style="stop-color:#F4CE35"/>
</radialGradient>
<path class="st37" d="M19.9,47.3c0,0,0.1-2.9,4.2-2.5C24.1,44.8,21.5,48.9,19.9,47.3z"/>
<radialGradient id="SVGID_38_" cx="59.75" cy="-1.6744" r="31.44" gradientTransform="matrix(1 0 0 -1 0 91.2756)" gradientUnits="userSpaceOnUse">
	<stop  offset="0" style="stop-color:#F7F2BB"/>
	<stop  offset="0.72" style="stop-color:#FDCD07"/>
	<stop  offset="1" style="stop-color:#F4CE35"/>
</radialGradient>
<path class="st38" d="M19.9,43.7c0,0,0.5-2.9,4.5-1.9C24.4,41.8,21.2,45.6,19.9,43.7z"/>
<radialGradient id="SVGID_39_" cx="59.75" cy="-1.6744" r="31.44" gradientTransform="matrix(1 0 0 -1 0 91.2756)" gradientUnits="userSpaceOnUse">
	<stop  offset="0" style="stop-color:#F7F2BB"/>
	<stop  offset="0.72" style="stop-color:#FDCD07"/>
	<stop  offset="1" style="stop-color:#F4CE35"/>
</radialGradient>
<path class="st39" d="M20.7,39.7c0,0,0.7-2.6,4.1-1C24.8,38.7,21.7,41.7,20.7,39.7z"/>
<radialGradient id="SVGID_40_" cx="59.75" cy="-1.6744" r="31.44" gradientTransform="matrix(1 0 0 -1 0 91.2756)" gradientUnits="userSpaceOnUse">
	<stop  offset="0" style="stop-color:#F7F2BB"/>
	<stop  offset="0.72" style="stop-color:#FDCD07"/>
	<stop  offset="1" style="stop-color:#F4CE35"/>
</radialGradient>
<path class="st40" d="M21.8,36.4c0,0,0.8-2.6,4.2-0.5C26,35.8,22.7,38.5,21.8,36.4z"/>
<radialGradient id="SVGID_41_" cx="59.75" cy="-1.6744" r="31.44" gradientTransform="matrix(1 0 0 -1 0 91.2756)" gradientUnits="userSpaceOnUse">
	<stop  offset="0" style="stop-color:#F7F2BB"/>
	<stop  offset="0.72" style="stop-color:#FDCD07"/>
	<stop  offset="1" style="stop-color:#F4CE35"/>
</radialGradient>
<path class="st41" d="M23.3,33.3c0,0,1.2-2.5,4.8-0.3C28.1,33,24.1,35.4,23.3,33.3z"/>
<radialGradient id="SVGID_42_" cx="59.75" cy="-1.6744" r="31.44" gradientTransform="matrix(1 0 0 -1 0 91.2756)" gradientUnits="userSpaceOnUse">
	<stop  offset="0" style="stop-color:#F7F2BB"/>
	<stop  offset="0.72" style="stop-color:#FDCD07"/>
	<stop  offset="1" style="stop-color:#F4CE35"/>
</radialGradient>
<path class="st42" d="M25,30.5c0,0,1.2-2.5,4.8-0.2C29.8,30.2,25.8,32.6,25,30.5z"/>
<radialGradient id="SVGID_43_" cx="59.75" cy="-1.6744" r="31.44" gradientTransform="matrix(1 0 0 -1 0 91.2756)" gradientUnits="userSpaceOnUse">
	<stop  offset="0" style="stop-color:#F7F2BB"/>
	<stop  offset="0.72" style="stop-color:#FDCD07"/>
	<stop  offset="1" style="stop-color:#F4CE35"/>
</radialGradient>
<path class="st43" d="M27.1,27.7c0,0,1.3-2.4,4.8,0C31.9,27.7,27.8,29.9,27.1,27.7z"/>
<radialGradient id="SVGID_44_" cx="59.75" cy="-1.6744" r="31.44" gradientTransform="matrix(1 0 0 -1 0 91.2756)" gradientUnits="userSpaceOnUse">
	<stop  offset="0" style="stop-color:#F7F2BB"/>
	<stop  offset="0.72" style="stop-color:#FDCD07"/>
	<stop  offset="1" style="stop-color:#F4CE35"/>
</radialGradient>
<path class="st44" d="M29.3,25.7c0,0,0.7-4.4,6.1-3.3C35.4,22.4,32.9,26.8,29.3,25.7z"/>
<radialGradient id="SVGID_45_" cx="59.75" cy="-1.6744" r="31.44" gradientTransform="matrix(1 0 0 -1 0 91.2756)" gradientUnits="userSpaceOnUse">
	<stop  offset="0" style="stop-color:#F7F2BB"/>
	<stop  offset="0.72" style="stop-color:#FDCD07"/>
	<stop  offset="1" style="stop-color:#F4CE35"/>
</radialGradient>
<path class="st45" d="M70.5,70c0,0,1.8-1.8-1.1-4.8C69.4,65.1,68.4,69.7,70.5,70z"/>
<radialGradient id="SVGID_46_" cx="59.75" cy="-1.6744" r="31.44" gradientTransform="matrix(1 0 0 -1 0 91.2756)" gradientUnits="userSpaceOnUse">
	<stop  offset="0" style="stop-color:#F7F2BB"/>
	<stop  offset="0.72" style="stop-color:#FDCD07"/>
	<stop  offset="1" style="stop-color:#F4CE35"/>
</radialGradient>
<path class="st46" d="M70.4,69.9c0,0,0.9,2.2,4.8,0.6C75.2,70.5,71.5,68.1,70.4,69.9z"/>
<radialGradient id="SVGID_47_" cx="59.75" cy="-1.6744" r="31.44" gradientTransform="matrix(1 0 0 -1 0 91.2756)" gradientUnits="userSpaceOnUse">
	<stop  offset="0" style="stop-color:#F7F2BB"/>
	<stop  offset="0.72" style="stop-color:#FDCD07"/>
	<stop  offset="1" style="stop-color:#F4CE35"/>
</radialGradient>
<path class="st47" d="M73.3,67.5c0,0,1.3,2,4.8-0.5C78.1,67,73.9,65.5,73.3,67.5z"/>
<radialGradient id="SVGID_48_" cx="59.75" cy="-1.6744" r="31.44" gradientTransform="matrix(1 0 0 -1 0 91.2756)" gradientUnits="userSpaceOnUse">
	<stop  offset="0" style="stop-color:#F7F2BB"/>
	<stop  offset="0.72" style="stop-color:#FDCD07"/>
	<stop  offset="1" style="stop-color:#F4CE35"/>
</radialGradient>
<path class="st48" d="M75.5,64.8c0,0,1.5,1.8,4.8-0.9C80.3,63.8,76,62.7,75.5,64.8z"/>
<radialGradient id="SVGID_49_" cx="59.75" cy="-1.6744" r="31.44" gradientTransform="matrix(1 0 0 -1 0 91.2756)" gradientUnits="userSpaceOnUse">
	<stop  offset="0" style="stop-color:#F7F2BB"/>
	<stop  offset="0.72" style="stop-color:#FDCD07"/>
	<stop  offset="1" style="stop-color:#F4CE35"/>
</radialGradient>
<path class="st49" d="M77.8,61.3c0,0,1.6,1.7,4.8-1.2C82.6,60.1,78.3,59.3,77.8,61.3z"/>
<radialGradient id="SVGID_50_" cx="59.75" cy="-1.6744" r="31.44" gradientTransform="matrix(1 0 0 -1 0 91.2756)" gradientUnits="userSpaceOnUse">
	<stop  offset="0" style="stop-color:#F7F2BB"/>
	<stop  offset="0.72" style="stop-color:#FDCD07"/>
	<stop  offset="1" style="stop-color:#F4CE35"/>
</radialGradient>
<path class="st50" d="M79,58.5c0,0,1.7,1.5,4.8-1.6C83.9,56.9,79.4,56.5,79,58.5z"/>
<radialGradient id="SVGID_51_" cx="59.75" cy="-1.6744" r="31.44" gradientTransform="matrix(1 0 0 -1 0 91.2756)" gradientUnits="userSpaceOnUse">
	<stop  offset="0" style="stop-color:#F7F2BB"/>
	<stop  offset="0.72" style="stop-color:#FDCD07"/>
	<stop  offset="1" style="stop-color:#F4CE35"/>
</radialGradient>
<path class="st51" d="M80.6,55.1c0,0,2.1,1,4.3-2.9C84.9,52.2,80.4,53.1,80.6,55.1z"/>
<radialGradient id="SVGID_52_" cx="59.75" cy="-1.6744" r="31.44" gradientTransform="matrix(1 0 0 -1 0 91.2756)" gradientUnits="userSpaceOnUse">
	<stop  offset="0" style="stop-color:#F7F2BB"/>
	<stop  offset="0.72" style="stop-color:#FDCD07"/>
	<stop  offset="1" style="stop-color:#F4CE35"/>
</radialGradient>
<path class="st52" d="M81.8,51.2c0,0,2.3,0.8,3.8-3.6C85.7,47.5,81.2,49,81.8,51.2z"/>
<radialGradient id="SVGID_53_" cx="59.75" cy="-1.6744" r="31.44" gradientTransform="matrix(1 0 0 -1 0 91.2756)" gradientUnits="userSpaceOnUse">
	<stop  offset="0" style="stop-color:#F7F2BB"/>
	<stop  offset="0.72" style="stop-color:#FDCD07"/>
	<stop  offset="1" style="stop-color:#F4CE35"/>
</radialGradient>
<path class="st53" d="M82.3,46.9c0,0,2.4,0.4,3.3-4C85.6,42.9,82.1,44.3,82.3,46.9z"/>
<radialGradient id="SVGID_54_" cx="59.75" cy="-1.6744" r="31.44" gradientTransform="matrix(1 0 0 -1 0 91.2756)" gradientUnits="userSpaceOnUse">
	<stop  offset="0" style="stop-color:#F7F2BB"/>
	<stop  offset="0.72" style="stop-color:#FDCD07"/>
	<stop  offset="1" style="stop-color:#F4CE35"/>
</radialGradient>
<path class="st54" d="M82.3,43.4c0,0,2.4-0.4,2.2-4.8C84.5,38.6,81.4,41.1,82.3,43.4z"/>
<radialGradient id="SVGID_55_" cx="59.75" cy="-1.6744" r="31.44" gradientTransform="matrix(1 0 0 -1 0 91.2756)" gradientUnits="userSpaceOnUse">
	<stop  offset="0" style="stop-color:#F7F2BB"/>
	<stop  offset="0.72" style="stop-color:#FDCD07"/>
	<stop  offset="1" style="stop-color:#F4CE35"/>
</radialGradient>
<path class="st55" d="M81.6,39.4c0,0,2.4-0.6,1.9-5C83.5,34.4,80.5,37.2,81.6,39.4z"/>
<radialGradient id="SVGID_56_" cx="59.75" cy="-1.6744" r="31.44" gradientTransform="matrix(1 0 0 -1 0 91.2756)" gradientUnits="userSpaceOnUse">
	<stop  offset="0" style="stop-color:#F7F2BB"/>
	<stop  offset="0.72" style="stop-color:#FDCD07"/>
	<stop  offset="1" style="stop-color:#F4CE35"/>
</radialGradient>
<path class="st56" d="M80.4,36.1c0,0,2.5-1,1.4-5.6C81.8,30.5,79,34,80.4,36.1z"/>
<radialGradient id="SVGID_57_" cx="59.75" cy="-1.6744" r="31.44" gradientTransform="matrix(1 0 0 -1 0 91.2756)" gradientUnits="userSpaceOnUse">
	<stop  offset="0" style="stop-color:#F7F2BB"/>
	<stop  offset="0.72" style="stop-color:#FDCD07"/>
	<stop  offset="1" style="stop-color:#F4CE35"/>
</radialGradient>
<path class="st57" d="M78.9,33c0,0,2.3-1.5,0.4-5.7C79.3,27.3,77.1,31.2,78.9,33z"/>
<radialGradient id="SVGID_58_" cx="59.75" cy="-1.6744" r="31.44" gradientTransform="matrix(1 0 0 -1 0 91.2756)" gradientUnits="userSpaceOnUse">
	<stop  offset="0" style="stop-color:#F7F2BB"/>
	<stop  offset="0.72" style="stop-color:#FDCD07"/>
	<stop  offset="1" style="stop-color:#F4CE35"/>
</radialGradient>
<path class="st58" d="M77.2,30.2c0,0,1.9-1.8-0.5-5.2C76.7,24.9,75.3,28.8,77.2,30.2z"/>
<radialGradient id="SVGID_59_" cx="59.75" cy="-1.6744" r="31.44" gradientTransform="matrix(1 0 0 -1 0 91.2756)" gradientUnits="userSpaceOnUse">
	<stop  offset="0" style="stop-color:#F7F2BB"/>
	<stop  offset="0.72" style="stop-color:#FDCD07"/>
	<stop  offset="1" style="stop-color:#F4CE35"/>
</radialGradient>
<path class="st59" d="M75.2,27.3c0,0,1.5-2.3-1.6-4.8C73.6,22.5,73,26.7,75.2,27.3z"/>
<radialGradient id="SVGID_60_" cx="59.75" cy="-1.6744" r="31.44" gradientTransform="matrix(1 0 0 -1 0 91.2756)" gradientUnits="userSpaceOnUse">
	<stop  offset="0" style="stop-color:#F7F2BB"/>
	<stop  offset="0.72" style="stop-color:#FDCD07"/>
	<stop  offset="1" style="stop-color:#F4CE35"/>
</radialGradient>
<path class="st60" d="M73.4,67.5c0,0,1.8-1.9-1.2-4.5C72.2,62.9,71.3,67.4,73.4,67.5z"/>
<radialGradient id="SVGID_61_" cx="59.75" cy="-1.6744" r="31.44" gradientTransform="matrix(1 0 0 -1 0 91.2756)" gradientUnits="userSpaceOnUse">
	<stop  offset="0" style="stop-color:#F7F2BB"/>
	<stop  offset="0.72" style="stop-color:#FDCD07"/>
	<stop  offset="1" style="stop-color:#F4CE35"/>
</radialGradient>
<path class="st61" d="M75.5,64.8c0,0,1.7-1.9-1.3-4.4C74.2,60.4,73.4,64.8,75.5,64.8z"/>
<radialGradient id="SVGID_62_" cx="59.75" cy="-1.6744" r="31.44" gradientTransform="matrix(1 0 0 -1 0 91.2756)" gradientUnits="userSpaceOnUse">
	<stop  offset="0" style="stop-color:#F7F2BB"/>
	<stop  offset="0.72" style="stop-color:#FDCD07"/>
	<stop  offset="1" style="stop-color:#F4CE35"/>
</radialGradient>
<path class="st62" d="M77.8,61.3c0,0,1.5-2.2-1.8-4.1C76,57.2,75.7,61.7,77.8,61.3z"/>
<radialGradient id="SVGID_63_" cx="59.75" cy="-1.6744" r="31.44" gradientTransform="matrix(1 0 0 -1 0 91.2756)" gradientUnits="userSpaceOnUse">
	<stop  offset="0" style="stop-color:#F7F2BB"/>
	<stop  offset="0.72" style="stop-color:#FDCD07"/>
	<stop  offset="1" style="stop-color:#F4CE35"/>
</radialGradient>
<path class="st63" d="M79,58.5c0,0,1.7-2.1-1.4-4.2C77.6,54.2,77,58.7,79,58.5z"/>
<radialGradient id="SVGID_64_" cx="59.75" cy="-1.6744" r="31.44" gradientTransform="matrix(1 0 0 -1 0 91.2756)" gradientUnits="userSpaceOnUse">
	<stop  offset="0" style="stop-color:#F7F2BB"/>
	<stop  offset="0.72" style="stop-color:#FDCD07"/>
	<stop  offset="1" style="stop-color:#F4CE35"/>
</radialGradient>
<path class="st64" d="M80.6,55.1c0,0,1.3-2.4-2.1-3.8C78.5,51.3,78.6,55.8,80.6,55.1z"/>
<radialGradient id="SVGID_65_" cx="59.75" cy="-1.6744" r="31.44" gradientTransform="matrix(1 0 0 -1 0 91.2756)" gradientUnits="userSpaceOnUse">
	<stop  offset="0" style="stop-color:#F7F2BB"/>
	<stop  offset="0.72" style="stop-color:#FDCD07"/>
	<stop  offset="1" style="stop-color:#F4CE35"/>
</radialGradient>
<path class="st65" d="M81.9,51.1c0,0,0.6-2.7-3-3C78.8,48.1,80.1,52.4,81.9,51.1z"/>
<radialGradient id="SVGID_66_" cx="59.75" cy="-1.6744" r="31.44" gradientTransform="matrix(1 0 0 -1 0 91.2756)" gradientUnits="userSpaceOnUse">
	<stop  offset="0" style="stop-color:#F7F2BB"/>
	<stop  offset="0.72" style="stop-color:#FDCD07"/>
	<stop  offset="1" style="stop-color:#F4CE35"/>
</radialGradient>
<path class="st66" d="M82.4,46.9c0,0-0.1-2.9-4.2-2.5C78.2,44.4,80.8,48.6,82.4,46.9z"/>
<radialGradient id="SVGID_67_" cx="59.75" cy="-1.6744" r="31.44" gradientTransform="matrix(1 0 0 -1 0 91.2756)" gradientUnits="userSpaceOnUse">
	<stop  offset="0" style="stop-color:#F7F2BB"/>
	<stop  offset="0.72" style="stop-color:#FDCD07"/>
	<stop  offset="1" style="stop-color:#F4CE35"/>
</radialGradient>
<path class="st67" d="M82.4,43.3c0,0-0.5-2.9-4.5-1.9C77.9,41.5,81.1,45.2,82.4,43.3z"/>
<radialGradient id="SVGID_68_" cx="59.75" cy="-1.6744" r="31.44" gradientTransform="matrix(1 0 0 -1 0 91.2756)" gradientUnits="userSpaceOnUse">
	<stop  offset="0" style="stop-color:#F7F2BB"/>
	<stop  offset="0.72" style="stop-color:#FDCD07"/>
	<stop  offset="1" style="stop-color:#F4CE35"/>
</radialGradient>
<path class="st68" d="M81.6,39.4c0,0-0.7-2.6-4.1-1C77.5,38.3,80.6,41.3,81.6,39.4z"/>
<radialGradient id="SVGID_69_" cx="59.75" cy="-1.6744" r="31.44" gradientTransform="matrix(1 0 0 -1 0 91.2756)" gradientUnits="userSpaceOnUse">
	<stop  offset="0" style="stop-color:#F7F2BB"/>
	<stop  offset="0.72" style="stop-color:#FDCD07"/>
	<stop  offset="1" style="stop-color:#F4CE35"/>
</radialGradient>
<path class="st69" d="M80.5,36c0,0-0.8-2.6-4.2-0.5C76.3,35.5,79.6,38.1,80.5,36z"/>
<radialGradient id="SVGID_70_" cx="59.75" cy="-1.6744" r="31.44" gradientTransform="matrix(1 0 0 -1 0 91.2756)" gradientUnits="userSpaceOnUse">
	<stop  offset="0" style="stop-color:#F7F2BB"/>
	<stop  offset="0.72" style="stop-color:#FDCD07"/>
	<stop  offset="1" style="stop-color:#F4CE35"/>
</radialGradient>
<path class="st70" d="M79,32.9c0,0-1.2-2.5-4.8-0.3C74.2,32.6,78.2,35.1,79,32.9z"/>
<radialGradient id="SVGID_71_" cx="59.75" cy="-1.6744" r="31.44" gradientTransform="matrix(1 0 0 -1 0 91.2756)" gradientUnits="userSpaceOnUse">
	<stop  offset="0" style="stop-color:#F7F2BB"/>
	<stop  offset="0.72" style="stop-color:#FDCD07"/>
	<stop  offset="1" style="stop-color:#F4CE35"/>
</radialGradient>
<path class="st71" d="M77.3,30.1c0,0-1.2-2.5-4.8-0.2C72.5,29.9,76.5,32.3,77.3,30.1z"/>
<radialGradient id="SVGID_72_" cx="59.75" cy="-1.6744" r="31.44" gradientTransform="matrix(1 0 0 -1 0 91.2756)" gradientUnits="userSpaceOnUse">
	<stop  offset="0" style="stop-color:#F7F2BB"/>
	<stop  offset="0.72" style="stop-color:#FDCD07"/>
	<stop  offset="1" style="stop-color:#F4CE35"/>
</radialGradient>
<path class="st72" d="M75.2,27.3c0,0-1.3-2.4-4.8,0C70.4,27.4,74.5,29.5,75.2,27.3z"/>
<radialGradient id="SVGID_73_" cx="59.75" cy="-1.6744" r="31.44" gradientTransform="matrix(1 0 0 -1 0 91.2756)" gradientUnits="userSpaceOnUse">
	<stop  offset="0" style="stop-color:#F7F2BB"/>
	<stop  offset="0.72" style="stop-color:#FDCD07"/>
	<stop  offset="1" style="stop-color:#F4CE35"/>
</radialGradient>
<path class="st73" d="M73,25.3c0,0-0.7-4.4-6.1-3.3C66.9,22.1,69.3,26.4,73,25.3z"/>
<line class="st74" x1="40.9" y1="14" x2="45.9" y2="18"/>
<linearGradient id="SVGID_74_" gradientUnits="userSpaceOnUse" x1="43.5319" y1="77.2454" x2="43.2419" y2="73.3554" gradientTransform="matrix(1 0 0 -1 0 91.2756)">
	<stop  offset="0" style="stop-color:#F6EA89"/>
	<stop  offset="0.31" style="stop-color:#F9C122"/>
	<stop  offset="0.69" style="stop-color:#F6C911"/>
	<stop  offset="1" style="stop-color:#F6B11B"/>
</linearGradient>
<path class="st75" d="M40.9,14c0.5,0.3,0.9,0.6,1.3,0.9c0.4,0.3,0.8,0.7,1.2,1l1.2,1l1.2,1.1l0,0l-1.3-1l-1.3-1
	c-0.4-0.3-0.9-0.6-1.3-1C41.6,14.7,41.2,14.4,40.9,14L40.9,14z"/>
<line class="st74" x1="61.8" y1="14" x2="56.4" y2="18.2"/>
<linearGradient id="SVGID_75_" gradientUnits="userSpaceOnUse" x1="59.295" y1="77.6252" x2="58.935" y2="72.7452" gradientTransform="matrix(1 0 0 -1 0 91.2756)">
	<stop  offset="0" style="stop-color:#F6EA89"/>
	<stop  offset="0.31" style="stop-color:#F9C122"/>
	<stop  offset="0.69" style="stop-color:#F6C911"/>
	<stop  offset="1" style="stop-color:#F6B11B"/>
</linearGradient>
<path class="st76" d="M61.9,14c-0.4,0.4-0.8,0.8-1.3,1.2c-0.4,0.4-0.9,0.7-1.4,1l-1.4,1l-1.4,1l0,0l1.3-1.1L59,16
	c0.5-0.4,0.9-0.8,1.3-1.1C60.8,14.5,61.3,14.2,61.9,14L61.9,14z"/>
<line class="st74" x1="65.2" y1="22.4" x2="60.1" y2="26.2"/>
<linearGradient id="SVGID_76_" gradientUnits="userSpaceOnUse" x1="62.8388" y1="69.1449" x2="62.5188" y2="64.8149" gradientTransform="matrix(1 0 0 -1 0 91.2756)">
	<stop  offset="0" style="stop-color:#F6EA89"/>
	<stop  offset="0.31" style="stop-color:#F9C122"/>
	<stop  offset="0.69" style="stop-color:#F6C911"/>
	<stop  offset="1" style="stop-color:#F6B11B"/>
</linearGradient>
<path class="st77" d="M65.2,22.4c-0.4,0.4-0.8,0.7-1.2,1c-0.4,0.3-0.9,0.6-1.3,0.9l-1.3,0.9l-1.3,0.9l0,0l1.2-1l1.2-1
	c0.4-0.3,0.8-0.7,1.3-1c0.4-0.3,0.9-0.6,1.4-0.8V22.4z"/>
<line class="st74" x1="66.6" y1="34" x2="61" y2="29.5"/>
<linearGradient id="SVGID_77_" gradientUnits="userSpaceOnUse" x1="63.9888" y1="61.6842" x2="63.6588" y2="57.3242" gradientTransform="matrix(1 0 0 -1 0 91.2756)">
	<stop  offset="0" style="stop-color:#F6EA89"/>
	<stop  offset="0.31" style="stop-color:#F9C122"/>
	<stop  offset="0.69" style="stop-color:#F6C911"/>
	<stop  offset="1" style="stop-color:#F6B11B"/>
</linearGradient>
<path class="st78" d="M66.6,34.1c-0.5-0.3-1-0.7-1.5-1s-0.9-0.8-1.4-1.2l-1.4-1.2L61,29.5l0,0l1.5,1.1l1.5,1.1
	c0.5,0.4,1,0.7,1.4,1.1C65.8,33.2,66.2,33.6,66.6,34.1L66.6,34.1z"/>
<line class="st74" x1="59.1" y1="38.8" x2="54.1" y2="33.8"/>
<linearGradient id="SVGID_78_" gradientUnits="userSpaceOnUse" x1="56.8111" y1="57.4255" x2="56.4411" y2="52.5255" gradientTransform="matrix(1 0 0 -1 0 91.2756)">
	<stop  offset="0" style="stop-color:#F6EA89"/>
	<stop  offset="0.31" style="stop-color:#F9C122"/>
	<stop  offset="0.69" style="stop-color:#F6C911"/>
	<stop  offset="1" style="stop-color:#F6B11B"/>
</linearGradient>
<path class="st79" d="M59.1,38.8c-0.5-0.4-0.9-0.7-1.3-1.2c-0.4-0.4-0.8-0.9-1.2-1.3l-1.2-1.3l-1.2-1.3l0,0l1.3,1.2l1.3,1.2
	c0.4,0.4,0.9,0.8,1.3,1.2C58.4,37.9,58.8,38.4,59.1,38.8L59.1,38.8z"/>
<line class="st74" x1="52.2" y1="41.9" x2="51.9" y2="35.3"/>
<linearGradient id="SVGID_79_" gradientUnits="userSpaceOnUse" x1="52.3741" y1="55.9915" x2="51.8841" y2="49.4115" gradientTransform="matrix(1 0 0 -1 0 91.2756)">
	<stop  offset="0" style="stop-color:#F6EA89"/>
	<stop  offset="0.31" style="stop-color:#F9C122"/>
	<stop  offset="0.69" style="stop-color:#F6C911"/>
	<stop  offset="1" style="stop-color:#F6B11B"/>
</linearGradient>
<path class="st80" d="M52.2,41.9c-0.1-0.5-0.1-1.1-0.2-1.6c0-0.5,0-1.1,0-1.7v-3.3l0,0l0.1,1.7l0.1,1.6c0,0.5,0.1,1.1,0.1,1.7
	C52.3,40.8,52.3,41.3,52.2,41.9L52.2,41.9z"/>
<line class="st74" x1="44.2" y1="38.8" x2="49.1" y2="34"/>
<linearGradient id="SVGID_80_" gradientUnits="userSpaceOnUse" x1="46.8282" y1="57.5065" x2="46.4282" y2="52.1765" gradientTransform="matrix(1 0 0 -1 0 91.2756)">
	<stop  offset="0" style="stop-color:#F6EA89"/>
	<stop  offset="0.31" style="stop-color:#F9C122"/>
	<stop  offset="0.69" style="stop-color:#F6C911"/>
	<stop  offset="1" style="stop-color:#F6B11B"/>
</linearGradient>
<path class="st81" d="M44.2,38.8c0.3-0.5,0.7-0.9,1.1-1.3c0.4-0.4,0.8-0.8,1.2-1.2l1.2-1.2L49,34l0,0l-1.1,1.3l-1.2,1.2
	c-0.4,0.4-0.8,0.8-1.2,1.2S44.7,38.5,44.2,38.8L44.2,38.8z"/>
<line class="st74" x1="36.7" y1="33.8" x2="42.1" y2="29.5"/>
<linearGradient id="SVGID_81_" gradientUnits="userSpaceOnUse" x1="39.5772" y1="62.0758" x2="39.2172" y2="57.1958" gradientTransform="matrix(1 0 0 -1 0 91.2756)">
	<stop  offset="0" style="stop-color:#F6EA89"/>
	<stop  offset="0.31" style="stop-color:#F9C122"/>
	<stop  offset="0.69" style="stop-color:#F6C911"/>
	<stop  offset="1" style="stop-color:#F6B11B"/>
</linearGradient>
<path class="st82" d="M36.7,33.8c0.4-0.4,0.8-0.8,1.3-1.2s0.9-0.7,1.4-1l1.4-1l1.4-1l0,0l-1.3,1.1l-1.3,1.1
	c-0.4,0.4-0.9,0.7-1.3,1.1c-0.5,0.4-0.9,0.7-1.4,1L36.7,33.8z"/>
<line class="st74" x1="37.9" y1="22.9" x2="43.1" y2="26.6"/>
<linearGradient id="SVGID_82_" gradientUnits="userSpaceOnUse" x1="40.6514" y1="68.3347" x2="40.3914" y2="64.7747" gradientTransform="matrix(1 0 0 -1 0 91.2756)">
	<stop  offset="0" style="stop-color:#F6EA89"/>
	<stop  offset="0.31" style="stop-color:#F9C122"/>
	<stop  offset="0.69" style="stop-color:#F6C911"/>
	<stop  offset="1" style="stop-color:#F6B11B"/>
</linearGradient>
<path class="st83" d="M37.9,22.9c0.5,0.2,0.9,0.5,1.4,0.8c0.5,0.3,0.9,0.6,1.3,1l1.3,1l1.3,1l0,0l-1.3-0.9l-1.3-0.9
	c-0.4-0.3-0.9-0.6-1.3-0.9c-0.4-0.3-0.8-0.6-1.2-1L37.9,22.9z"/>
<radialGradient id="SVGID_83_" cx="50.52" cy="66.7456" r="59.91" fx="89.4887" fy="112.2499" gradientTransform="matrix(1 0 0 -1 0 91.2756)" gradientUnits="userSpaceOnUse">
	<stop  offset="5.000000e-02" style="stop-color:#FFFFFF;stop-opacity:0.5"/>
	<stop  offset="0.19" style="stop-color:#FFFFFF;stop-opacity:0.38"/>
	<stop  offset="0.42" style="stop-color:#FFFFFF;stop-opacity:0.22"/>
	<stop  offset="0.63" style="stop-color:#FFFFFF;stop-opacity:0.1"/>
	<stop  offset="0.81" style="stop-color:#FFFFFF;stop-opacity:3.000000e-02"/>
	<stop  offset="0.93" style="stop-color:#FFFFFF;stop-opacity:0"/>
</radialGradient>
<path class="st84" d="M84.1,18.8c-14.6-18.4-41.3-21.5-59.7-7s-21.5,41.3-7,59.7c2.2,2.8,4.7,5.3,7.6,7.4
	c10.3-5.6,18.8-13.9,24.7-24C61.6,34.8,71.5,21.9,84.1,18.8z"/>
<g>
	<path class="st85" d="M129,86.2c-0.3-0.2-0.4-0.5-0.3-0.8c0.2-0.5,0.7-1.5,1.5-2.9c0.8-1.5,1.6-3.1,2.5-4.8
		c0.8-1.7,1.6-3.3,2.2-4.9c0.6-1.6,0.9-2.7,0.7-3.4c-0.1-0.3,0.2-0.6,1.1-0.9c0.7-0.3,1.6-0.5,2.5-0.7c0.6-0.1,0.5-0.2-0.1-0.5
		c-1-0.4-2.2-0.8-3.6-1.2c-1.4-0.5-2.7-0.9-4.1-1.2s-2.7-0.5-4-0.5c-1.3,0-2.4,0.2-3.3,0.7c-1.4,0.8-2.1,1.7-1.9,2.8
		c0.1,1.1,0.7,2,1.6,2.7s2.1,1.1,3.4,1.1c1.4,0,2.5-0.6,3.5-1.9c0.3-0.4,0.5-0.4,0.5-0.1c0.1,0.3,0,0.6-0.3,0.8
		c-1.5,1-2.9,1.8-4.1,2.3s-2.3,0.8-3.1,0.8c-1.7,0.1-2.9-0.4-3.5-1.6c-0.5-1-0.5-2.3,0.2-3.9c0.6-1.5,1.9-2.8,3.7-3.8
		c3.4-1.8,6.2-2.7,8.6-2.6c2.3,0.1,5.2,0.7,8.6,1.6c3.6,1.1,6.6,1.8,8.9,2.1c2.3,0.3,4.5,0.2,6.5-0.5c0.6-0.2,1.2-0.4,1.9-0.7
		c0.7-0.3,1.3-0.6,1.8-1c0.8-0.6,1.2-0.7,1.2-0.3c0,0.4-0.4,0.8-1.4,1.2c-3,1.3-5.5,2.3-7.5,3s-3.6,1.1-4.9,1.3
		c-1.3,0.2-2.4,0.3-3.3,0.2c-0.9-0.1-1.8-0.3-2.7-0.5c-0.3-0.1-0.4,0-0.6,0.3c-0.4,0.6-1.1,1.8-2,3.5c-0.9,1.7-1.8,3.4-2.6,5.2
		c-0.8,1.8-1.5,3.3-2,4.7c-0.5,1.3-0.4,2,0.1,1.9c0.2,0,0.5-0.1,0.9-0.2c0.4-0.1,0.6-0.2,0.7-0.2c0.4,0,0.4,0.2-0.1,0.4
		c-0.5,0.3-1.1,0.6-1.9,0.9c-0.8,0.3-1.6,0.6-2.5,1s-1.5,0.5-2,0.7C129.6,86.5,129.4,86.4,129,86.2z"/>
	<path class="st85" d="M138.3,83c0.1-0.4,0.4-0.7,1-0.9c0.7,0.1,1.4-0.3,2.1-1.1c0.5-0.5,0.8-0.9,0.9-1.4c0.2-0.5,0.4-1,0.6-1.5
		c0.2-0.4,0.4-0.8,0.6-1c0.3-0.5,1.1-1,2.4-1.4c1.3-0.4,2.1-0.5,2.3-0.2c0.1,0.1,0,0.2-0.2,0.3c-0.2,0.1-0.3,0.2-0.4,0.3
		c-0.4,0.4-0.8,1-1.2,1.7c-0.3,0.7-0.6,1.3-0.7,2s-0.1,1.1,0,1.3s0.4,0.3,0.9,0.2c0.4-0.1,1.1-0.8,2.2-2.2c0.2-0.2,0.3-0.2,0.4,0
		s-0.3,0.8-1.1,1.8c-0.8,1-1.6,2-2.4,2.7c-0.8,0.8-1.7,1.2-2.6,1.2c-0.9,0-1.4-0.6-1.5-1.6c0-0.5,0-1,0.1-1.5c0-0.2,0-0.2-0.2-0.1
		c-1.1,1.1-2,1.8-2.7,1.9C138.4,83.6,138.2,83.4,138.3,83z M146,74.4c-0.7-0.1-0.9-0.4-0.6-0.9c0.3-0.5,0.8-1.1,1.6-1.7
		c0.9-0.7,1.7-1.2,2.5-1.5c0.8-0.2,1,0.1,0.8,1.2c-0.2,1-0.9,1.8-1.9,2.3c-0.3,0.2-0.7,0.3-1.1,0.5C146.8,74.4,146.4,74.5,146,74.4z
		"/>
	<path class="st85" d="M144.5,83c0.2-0.5,0.5-0.7,1-0.8c0.8,0,1.7-0.5,2.7-1.7c0.1-0.1,0.3-0.4,0.4-0.7c0.4-0.8,0.8-1.7,1.4-2.5
		c0.6-0.9,1.4-1.8,2.6-2.7s2.3-1.4,3.5-1.4c0.8,0.1,1.2,0.4,1.2,0.9c0,0.5-0.2,1.1-0.7,1.7s-1.1,1.2-1.9,1.8
		c-0.8,0.6-1.6,1.1-2.3,1.4c-0.1,0.1-0.2,0.2-0.2,0.4c0.1,0.6,0.2,1,0.4,1.4c0.2,0.4,0.7,0.5,1.2,0.5c0.6,0,1.2-0.3,1.7-0.8
		c0.6-0.5,1.1-1.2,1.7-2c0.2-0.3,0.4-0.4,0.5-0.2c0.1,0.1,0.1,0.4-0.1,0.6c-0.8,1.5-1.9,2.9-3.4,4.2c-1.4,1.3-2.8,1.9-4.2,1.7
		c-0.6,0-1.1-0.2-1.4-0.7c-0.4-0.5-0.6-1.2-0.6-2.3c0-0.2,0-0.3-0.2-0.1c-0.5,0.5-1,1-1.5,1.4c-0.5,0.4-0.9,0.6-1.4,0.6
		C144.4,83.6,144.2,83.4,144.5,83z M155.7,69.2c0.1-0.1,0.2-0.2,0.3-0.2c0.5-0.5,0.9-1,1.2-1.7c0-0.1,0.1-0.1,0.2-0.2
		c0.1-0.1,0.2-0.1,0.4,0c0,0.1,0,0.2-0.1,0.3c0,0.1,0,0.2,0,0.3c0.1,0.2,0.2,0.4,0.4,0.7c0.2,0.3,0.5,0.6,0.8,1
		c0.3,0.3,0.7,0.6,1.2,0.9l0.3-0.3l0.3,0.1l-1.8,1.8c-0.7-0.4-1.2-0.8-1.6-1.3l-0.6-0.8c-0.6,0.4-1.3,0.9-2.1,1.5
		c-0.8,0.6-1.7,1.1-2.6,1.3c-0.3-0.1-0.4-0.2-0.4-0.4c0-0.2,0.1-0.4,0.4-0.5c0.4-0.1,1-0.4,1.8-1C154.4,70.3,155.1,69.8,155.7,69.2z
		 M152.3,78.3c0.7-0.5,1.2-1,1.5-1.6c0.2-0.4,0.3-0.7,0.3-1.2c0-0.4-0.2-0.6-0.6-0.5c-0.3,0.1-0.5,0.3-0.7,0.6
		c-0.2,0.3-0.3,0.6-0.4,0.8c-0.2,0.6-0.3,1.2-0.3,1.8C152.1,78.4,152.2,78.4,152.3,78.3z M164.6,68.4c-0.4,0.1-0.9,0.2-1.4,0.3
		c-0.5,0.1-1,0.1-1.5,0.2s-0.9,0-1.2,0c-0.4,0-0.6-0.1-0.7-0.2c-0.1-0.1-0.1-0.2-0.1-0.4c0.1-0.1,0.3-0.3,0.8-0.4
		c0.5-0.1,1-0.3,1.7-0.6c0.7-0.2,1.3-0.5,2-0.9c0.7-0.3,1.3-0.7,1.8-1.1c0.5-0.4,0.8-0.5,0.9-0.3c0,0.2,0,0.5-0.2,1
		c-0.2,0.5-0.4,0.9-0.7,1.3c-0.3,0.4-0.5,0.6-0.6,0.7C165.3,68.2,165,68.3,164.6,68.4z"/>
	<path class="st85" d="M152.8,83.6c-0.5,0.1-0.7-0.1-0.6-0.5c0.1-0.4,0.4-0.7,1-0.9c0.4,0.1,0.9-0.1,1.4-0.5c0.5-0.4,1-0.9,1.5-1.6
		c0.7-1,1.4-2,1.9-3.1c0.4-0.8,0.7-1.6,1.1-2.4c0.4-0.8,0.8-1.7,1.4-2.7c0.1-0.2,0-0.2-0.2-0.2l-1,0c-0.4,0-0.5-0.1-0.3-0.3
		c0.2-0.1,0.4-0.3,0.6-0.5c0.2-0.2,0.6-0.4,1.2-0.5c0.2,0,0.3-0.1,0.3-0.2c0.1-0.3,0.4-0.6,0.7-0.8c0.8-0.5,2.1-1,3.7-1.5
		c1.7-0.5,2.6-0.7,2.7-0.6c0.1,0.1,0,0.1-0.2,0.3c-0.2,0.1-0.3,0.2-0.4,0.3c-0.5,0.4-0.9,0.7-1.2,1c-0.3,0.3-0.6,0.6-0.8,1
		c-0.1,0.2-0.1,0.3,0,0.3c3.1-0.3,5.5-0.5,7.1-0.6c1.6-0.2,2.6-0.3,3.1-0.3c0.2,0,0.2,0,0.2,0.1c0,0.1-0.1,0.2-0.2,0.3
		c-0.8,1-1.7,1.6-2.6,1.8c-0.9,0.2-2.4,0.4-4.5,0.3c-2.1,0-3.4,0-4,0c-0.2,0-0.4,0.1-0.5,0.3c-0.6,1-1.2,2-1.7,3
		c-0.5,1-0.9,1.8-1.2,2.5c-0.5,1.1-0.6,2-0.6,2.6c0.1,0.6,0.3,1,0.7,1.1c0.7,0.2,1.6-0.5,2.6-2c0.2-0.3,0.3-0.3,0.4-0.2
		c0.1,0.2,0,0.4-0.2,0.7c-0.5,0.8-1.1,1.7-1.8,2.5c-0.7,0.8-1.5,1.5-2.2,2c-0.7,0.5-1.5,0.7-2.2,0.6c-0.7-0.1-1.1-0.6-1.2-1.7
		c-0.1-1.1,0-2.1,0.2-3.1c0.1-0.4,0-0.4-0.2-0.1c-0.7,0.9-1.5,1.8-2.2,2.5C154,83.1,153.4,83.5,152.8,83.6z"/>
	<path class="st85" d="M165.8,83.1c0.1-0.4,0.4-0.7,1-1c0.7,0,1.4-0.4,2.2-1.3c0.8-0.8,1.5-1.8,2.1-2.9c0.3-0.7,0.6-1.5,0.8-2.2
		c0.2-0.8,0.5-1.5,0.7-2.2c0.4-1,0.8-1.9,1.2-2.6c0.4-0.8,0.8-1.3,1.1-1.6c0.2-0.2,0.7-0.5,1.3-0.8c0.7-0.3,1.4-0.6,2.1-0.9
		c1-0.4,2-0.8,2.9-1c0.9-0.3,1.4-0.4,1.5-0.3c0.1,0.1,0,0.2-0.2,0.3c-0.2,0.1-0.3,0.2-0.4,0.3c-0.6,0.5-1.3,1.2-2,2.2
		c-0.7,0.9-1.5,2-2.2,3.1c-1,1.6-1.9,3.2-2.7,4.9c-0.1,0.3-0.1,0.4,0,0.3c0.1,0,0.2-0.1,0.4-0.2c0.6-0.6,1.4-1.2,2.3-1.8
		c2-1.4,3.6-2.1,4.7-2.1c0.6,0,1,0.2,1.1,0.7c0.1,0.5-0.1,1-0.6,1.7c-0.6,0.8-1.4,1.5-2.5,2c-1,0.5-1.8,0.9-2.3,1
		c-0.2,0.1-0.2,0.3,0,0.7c0.4,0.9,0.8,1.5,1.3,1.7c0.7,0.3,1.4,0.2,2-0.2c0.6-0.4,1.2-1,1.7-1.8c0.3-0.5,0.5-0.7,0.7-0.6
		c0.2,0.1,0.1,0.3-0.2,0.7c-0.6,1.1-1.6,2.3-2.9,3.7c-1.3,1.4-2.5,2-3.5,1.9c-0.9,0-1.6-0.6-2-1.6c-0.4-1-0.6-2-0.6-2.9
		c0-0.4,0.2-0.7,0.4-0.8c0.9-0.5,1.5-0.9,1.8-1.3c0.3-0.3,0.5-0.6,0.6-0.9c0-0.4-0.2-0.5-0.6-0.3c-0.4,0.2-0.8,0.4-1.2,0.8
		c-0.7,0.6-1.3,1.4-1.8,2.4c-0.5,1-0.8,1.8-1,2.3c-0.1,0.4-0.3,0.6-0.5,0.7c-0.4,0.2-0.9,0.5-1.5,0.8c-0.6,0.3-1.2,0.6-1.8,0.9
		c-0.3,0.1-0.3-0.3,0-1.2c0.1-0.4,0.3-0.9,0.4-1.4c0.1-0.5,0.3-1,0.5-1.5c0-0.2,0-0.2-0.2,0c-0.6,0.8-1.3,1.4-1.9,1.9
		c-0.6,0.5-1.2,0.8-1.7,0.9C165.9,83.7,165.7,83.5,165.8,83.1z"/>
	<path class="st85" d="M178.8,83c0.1-0.4,0.4-0.7,1-0.9c0.7,0.1,1.4-0.3,2.1-1.1c0.5-0.5,0.8-0.9,0.9-1.4c0.2-0.5,0.4-1,0.6-1.5
		c0.2-0.4,0.4-0.8,0.6-1c0.3-0.5,1.1-1,2.4-1.4c1.3-0.4,2.1-0.5,2.3-0.2c0.1,0.1,0,0.2-0.2,0.3c-0.2,0.1-0.3,0.2-0.4,0.3
		c-0.4,0.4-0.8,1-1.2,1.7c-0.3,0.7-0.6,1.3-0.7,2s-0.1,1.1,0,1.3s0.4,0.3,0.9,0.2c0.4-0.1,1.1-0.8,2.2-2.2c0.2-0.2,0.3-0.2,0.4,0
		s-0.3,0.8-1.1,1.8c-0.8,1-1.6,2-2.4,2.7c-0.8,0.8-1.7,1.2-2.6,1.2c-0.9,0-1.4-0.6-1.5-1.6c0-0.5,0-1,0.1-1.5c0-0.2,0-0.2-0.2-0.1
		c-1.1,1.1-2,1.8-2.7,1.9C178.9,83.6,178.7,83.4,178.8,83z M186.5,74.4c-0.7-0.1-0.9-0.4-0.6-0.9c0.3-0.5,0.8-1.1,1.6-1.7
		c0.9-0.7,1.7-1.2,2.5-1.5c0.8-0.2,1,0.1,0.8,1.2c-0.2,1-0.9,1.8-1.9,2.3c-0.3,0.2-0.7,0.3-1.1,0.5
		C187.3,74.4,186.9,74.5,186.5,74.4z"/>
	<path class="st85" d="M184.9,83c0.2-0.5,0.5-0.7,1-0.8c0.8,0,1.7-0.5,2.7-1.7c0.1-0.1,0.3-0.4,0.4-0.7c0.4-0.8,0.8-1.7,1.4-2.5
		c0.6-0.9,1.4-1.8,2.6-2.7s2.3-1.4,3.5-1.4c0.8,0.1,1.2,0.4,1.2,0.9c0,0.5-0.2,1.1-0.7,1.7s-1.1,1.2-1.9,1.8
		c-0.8,0.6-1.6,1.1-2.3,1.4c-0.1,0.1-0.2,0.2-0.2,0.4c0.1,0.6,0.2,1,0.4,1.4c0.2,0.4,0.7,0.5,1.2,0.5c0.6,0,1.2-0.3,1.7-0.8
		c0.6-0.5,1.1-1.2,1.7-2c0.2-0.3,0.4-0.4,0.5-0.2c0.1,0.1,0.1,0.4-0.1,0.6c-0.8,1.5-1.9,2.9-3.4,4.2c-1.4,1.3-2.8,1.9-4.2,1.7
		c-0.6,0-1.1-0.2-1.4-0.7c-0.4-0.5-0.6-1.2-0.6-2.3c0-0.2,0-0.3-0.2-0.1c-0.5,0.5-1,1-1.5,1.4c-0.5,0.4-0.9,0.6-1.4,0.6
		C184.9,83.6,184.7,83.4,184.9,83z M192.7,85.2c0.6,0.1,0.8,0.4,0.8,0.8c-0.1,0.5-0.5,0.9-1.3,1.3c-1,0.5-1.7,0.6-2,0.4
		c-0.3-0.2-0.1-0.7,0.6-1.5S192,85.1,192.7,85.2z M196.2,69.2c0.1-0.1,0.2-0.2,0.3-0.2c0.5-0.5,0.9-1,1.2-1.7c0-0.1,0.1-0.1,0.2-0.2
		c0.1-0.1,0.2-0.1,0.4,0c0,0.1,0,0.2-0.1,0.3c0,0.1,0,0.2,0,0.3c0.1,0.2,0.2,0.4,0.4,0.7c0.2,0.3,0.5,0.6,0.8,1
		c0.3,0.3,0.7,0.6,1.2,0.9l0.3-0.3l0.3,0.1l-1.8,1.8c-0.7-0.4-1.2-0.8-1.6-1.3l-0.6-0.8c-0.6,0.4-1.3,0.9-2.1,1.5
		c-0.8,0.6-1.7,1.1-2.6,1.3c-0.3-0.1-0.4-0.2-0.4-0.4c0-0.2,0.1-0.4,0.4-0.5c0.4-0.1,1-0.4,1.8-1C194.9,70.3,195.5,69.8,196.2,69.2z
		 M192.7,78.3c0.7-0.5,1.2-1,1.5-1.6c0.2-0.4,0.3-0.7,0.3-1.2c0-0.4-0.2-0.6-0.6-0.5c-0.3,0.1-0.5,0.3-0.7,0.6
		c-0.2,0.3-0.3,0.6-0.4,0.8c-0.2,0.6-0.3,1.2-0.3,1.8C192.6,78.4,192.6,78.4,192.7,78.3z"/>
	<path class="st85" d="M192.6,83.1c0.1-0.4,0.4-0.7,1-0.9c0.6,0.1,1.2-0.2,1.9-0.9c0.7-0.7,1.3-1.5,1.9-2.4c0.2-0.3,0.3-0.6,0.4-0.9
		c0.1-0.3,0.2-0.6,0.4-0.9c0.2-0.5,0.5-0.9,0.8-1.2c0.4-0.4,1.1-0.8,2.1-1.3s1.9-0.8,2.6-1c0.7-0.2,0.9-0.2,0.8,0
		c-0.1,0.2-0.2,0.4-0.4,0.7c-0.4,0.6-0.9,1.2-1.3,1.9c-0.4,0.7-0.8,1.5-1.1,2.4c-0.3,0.7-0.2,0.7,0.3,0.1c0.4-0.5,0.8-1.1,1.3-1.6
		c0.5-0.6,1-1,1.6-1.4c1-0.7,1.8-1.2,2.6-1.5c0.7-0.3,1.3-0.5,1.7-0.6c1-0.1,1.3,0.1,0.7,0.6c-0.5,0.5-1,1.1-1.4,1.8
		c-0.4,0.7-0.7,1.5-1,2.2c-0.2,0.5-0.1,0.5,0.2,0.1c0.4-0.5,0.8-1.1,1.3-1.5c0.4-0.5,1-0.9,1.5-1.3c1.1-0.8,2.1-1.2,3.1-1.4
		c0.3,0,0.5-0.1,0.7-0.1c1-0.1,1.3,0.1,0.9,0.5c-0.2,0.2-0.5,0.7-0.9,1.3c-0.4,0.7-0.7,1.4-1,2.1c-0.3,0.7-0.3,1.4-0.3,2
		c0.1,0.6,0.4,0.9,1,0.9c0.6,0.1,1.5-0.7,2.5-2.2c0.2-0.3,0.3-0.3,0.5-0.2c0.1,0.1,0.1,0.3-0.1,0.6c-0.6,0.9-1.4,2.1-2.6,3.6
		c-1.2,1.4-2.4,2.2-3.6,2.3c-1,0.1-1.6-0.4-2-1.5c-0.3-1.1-0.3-2.2,0-3.3c0.2-0.7,0.4-1.3,0.7-1.8c0.2-0.4,0.4-0.8,0.5-1
		c0.2-0.4,0.2-0.5-0.2-0.2c-0.9,0.6-1.5,1.4-2,2.5c-0.4,1.1-0.7,1.9-0.9,2.5c-0.1,0.3-0.1,0.4-0.1,0.5c0,0-0.1,0.1-0.4,0.3
		c-0.6,0.4-1.3,0.8-2,1.2c-0.7,0.4-1.2,0.7-1.6,0.8c-0.3,0.1-0.4,0.1-0.4,0c0-0.1,0-0.3,0-0.5c0.1-1.4,0.3-2.7,0.7-3.7
		c0.3-1,0.6-1.7,0.9-2.3c0.3-0.5,0.5-1,0.7-1.3c0.1-0.1,0-0.2-0.1-0.1c-0.2,0-0.3,0.2-0.6,0.4c-0.7,0.7-1.5,1.7-2.1,3
		c-0.7,1.3-1.2,2.1-1.6,2.4c-0.6,0.5-1.4,1-2.2,1.5c-0.9,0.5-1.7,0.8-2.5,1c-0.2,0-0.2,0-0.2-0.1c0-0.1,0.1-0.4,0.4-0.9
		c0.4-0.7,0.6-1.3,0.9-1.9c0.2-0.6,0.4-1.2,0.6-1.7c0.1-0.3,0-0.3-0.2-0.1c-0.7,0.8-1.3,1.5-2,2.1c-0.7,0.6-1.3,0.9-1.8,1
		C192.7,83.6,192.5,83.5,192.6,83.1z"/>
	<path class="st85" d="M234,72.6c-1.4,0.9-2.3,1.6-2.9,2c-0.6,0.4-1.2,0.6-1.9,0.7c-0.6,0.1-1.4-0.1-2.3-0.4
		c-0.9-0.3-1.7-0.3-2.2,0.2c-0.3,0.3-0.5,0.3-0.6,0c-0.1-0.2,0-0.5,0.5-0.7c0.4-0.2,0.9-0.6,1.6-1.1c0.7-0.5,1.2-0.8,1.6-1.1
		c1.2-0.6,2.3-0.7,3.5-0.1c1.1,0.6,2,0.5,2.6-0.1c0.2-0.2,0.4-0.3,0.6-0.2C234.7,72,234.5,72.2,234,72.6z"/>
	<path class="st85" d="M236.6,87c-0.1-0.2,0-0.5,0.4-0.8c0.7-0.7,1.7-1.5,2.9-2.5c1.2-1,2.6-2.2,4.2-3.8c1.3-1.2,1.9-2,1.9-2.1
		c0-0.2,0.1-0.4,0.2-0.8c0.3-0.6,0.7-1.1,1.3-1.5c0.6-0.4,1.2-0.8,1.9-1.1c1.3-1.3,2.4-2.5,3.3-3.7c1-1.1,1.6-2.1,2-2.9
		c0.1-0.7,0.3-1.3,0.5-1.8c0.2-0.5,1-1,2.3-1.7c1.3-0.7,2.4-1.2,3.4-1.5c0.9-0.3,1.5-0.5,1.6-0.4c0.4,0.2,0.5,0.3,0.2,0.5
		c-0.6,0.4-1.1,1-1.5,2s-0.7,2.1-0.9,3.3c-0.3,1.8-0.4,3.8-0.2,5.8c0,0.3,0.1,0.5,0.3,0.5c1.4,0.1,2.8,0.1,4.1,0
		c1.3-0.1,2.3-0.6,3.1-1.3c0.2-0.2,0.4-0.3,0.5-0.2c0.1,0.1,0.1,0.3-0.1,0.4c-2.5,2.2-4.7,3.6-6.9,4.2c-0.3,0.1-0.4,0.3-0.3,0.7
		c0.5,1.4,1,2.3,1.7,3c0.9,0.6,1.7,0.7,2.6,0.2c0.9-0.5,1.7-1.2,2.3-2.2c0.2-0.4,0.4-0.5,0.5-0.2c0.1,0.2,0,0.4-0.1,0.7
		c-1.1,1.6-2.4,3-3.7,4c-1.3,1-2.7,1.7-4,1.9c-1.4,0.1-2.5-0.4-3.2-1.7c-0.5-0.7-0.8-1.7-1.2-2.8c-0.3-1.1-0.6-2.3-0.8-3.5
		c-0.1-0.3-0.2-0.5-0.5-0.7c-0.7-0.3-1.4-0.6-2.1-0.9c-0.7-0.3-1.4-0.5-2-0.5c-0.5,0-0.9,0.2-1.2,0.5l-4,4.5c-2.3,2.6-3.6,4.3-4,5.1
		c-0.4,0.1-1,0.4-1.7,0.7c-0.8,0.4-1.5,0.6-2.3,0.9C236.9,87.3,236.8,87.2,236.6,87z M251.6,73.8c0.6-0.1,1.4-0.1,2.5,0
		c0.2,0,0.3-0.1,0.3-0.5c-0.1-0.9-0.1-1.8,0-2.7c0-0.3-0.1-0.3-0.3-0.1c-1,1-1.9,1.9-2.7,2.9C251.2,73.7,251.2,73.9,251.6,73.8z"/>
	<path class="st85" d="M274.6,75.3c1-0.7,1.8-1.1,2.5-1.4c0.7-0.3,1.3-0.4,1.7-0.5s0.7,0,0.8,0.2c0.1,0.2,0.1,0.3-0.1,0.5
		c-1.4,1.4-2.3,3-2.5,4.7c-0.3,1.7-0.1,2.5,0.6,2.4c0.4-0.1,0.9-0.4,1.3-0.9c0.5-0.6,0.8-1,1-1.2c0.2-0.2,0.3-0.3,0.4-0.1
		c0.1,0.1,0,0.4-0.3,0.8c-0.5,0.7-1.3,1.7-2.5,3c-1.2,1.3-2.2,2-3.2,2.1c-1,0.1-1.6-0.3-2-1.2s-0.3-1.7-0.1-2.7
		c0.2-0.9,0.6-1.7,1-2.4c0.4-0.7,0.8-1.3,1-1.7c0.2-0.3,0.2-0.4,0-0.3c-0.2,0.1-0.3,0.2-0.4,0.2c-0.6,0.5-1.4,1.5-2.3,3
		c-0.9,1.4-1.5,2.4-2,2.9c-0.5,0.5-1.2,1-2.1,1.5s-1.6,0.7-2.3,0.8c-0.2,0-0.2,0-0.2-0.1c0-0.1,0.1-0.4,0.4-0.8
		c0.3-0.5,0.5-1,0.8-1.5c0.3-0.6,0.5-1,0.7-1.4c0-0.1,0.1-0.2,0.1-0.3s0-0.1-0.2,0.1c-0.6,0.7-1.2,1.4-1.8,1.9
		c-0.6,0.5-1.2,0.8-1.7,0.9c-0.5,0.1-0.7-0.1-0.6-0.5c0.1-0.4,0.4-0.7,1-0.9c0.8,0,1.6-0.5,2.4-1.4c0.8-0.9,1.4-2,1.8-3
		c0.2-0.5,0.3-0.7,0.3-0.8c0.4-0.4,1-0.8,1.9-1.3c0.9-0.5,1.7-0.9,2.3-1.1c0.6-0.2,0.9-0.2,0.8-0.1s-0.2,0.4-0.5,0.7
		c-0.5,0.6-1.1,1.9-1.8,3.8c-0.1,0.3-0.1,0.4,0,0.3c0.1-0.1,0.2-0.2,0.3-0.3c0.4-0.5,0.9-1.2,1.5-2S274,75.7,274.6,75.3z"/>
	<path class="st85" d="M282,83.6c-0.5,0.1-0.7-0.1-0.6-0.5c0.1-0.4,0.4-0.7,1-0.9c0.4,0.1,0.9-0.1,1.4-0.5c0.5-0.4,1-0.9,1.5-1.6
		c0.7-1,1.4-2,1.9-3.1c0.4-0.8,0.7-1.6,1.1-2.4c0.4-0.8,0.8-1.7,1.4-2.7c0.1-0.2,0-0.2-0.2-0.2l-1,0c-0.4,0-0.5-0.1-0.3-0.3
		c0.2-0.1,0.4-0.3,0.6-0.5c0.2-0.2,0.6-0.4,1.2-0.5c0.2,0,0.3-0.1,0.3-0.2c0.1-0.3,0.4-0.6,0.7-0.8c0.8-0.5,2.1-1,3.7-1.5
		c1.7-0.5,2.6-0.7,2.7-0.6c0.1,0.1,0,0.1-0.2,0.3s-0.3,0.2-0.4,0.3c-0.5,0.4-0.9,0.7-1.2,1c-0.3,0.3-0.6,0.6-0.8,1
		c-0.1,0.2-0.1,0.3,0,0.3c3.1-0.3,5.5-0.5,7.1-0.6c1.6-0.2,2.6-0.3,3.1-0.3c0.2,0,0.2,0,0.2,0.1c0,0.1-0.1,0.2-0.2,0.3
		c-0.8,1-1.7,1.6-2.6,1.8c-0.9,0.2-2.4,0.4-4.5,0.3c-2.1,0-3.4,0-4,0c-0.2,0-0.4,0.1-0.5,0.3c-0.6,1-1.2,2-1.7,3
		c-0.5,1-0.9,1.8-1.2,2.5c-0.5,1.1-0.6,2-0.6,2.6c0.1,0.6,0.3,1,0.7,1.1c0.7,0.2,1.6-0.5,2.6-2c0.2-0.3,0.3-0.3,0.4-0.2
		c0.1,0.2,0,0.4-0.2,0.7c-0.5,0.8-1.1,1.7-1.8,2.5s-1.5,1.5-2.2,2c-0.7,0.5-1.5,0.7-2.2,0.6c-0.7-0.1-1.1-0.6-1.2-1.7
		c-0.1-1.1,0-2.1,0.2-3.1c0.1-0.4,0-0.4-0.2-0.1c-0.7,0.9-1.5,1.8-2.2,2.5C283.3,83.1,282.6,83.5,282,83.6z"/>
	<path class="st85" d="M288.9,83.1c0.1-0.4,0.4-0.7,1-0.9c0.6,0,1.2-0.3,2-1.1c0.7-0.7,1.3-1.6,1.9-2.5c0.6-1.3,1.5-2.6,2.9-3.8
		c1.4-1.2,2.9-1.9,4.5-2c1.4,0,2.2,0.7,2.2,2c0.1,1.3-0.2,2.6-0.6,3.9c-0.6,1.7-1.5,3.2-2.8,4.4c-1.4,1.3-2.7,1.9-4.1,1.8
		c-0.9-0.1-1.7-0.4-2.2-1.1c-0.6-0.7-0.8-1.7-0.6-2.9c0-0.2,0-0.2-0.2-0.1c-0.6,0.7-1.2,1.3-1.8,1.8c-0.6,0.5-1.1,0.8-1.6,0.9
		C289,83.7,288.8,83.5,288.9,83.1z M298.9,81.8c0.4,0.1,0.9-0.3,1.5-1.2c0.4-0.5,0.7-1.2,1-1.9c0.3-0.7,0.5-1.3,0.6-1.9
		c0.2-0.7,0.3-1.3,0.2-1.9c0-0.6-0.2-0.8-0.5-0.8c-0.3,0-0.8,0.3-1.3,0.9c-0.7,0.7-1.3,1.6-1.6,2.6c-0.2,0.6-0.4,1.2-0.4,1.6
		c-0.1,0.5-0.1,0.8-0.1,1C298.3,81.2,298.5,81.7,298.9,81.8z"/>
	<path class="st85" d="M299.4,83.1c0.1-0.4,0.4-0.7,1-0.9c0.6,0.1,1.4-0.3,2.3-1.2c0.4-0.4,0.6-0.8,0.9-1.2c0.5-1.1,1.3-2.3,2.4-3.7
		c0.9-1.1,1.9-1.9,2.8-2.5c0.9-0.6,1.7-0.8,2.4-0.7c1.1,0.1,1.5,1.1,1.4,3c0,0.2,0.3,0.1,1.1-0.3s1.1-0.4,0.9-0.1
		c-0.5,0.8-1,1.6-1.4,2.5c-0.4,0.9-0.6,1.8-0.5,2.5c0.2,0.6,0.6,0.7,1.3,0.3c0.4-0.2,0.9-0.8,1.8-1.8c0.3-0.4,0.5-0.5,0.7-0.4
		c0.1,0.1-0.2,0.6-0.9,1.5c-1,1.4-2,2.5-2.9,3.6c-1,1-1.9,1.4-2.8,1.3c-0.7-0.2-1-0.7-1.1-1.7c-0.1-1,0.1-2.3,0.6-3.7
		c0.1-0.3,0.1-0.4,0-0.4c-0.1,0-0.2,0.1-0.2,0.2c-0.8,0.9-1.5,1.8-2.1,2.7s-1.1,1.5-1.4,1.9c-0.6,0.6-1.2,0.9-1.8,0.9
		c-1-0.1-1.3-1-1-2.8c0-0.2,0-0.3-0.2-0.1c-0.5,0.5-0.9,0.9-1.4,1.2s-0.9,0.5-1.3,0.5C299.5,83.6,299.3,83.4,299.4,83.1z
		 M307.4,78.8c0,0.5,0.1,0.7,0.3,0.7c0.4-0.1,0.8-0.6,1.4-1.5c0.5-0.9,0.9-1.5,1-1.9c0.5-1.3,0.5-2.1,0-2.1c-0.4,0-0.9,0.2-1.2,0.8
		c-0.4,0.6-0.7,1.3-1,2.1C307.6,77.7,307.5,78.3,307.4,78.8z M308.8,70.6c-0.1-0.1-0.2-0.4-0.3-0.8c-0.1-0.4-0.2-0.9-0.3-1.4
		c0-0.5,0-0.8,0.1-1c0.1-0.2,0.3,0,0.8,0.5c0.4,0.5,0.9,1,1.4,1.5c0.5,0.5,1.1,1,1.7,1.4s1.1,0.8,1.5,1s0.6,0.5,0.6,0.6
		c0,0.1,0,0.3-0.2,0.3c-0.1,0.1-0.4,0.1-0.8,0c-0.3-0.1-0.7-0.2-1.1-0.3c-0.5-0.2-0.9-0.4-1.3-0.6c-0.4-0.2-0.9-0.5-1.2-0.7
		C309.1,71,308.9,70.8,308.8,70.6z"/>
	<path class="st85" d="M322.6,75.3c1-0.7,1.8-1.1,2.5-1.4c0.7-0.3,1.3-0.4,1.7-0.5s0.7,0,0.8,0.2c0.1,0.2,0.1,0.3-0.1,0.5
		c-1.4,1.4-2.3,3-2.5,4.7c-0.3,1.7-0.1,2.5,0.6,2.4c0.4-0.1,0.9-0.4,1.3-0.9c0.5-0.6,0.8-1,1-1.2c0.2-0.2,0.3-0.3,0.4-0.1
		c0.1,0.1,0,0.4-0.3,0.8c-0.5,0.7-1.3,1.7-2.5,3c-1.2,1.3-2.2,2-3.2,2.1c-1,0.1-1.6-0.3-2-1.2s-0.3-1.7-0.1-2.7
		c0.2-0.9,0.6-1.7,1-2.4c0.4-0.7,0.8-1.3,1-1.7c0.2-0.3,0.2-0.4,0-0.3c-0.2,0.1-0.3,0.2-0.4,0.2c-0.6,0.5-1.4,1.5-2.3,3
		c-0.9,1.4-1.5,2.4-2,2.9c-0.5,0.5-1.2,1-2.1,1.5s-1.6,0.7-2.3,0.8c-0.2,0-0.2,0-0.2-0.1c0-0.1,0.1-0.4,0.4-0.8
		c0.3-0.5,0.5-1,0.8-1.5c0.3-0.6,0.5-1,0.7-1.4c0-0.1,0.1-0.2,0.1-0.3s0-0.1-0.2,0.1c-0.6,0.7-1.2,1.4-1.8,1.9
		c-0.6,0.5-1.2,0.8-1.7,0.9c-0.5,0.1-0.7-0.1-0.6-0.5c0.1-0.4,0.4-0.7,1-0.9c0.8,0,1.6-0.5,2.4-1.4c0.8-0.9,1.4-2,1.8-3
		c0.2-0.5,0.3-0.7,0.3-0.8c0.4-0.4,1-0.8,1.9-1.3c0.9-0.5,1.7-0.9,2.3-1.1c0.6-0.2,0.9-0.2,0.8-0.1s-0.2,0.4-0.5,0.7
		c-0.5,0.6-1.1,1.9-1.8,3.8c-0.1,0.3-0.1,0.4,0,0.3c0.1-0.1,0.2-0.2,0.3-0.3c0.4-0.5,0.9-1.2,1.5-2S322,75.7,322.6,75.3z"/>
	<path class="st85" d="M345.7,72.6c-1.4,0.9-2.3,1.6-2.9,2c-0.6,0.4-1.2,0.6-1.9,0.7c-0.6,0.1-1.4-0.1-2.3-0.4
		c-0.9-0.3-1.7-0.3-2.2,0.2c-0.3,0.3-0.5,0.3-0.6,0c-0.1-0.2,0-0.5,0.5-0.7c0.4-0.2,0.9-0.6,1.6-1.1c0.7-0.5,1.2-0.8,1.6-1.1
		c1.2-0.6,2.3-0.7,3.5-0.1c1.1,0.6,2,0.5,2.6-0.1c0.2-0.2,0.4-0.3,0.6-0.2C346.3,72,346.2,72.2,345.7,72.6z"/>
	<path class="st85" d="M385.9,64.6c0.3-0.2,1.1-0.4,2.3-0.8c1.2-0.4,2.1-0.7,2.8-0.8c0.3,0,0.4,0,0.5,0.1c0.1,0.1,0.1,0.2-0.1,0.3
		c-0.9,0.7-2,2.4-3.4,5c-0.7,1.3-1.4,2.6-2,4.1c-0.7,1.5-1.3,2.9-1.8,4.2c-0.1,0.3-0.2,0.5-0.1,0.5s0.2-0.1,0.3-0.3
		c0.7-1.1,1.5-2.2,2.3-3.4c0.9-1.2,1.7-2.2,2.5-3.2c0.8-1,1.6-1.8,2.4-2.5s1.3-1.2,1.8-1.4c0.4-0.2,1.2-0.5,2.5-0.9
		c1.3-0.4,2.3-0.6,3.1-0.7c0.3,0,0.5,0,0.6,0.1s0.1,0.2-0.2,0.4c-1.4,1-2.6,2.3-3.6,3.9s-1.8,3.2-2.4,4.9c-0.6,1.7-1,3.2-1.1,4.7
		c-0.2,1.4,0,2.5,0.3,3c0.4,0.7,1.1,0.7,2.2,0.1c1-0.7,1.9-1.6,2.7-2.8c0.2-0.4,0.4-0.5,0.5-0.4s0.1,0.3-0.1,0.6
		c-0.2,0.4-0.6,1-1.2,1.7c-0.6,0.7-1.2,1.4-2,2.1c-0.8,0.7-1.6,1.3-2.4,1.9c-0.9,0.5-1.7,0.9-2.6,0.9c-1.4,0.1-2.2-0.5-2.4-1.8
		c-0.2-1.3-0.1-2.8,0.2-4.6c0.4-1.7,1-3.6,1.8-5.4s1.6-3.4,2.5-4.6c0.2-0.2,0.2-0.3,0.1-0.3c-0.1,0-0.2,0.1-0.3,0.1
		c-0.8,0.7-1.7,1.5-2.6,2.7c-0.9,1.1-1.9,2.3-2.7,3.7c-0.9,1.3-1.7,2.7-2.4,4.2c-0.7,1.5-1.3,2.8-1.6,3.9c0,0,0,0,0,0c0,0,0,0,0,0h0
		c0,0,0,0,0,0v0v0c0,0,0,0,0,0h0c-0.7,0.3-2,0.8-3.8,1.6c-1.8,0.7-2.6,1-2.5,0.6c0.6-1.5,1.3-3.1,1.9-4.7s1.3-3.3,2.1-5
		c0.7-1.7,1.4-3.2,2.2-4.7c0.7-1.5,1.3-2.5,1.6-3c0.3-0.4,0.3-0.6,0.2-0.6c-0.2,0-0.3,0.1-0.6,0.2c-0.8,0.5-1.8,1.5-3.1,3
		c-1.3,1.4-2.5,3-3.7,4.7c-1.2,1.7-2.2,3.4-3.2,5c-0.9,1.7-1.6,2.8-2.1,3.4c-0.3,0.4-1,0.7-2,0.9c-1,0.2-2.1,0.5-3.3,0.8
		c-0.6,0.1-0.8,0.1-0.7-0.2s0.4-0.7,0.8-1.3c0.9-1.3,1.9-3,3-5c1-2,2-3.8,2.7-5.6s1.4-3.3,2-4.6c0.5-1.4,0.7-2.2,0.4-2.5
		c-0.6-0.8-1.6-1.4-2.9-1.8c-1.3-0.4-2.7-0.6-4.1-0.7c-1.4-0.1-2.8,0.1-4.1,0.4c-1.3,0.3-2.4,0.8-3.3,1.5c-1.8,1.4-2.6,2.7-2.5,4.1
		s0.7,2.5,1.9,3.3c1.1,0.8,2.5,1.1,4.2,1.1c1.7-0.1,3.2-0.9,4.6-2.5c0.3-0.4,0.5-0.4,0.5,0c0,0.4-0.1,0.7-0.4,0.9
		c-2,1.5-3.9,2.5-5.7,3s-3.3,0.8-4.6,0.7c-1.3-0.1-2.4-0.5-3.4-1.3s-1.3-2-0.9-3.5c0.4-1.9,1.8-3.7,4.2-5.5c1.4-1,3-1.9,4.8-2.5
		c1.8-0.7,3.8-1,5.8-1.2c2-0.1,3.9,0.1,5.9,0.6c1.9,0.5,3.7,1.4,5.3,2.7c0.3,0.2,0.2,0.6,0,1.1c-0.6,1.1-1.5,2.7-2.6,4.7
		c-1.2,2-2.2,4.1-3.1,6.1c-0.1,0.3-0.2,0.5-0.1,0.5c0,0,0.2-0.1,0.3-0.4c0.7-1.1,1.5-2.3,2.5-3.7c1-1.4,2-2.8,3.2-4.1
		c1.1-1.3,2.2-2.5,3.3-3.6C383.9,65.8,384.9,65.1,385.9,64.6z"/>
	<path class="st85" d="M392.6,83c0.1-0.4,0.4-0.7,1-0.9c0.7,0.1,1.4-0.3,2.1-1.1c0.5-0.5,0.8-0.9,0.9-1.4c0.2-0.5,0.4-1,0.6-1.5
		s0.4-0.8,0.6-1c0.3-0.5,1.1-1,2.4-1.4c1.3-0.4,2.1-0.5,2.3-0.2c0.1,0.1,0,0.2-0.2,0.3c-0.2,0.1-0.3,0.2-0.4,0.3
		c-0.4,0.4-0.8,1-1.2,1.7c-0.3,0.7-0.6,1.3-0.7,2s-0.1,1.1,0,1.3s0.4,0.3,0.9,0.2c0.4-0.1,1.1-0.8,2.2-2.2c0.2-0.2,0.3-0.2,0.4,0
		s-0.3,0.8-1.1,1.8s-1.6,2-2.4,2.7c-0.8,0.8-1.7,1.2-2.6,1.2c-0.9,0-1.4-0.6-1.5-1.6c0-0.5,0-1,0.1-1.5c0-0.2,0-0.2-0.2-0.1
		c-1.1,1.1-2,1.8-2.7,1.9C392.7,83.6,392.5,83.4,392.6,83z M400.4,74.4c-0.7-0.1-0.9-0.4-0.6-0.9c0.3-0.5,0.8-1.1,1.6-1.7
		c0.9-0.7,1.7-1.2,2.5-1.5c0.8-0.2,1,0.1,0.8,1.2c-0.2,1-0.9,1.8-1.9,2.3c-0.3,0.2-0.7,0.3-1.1,0.5S400.7,74.5,400.4,74.4z"/>
	<path class="st85" d="M410.4,75.3c1-0.7,1.8-1.1,2.5-1.4c0.7-0.3,1.3-0.4,1.7-0.5s0.7,0,0.8,0.2c0.1,0.2,0.1,0.3-0.1,0.5
		c-1.4,1.4-2.3,3-2.5,4.7c-0.3,1.7-0.1,2.5,0.6,2.4c0.4-0.1,0.9-0.4,1.3-0.9c0.5-0.6,0.8-1,1-1.2c0.2-0.2,0.3-0.3,0.4-0.1
		c0.1,0.1,0,0.4-0.3,0.8c-0.5,0.7-1.3,1.7-2.5,3c-1.2,1.3-2.2,2-3.2,2.1c-1,0.1-1.6-0.3-2-1.2s-0.3-1.7-0.1-2.7
		c0.2-0.9,0.6-1.7,1-2.4c0.4-0.7,0.8-1.3,1-1.7c0.2-0.3,0.2-0.4,0-0.3c-0.2,0.1-0.3,0.2-0.4,0.2c-0.6,0.5-1.4,1.5-2.3,3
		c-0.9,1.4-1.5,2.4-2,2.9c-0.5,0.5-1.2,1-2.1,1.5s-1.6,0.7-2.3,0.8c-0.2,0-0.2,0-0.2-0.1c0-0.1,0.1-0.4,0.4-0.8
		c0.3-0.5,0.5-1,0.8-1.5c0.3-0.6,0.5-1,0.7-1.4c0-0.1,0.1-0.2,0.1-0.3s0-0.1-0.2,0.1c-0.6,0.7-1.2,1.4-1.8,1.9
		c-0.6,0.5-1.2,0.8-1.7,0.9c-0.5,0.1-0.7-0.1-0.6-0.5c0.1-0.4,0.4-0.7,1-0.9c0.8,0,1.6-0.5,2.4-1.4c0.8-0.9,1.4-2,1.8-3
		c0.2-0.5,0.3-0.7,0.3-0.8c0.4-0.4,1-0.8,1.9-1.3c0.9-0.5,1.7-0.9,2.3-1.1c0.6-0.2,0.9-0.2,0.8-0.1s-0.2,0.4-0.5,0.7
		c-0.5,0.6-1.1,1.9-1.8,3.8c-0.1,0.3-0.1,0.4,0,0.3c0.1-0.1,0.2-0.2,0.3-0.3c0.4-0.5,0.9-1.2,1.5-2S409.8,75.7,410.4,75.3z"/>
	<path class="st85" d="M410.9,83.1c0.1-0.4,0.4-0.7,1-1c0.5,0.1,1-0.1,1.6-0.6c0.6-0.5,1.1-1.1,1.6-1.8c0.2-0.3,0.4-0.6,0.5-1
		c0.5-1.5,1-3,1.6-4.4c0.5-1.2,1-2.3,1.5-3.3c0.5-1,1-1.6,1.4-2c0.4-0.4,1.5-0.9,3.1-1.5c1.6-0.6,2.9-1,3.8-1.2
		c0.6-0.1,0.8-0.1,0.7,0c-0.1,0.1-0.3,0.3-0.6,0.5c-0.7,0.5-1.4,1.3-2.2,2.3c-0.8,1-1.5,2.1-2.3,3.4c-0.7,1.2-1.4,2.4-2,3.6
		c-0.6,1.2-1.2,2.5-1.7,3.8c-0.1,0.2-0.1,0.3,0,0.3c0.1,0,0.2,0,0.3-0.2c0.5-0.7,1.1-1.5,1.7-2.4c0.7-0.9,1.3-1.6,2.1-2.1
		c2.2-1.4,3.6-2.1,4.2-1.9c0.6,0.1,0.7,0.4,0.3,0.9c-0.6,0.8-1,1.6-1.2,2.5s-0.3,1.7-0.3,2.4c0,0.7,0.2,1.2,0.4,1.6
		c0.3,0.3,0.6,0.3,1.1,0c0.3-0.2,0.7-0.6,1.2-1.2c0.5-0.6,0.8-0.8,0.9-0.7c0.2,0.2,0.1,0.6-0.6,1.4c-0.6,0.8-1.3,1.4-1.9,2.1
		c-0.7,0.6-1.5,1.2-2.4,1.7s-1.8,0.7-2.8,0.7c-0.4-0.1-0.7-0.3-0.9-0.9s-0.2-1.1-0.1-1.7c0.1-0.6,0.2-1.2,0.4-1.9
		c0.2-0.7,0.5-1.3,0.7-1.8c0.4-0.8,0.5-1.3,0.4-1.3s-0.3,0.1-0.6,0.5c-0.1,0.1-0.4,0.5-0.7,1s-0.8,1.1-1.2,1.8
		c-0.4,0.6-0.9,1.2-1.3,1.8s-0.8,0.9-1,1c-1.1,0.7-2.2,1.3-3.4,1.7c-0.2,0.1-0.2-0.3,0-1.2c0.1-0.6,0.3-1.4,0.6-2.3
		c0.1-0.3,0.1-0.3-0.1-0.1c-0.6,0.6-1.1,1.2-1.7,1.6c-0.5,0.4-1.1,0.7-1.5,0.8C411,83.7,410.8,83.5,410.9,83.1z"/>
	<path class="st85" d="M430.9,83.1c0.1-0.4,0.4-0.7,1-0.9c0.5,0.1,0.9-0.1,1.5-0.5c0.5-0.4,1-0.9,1.5-1.5c0.2-0.2,0.3-0.5,0.4-0.9
		c0.2-1.1,0.4-2.2,0.7-3.3c0.3-1.1,0.7-2.2,1.1-3.2c0.4-1,0.8-1.8,1.3-2.5c0.5-0.7,0.9-1.2,1.3-1.5c0.3-0.2,0.9-0.4,1.6-0.7
		c0.8-0.3,1.5-0.6,2.3-0.9c0.8-0.3,1.5-0.5,2.1-0.7c0.6-0.2,0.9-0.2,0.9-0.1c0,0.2-0.3,0.5-0.8,0.9c-0.2,0.2-0.7,0.7-1.2,1.4
		c-0.6,0.7-1.2,1.6-1.9,2.7c-0.7,1-1.4,2.2-2,3.4c-0.7,1.2-1.2,2.4-1.5,3.6c0,0.1,0,0.1,0.1,0.1s0.2-0.1,0.3-0.2
		c1.2-1.5,2.5-2.7,4-3.5c1.4-0.9,2.8-1.2,4.3-0.8c1.5,0.5,1.4,1.9-0.2,4.2c-1.2,1.7-2.7,3.3-4.5,4.8c-1.8,1.5-3.4,2.2-4.8,2.1
		c-1.1,0-1.9-0.3-2.5-1c-0.6-0.7-0.8-1.6-0.8-2.8c0-0.2-0.1-0.2-0.3,0c-0.6,0.6-1.1,1.2-1.7,1.6c-0.5,0.4-1.1,0.7-1.5,0.8
		C431,83.6,430.8,83.5,430.9,83.1z M439.2,83.6c0.2,0.4,0.5,0.4,1-0.1s0.9-1.2,1.4-2.1c0.5-0.9,0.9-1.7,1.2-2.6
		c0.4-0.9,0.6-1.5,0.6-1.7c0.1-0.7-0.1-0.9-0.6-0.6c-0.5,0.3-1.1,0.9-2,1.8c-0.8,0.9-1.4,1.9-1.6,2.9
		C438.9,82.1,438.9,82.9,439.2,83.6z"/>
	<path class="st85" d="M443.8,83.1c0.1-0.4,0.4-0.7,1-0.9c0.6,0.1,1.4-0.3,2.3-1.2c0.4-0.4,0.6-0.8,0.9-1.2c0.5-1.1,1.3-2.3,2.4-3.7
		c0.9-1.1,1.9-1.9,2.8-2.5c0.9-0.6,1.7-0.8,2.4-0.7c1.1,0.1,1.5,1.1,1.4,3c0,0.2,0.3,0.1,1.1-0.3s1.1-0.4,0.9-0.1
		c-0.5,0.8-1,1.6-1.4,2.5c-0.4,0.9-0.6,1.8-0.5,2.5c0.2,0.6,0.6,0.7,1.3,0.3c0.4-0.2,0.9-0.8,1.8-1.8c0.3-0.4,0.5-0.5,0.7-0.4
		c0.1,0.1-0.2,0.6-0.9,1.5c-1,1.4-2,2.5-2.9,3.6c-1,1-1.9,1.4-2.8,1.3c-0.7-0.2-1-0.7-1.1-1.7c-0.1-1,0.1-2.3,0.6-3.7
		c0.1-0.3,0.1-0.4,0-0.4c-0.1,0-0.2,0.1-0.2,0.2c-0.8,0.9-1.5,1.8-2.1,2.7s-1.1,1.5-1.4,1.9c-0.6,0.6-1.2,0.9-1.8,0.9
		c-1-0.1-1.3-1-1-2.8c0-0.2,0-0.3-0.2-0.1c-0.5,0.5-0.9,0.9-1.4,1.2s-0.9,0.5-1.3,0.5C443.9,83.6,443.7,83.4,443.8,83.1z
		 M451.7,85.2c0.6,0.1,0.8,0.4,0.8,0.8c-0.1,0.5-0.5,0.9-1.3,1.3c-1,0.5-1.7,0.6-2,0.4c-0.3-0.2-0.1-0.7,0.6-1.5
		S451,85.1,451.7,85.2z M451.9,78.8c0,0.5,0.1,0.7,0.3,0.7c0.4-0.1,0.8-0.6,1.4-1.5c0.5-0.9,0.9-1.5,1-1.9c0.5-1.3,0.5-2.1,0-2.1
		c-0.4,0-0.9,0.2-1.2,0.8c-0.4,0.6-0.7,1.3-1,2.1C452.1,77.7,451.9,78.3,451.9,78.8z"/>
	<path class="st85" d="M455.4,83.1c0.1-0.4,0.4-0.7,1-0.9c0.7,0.1,1.5-0.5,2.5-1.7c0.1-0.1,0.2-0.3,0.3-0.5c0.4-1.3,1.3-2.6,2.7-3.9
		c0.9-0.8,2-1.5,3.2-2c0.6-0.3,1.3-0.4,2-0.5c0.7,0,1.4,0.1,2,0.4c0.3,0.2,0.4,0.3,0.3,0.4c0,0.1-0.1,0.3-0.3,0.5
		c-0.4,0.7-0.9,1.6-1.7,2.6c-0.8,1-1.3,1.4-1.5,1.1c-0.1-0.1,0-0.6,0.5-1.5c0.5-0.9,0.6-1.6,0.4-2.1c-0.6-0.7-1.4-0.4-2.3,0.9
		c-0.9,1.3-1.3,2.6-1.1,4c0.2,1.4,0.7,2.1,1.5,2.3c0.7,0.1,1.6-0.3,2.5-1.1c0.9-0.8,1.6-1.7,2.1-2.6c0.3-0.4,0.4-0.4,0.5-0.2
		s0,0.5-0.2,0.8c-0.7,1.2-1.9,2.6-3.6,4c-1.7,1.4-3.3,2.1-4.9,2c-0.8-0.1-1.4-0.4-1.8-1c-0.4-0.6-0.6-1.4-0.6-2.5
		c0-0.2-0.1-0.2-0.2-0.1c-1.1,1.3-2,2-2.6,2.1C455.5,83.7,455.3,83.5,455.4,83.1z"/>
	<path class="st85" d="M464.3,83.1c0.1-0.4,0.4-0.7,1-1c0.5,0.1,1-0.1,1.6-0.6c0.6-0.5,1.1-1.1,1.6-1.8c0.2-0.3,0.4-0.6,0.5-1
		c0.5-1.5,1-3,1.6-4.4c0.5-1.2,1-2.3,1.5-3.3c0.5-1,1-1.6,1.4-2c0.4-0.4,1.5-0.9,3.1-1.5c1.6-0.6,2.9-1,3.8-1.2
		c0.6-0.1,0.8-0.1,0.7,0c-0.1,0.1-0.3,0.3-0.6,0.5c-0.7,0.5-1.4,1.3-2.2,2.3c-0.8,1-1.5,2.1-2.3,3.4c-0.7,1.2-1.4,2.4-2,3.6
		c-0.6,1.2-1.2,2.5-1.7,3.8c-0.1,0.2-0.1,0.3,0,0.3c0.1,0,0.2,0,0.3-0.2c0.5-0.7,1.1-1.5,1.7-2.4c0.7-0.9,1.3-1.6,2.1-2.1
		c2.2-1.4,3.6-2.1,4.2-1.9c0.6,0.1,0.7,0.4,0.3,0.9c-0.6,0.8-1,1.6-1.2,2.5s-0.3,1.7-0.3,2.4c0,0.7,0.2,1.2,0.4,1.6
		c0.3,0.3,0.6,0.3,1.1,0c0.3-0.2,0.7-0.6,1.2-1.2c0.5-0.6,0.8-0.8,0.9-0.7c0.2,0.2,0.1,0.6-0.6,1.4c-0.6,0.8-1.3,1.4-1.9,2.1
		c-0.7,0.6-1.5,1.2-2.4,1.7s-1.8,0.7-2.8,0.7c-0.4-0.1-0.7-0.3-0.9-0.9s-0.2-1.1-0.1-1.7c0.1-0.6,0.2-1.2,0.4-1.9
		c0.2-0.7,0.5-1.3,0.7-1.8c0.4-0.8,0.5-1.3,0.4-1.3s-0.3,0.1-0.6,0.5c-0.1,0.1-0.4,0.5-0.7,1s-0.8,1.1-1.2,1.8
		c-0.4,0.6-0.9,1.2-1.3,1.8s-0.8,0.9-1,1c-1.1,0.7-2.2,1.3-3.4,1.7c-0.2,0.1-0.2-0.3,0-1.2c0.1-0.6,0.3-1.4,0.6-2.3
		c0.1-0.3,0.1-0.3-0.1-0.1c-0.6,0.6-1.1,1.2-1.7,1.6c-0.5,0.4-1.1,0.7-1.5,0.8C464.4,83.7,464.2,83.5,464.3,83.1z"/>
</g>
<g>
	<path class="st86" d="M119.3,14.7h7.1v11.5h3.3V14.7h7.1v32.1h-7.1V32h-3.3v14.8h-7.1V14.7z"/>
	<path class="st86" d="M141.1,46.8V14.7h14.5v6.1h-7.4v5.5h7.1v6.1h-7.1v8.4h7.7v6.1H141.1z M145.2,7.6h5.7l2.7,4.9h-4.2l-1.4-2.2
		l-1.4,2.2h-4.2L145.2,7.6z M146.3,54.3v-4.5h4.6v4.5H146.3z"/>
	<path class="st86" d="M168.2,20.5v-5.9h15.4v5.9h-4.1v26.2h-7.1V20.5H168.2z"/>
	<path class="st86" d="M186.5,14.7h7.1v11.5h3.3V14.7h7.1v32.1h-7.1V32h-3.3v14.8h-7.1V14.7z"/>
	<path class="st86" d="M208,25c0-2,0.2-3.7,0.5-5.1c0.3-1.4,0.9-2.5,1.6-3.3c1.3-1.6,3.6-2.4,6.9-2.4c3.2,0,5.5,0.8,6.9,2.4
		c1.3,1.6,2,4.4,2.1,8.4v11.4c0,4-0.7,6.8-2.1,8.4c-1.3,1.6-3.6,2.4-6.9,2.4c-3.2,0-5.5-0.8-6.9-2.4c-1.3-1.6-2-4.4-2.1-8.4V25z
		 M214,7.6h5.7l2.7,4.9h-4.2l-1.4-2.2l-1.4,2.2h-4.2L214,7.6z M216.6,1.6h5.2l-2.9,4.9h-4.2L216.6,1.6z M215.2,24.1v14.2
		c0,1.2,0.1,2,0.4,2.4c0.3,0.3,0.7,0.5,1.4,0.5c0.7,0,1.1-0.2,1.4-0.5c0.3-0.4,0.4-1.2,0.4-2.5v-0.7v-14c0-1.3-0.1-2.2-0.4-2.5
		c-0.2-0.4-0.7-0.5-1.4-0.5c-0.7,0-1.1,0.2-1.4,0.5c-0.3,0.3-0.4,1.1-0.4,2.3V24.1z"/>
	<path class="st86" d="M229.8,14.7h6.6c0.6,0.9,1.2,2.1,2,3.8c0.6,1.3,1.3,2.8,2,4.7v-8.5h7v32.1h-7v-6.3c0-2.8-0.3-5.4-0.9-7.8
		c-0.6-2.6-1.4-4.9-2.6-7.2v21.3h-7.1V14.7z"/>
	<path class="st86" d="M251.5,25c0-2,0.2-3.7,0.5-5.1c0.3-1.4,0.9-2.5,1.6-3.3c1.3-1.6,3.6-2.4,6.9-2.4c3.2,0,5.4,0.8,6.9,2.3
		c1.3,1.6,2,4.2,2.1,7.8v1.3h-7.2v-2.3c0-1.3-0.1-2.2-0.4-2.5c-0.2-0.4-0.7-0.5-1.4-0.5c-0.7,0-1.1,0.2-1.4,0.5
		c-0.3,0.3-0.4,1.1-0.4,2.3v0.9v13.2c0,1.6,0.1,2.7,0.4,3.2c0.3,0.4,0.8,0.6,1.6,0.6c0.8,0,1.3-0.2,1.6-0.7c0.3-0.4,0.4-1.6,0.5-3.4
		v-0.8v-3.5h-1.9v-5.3h8.5v19.3h-3l-0.9-1.4c-0.8,0.6-1.6,1-2.4,1.4c-0.8,0.3-1.9,0.4-3.1,0.4c-3,0-5.1-0.8-6.5-2.5
		c-1.3-1.6-1.9-4.4-2-8.3V25z"/>
	<path class="st86" d="M282.5,20.5v-5.9h15.4v5.9h-4.1v26.2h-7.1V20.5H282.5z"/>
	<path class="st86" d="M300.8,46.8V14.7h14.5v6.1h-7.4v5.5h7.1v6.1h-7.1v8.4h7.7v6.1H300.8z"/>
	<path class="st86" d="M340.1,46.8V22.4c-1.2,1.5-2.1,3.1-2.7,4.7c-0.5,1.6-0.8,3.9-0.8,6.8v1.8v11.1h-7V33.8c0-2.9-0.3-5.1-0.8-6.8
		c-0.5-1.7-1.4-3.2-2.6-4.7v24.4H319V14.7h9.5c0.9,1,1.8,2.2,2.6,3.8c0.8,1.4,1.5,3,2,4.7c0.5-1.6,1.1-3.1,2-4.7
		c0.7-1.4,1.6-2.7,2.7-3.9h9.5v32.1H340.1z"/>
	<path class="st86" d="M362.5,14.7h10c2.9,0,5,0.7,6.2,2.1c1.3,1.3,1.9,3.5,2,6.6v14.8c0,3-0.6,5.2-1.9,6.6c-1.3,1.3-3.4,2-6.3,2
		h-10V30.7h-2.2v-3.3h2.2V14.7z M369.6,20.8v6.7h2.2v3.3h-2.2v10h1.3c1,0,1.7-0.2,2-0.5c0.4-0.3,0.6-1.2,0.6-2.6v-0.7v-13
		c0-1.4-0.2-2.2-0.6-2.6c-0.4-0.4-1.1-0.5-2-0.5H369.6z"/>
	<path class="st86" d="M384.7,14.7h7.1v32.1h-7.1V14.7z"/>
	<path class="st86" d="M396.3,46.8V14.7h14.5v6.1h-7.4v5.5h7.1v6.1h-7.1v8.4h7.7v6.1H396.3z M400.4,7.6h5.7l2.7,4.9h-4.2l-1.4-2.2
		l-1.4,2.2h-4.2L400.4,7.6z M401.5,54.3v-4.5h4.6v4.5H401.5z"/>
	<path class="st86" d="M414.5,14.7h6.6c0.6,0.9,1.2,2.1,2,3.8c0.6,1.3,1.3,2.8,2,4.7v-8.5h7v32.1h-7v-6.3c0-2.8-0.3-5.4-0.9-7.8
		c-0.6-2.6-1.4-4.9-2.6-7.2v21.3h-7.1V14.7z"/>
	<path class="st86" d="M445.4,20.5v-5.9h15.4v5.9h-4.1v26.2h-7.1V20.5H445.4z"/>
	<path class="st86" d="M481.3,20.4v16.1c0,4-0.7,6.8-2.1,8.4c-1.3,1.6-3.6,2.4-6.8,2.4c-3.2,0-5.5-0.8-6.8-2.4c-1.3-1.7-2-4.4-2-8.4
		V14.7h7.1v23.6c0,1.2,0.1,2,0.4,2.4c0.3,0.3,0.7,0.5,1.4,0.5s1.1-0.2,1.4-0.6c0.2-0.4,0.4-1.4,0.4-2.8V14.7h4.8v-3h4.8v6.5
		L481.3,20.4z M470.8,13.2c0-0.5,0.1-0.9,0.3-1.4c0.1-0.5,0.4-1.1,0.8-1.7c0,0,0.1-0.1,0.2-0.3c0.5-0.8,0.7-1.4,0.8-2
		c0-0.4,0-0.7-0.1-0.8c-0.1-0.1-0.2-0.1-0.3-0.1s-0.2,0-0.3,0.1c0,0.1-0.1,0.3-0.1,0.8v1.3H469V7.9c0-1.4,0.3-2.3,0.8-2.9
		c0.5-0.6,1.4-0.9,2.6-0.9c1.2,0,2.1,0.3,2.7,0.9c0.6,0.6,0.9,1.5,0.9,2.6c0,1-0.4,2.1-1.1,3.3c-0.2,0.2-0.2,0.3-0.3,0.4
		c-0.3,0.5-0.6,1-0.8,1.4c0,0.1-0.1,0.2-0.1,0.4H470.8z"/>
</g>
</svg>
