<?xml version="1.0" encoding="utf-8"?>
<!-- Generator: Adobe Illustrator 21.1.0, SVG Export Plug-In . SVG Version: 6.00 Build 0)  -->
<svg version="1.1" id="Layer_1" xmlns="http://www.w3.org/2000/svg" xmlns:xlink="http://www.w3.org/1999/xlink" x="0px" y="0px"
	 viewBox="0 0 38 38" style="enable-background:new 0 0 38 38;" xml:space="preserve">
<style type="text/css">
	.st0{fill:#915715;}
</style>
<title>Tiếp nhận xử lý đăng ký</title>
<g>
	<g>
		<polygon class="st0" points="21.9,14 21.9,13.9 22.1,13.6 21.9,14 		"/>
		<polygon class="st0" points="17.1,21.2 21.5,14.6 21.5,14.6 17.1,21.2 		"/>
		<path class="st0" d="M26.6,16.3l0.2-0.3c0.6-0.9,0.3-2-0.5-2.6L25,12.6c-0.9-0.6-2-0.3-2.6,0.5l-0.3,0.5l0,0l-0.2,0.3l-0.1,0.1
			l0,0l-0.4,0.6l0,0l-4.4,6.7l0,0l-0.4,0.6l-0.3,0.4l0,0l0,0l0,0l0,0l0,0l0,0l0,0l0,0l-0.5,4.5H7.1c-0.2,0-0.4,0.2-0.4,0.4
			c0,0.2,0.2,0.4,0.4,0.4h9.1h0.1l4.3-2.5l0,0l0,0l0,0l0,0L26.6,16.3L26.6,16.3z M16.6,26.7l0.4-3.6l2.7,1.8L16.6,26.7z M20.6,24
			l-0.3,0.4l-3.1-2l0.3-0.4l4.8-7.3h0.1l3,2L20.6,24z M26.1,15.5L25.8,16l0,0L23,14.1L22.7,14l0.3-0.5c0.3-0.5,1-0.7,1.6-0.3
			l1.2,0.8C26.3,14.4,26.5,15,26.1,15.5L26.1,15.5z"/>
		<path class="st0" d="M7,24.7h7.7c0.2-0.1,0.4-0.3,0.3-0.5c0-0.2-0.2-0.3-0.3-0.3H7c-0.2,0.1-0.4,0.3-0.3,0.5
			C6.7,24.6,6.8,24.7,7,24.7z"/>
		<path class="st0" d="M7,21.6h7c0.2,0,0.3-0.1,0.3-0.3V21c0-0.2-0.1-0.3-0.3-0.3H7c-0.2,0-0.3,0.1-0.3,0.3v0.2
			C6.7,21.4,6.8,21.6,7,21.6C7,21.6,7,21.6,7,21.6z"/>
		<path class="st0" d="M32.5,16.1l-2.1-0.3c-0.2-0.5-0.4-1.1-0.6-1.6l1.3-1.7c0.5-0.7,0.5-1.6-0.1-2.2l-1.7-1.8
			c-0.6-0.6-1.5-0.7-2.2-0.1l-1.6,1.3c-0.5-0.3-1-0.5-1.5-0.6L23.7,7c-0.1-0.9-0.8-1.5-1.7-1.5h-2.4c-0.4,0-0.7,0.1-1,0.4H5.7
			C4.8,5.9,4,6.7,4,7.6c0,0,0,0,0,0v21.5c0,1.7,1.3,3,2.9,3.1c0,0,0,0,0.1,0h11.6c0.3,0.2,0.6,0.4,1,0.4H22c0.4,0,0.7-0.1,1-0.4
			c0.3-0.2,0.5-0.5,0.6-0.9c0-0.1,0.1-0.2,0.1-0.2l0.3-2.1c0.5-0.2,1-0.4,1.5-0.6l0.1,0.1l0.9,0.7l0.6,0.5c0.6,0.5,1.6,0.5,2.2-0.1
			l1.8-1.8c0.6-0.6,0.7-1.6,0.1-2.2l-1.3-1.7c0.2-0.5,0.5-1,0.6-1.5l2.1-0.3c0.8-0.1,1.5-0.8,1.5-1.7v-2.5
			C34,16.9,33.4,16.2,32.5,16.1z M32.9,20.3c0,0.3-0.2,0.5-0.5,0.6L30,21.1c-0.2,0-0.4,0.2-0.5,0.4c-0.2,0.7-0.5,1.4-0.8,2
			c-0.1,0.2-0.1,0.4,0,0.6l1.5,2c0.2,0.2,0.2,0.5,0,0.7l-1.7,1.8c-0.2,0.2-0.5,0.2-0.7,0l-1.3-1l-0.6-0.5c-0.1-0.1-0.2-0.1-0.2-0.1
			c-0.1,0-0.2,0-0.4,0c-0.6,0.4-1.3,0.6-2,0.8c-0.2,0.1-0.4,0.2-0.4,0.5l-0.3,2.5c0,0.3-0.3,0.5-0.5,0.5h-2.5c-0.1,0-0.2,0-0.3-0.1
			c-0.1-0.1-0.2-0.2-0.2-0.4l-0.3-2.5c0-0.2-0.2-0.4-0.4-0.5c-0.2-0.1-0.3,0-0.5,0.2s-0.2,0.8-0.2,0.8l0,0L18,31
			c0,0.1,0,0.2,0.1,0.3H7c-1.2,0-2.2-1-2.1-2.2V7.6c0-0.5,0.4-0.9,0.9-0.9c0,0,0,0,0,0H18c0,0.1,0,0.2,0,0.3l-0.2,1.3
			c-0.1,0.5-0.1,1,0,1.5c0,0.2,0.3,0.4,0.5,0.3c0.2-0.1,0.4-0.2,0.4-0.5L19,7.1c0-0.2,0.1-0.3,0.2-0.4c0.1-0.1,0.2-0.1,0.3-0.1H22
			c0.3,0,0.5,0.2,0.5,0.5l0.4,2.5c0,0.2,0.2,0.4,0.4,0.5c0.7,0.2,1.3,0.5,2,0.8c0.2,0.1,0.4,0.1,0.6,0l1.9-1.5
			c0.2-0.2,0.5-0.2,0.7,0l1.7,1.8c0.2,0.2,0.2,0.5,0,0.7l-1.5,2c-0.1,0.2-0.1,0.4,0,0.6c0.3,0.6,0.6,1.3,0.8,2
			c0.1,0.2,0.2,0.4,0.5,0.4l2.4,0.3c0.3,0,0.5,0.3,0.5,0.5L32.9,20.3z"/>
		<polygon class="st0" points="22.1,13.6 22.1,13.6 22.1,13.6 		"/>
		<path class="st0" d="M13.4,10.5c-0.7-0.7-1.6-1.2-2.6-1.2c-2,0.1-3.7,1.8-3.6,3.8c0,0,0,0,0,0c0,1,0.4,2,1.1,2.8l0,0l0.1,0.1
			l0.2,0.2l0.1,0.1l0.2,0.1L9,16.4l0.2,0.1l0.1,0.1l0.2,0.1l0.2,0.1l0.2,0.1l0.2,0h0.1h0.2h0.1h0.4h0.4h0.1h0.2h0.1l0.2,0l0.2-0.1
			l0.2-0.1l0.2-0.1l0.1-0.1l0.2-0.1l0.1-0.1l0.2-0.1l0.1-0.1l0.2-0.2l0.1-0.1l0,0C14.7,14.3,14.8,12,13.4,10.5z M12.9,15.6l-0.1,0.1
			l-0.1,0.1l-0.1,0.1l-0.1,0.1L12.2,16l-0.1,0.1L12,16.1l-0.1,0h-0.1h-0.2h-0.1h-0.2h-0.1h-0.3h-0.3h-0.1h-0.2h-0.1H9.9H9.8l-0.1,0
			l-0.1-0.1l-0.1,0l-0.1-0.1l-0.1-0.1L9,15.7v-0.1l-0.1-0.1l0,0c0-0.9,0.6-1.7,1.4-2c0.4,0.2,0.9,0.2,1.3,0c0.8,0.3,1.4,1.1,1.4,2
			H12.9z M9.9,11.5c0.2-0.5,0.9-0.7,1.3-0.4c0,0,0,0,0.1,0c0.5,0.3,0.7,1,0.4,1.5c-0.1,0.2-0.2,0.3-0.4,0.4l0,0l-0.2,0.1l0,0H11
			h-0.1l0,0h-0.1h-0.1l0,0L10.5,13l0,0C9.9,12.7,9.7,12,9.9,11.5z M13.3,15L13.3,15c-0.1-0.8-0.6-1.5-1.3-1.9
			c0.6-0.7,0.5-1.7-0.1-2.3c-0.6-0.6-1.5-0.6-2.1,0c0,0-0.1,0.1-0.1,0.1c-0.5,0.6-0.5,1.6,0,2.2C9,13.5,8.5,14.2,8.3,15
			c-1-1.5-0.7-3.5,0.7-4.6c1.3-1,3.2-0.7,4.2,0.6c0,0,0.1,0.1,0.1,0.1C14.1,12.3,14.1,13.8,13.3,15L13.3,15z"/>
	</g>
</g>
</svg>
