<?xml version="1.0" encoding="utf-8"?>
<!-- Generator: Adobe Illustrator 21.1.0, SVG Export Plug-In . SVG Version: 6.00 Build 0)  -->
<svg version="1.1" id="Layer_1" xmlns="http://www.w3.org/2000/svg" xmlns:xlink="http://www.w3.org/1999/xlink" x="0px" y="0px"
	 viewBox="0 0 38 38" style="enable-background:new 0 0 38 38;" xml:space="preserve">
<style type="text/css">
	.st0{fill:#915715;}
</style>
<title>Cấu hình kiểm tra định kỳ</title>
<g>
	<path class="st0" d="M27.9,22.9h-0.4c-0.1,0-0.2-0.1-0.3-0.2l-0.1-0.3c-0.1-0.1,0-0.3,0.1-0.4l0.3-0.3c0.3-0.4,0.3-1,0-1.3
		l-0.9-0.9c-0.4-0.3-1-0.3-1.3,0l-0.3,0.3c-0.1,0.1-0.2,0.1-0.4,0.1l-0.3-0.1c-0.1,0-0.2-0.2-0.2-0.3v-0.4c0-0.6-0.4-1-1-1h-1.2
		c-0.6,0-1,0.4-1,1v0.4c0,0.1-0.1,0.2-0.2,0.3l-0.3,0.1c-0.1,0.1-0.3,0-0.4-0.1l-0.3-0.3c-0.4-0.3-1-0.3-1.3,0l-0.9,0.9
		c-0.3,0.4-0.3,1,0,1.3l0.3,0.3c0.1,0.1,0.1,0.2,0.1,0.4l-0.1,0.3c0,0.1-0.2,0.2-0.3,0.2H17c-0.6,0-1,0.4-1,1v1.3c0,0.6,0.4,1,1,1
		h0.4c0.1,0,0.2,0.1,0.3,0.2l0.1,0.3c0.1,0.1,0,0.3-0.1,0.4l-0.3,0.3c-0.3,0.4-0.3,1,0,1.3l0.9,0.9c0.4,0.3,1,0.3,1.3,0l0.3-0.3
		c0.1-0.1,0.2-0.1,0.4-0.1l0.3,0.1c0.1,0,0.2,0.2,0.2,0.3v0.4c0,0.6,0.4,1,1,1h1.3c0.6,0,1-0.4,1-1v-0.4c0-0.1,0.1-0.2,0.2-0.3
		l0.3-0.1c0.1-0.1,0.3,0,0.4,0.1l0.3,0.3c0.4,0.3,1,0.3,1.3,0l0.9-0.9c0.3-0.4,0.3-1,0-1.3L27.2,27c-0.1-0.1-0.1-0.2-0.1-0.4
		l0.1-0.3c0-0.1,0.2-0.2,0.3-0.2h0.4c0.6,0,1-0.4,1-1v-1.3C28.9,23.3,28.4,22.8,27.9,22.9z M28.2,25.1c0,0.2-0.1,0.3-0.3,0.3h-0.4
		c-0.4,0-0.7,0.3-0.9,0.6l-0.1,0.3c-0.1,0.4-0.1,0.8,0.2,1.1l0.3,0.3c0.1,0.1,0.1,0.3,0,0.4l0,0l-0.9,0.9c-0.1,0.1-0.3,0.1-0.5,0
		l-0.3-0.3c-0.3-0.3-0.7-0.3-1.1-0.2l-0.3,0.1c-0.4,0.2-0.6,0.5-0.6,0.9v0.4c0,0.2-0.1,0.3-0.3,0.3h-1.3c-0.2,0-0.3-0.1-0.3-0.3
		v-0.4c0-0.4-0.3-0.7-0.6-0.9l-0.3-0.1c-0.4-0.1-0.8-0.1-1.1,0.2l-0.3,0.3c-0.1,0.1-0.3,0.1-0.5,0l0,0L18,28c-0.1-0.1-0.1-0.3,0-0.5
		l0.3-0.3c0.3-0.3,0.3-0.7,0.2-1.1L18.3,26c-0.2-0.4-0.5-0.6-0.9-0.6h-0.4c-0.2,0-0.3-0.1-0.3-0.3v-1.3c0-0.2,0.1-0.3,0.3-0.3h0.4
		c0.4,0,0.7-0.3,0.9-0.6l0.1-0.3c0.1-0.4,0.1-0.8-0.2-1.1L18,21.3c-0.1-0.1-0.1-0.3,0-0.5l0,0l0.9-0.9c0.1-0.1,0.3-0.1,0.5,0
		l0.3,0.3c0.3,0.3,0.7,0.3,1.1,0.2l0.3-0.1c0.4-0.2,0.6-0.5,0.6-0.9v-0.4c0-0.2,0.1-0.3,0.3-0.3h1.3c0.2,0,0.3,0.1,0.3,0.3v0.4
		c0,0.4,0.3,0.7,0.6,0.9l0.3,0.1c0.4,0.1,0.8,0.1,1.1-0.2l0.3-0.3c0.1-0.1,0.3-0.1,0.5,0l0.9,0.9c0.1,0.1,0.1,0.3,0,0.5l-0.3,0.3
		c-0.3,0.3-0.3,0.7-0.2,1.1l0.1,0.3c0.2,0.4,0.5,0.6,0.9,0.6h0.4c0.2,0,0.3,0.1,0.3,0.3L28.2,25.1L28.2,25.1z"/>
	<path class="st0" d="M25.3,24.3c0-0.1,0-0.1,0-0.2s0-0.2,0-0.2v-0.1l-0.1-0.2v-0.1c0-0.1-0.1-0.2-0.1-0.3l0,0
		c-0.1-0.1-0.2-0.3-0.3-0.4l0,0l-0.1-0.1l-0.1-0.1l-0.1-0.1l-0.1-0.1h0c-0.5-0.4-1.1-0.6-1.7-0.6h-0.4l-0.3,0.1
		c-1.5,0.4-2.4,1.9-2,3.5c0.3,1,1,1.8,2,2l0,0l0.3,0.1h0.4h0.3l0,0h0.2h0.1h0.2h0.1h0.1l0.1-0.1l0.2-0.1l0,0
		c0.3-0.2,0.6-0.4,0.8-0.6c0.1-0.1,0.1-0.1,0.2-0.2c0.2-0.4,0.4-0.8,0.5-1.3c0-0.1,0-0.1,0-0.2s0-0.1,0-0.2s0,0,0,0
		S25.3,24.4,25.3,24.3z M24.7,24.5C24.7,24.5,24.7,24.6,24.7,24.5c0,0.1,0,0.2,0,0.3c-0.1,0.7-0.5,1.2-1.1,1.5l-0.1,0.1l0,0
		c-0.2,0.1-0.4,0.1-0.6,0.2h-0.6H22c-1.2-0.3-1.9-1.5-1.6-2.7c0.2-0.8,0.8-1.4,1.6-1.6l0,0c0.2,0,0.4-0.1,0.6-0.1h0.3h0.1h0.2h0.1
		c0.2,0,0.3,0.1,0.5,0.2h0.1l0.1,0.1l0.1,0.1l0.2,0.2l0.1,0.1l0.1,0.1l0.1,0.1l0.1,0.1v0.1c0,0.1,0.1,0.2,0.1,0.2v0.1l0,0.2v0.1
		c0,0.1,0,0.2,0,0.3c0,0,0,0,0,0.1S24.7,24.5,24.7,24.5z"/>
	<path class="st0" d="M34.2,18.4h-1c-0.1,0-0.3-0.1-0.3-0.2c-0.1-0.3-0.2-0.6-0.4-0.9c-0.1-0.1,0-0.3,0.1-0.4l0.7-0.7
		c0.3-0.4,0.3-1,0-1.3L32,13.6c-0.4-0.3-1-0.3-1.3,0L30,14.3c-0.1,0.1-0.2,0.1-0.4,0.1c-0.3-0.1-0.6-0.3-0.9-0.4
		c-0.1,0-0.2-0.2-0.2-0.3v-1c0-0.6-0.4-1-1-1h-1.9c-0.6,0-1,0.4-1,1v1c0,0.1-0.1,0.3-0.2,0.3c-0.3,0.1-0.6,0.2-0.9,0.4
		c-0.1,0.1-0.3,0-0.4-0.1l-0.7-0.7c-0.4-0.3-1-0.3-1.3,0L19.8,15c-0.3,0.4-0.3,1,0,1.3l1,1c0.1,0.1,0.3,0.1,0.5,0
		c0.1-0.1,0.1-0.3,0-0.4l-1-1c-0.1-0.1-0.1-0.3,0-0.4l1.3-1.3c0.1-0.1,0.3-0.1,0.5,0l0.7,0.7c0.3,0.3,0.7,0.4,1.1,0.2
		c0.3-0.1,0.5-0.2,0.8-0.3c0.4-0.1,0.6-0.5,0.6-0.9v-1c0-0.2,0.1-0.3,0.3-0.3h1.9c0.2,0,0.3,0.1,0.3,0.3v1c0,0.4,0.3,0.8,0.6,0.9
		c0.3,0.1,0.5,0.2,0.8,0.3c0.4,0.2,0.8,0.1,1.1-0.2l0.7-0.7c0.1-0.1,0.3-0.1,0.5,0l1.3,1.3c0.1,0.1,0.1,0.3,0,0.4l-0.7,0.7
		c-0.3,0.3-0.3,0.7-0.1,1.1c0.1,0.3,0.2,0.5,0.3,0.8c0.1,0.4,0.5,0.6,0.9,0.6h1c0.2,0,0.3,0.1,0.3,0.3v1.9c0,0.2-0.1,0.3-0.3,0.3h-1
		c-0.4,0-0.8,0.3-0.9,0.6c-0.1,0.3-0.2,0.5-0.3,0.8c-0.2,0.4-0.1,0.8,0.2,1.1l0.7,0.7c0.1,0.1,0.1,0.3,0,0.5l-1.4,1.4
		c-0.1,0.1-0.3,0.1-0.5,0l-1-1c-0.1-0.1-0.3-0.1-0.5,0c-0.1,0.1-0.1,0.3,0,0.4l0,0l1,1c0.4,0.4,1,0.3,1.4,0l1.3-1.3
		c0.3-0.4,0.3-1,0-1.3l-0.7-0.7c-0.1-0.1-0.1-0.2-0.1-0.4c0.1-0.3,0.3-0.6,0.4-0.9c0-0.1,0.2-0.2,0.3-0.2h1c0.6,0,1-0.4,1-1v-1.9
		C35.2,18.8,34.7,18.4,34.2,18.4z"/>
	<path class="st0" d="M29.5,17.4c-1.6-1.6-4.2-1.6-5.8,0c-0.1,0.1-0.1,0.3,0,0.5c0.1,0.1,0.3,0.1,0.4,0c1.4-1.4,3.6-1.4,4.9-0.1
		s1.4,3.6,0.1,4.9l0,0l0,0c-0.1,0.1-0.2,0.3-0.1,0.4c0.1,0.1,0.3,0.2,0.4,0.1c0,0,0,0,0,0l0,0C31.2,21.6,31.1,19,29.5,17.4z"/>
	<path class="st0" d="M11.9,21.1c-1.3,0-2.4-1.1-2.4-2.4c0-1.3,1.1-2.4,2.4-2.4s2.4,1.1,2.4,2.4c0,0.6-0.3,1.2-0.7,1.7
		C13.2,20.8,12.6,21.1,11.9,21.1z M11.9,16.6c-1.1,0-2.1,0.9-2.1,2s0.9,2.1,2,2.1c1.1,0,2.1-0.9,2.1-2c0,0,0,0,0,0
		C14,17.6,13.1,16.6,11.9,16.6z"/>
	<path class="st0" d="M12.5,19.6c-0.1,0-0.2,0-0.2-0.1l-0.4-0.4l-0.4,0.4c-0.1,0.1-0.3,0.1-0.4,0c-0.1-0.1-0.1-0.3,0-0.5l0.4-0.4
		l-0.4-0.4c-0.1-0.1-0.1-0.3,0-0.5c0.1-0.1,0.3-0.1,0.4,0l0.4,0.4l0.4-0.4c0.1-0.1,0.3-0.2,0.5,0c0.1,0.1,0.2,0.3,0,0.4c0,0,0,0,0,0
		l-0.4,0.4l0.4,0.4c0.1,0.1,0.1,0.3,0,0.5C12.7,19.6,12.6,19.6,12.5,19.6z M11.4,19.4L11.4,19.4z M11.4,18L11.4,18z"/>
	<path class="st0" d="M11.9,12.3c-0.1,0-0.2,0-0.2-0.1l-0.6-0.6C11,11.5,11,11.4,11,11.3c0-0.1,0-0.2,0.1-0.2
		c0.1-0.1,0.1-0.1,0.2-0.1c0.1,0,0.2,0,0.2,0.1l0.3,0.4l1.2-1.2c0.1-0.1,0.1-0.1,0.2-0.1l0,0c0.2,0,0.3,0.1,0.3,0.3
		c0,0.1,0,0.2-0.1,0.2l-1.4,1.4C12,12.2,12,12.2,11.9,12.3z M11.3,11.4L11.3,11.4z M11.4,11.3L11.4,11.3z M13.4,10.6L13.4,10.6z
		 M13.3,10.5L13.3,10.5z"/>
	<path class="st0" d="M14.2,11.2c-0.1,0-0.2,0.1-0.2,0.2c0,0,0,0,0,0c0,1.1-0.9,2.1-2.1,2.1s-2.1-0.9-2.1-2.1s0.9-2.1,2.1-2.1l0,0
		c0.1,0,0.2-0.1,0.2-0.2c0-0.1-0.1-0.2-0.2-0.2c-1.4,0-2.4,1.1-2.4,2.4s1.1,2.4,2.4,2.4s2.4-1.1,2.4-2.4l0,0
		C14.4,11.3,14.3,11.2,14.2,11.2C14.2,11.2,14.2,11.2,14.2,11.2z"/>
	<path class="st0" d="M11.9,27.2c-0.1,0-0.2,0-0.2-0.1l-0.6-0.6C11,26.5,11,26.4,11,26.3c0-0.1,0-0.2,0.1-0.2
		c0.1-0.1,0.1-0.1,0.2-0.1c0.1,0,0.2,0,0.2,0.1l0.3,0.4l1.2-1.2c0.1-0.1,0.1-0.1,0.2-0.1l0,0c0.2,0,0.3,0.1,0.3,0.3
		c0,0.1,0,0.2-0.1,0.2l-1.4,1.4C12,27.2,12,27.2,11.9,27.2z M11.3,26.4L11.3,26.4z M11.4,26.2L11.4,26.2z M13.4,25.6L13.4,25.6z
		 M13.3,25.4L13.3,25.4z"/>
	<path class="st0" d="M14.2,26.2c-0.1,0-0.2,0.1-0.2,0.2l0,0c0,1.1-0.9,2.1-2.1,2.1s-2.1-0.9-2.1-2.1s0.9-2.1,2.1-2.1l0,0
		c0.1,0,0.2-0.1,0.2-0.2c0-0.1-0.1-0.2-0.2-0.2l0,0c-1.4,0-2.4,1.1-2.4,2.5c0,1.4,1.1,2.4,2.4,2.4s2.4-1.1,2.4-2.4
		C14.4,26.3,14.3,26.2,14.2,26.2C14.2,26.2,14.2,26.2,14.2,26.2z"/>
	<path class="st0" d="M27.8,28.8L27.8,28.8c-0.3,0-0.5,0.2-0.5,0.4c0,0,0,0,0,0v1.2l0,0v1.1c0,0.3-0.3,0.6-0.6,0.6c0,0,0,0,0,0H8
		c-0.3,0-0.6-0.3-0.6-0.6c0,0,0,0,0,0V6.6C7.4,6.2,7.7,6,8,6h18.7c0.3,0,0.6,0.3,0.6,0.6c0,0,0,0,0,0v3.8c0,0.1,0.1,0.2,0.2,0.2
		c0.1,0,0.1,0.1,0.2,0.1l0,0c0.2,0,0.4-0.1,0.5-0.3l0,0V6.5c0-0.6-0.4-1.2-1-1.4h-0.3H8c-0.8,0-1.5,0.6-1.5,1.5v25.1
		c0,0.8,0.7,1.5,1.5,1.5h18.7c0.8,0,1.5-0.6,1.6-1.5V31l0,0v-1.8c0-0.1,0-0.2-0.1-0.2C28.1,28.9,28,28.8,27.8,28.8z"/>
	<path class="st0" d="M24.8,9.6h-8.3c-0.3,0-0.4,0.3-0.4,0.5c0,0.2,0.2,0.4,0.4,0.4h8.3c0.3,0,0.4-0.3,0.4-0.5
		C25.2,9.8,25,9.6,24.8,9.6z"/>
	<path class="st0" d="M23.4,11.6h-6.9c-0.3,0-0.4,0.3-0.4,0.5c0,0.2,0.2,0.4,0.4,0.4h6.9c0.3,0,0.4-0.3,0.4-0.5
		C23.7,11.8,23.6,11.6,23.4,11.6z"/>
	<path class="st0" d="M18.9,16.3h-2.4c-0.3,0-0.4,0.3-0.4,0.5c0,0.2,0.2,0.4,0.4,0.4h2.4c0.3,0,0.4-0.3,0.4-0.5
		C19.3,16.5,19.1,16.3,18.9,16.3L18.9,16.3z"/>
	<path class="st0" d="M17.4,18.3h-1c-0.3,0-0.4,0.3-0.4,0.5c0,0.2,0.2,0.4,0.4,0.4h1c0.3,0,0.4-0.3,0.4-0.5
		C17.8,18.5,17.6,18.3,17.4,18.3z"/>
</g>
</svg>
