<svg xmlns="http://www.w3.org/2000/svg" xmlns:xlink="http://www.w3.org/1999/xlink" id="Layer_1" x="0" y="0" version="1.1" viewBox="0 0 38 38" xml:space="preserve" style="enable-background:new 0 0 38 38"><style type="text/css">.st0{fill:none}.st1{fill:#915715}</style><title>Doanh nghiệp vừa và nhỏ</title><g><g><rect width="1.8" height="4.7" x="22.3" y="27.5" class="st0"/><path d="M7.7,32.2h10.6V17.4L7.7,21.7V32.2z M10.1,23.6h5.4c0.3,0.1,0.4,0.4,0.3,0.7c-0.1,0.2-0.2,0.3-0.3,0.3h-5.4 c-0.3-0.1-0.4-0.4-0.3-0.7C9.8,23.8,10,23.6,10.1,23.6z M10.1,26.2h5.4c0.3,0.1,0.4,0.4,0.3,0.7c-0.1,0.2-0.2,0.3-0.3,0.3h-5.4 c-0.3-0.1-0.4-0.4-0.3-0.7C9.8,26.3,10,26.2,10.1,26.2z M10.1,28.7h5.4c0.3,0.1,0.4,0.4,0.3,0.7c-0.1,0.2-0.2,0.3-0.3,0.3h-5.4 c-0.3-0.1-0.4-0.4-0.3-0.7C9.8,28.9,10,28.8,10.1,28.7z" class="st0"/><rect width="1.8" height="4.7" x="25" y="27.5" class="st0"/><path d="M19.2,32.2h2.2V27c0-0.3,0.2-0.5,0.4-0.5h5.3l0,0c0.1,0.1,0.2,0.1,0.3,0.2c0.1,0.1,0.1,0.2,0.1,0.3v5.2h2.2 v-27L19.2,9.5V32.2z M21.8,13.4h5.4c0.3,0.1,0.4,0.4,0.3,0.7c-0.1,0.2-0.2,0.3-0.3,0.3h-5.4c-0.3-0.1-0.4-0.4-0.3-0.7 C21.6,13.5,21.7,13.4,21.8,13.4z M21.8,15.9h5.4c0.3,0.1,0.4,0.4,0.3,0.7c-0.1,0.2-0.2,0.3-0.3,0.3h-5.4c-0.3-0.1-0.4-0.4-0.3-0.7 C21.6,16.1,21.7,16,21.8,15.9z M21.8,18.5h5.4c0.3,0.1,0.4,0.4,0.3,0.7c-0.1,0.2-0.2,0.3-0.3,0.3h-5.4c-0.3-0.1-0.4-0.4-0.3-0.7 C21.6,18.7,21.7,18.5,21.8,18.5z M21.8,21h5.4c0.3,0.1,0.4,0.4,0.3,0.7c-0.1,0.2-0.2,0.3-0.3,0.3h-5.4c-0.3-0.1-0.4-0.4-0.3-0.7 C21.6,21.2,21.7,21.1,21.8,21z M21.8,23.6h5.4c0.3,0.1,0.4,0.4,0.3,0.7c-0.1,0.2-0.2,0.3-0.3,0.3h-5.4c-0.3-0.1-0.4-0.4-0.3-0.7 C21.6,23.8,21.7,23.7,21.8,23.6z" class="st0"/><path d="M21.8,24.7h5.4c0.3-0.1,0.4-0.4,0.3-0.7c-0.1-0.2-0.2-0.3-0.3-0.3h-5.4c-0.3,0.1-0.4,0.4-0.3,0.7 C21.6,24.5,21.7,24.6,21.8,24.7z" class="st1"/><path d="M21.8,22.1h5.4c0.3-0.1,0.4-0.4,0.3-0.7c-0.1-0.2-0.2-0.3-0.3-0.3h-5.4c-0.3,0.1-0.4,0.4-0.3,0.7 C21.6,21.9,21.7,22,21.8,22.1z" class="st1"/><path d="M21.8,19.5h5.4c0.3-0.1,0.4-0.4,0.3-0.7c-0.1-0.2-0.2-0.3-0.3-0.3h-5.4c-0.3,0.1-0.4,0.4-0.3,0.7 C21.6,19.4,21.7,19.5,21.8,19.5z" class="st1"/><path d="M10.1,29.8h5.4c0.3-0.1,0.4-0.4,0.3-0.7c-0.1-0.2-0.2-0.3-0.3-0.3h-5.4c-0.3,0.1-0.4,0.4-0.3,0.7 C9.8,29.6,10,29.7,10.1,29.8z" class="st1"/><path d="M10.1,27.2h5.4c0.3-0.1,0.4-0.4,0.3-0.7c-0.1-0.2-0.2-0.3-0.3-0.3h-5.4c-0.3,0.1-0.4,0.4-0.3,0.7 C9.8,27,10,27.2,10.1,27.2z" class="st1"/><path d="M10.1,24.7h5.4c0.3-0.1,0.4-0.4,0.3-0.7c-0.1-0.2-0.2-0.3-0.3-0.3h-5.4c-0.3,0.1-0.4,0.4-0.3,0.7 C9.8,24.5,10,24.6,10.1,24.7z" class="st1"/><path d="M21.8,17h5.4c0.3-0.1,0.4-0.4,0.3-0.7c-0.1-0.2-0.2-0.3-0.3-0.3h-5.4c-0.3,0.1-0.4,0.4-0.3,0.7 C21.6,16.8,21.7,16.9,21.8,17z" class="st1"/><path d="M21.8,14.4h5.4c0.3-0.1,0.4-0.4,0.3-0.7c-0.1-0.2-0.2-0.3-0.3-0.3h-5.4c-0.3,0.1-0.4,0.4-0.3,0.7 C21.6,14.2,21.7,14.4,21.8,14.4z" class="st1"/><path d="M30.7,28.7V4.5c0-0.3-0.2-0.5-0.4-0.5c-0.1,0-0.1,0-0.2,0L18.6,8.7c-0.2,0.1-0.3,0.3-0.3,0.4v7.2L7.1,21 c-0.2,0.1-0.3,0.3-0.3,0.4v10.8H5.5c-0.1,0-0.1,0-0.1,0.1l-0.1,0c0,0,0,0-0.1,0c-0.2,0.2-0.4,0.4-0.4,0.7c0,0.5,0.4,0.9,0.8,0.9 c0,0,0,0,0,0H32c0.5,0,0.9-0.4,0.9-0.9c0-0.4-0.3-0.7-0.7-0.8c0,0-0.1,0-0.1,0h-1.3V28.7z M18.3,32.2H7.7V21.7l10.6-4.3V32.2z M24.1,32.2h-1.8v-4.7h1.8V32.2z M26.7,32.2H25v-4.7h1.8L26.7,32.2z M29.8,13.6v18.6h-2.2V27c0-0.1,0-0.2-0.1-0.3 c-0.1-0.1-0.2-0.1-0.3-0.2l0,0h-5.4c-0.3,0-0.4,0.2-0.4,0.5v5.2h-2.2V9.5l10.6-4.3V13.6z" class="st1"/></g></g></svg>