<?xml version="1.0" encoding="utf-8"?>
<!-- Generator: Adobe Illustrator 21.1.0, SVG Export Plug-In . SVG Version: 6.00 Build 0)  -->
<svg version="1.1" id="Layer_1" xmlns="http://www.w3.org/2000/svg" xmlns:xlink="http://www.w3.org/1999/xlink" x="0px" y="0px"
	 viewBox="0 0 38 38" style="enable-background:new 0 0 38 38;" xml:space="preserve">
<style type="text/css">
	.st0{fill:#915715;}
</style>
<title>Tra cứu</title>
<g>
	<g>
		<path class="st0" d="M22.4,12.9c0.2,0,0.4,0.2,0.5,0.4c0,0,0,0,0,0c0,0.3,0.2,0.5,0.5,0.5c0.3,0,0.5-0.2,0.5-0.5
			c0-0.6-0.4-1-0.9-1.2v-0.2c0-0.3-0.2-0.5-0.5-0.5c-0.3,0-0.5,0.2-0.5,0.5v0.2c-0.5,0.2-0.9,0.7-0.9,1.2v0.2c0,0.6,0.4,1.1,1,1.2
			l0.5,0.2c0.2,0,0.3,0.2,0.3,0.4v0.2c0,0.3-0.2,0.5-0.5,0.5c-0.3,0-0.5-0.2-0.5-0.5S21.7,15,21.5,15c-0.3,0-0.5,0.2-0.5,0.5
			c0,0.5,0.3,0.9,0.7,1.1v0.3c0,0.3,0.2,0.5,0.5,0.5c0.3,0,0.5-0.2,0.5-0.5v-0.1c0.6-0.1,1.1-0.6,1.1-1.2v-0.2c0-0.6-0.4-1.1-1-1.2
			l-0.5-0.2c-0.2,0-0.3-0.2-0.3-0.4v-0.2C21.9,13.1,22.1,12.9,22.4,12.9C22.4,12.9,22.4,12.9,22.4,12.9z"/>
		<path class="st0" d="M30.2,19.9l-1.1-1.1l-2.2-2.1l0-0.1c0.7-1.5,0.5-3.2-0.3-4.6c-0.2-0.4-0.5-0.7-0.7-1l-0.2-0.1
			c-1.9-1.8-4.9-1.8-6.8,0L18.8,11c-2,2-2,5.1,0,7.1c0.9,0.9,2.2,1.5,3.6,1.5c0.7,0,1.5-0.2,2.1-0.5l0.1-0.1l3.7,3.7l0.8,0.8
			c0.3,0.3,0.6,0.4,1,0.5h0.1c0.4,0,0.9-0.2,1.2-0.5c0.6-0.6,0.6-1.7,0-2.3c0,0,0,0,0,0L30.2,19.9z M22.4,18.7c-1.1,0-2.2-0.4-3-1.2
			C17.9,16,17.7,13.7,19,12c0.1-0.1,0.2-0.3,0.3-0.4c1.7-1.6,4.3-1.6,6,0c0.1,0.1,0.2,0.3,0.3,0.4c1.3,1.7,1.2,4.1-0.3,5.5
			C24.6,18.3,23.5,18.8,22.4,18.7z M31,23c-0.2,0.2-0.4,0.2-0.6,0.3h-0.1c-0.2,0-0.3-0.1-0.5-0.2l-0.6-0.6l-3.8-3.8l0.2-0.1
			c0.3-0.3,0.6-0.6,0.9-0.9l0.1-0.2l2.5,2.6l1.1,1.1l0.8,0.7C31.3,22.1,31.3,22.7,31,23z"/>
		<path class="st0" d="M7.9,14.8H15c0.2,0,0.4-0.2,0.4-0.4S15.2,14,15,14l0,0H7.9c-0.2,0-0.4,0.2-0.3,0.5
			C7.6,14.6,7.7,14.8,7.9,14.8L7.9,14.8z"/>
		<path class="st0" d="M8,18.2h8.3c0.2,0,0.4-0.2,0.3-0.5c0-0.2-0.2-0.3-0.3-0.3H8c-0.2,0-0.4,0.2-0.3,0.5C7.7,18,7.8,18.2,8,18.2z"
			/>
		<path class="st0" d="M19.9,21.1H8.1c-0.3,0-0.6,0.2-0.6,0.4s0.3,0.4,0.6,0.4h11.8c0.3,0,0.6-0.2,0.6-0.4S20.2,21.1,19.9,21.1z"/>
		<path class="st0" d="M33.3,6.8H4.4C4.1,6.7,3.8,7,3.8,7.3c0,0,0,0,0,0v18.4c0,0.8,0.7,1.4,1.4,1.4h10.5v1.4c0,0.4-0.2,0.8-0.5,1.1
			l-0.6,0.5h-1.8c-0.3,0-0.6,0.2-0.6,0.6c0,0.3,0.2,0.5,0.6,0.5h11.6c0.3,0,0.5-0.2,0.5-0.5c0-0.3-0.2-0.6-0.5-0.6h-2l-0.6-0.5
			c-0.3-0.3-0.5-0.7-0.5-1.1v-1.4h11c0.8,0,1.4-0.6,1.4-1.4V7.2C33.8,7,33.6,6.7,33.3,6.8z M18.7,25.6L18.7,25.6c0.1,0,0.2,0,0.3,0
			l0,0c0.1,0,0.1,0.1,0.1,0.1l0,0c0,0,0,0.1,0,0.1c0,0,0,0.1,0,0.1l0,0c0,0.1-0.1,0.2-0.1,0.2c-0.1,0.1-0.1,0.1-0.2,0.1l0,0
			c-0.1,0-0.2,0-0.3,0l0,0c-0.1,0-0.1-0.1-0.1-0.1l0,0c0-0.1,0-0.2,0-0.2l0,0c0-0.1,0.1-0.2,0.1-0.2l0,0
			C18.5,25.7,18.6,25.6,18.7,25.6z M16.2,30.2c0.4-0.5,0.6-1,0.6-1.6v-1.4h3.4v1.4c0,0.6,0.2,1.2,0.6,1.6L16.2,30.2z M32.6,24.9H5
			c-0.1,0-0.1,0-0.1-0.1l0,0V8.3c0-0.3,0.2-0.5,0.5-0.5h27c0.2,0,0.4,0.2,0.4,0.3c0,8.1,0,12.5,0,14.9c0,0.8,0,1.4,0,1.8
			C32.7,24.9,32.7,24.9,32.6,24.9C32.6,24.9,32.6,24.9,32.6,24.9z"/>
		<path class="st0" d="M7.9,11.9h6.7c0.2,0,0.3-0.1,0.3-0.3v-0.2c0-0.2-0.1-0.3-0.3-0.3H7.9c-0.2,0-0.3,0.1-0.3,0.3v0.2
			C7.6,11.8,7.7,11.9,7.9,11.9z"/>
	</g>
</g>
</svg>
