<?xml version="1.0" encoding="utf-8"?>
<!-- Generator: Adobe Illustrator 21.1.0, SVG Export Plug-In . SVG Version: 6.00 Build 0)  -->
<svg version="1.1" id="Layer_1" xmlns="http://www.w3.org/2000/svg" xmlns:xlink="http://www.w3.org/1999/xlink" x="0px" y="0px"
	 viewBox="0 0 38 38" style="enable-background:new 0 0 38 38;" xml:space="preserve">
<style type="text/css">
	.st0{fill:#915715;}
</style>
<title>Quản lý hệ thống</title>
<g>
	<g>
		<path class="st0" d="M21.9,21.2h-0.5c-0.2,0-0.4-0.1-0.4-0.2c0-0.1-0.1-0.3-0.2-0.4c-0.1-0.2,0-0.4,0.1-0.5l0.4-0.4
			c0.5-0.5,0.5-1.4,0-1.9L20,16.5c-0.5-0.5-1.4-0.5-1.9,0l-0.4,0.4C17.6,17,17.4,17,17.3,17l-0.4-0.2c-0.2-0.1-0.3-0.2-0.3-0.4v-0.5
			c0-0.7-0.6-1.3-1.3-1.3l0,0h-1.8c-0.7,0-1.3,0.6-1.3,1.3l0,0v0.5c0,0.2-0.1,0.4-0.3,0.4L11.4,17c-0.2,0.1-0.4,0-0.5-0.1l-0.4-0.4
			C10,16,9.1,16,8.6,16.5l-1.3,1.3c-0.5,0.5-0.5,1.4,0,1.9L7.7,20c0.1,0.1,0.2,0.3,0.1,0.5c-0.1,0.1-0.1,0.3-0.2,0.4
			c-0.1,0.2-0.2,0.3-0.4,0.3H6.7c-0.7,0-1.3,0.6-1.3,1.3l0,0v1.8c0,0.7,0.6,1.3,1.3,1.3l0,0h0.5c0.2,0,0.4,0.1,0.4,0.3
			c0.1,0.1,0.1,0.3,0.2,0.4c0.1,0.2,0,0.4-0.1,0.5l-0.3,0.4c-0.5,0.5-0.5,1.4,0,1.9l1.3,1.3c0.5,0.5,1.4,0.5,1.9,0l0.4-0.4
			c0.1-0.1,0.3-0.2,0.5-0.1l0.4,0.2c0.2,0.1,0.3,0.2,0.3,0.4v0.5c0,0.7,0.6,1.3,1.3,1.3h1.8c0.7,0,1.3-0.6,1.3-1.3v-0.5
			c0-0.2,0.1-0.4,0.3-0.4l0.4-0.2c0.2-0.1,0.4,0,0.5,0.1l0.4,0.4c0.5,0.5,1.4,0.5,1.9,0l1.3-1.3c0.5-0.5,0.5-1.4,0-1.9l-0.4-0.4
			c-0.1-0.1-0.2-0.3-0.1-0.5c0.1-0.1,0.1-0.3,0.2-0.4c0.1-0.2,0.2-0.3,0.4-0.3h0.5c0.7,0,1.3-0.6,1.3-1.3l0,0v-1.8
			C23.3,21.8,22.7,21.2,21.9,21.2C21.9,21.2,21.9,21.2,21.9,21.2z M22.4,24.4c0,0.2-0.2,0.5-0.4,0.5h0h-0.5c-0.6,0-1.1,0.3-1.3,0.9
			c0,0.1-0.1,0.3-0.1,0.4c-0.2,0.5-0.1,1.1,0.3,1.5l0.4,0.4c0.2,0.2,0.2,0.5,0,0.6l0,0l-1.3,1.3c-0.2,0.2-0.5,0.2-0.6,0l-0.4-0.4
			c-0.4-0.4-1-0.5-1.5-0.3l-0.4,0.1c-0.5,0.2-0.9,0.7-0.9,1.3v0.5c0,0.2-0.2,0.5-0.4,0.5c0,0,0,0,0,0h-1.8c-0.2,0-0.4-0.2-0.4-0.4
			v-0.5c0-0.6-0.3-1.1-0.9-1.3l-0.4-0.1c-0.5-0.2-1.1-0.1-1.5,0.3l-0.4,0.4c-0.2,0.2-0.5,0.2-0.6,0l0,0L8,28.6
			c-0.2-0.2-0.2-0.5,0-0.6l0.4-0.4c0.4-0.4,0.5-1,0.3-1.5c-0.1-0.1-0.1-0.3-0.1-0.4c-0.2-0.5-0.7-0.9-1.3-0.9H6.7
			c-0.2,0-0.4-0.2-0.4-0.5l0,0v-1.8c0-0.2,0.2-0.5,0.4-0.5h0h0.5c0.6,0,1.1-0.3,1.3-0.9c0-0.1,0.1-0.3,0.1-0.4
			c0.2-0.5,0.1-1.1-0.3-1.5L8,19c-0.2-0.2-0.2-0.5,0-0.6l0,0l1.3-1.3c0.2-0.2,0.5-0.2,0.6,0l0.4,0.4c0.4,0.4,1,0.5,1.5,0.3l0.4-0.1
			c0.5-0.2,0.9-0.7,0.9-1.2v-0.5c0-0.2,0.2-0.4,0.4-0.4h1.8c0.2,0,0.4,0.2,0.4,0.4v0.5c0,0.6,0.3,1.1,0.9,1.3l0.4,0.1
			c0.5,0.2,1.1,0.1,1.5-0.3l0.4-0.4c0.2-0.2,0.5-0.2,0.6,0l1.3,1.3c0.2,0.2,0.2,0.5,0,0.6l-0.4,0.4c-0.4,0.4-0.5,1-0.3,1.5
			c0.1,0.1,0.1,0.3,0.1,0.4c0.2,0.5,0.7,0.9,1.3,0.9h0.5c0.2,0,0.5,0.2,0.5,0.4v0L22.4,24.4L22.4,24.4z"/>
		<path class="st0" d="M18.3,23.3c0-0.1,0-0.2,0-0.3s0-0.2-0.1-0.3s0-0.1-0.1-0.2s0-0.2-0.1-0.3L18,22c-0.1-0.1-0.1-0.3-0.2-0.4l0,0
			c-0.1-0.2-0.2-0.4-0.4-0.6l0,0l-0.2-0.2l-0.1-0.1L17,20.4l-0.2-0.1l-0.1,0c-0.7-0.5-1.5-0.8-2.4-0.8h-0.1h-0.3h-0.1l-0.4,0.1
			c-2.2,0.5-3.5,2.6-3.1,4.8c0.3,1.5,1.5,2.7,3.1,3.1l0,0l0.5,0.1h0.3h0.2h0.4l0,0l0.3,0h0.1l0.2-0.1l0.2-0.1l0.2-0.1l0.2-0.1
			l0.2-0.1l0,0c0.4-0.2,0.8-0.5,1.1-0.8c0.1-0.1,0.2-0.2,0.2-0.3c0.4-0.6,0.6-1.2,0.7-1.8c0-0.1,0-0.2,0-0.3s0-0.2,0-0.2s0,0,0-0.1
			S18.3,23.4,18.3,23.3z M17.4,23.6c0,0,0,0.1,0,0.1s0,0.2,0,0.3c-0.2,0.9-0.7,1.7-1.6,2.2l-0.2,0.1l0,0c-0.3,0.1-0.5,0.2-0.8,0.3
			h-0.1h-0.2h-0.3H14H14l-0.4-0.1c-1.7-0.4-2.7-2.1-2.3-3.8c0.3-1.1,1.1-2,2.3-2.3l0,0c0.3-0.1,0.5-0.1,0.8-0.1h0.4h0.1l0.3,0.1h0.1
			c0.2,0.1,0.5,0.2,0.7,0.3l0.1,0.1l0.2,0.1l0.1,0.1l0.3,0.2l0.1,0.1l0.1,0.2l0.1,0.1l0.1,0.2l0.1,0.1c0.1,0.1,0.1,0.2,0.1,0.3v0.1
			c0,0.1,0,0.2,0.1,0.3v0.1c0,0.1,0,0.2,0.1,0.4c0,0,0,0.1,0,0.1S17.4,23.5,17.4,23.6L17.4,23.6z"/>
		<path class="st0" d="M30.9,15h-1.4c-0.2,0-0.4-0.1-0.4-0.3c-0.1-0.4-0.3-0.8-0.5-1.2c-0.1-0.2,0-0.4,0.1-0.5l1-1
			c0.5-0.5,0.5-1.4,0-1.9c0,0,0,0,0,0l-1.9-1.9c-0.5-0.5-1.4-0.5-1.9,0c0,0,0,0,0,0l-1,1c-0.1,0.1-0.3,0.2-0.5,0.1
			c-0.4-0.2-0.8-0.4-1.2-0.5c-0.2-0.1-0.3-0.2-0.3-0.4V6.9c0-0.7-0.6-1.3-1.3-1.3l0,0h-2.7c-0.7,0-1.3,0.6-1.3,1.3l0,0v1.4
			c0,0.2-0.1,0.4-0.3,0.4c-0.4,0.1-0.8,0.3-1.2,0.5c-0.2,0.1-0.4,0-0.5-0.1l-1-1c-0.5-0.5-1.4-0.5-1.9,0L10.6,10
			c-0.5,0.5-0.5,1.4,0,1.9c0,0,0,0,0,0l1.5,1.5c0.2,0.1,0.5,0.1,0.6-0.1c0.1-0.2,0.1-0.4,0-0.5l-1.5-1.5c-0.2-0.2-0.2-0.5,0-0.6
			l1.9-1.9c0.2-0.2,0.5-0.2,0.6,0l1,1c0.4,0.4,1,0.5,1.5,0.3c0.4-0.2,0.7-0.3,1.1-0.5c0.5-0.2,0.9-0.7,0.9-1.3V6.9
			c0-0.2,0.2-0.4,0.5-0.4l0,0h2.7c0.2,0,0.5,0.2,0.5,0.4v0v1.4c0,0.6,0.4,1.1,0.9,1.3c0.4,0.1,0.7,0.3,1.1,0.5
			c0.5,0.3,1.1,0.2,1.5-0.3l1-1c0.2-0.2,0.5-0.2,0.6,0l1.9,1.9c0.2,0.2,0.2,0.5,0,0.6l-1,1c-0.4,0.4-0.5,1-0.3,1.5
			c0.2,0.4,0.3,0.7,0.5,1.1c0.2,0.5,0.7,0.9,1.3,0.9h1.4c0.2,0,0.5,0.2,0.5,0.4l0,0V19c0,0.2-0.2,0.5-0.4,0.5h0h-1.4
			c-0.6,0-1.1,0.4-1.3,0.9c-0.1,0.4-0.3,0.7-0.5,1.1C27.5,22,27.6,22.6,28,23l1,1c0.2,0.2,0.2,0.5,0,0.6l-1.9,1.9
			c-0.2,0.2-0.5,0.2-0.6,0L25,25.1c-0.1-0.2-0.4-0.2-0.6-0.1c-0.2,0.1-0.2,0.4-0.1,0.6c0,0,0.1,0.1,0.1,0.1l0,0l1.5,1.5
			c0.5,0.5,1.4,0.5,1.9,0c0,0,0,0,0,0l1.9-1.9c0.5-0.5,0.5-1.4,0-1.9c0,0,0,0,0,0l-1-1c-0.1-0.1-0.2-0.3-0.1-0.5
			c0.2-0.4,0.4-0.8,0.5-1.2c0.1-0.2,0.2-0.3,0.4-0.3h1.4c0.7,0,1.3-0.6,1.4-1.3c0,0,0,0,0,0v-2.7C32.2,15.6,31.6,15,30.9,15z"/>
		<path class="st0" d="M24.3,13.5c-2.3-2.3-6-2.3-8.2,0c-0.1,0.2-0.1,0.5,0.1,0.6c0.2,0.1,0.4,0.1,0.5,0c2-1.8,5.1-1.7,7,0.3
			c1.7,1.9,1.7,4.8,0,6.7l0,0c-0.2,0.1-0.2,0.4-0.1,0.6c0.1,0.2,0.4,0.2,0.6,0.1c0,0,0.1-0.1,0.1-0.1l0,0
			C26.5,19.5,26.5,15.8,24.3,13.5z"/>
	</g>
</g>
</svg>
