<?xml version="1.0" encoding="utf-8"?>
<!-- Generator: Adobe Illustrator 21.1.0, SVG Export Plug-In . SVG Version: 6.00 Build 0)  -->
<svg version="1.1" id="Layer_1" xmlns="http://www.w3.org/2000/svg" xmlns:xlink="http://www.w3.org/1999/xlink" x="0px" y="0px"
	 viewBox="0 0 38 38" style="enable-background:new 0 0 38 38;" xml:space="preserve">
<style type="text/css">
	.st0{fill:#915715;}
	.st1{fill:none;}
</style>
<title>Doanh nghiệp ưu đãi đầu tư</title>
<g>
	<g>
		<path class="st0" d="M32.2,16.1L30,15.8c-0.2-0.5-0.4-1.1-0.7-1.6l1.4-1.7c0.6-0.7,0.5-1.7-0.1-2.2l-1.9-1.8C28,8,27,7.9,26.3,8.4
			l-1.8,1.3c-0.5-0.3-1.1-0.5-1.6-0.6L22.5,7c-0.1-0.9-0.9-1.5-1.8-1.5h-2.7c-0.4,0-0.7,0.1-1,0.3c-0.3,0.3-0.6,0.6-0.7,1
			c0,0,0,0.1,0,0.2l-0.2,1.3c-0.1,0.5-0.1,1,0,1.5c0.1,0.2,0.3,0.4,0.6,0.3c0.2-0.1,0.4-0.2,0.4-0.5l0.3-2.5c0-0.2,0.1-0.3,0.3-0.4
			c0.1-0.1,0.2-0.1,0.3-0.1h2.7c0.3,0,0.5,0.2,0.6,0.5l0.3,2.5c0,0.2,0.2,0.4,0.4,0.5c0.7,0.2,1.5,0.5,2.1,0.8
			c0.2,0.1,0.5,0.1,0.7,0L27,9.3c0.2-0.2,0.6-0.2,0.8,0l1.9,1.8c0.2,0.2,0.2,0.5,0,0.7l-1.6,2c-0.1,0.2-0.2,0.4,0,0.6
			c0.4,0.6,0.7,1.3,0.9,2c0.1,0.2,0.3,0.4,0.5,0.4l2.6,0.3c0.3,0,0.5,0.3,0.5,0.5v2.5c0,0.3-0.2,0.5-0.5,0.6l-2.6,0.3
			c-0.2,0-0.4,0.2-0.5,0.4c-0.2,0.7-0.5,1.4-0.9,2c-0.1,0.2-0.1,0.4,0,0.6l1.6,2c0.2,0.2,0.2,0.5,0,0.7l-1.9,1.8
			c-0.2,0.2-0.6,0.2-0.8,0l-1.4-1l-0.7-0.5c-0.1-0.1-0.2-0.1-0.3-0.1c-0.1,0-0.3,0-0.4,0c-0.7,0.4-1.4,0.6-2.1,0.8
			c-0.2,0.1-0.4,0.2-0.4,0.5l-0.3,2.5c0,0.1,0,0.1,0,0.2c-0.1,0.2-0.3,0.3-0.5,0.3h-2.7c-0.1,0-0.2,0-0.3-0.1
			c-0.1-0.1-0.2-0.2-0.3-0.4l-0.3-2.5c0-0.2-0.2-0.4-0.4-0.5c-0.2-0.1-0.3,0-0.5,0.2S16,28.9,16,28.9l0,0l0.3,1.9l0,0V31
			c0,0.1,0,0.2,0.1,0.3c0.2,0.3,0.4,0.7,0.7,0.9c0.3,0.2,0.6,0.3,1,0.3h2.7c0.4,0,0.8-0.1,1.1-0.4c0.3-0.2,0.5-0.5,0.6-0.9
			c0-0.1,0.1-0.2,0.1-0.2l0.3-2.1c0.6-0.2,1.1-0.4,1.6-0.6l0.2,0.1l0.9,0.7l0.7,0.5c0.7,0.5,1.7,0.5,2.4-0.1l1.9-1.8
			c0.6-0.6,0.7-1.6,0.1-2.2l-1.4-1.7c0.3-0.5,0.6-1,0.8-1.5l2.3-0.3c0.9-0.1,1.6-0.8,1.6-1.7v-2.5C33.8,16.8,33.1,16.1,32.2,16.1z"
			/>
		<path class="st0" d="M14.5,21.7h3.4c0.2,0,0.3-0.1,0.3-0.3c0-0.2-0.1-0.3-0.3-0.3c0,0,0,0,0,0h-3.4c-0.2,0-0.3,0.1-0.3,0.3
			C14.2,21.6,14.4,21.7,14.5,21.7C14.5,21.7,14.5,21.7,14.5,21.7z"/>
		<path class="st0" d="M14.5,20.3h3.4c0.2,0,0.3-0.1,0.3-0.3c0-0.2-0.1-0.3-0.3-0.3c0,0,0,0,0,0h-3.4c-0.2,0-0.3,0.1-0.3,0.3
			C14.2,20.2,14.4,20.3,14.5,20.3C14.5,20.3,14.5,20.3,14.5,20.3z"/>
		<path class="st0" d="M14.5,18.9h3.4c0.2,0,0.3-0.1,0.3-0.3c0-0.2-0.1-0.3-0.3-0.3c0,0,0,0,0,0h-3.4c-0.2,0-0.3,0.1-0.3,0.3
			C14.2,18.7,14.4,18.9,14.5,18.9C14.5,18.9,14.5,18.9,14.5,18.9z"/>
		<path class="st0" d="M10.5,24H7.2c-0.2,0-0.3,0.1-0.3,0.3c0,0.2,0.1,0.3,0.3,0.3c0,0,0,0,0,0h3.4c0.2,0,0.3-0.1,0.3-0.3
			C10.8,24.1,10.7,24,10.5,24C10.5,24,10.5,24,10.5,24z"/>
		<path class="st0" d="M10.5,22.6H7.2c-0.2,0-0.3,0.1-0.3,0.3c0,0.2,0.1,0.3,0.3,0.3c0,0,0,0,0,0h3.4c0.2,0,0.3-0.1,0.3-0.3
			C10.8,22.7,10.7,22.6,10.5,22.6C10.5,22.6,10.5,22.6,10.5,22.6z"/>
		<path class="st0" d="M10.5,21.1H7.2c-0.2,0-0.3,0.1-0.3,0.3c0,0.2,0.1,0.3,0.3,0.3c0,0,0,0,0,0h3.4c0.2,0,0.3-0.1,0.3-0.3
			C10.8,21.3,10.7,21.1,10.5,21.1C10.5,21.1,10.5,21.1,10.5,21.1z"/>
		<path class="st0" d="M14.5,17.4h3.4c0.2,0,0.3-0.1,0.3-0.3c0-0.2-0.1-0.3-0.3-0.3c0,0,0,0,0,0h-3.4c-0.2,0-0.3,0.1-0.3,0.3
			C14.2,17.3,14.4,17.4,14.5,17.4C14.5,17.4,14.5,17.4,14.5,17.4z"/>
		<path class="st0" d="M14.5,16h3.4c0.2,0,0.3-0.1,0.3-0.3c0-0.2-0.1-0.3-0.3-0.3c0,0,0,0,0,0h-3.4c-0.2,0-0.3,0.1-0.3,0.3
			C14.2,15.9,14.4,16,14.5,16C14.5,16,14.5,16,14.5,16z"/>
		<rect x="14.8" y="23.3" class="st1" width="1.1" height="2.6"/>
		<polygon class="st1" points="5.6,25.9 12.3,25.9 12.3,17.7 5.6,20.1 		"/>
		<rect x="16.5" y="23.3" class="st1" width="1.1" height="2.6"/>
		<path class="st1" d="M12.9,25.9h1.4V23c0-0.1,0.1-0.3,0.3-0.3c0,0,0,0,0,0h3.4l0.2,0.1c0,0,0.1,0.1,0.1,0.2v2.9h1.4v-15l-6.7,2.4
			L12.9,25.9z"/>
		<path class="st0" d="M20.1,24V10.5c0-0.1-0.1-0.3-0.3-0.3c0,0,0,0,0,0h-0.1l-7.2,2.6c-0.1,0-0.2,0.1-0.2,0.2v4l-7.1,2.6
			c-0.1,0-0.2,0.1-0.2,0.2v6H4.2c0,0-0.1,0-0.1,0H4.1l0,0c-0.1,0.1-0.2,0.2-0.2,0.4c0,0.3,0.2,0.5,0.5,0.5h16.5
			c0.3,0,0.5-0.2,0.5-0.5c0-0.2-0.2-0.4-0.4-0.5H21h-0.8v-2L20.1,24z M12.3,26H5.6v-5.9l6.7-2.4L12.3,26z M15.9,26h-1.1v-2.7h1.1
			L15.9,26z M17.6,26h-1.1v-2.7h1.1V26z M19.6,15.6v10.3h-1.4V23c0-0.1,0-0.1-0.1-0.2l-0.2-0.1h-3.4c-0.1,0-0.3,0.1-0.3,0.3
			c0,0,0,0,0,0v2.9h-1.4V13.3l6.7-2.4L19.6,15.6z"/>
		<path class="st0" d="M24.5,21.3c-0.5,0-0.9-0.3-0.9-0.8c0,0,0,0,0,0c-0.1-0.5-0.5-0.8-1-0.8c-0.4,0-0.7,0.4-0.8,0.8
			c0,0.9,0.6,1.7,1.4,2V23c0.1,0.5,0.6,0.8,1.1,0.7c0.3-0.1,0.6-0.3,0.7-0.7v-0.2c1.2-0.1,2-1.1,2.1-2.3v-0.3c0-1.1-0.8-1.9-1.8-2.2
			l-1.1-0.3c-0.3-0.1-0.6-0.4-0.6-0.7v-0.3c0.1-0.5,0.5-0.8,1-0.8c0.4,0,0.7,0.4,0.8,0.8c0.1,0.5,0.5,0.8,1,0.8
			c0.4,0,0.7-0.4,0.8-0.8c-0.1-1-0.8-1.9-1.8-2.2v-0.3c-0.1-0.5-0.5-0.8-1-0.8c-0.4,0-0.7,0.4-0.8,0.8v0.3c-1,0.3-1.7,1.1-1.8,2.2
			V17c0,1.1,0.8,2,1.9,2.2l1.1,0.3c0.3,0.1,0.6,0.4,0.6,0.7v0.3C25.3,21,24.9,21.3,24.5,21.3z"/>
	</g>
</g>
</svg>
