<?xml version="1.0" encoding="utf-8"?>
<!-- Generator: Adobe Illustrator 21.1.0, SVG Export Plug-In . SVG Version: 6.00 Build 0)  -->
<svg version="1.1" id="Layer_1" xmlns="http://www.w3.org/2000/svg" xmlns:xlink="http://www.w3.org/1999/xlink" x="0px" y="0px"
	 viewBox="0 0 38 38" style="enable-background:new 0 0 38 38;" xml:space="preserve">
<style type="text/css">
	.st0{fill:#915715;}
</style>
<title>Tiếp nhận xử lý hóa đơn sai xót</title>
<g>
	<g>
		<g>
			<path class="st0" d="M21,27h-9.4c-0.2,0-0.4,0.2-0.4,0.4s0.2,0.4,0.4,0.4H21c0.2,0,0.4-0.2,0.4-0.4S21.2,27,21,27z"/>
			<path class="st0" d="M21,19.8h-9.4c-0.2,0-0.4,0.2-0.4,0.4s0.2,0.4,0.4,0.4H21c0.2,0,0.4-0.2,0.4-0.4S21.2,19.8,21,19.8z"/>
			<path class="st0" d="M13.5,15.8c-0.4,0-0.7-0.3-0.7-0.7c0-0.4-0.3-0.7-0.7-0.7c-0.4,0-0.7,0.3-0.7,0.7c0,0.8,0.4,1.5,1.1,1.9v0.4
				c0,0.4,0.3,0.7,0.7,0.7c0.4,0,0.7-0.3,0.7-0.7v-0.2c1-0.2,1.7-1,1.7-2v-0.3c0-0.9-0.6-1.7-1.5-2l-0.8-0.3
				c-0.3-0.1-0.5-0.4-0.5-0.7v-0.3c0-0.4,0.3-0.7,0.7-0.7c0.4,0,0.7,0.3,0.7,0.7c0,0.4,0.3,0.7,0.7,0.7c0.4,0,0.7-0.3,0.7-0.7
				c0-0.9-0.6-1.7-1.4-2V9.4c0-0.4-0.3-0.7-0.7-0.7c-0.4,0-0.7,0.3-0.7,0.7v0.3c-0.8,0.3-1.4,1.1-1.4,2V12c0,0.9,0.6,1.7,1.5,2
				l0.8,0.3c0.3,0.1,0.5,0.4,0.5,0.7v0.3C14.1,15.6,13.8,15.8,13.5,15.8z"/>
			<path class="st0" d="M29,21.8h-1.9c-0.2,0-0.4,0.2-0.4,0.4s0.2,0.4,0.4,0.4l0,0H29c0.5,0,0.9,0.4,0.9,0.9v5.6
				c-0.1,1.2-1.2,2.2-2.4,2.1c-1.1-0.1-2-1-2.1-2.1v-6.9c0-0.2-0.2-0.4-0.5-0.4c-0.2,0-0.4,0.2-0.4,0.4v6.9c0,0.8,0.4,1.6,1,2.2
				H10.3c-1.2,0-2.2-1-2.3-2.2V7.5C8.1,7,8.5,6.6,9,6.6c0,0,0,0,0,0h14.6c0.5,0,0.9,0.4,0.9,0.9c0,0.2,0.2,0.4,0.5,0.4
				c0.2,0,0.4-0.2,0.4-0.4c0-1-0.8-1.8-1.8-1.8H9c-1,0-1.8,0.8-1.8,1.8v21.7c0,1.7,1.4,3.1,3.2,3.1c0,0,0,0,0,0h17.3
				c1.7,0,3.1-1.4,3.2-3.1c0,0,0,0,0,0v-5.6C30.8,22.6,30,21.8,29,21.8C29,21.8,29,21.8,29,21.8z"/>
			<path class="st0" d="M21,23.3h-6.4c-0.2,0-0.4,0.2-0.4,0.4s0.2,0.4,0.4,0.4H21c0.2,0,0.4-0.2,0.4-0.4S21.2,23.3,21,23.3z"/>
			<path class="st0" d="M20.2,14.6c-0.2,0-0.4-0.2-0.4-0.4c0,0,0,0,0,0c0-1.3,0.5-2.6,1.4-3.6c1-1.1,2.4-1.7,3.9-1.7
				c0.9,0,1.9,0.3,2.7,0.8c0.4,0.2,0.7,0.5,1,0.8V9.9c0-0.2,0.2-0.4,0.4-0.4s0.4,0.2,0.4,0.4c0,0,0,0,0,0l0.1,1.7
				c0,0.1,0,0.3-0.1,0.4C29.4,12,29.3,12,29.2,12l0,0h-0.1h-1.6c-0.1,0-0.2,0-0.3-0.1c-0.1-0.2-0.1-0.4,0-0.5
				c0.1-0.1,0.2-0.1,0.2-0.1h1c-0.3-0.3-0.6-0.6-1-0.8C26.8,10,26,9.8,25.1,9.8c-1.3,0-2.5,0.5-3.3,1.5c-0.8,0.8-1.2,1.9-1.2,3.1
				C20.6,14.5,20.4,14.7,20.2,14.6C20.2,14.6,20.2,14.6,20.2,14.6z"/>
			<path class="st0" d="M25.1,9.6c0.8,0,1.7,0.2,2.4,0.7c0.5,0.3,0.9,0.6,1.2,1h-1.2c-0.1,0-0.3,0.1-0.3,0.3c0,0.1,0.1,0.3,0.3,0.3
				l1.7,0.1c0.1,0.1,0.3,0,0.3-0.1c0-0.1,0-0.1,0-0.2l-0.1-1.7c0-0.1-0.1-0.3-0.3-0.3s-0.3,0.1-0.3,0.3l0,0v1
				c-0.4-0.4-0.8-0.7-1.2-1c-0.8-0.5-1.7-0.7-2.6-0.8c-1.4,0-2.8,0.6-3.8,1.7c-0.9,1-1.4,2.2-1.4,3.5c0,0.1,0.1,0.3,0.3,0.3
				s0.3-0.1,0.3-0.3c0-1.2,0.5-2.3,1.3-3.1C22.5,10.2,23.8,9.6,25.1,9.6z"/>
			<path class="st0" d="M25.1,19.6c-0.9,0-1.9-0.3-2.7-0.8c-0.4-0.2-0.7-0.5-1-0.8v0.7c0,0.1,0,0.2-0.1,0.3c-0.1,0.1-0.4,0.2-0.5,0
				c-0.1-0.1-0.1-0.2-0.1-0.3L20.6,17c0-0.1,0-0.3,0.1-0.4c0.1-0.1,0.2-0.1,0.3-0.1l0,0h0.1h1.6c0.1,0,0.2,0,0.3,0.1
				c0.1,0.2,0.1,0.4,0,0.5c-0.1,0.1-0.2,0.1-0.2,0.1h-1c0.3,0.3,0.6,0.6,1,0.8c0.7,0.4,1.5,0.7,2.3,0.7c1.3,0,2.5-0.5,3.3-1.5
				c0.8-0.8,1.2-1.9,1.2-3.1c0-0.2,0.2-0.4,0.4-0.4c0.2,0,0.4,0.2,0.4,0.4c0,1.3-0.5,2.6-1.3,3.6C28,18.9,26.6,19.6,25.1,19.6z"/>
			<path class="st0" d="M30,14c-0.1,0-0.3,0.1-0.3,0.3l0,0c0,1.2-0.5,2.3-1.3,3.1c-0.9,1-2.1,1.5-3.4,1.5c-0.8,0-1.7-0.2-2.4-0.7
				c-0.5-0.3-0.9-0.6-1.2-1h1.2c0.1,0,0.3-0.1,0.3-0.3s-0.1-0.3-0.3-0.3L21,16.7c-0.1-0.1-0.3,0-0.3,0.1c0,0.1,0,0.1,0,0.2l0.1,1.7
				c0,0.1,0.1,0.3,0.3,0.3s0.3-0.1,0.3-0.3l0,0v-1c0.4,0.4,0.8,0.7,1.2,1c0.8,0.5,1.7,0.7,2.6,0.8c1.4,0,2.8-0.6,3.8-1.7
				c0.9-1,1.4-2.2,1.4-3.5C30.3,14.1,30.2,14,30,14C30,14,30,14,30,14z"/>
		</g>
	</g>
	<path class="st0" d="M13.5,25.2c-0.1,0-0.2,0-0.3-0.1l-0.6-0.6L11.9,25c-0.2,0.2-0.5,0.1-0.6-0.1c-0.1-0.2-0.1-0.4,0-0.6l0.6-0.6
		l-0.6-0.6c-0.2-0.2-0.1-0.5,0.1-0.6c0.2-0.1,0.4-0.1,0.6,0l0.6,0.6l0.6-0.6c0.2-0.2,0.5-0.1,0.6,0.1c0.1,0.2,0.1,0.4,0,0.6
		l-0.6,0.6l0.6,0.6c0.2,0.2,0.2,0.5,0,0.6C13.7,25.1,13.6,25.2,13.5,25.2z"/>
	<g>
		<g>
			<path class="st0" d="M21.2,27h-9.5c-0.2,0-0.4,0.2-0.4,0.4s0.2,0.4,0.4,0.4h9.5c0.2,0,0.4-0.2,0.4-0.4S21.5,27,21.2,27z"/>
			<path class="st0" d="M21.2,19.8h-9.5c-0.2,0-0.4,0.2-0.4,0.4s0.2,0.4,0.4,0.4h9.5c0.2,0,0.4-0.2,0.4-0.4S21.5,19.8,21.2,19.8z"/>
			<path class="st0" d="M13.7,15.8c-0.4,0-0.7-0.3-0.7-0.7c0-0.4-0.3-0.7-0.7-0.7c-0.4,0-0.7,0.3-0.7,0.7c0,0.8,0.4,1.5,1.1,1.9v0.4
				c0,0.4,0.3,0.7,0.7,0.7c0.4,0,0.7-0.3,0.7-0.7v-0.2c1-0.2,1.7-1,1.7-2v-0.3c0-0.9-0.6-1.7-1.5-2l-0.8-0.3
				C13.2,12.5,13,12.3,13,12v-0.3c0-0.4,0.3-0.7,0.7-0.7c0.4,0,0.7,0.3,0.7,0.7c0,0.4,0.3,0.7,0.7,0.7c0.4,0,0.7-0.3,0.7-0.7
				c0-0.9-0.6-1.7-1.4-2V9.4c0-0.4-0.3-0.7-0.7-0.7C13.3,8.7,13,9,13,9.4v0.3c-0.8,0.3-1.4,1.1-1.4,2V12c0,0.9,0.6,1.7,1.5,2
				l0.8,0.3c0.3,0.1,0.5,0.4,0.5,0.7v0.3C14.4,15.6,14.1,15.8,13.7,15.8z"/>
			<path class="st0" d="M29.2,21.8h-1.9c-0.2,0-0.4,0.2-0.4,0.4s0.2,0.4,0.4,0.4h1.9c0.5,0,0.9,0.4,0.9,0.9v5.6
				c-0.1,1.2-1.2,2.2-2.4,2.1c-1.1-0.1-2-1-2.1-2.1v-6.9c0-0.2-0.2-0.4-0.5-0.4c-0.2,0-0.4,0.2-0.4,0.4v6.9c0,0.8,0.4,1.6,1,2.2
				H10.5c-1.2,0-2.2-1-2.3-2.2V7.5c0-0.5,0.4-0.9,0.9-0.9h14.7c0.5,0,0.9,0.4,0.9,0.9c0,0.2,0.2,0.4,0.5,0.4c0.2,0,0.4-0.2,0.4-0.4
				c0-1-0.8-1.8-1.8-1.8H9.2c-1,0-1.8,0.8-1.8,1.8v21.7c0,1.7,1.4,3.1,3.2,3.1c0,0,0,0,0,0h17.3c1.7,0,3.1-1.4,3.1-3.1v-5.6
				C31,22.6,30.2,21.8,29.2,21.8z"/>
			<path class="st0" d="M21.2,23.3h-6.5c-0.2,0-0.4,0.2-0.4,0.4s0.2,0.4,0.4,0.4h6.5c0.2,0,0.4-0.2,0.4-0.4S21.5,23.3,21.2,23.3
				L21.2,23.3z"/>
			<path class="st0" d="M20.4,14.6c-0.2,0-0.4-0.2-0.4-0.4c0,0,0,0,0,0c0-1.3,0.5-2.6,1.4-3.6c1-1.1,2.4-1.7,3.9-1.7
				c1,0,1.9,0.3,2.7,0.8c0.4,0.2,0.7,0.5,1,0.8V9.9c0-0.2,0.2-0.4,0.4-0.4s0.4,0.2,0.4,0.4c0,0,0,0,0,0l0.1,1.7c0,0.1,0,0.3-0.1,0.4
				C29.6,12,29.5,12,29.4,12l0,0h-0.1h-1.6c-0.1,0-0.2,0-0.3-0.1c-0.1-0.2-0.1-0.4,0-0.5c0.1-0.1,0.2-0.1,0.2-0.1h1
				c-0.3-0.3-0.6-0.6-1-0.8C27,10,26.2,9.8,25.4,9.8c-1.3,0-2.5,0.5-3.4,1.4c-0.8,0.8-1.2,1.9-1.2,3.1
				C20.8,14.5,20.6,14.6,20.4,14.6C20.4,14.6,20.4,14.6,20.4,14.6z"/>
			<path class="st0" d="M25.3,9.6c0.8,0,1.7,0.2,2.4,0.7c0.5,0.3,0.9,0.6,1.2,1h-1.2c-0.1,0-0.3,0.1-0.3,0.3c0,0.1,0.1,0.3,0.3,0.3
				c0,0,0,0,0,0l1.7,0.1c0.1,0.1,0.3,0,0.3-0.1c0-0.1,0-0.1,0-0.2l-0.1-1.7c0-0.1-0.1-0.3-0.3-0.3s-0.3,0.1-0.3,0.3l0,0v1
				c-0.4-0.4-0.8-0.7-1.2-1c-0.8-0.5-1.7-0.7-2.6-0.8c-1.4,0-2.8,0.6-3.8,1.7c-0.9,1-1.4,2.2-1.4,3.5c0,0.1,0.1,0.3,0.3,0.3
				s0.3-0.1,0.3-0.3c0-1.2,0.5-2.3,1.3-3.1C22.7,10.2,24,9.6,25.3,9.6z"/>
			<path class="st0" d="M25.4,19.6c-0.9,0-1.9-0.3-2.7-0.8c-0.4-0.2-0.7-0.5-1-0.8v0.7c0,0.1,0,0.2-0.1,0.3c-0.1,0.1-0.4,0.2-0.5,0
				c-0.1-0.1-0.1-0.2-0.1-0.3L20.8,17c0-0.1,0-0.3,0.1-0.4c0.1-0.1,0.2-0.1,0.3-0.1l0,0h0.1H23c0.1,0,0.2,0,0.3,0.1
				c0.1,0.2,0.1,0.4,0,0.5c-0.1,0.1-0.2,0.1-0.2,0.1h-1c0.3,0.3,0.6,0.6,1,0.8c0.7,0.4,1.5,0.7,2.3,0.7c1.3,0,2.5-0.5,3.3-1.5
				c0.8-0.8,1.2-1.9,1.2-3.1c0-0.2,0.2-0.4,0.4-0.4c0.2,0,0.4,0.2,0.4,0.4c0,1.3-0.5,2.6-1.4,3.5C28.2,18.9,26.8,19.5,25.4,19.6z"/>
			<path class="st0" d="M30.3,14c-0.1,0-0.3,0.1-0.3,0.3l0,0c0,1.2-0.5,2.3-1.3,3.1c-0.9,1-2.1,1.5-3.4,1.5c-0.8,0-1.6-0.2-2.3-0.7
				c-0.5-0.3-0.9-0.6-1.2-1H23c0.1,0,0.3-0.1,0.3-0.3s-0.1-0.3-0.3-0.3l-1.7-0.1c-0.1,0-0.3,0.1-0.3,0.2c0,0,0,0.1,0,0.1v1.7
				c0,0.1,0.1,0.3,0.3,0.3s0.3-0.1,0.3-0.3l0,0v-1c0.4,0.4,0.8,0.7,1.2,1c0.8,0.5,1.7,0.7,2.6,0.8c1.4,0,2.8-0.6,3.8-1.7
				c0.9-1,1.4-2.2,1.4-3.5C30.6,14.1,30.5,14,30.3,14C30.3,14,30.3,14,30.3,14z"/>
		</g>
	</g>
	<path class="st0" d="M13.7,25.2c-0.1,0-0.2,0-0.3-0.1l-0.6-0.6L12.1,25c-0.2,0.2-0.5,0.1-0.6-0.1c-0.1-0.2-0.1-0.4,0-0.6l0.6-0.6
		l-0.6-0.6c-0.2-0.2-0.1-0.5,0.1-0.6c0.2-0.1,0.4-0.1,0.6,0l0.6,0.6l0.6-0.6c0.2-0.2,0.5-0.1,0.6,0.1c0.1,0.2,0.1,0.4,0,0.6
		l-0.6,0.6l0.6,0.6c0.2,0.2,0.2,0.5,0,0.6C13.9,25.1,13.8,25.2,13.7,25.2z"/>
</g>
</svg>
