<svg xmlns="http://www.w3.org/2000/svg" xmlns:xlink="http://www.w3.org/1999/xlink" id="Layer_1" x="0" y="0" version="1.1" viewBox="0 0 38 38" xml:space="preserve" style="enable-background:new 0 0 38 38"><style type="text/css">.st0{fill:#915715}</style><title>Tiếp nhận xử lý đề nghị phát sinh</title><g><g><path d="M10.2,14.4H18c0.4,0,0.8-0.3,0.8-0.8v-2.3c0-0.4-0.3-0.8-0.8-0.8l0,0h-7.8c-0.4,0-0.8,0.3-0.8,0.8v0v2.3 C9.4,14,9.7,14.4,10.2,14.4z M10.2,11.4H18v2.3h-7.8V11.4z" class="st0"/><path d="M9.8,18.4h7.6c0.2,0,0.4-0.2,0.3-0.4c0-0.2-0.2-0.3-0.3-0.3H9.8c-0.2,0-0.4,0.2-0.3,0.4 C9.5,18.2,9.6,18.3,9.8,18.4z" class="st0"/><path d="M9.7,21H20c0.2,0,0.3-0.2,0.3-0.4s-0.1-0.4-0.3-0.4H9.7c-0.2,0-0.3,0.2-0.3,0.4S9.5,21,9.7,21z" class="st0"/><path d="M9.7,23.7H20c0.2,0,0.3-0.2,0.3-0.4s-0.1-0.4-0.3-0.4H9.7c-0.2,0-0.3,0.2-0.3,0.4S9.5,23.7,9.7,23.7z" class="st0"/><path d="M9.8,26.3h13.6c0.2,0,0.4-0.2,0.3-0.4c0-0.2-0.2-0.3-0.3-0.3H9.8c-0.2,0-0.4,0.2-0.3,0.4 C9.5,26.2,9.6,26.3,9.8,26.3z" class="st0"/><path d="M9.8,29h13.6c0.2,0,0.4-0.2,0.3-0.4c0-0.2-0.2-0.3-0.3-0.3H9.8c-0.2,0-0.4,0.2-0.3,0.4 C9.5,28.8,9.6,29,9.8,29z" class="st0"/><path d="M26.7,15.3c0.8,0,1.6,0.2,2.3,0.7c0.4,0.2,0.7,0.5,1,0.8h-1c-0.2,0-0.4,0.2-0.4,0.4c0,0.1,0,0.2,0.1,0.2 c0.1,0.1,0.2,0.1,0.3,0.1h1.6h0.1l0,0c0.1,0,0.2,0,0.3-0.1c0.1-0.1,0.1-0.2,0.1-0.4L31,15.4c0-0.2-0.2-0.4-0.4-0.4 s-0.4,0.2-0.4,0.4c0,0,0,0,0,0v0.7c-0.3-0.3-0.6-0.6-1-0.8c-0.8-0.5-1.7-0.8-2.7-0.8c-1.5,0-2.9,0.6-3.9,1.7 c-0.9,1-1.4,2.2-1.4,3.5c0,0.2,0.2,0.4,0.4,0.4s0.4-0.2,0.4-0.4c0,0,0,0,0,0c0-1.1,0.5-2.2,1.2-3.1C24.2,15.8,25.4,15.3,26.7,15.3 z" class="st0"/><path d="M31.6,19.5c-0.2,0-0.4,0.2-0.4,0.4v0c0,1.1-0.5,2.2-1.2,3.1c-0.8,0.9-2,1.5-3.3,1.5c-0.8,0-1.6-0.2-2.3-0.7 c-0.4-0.2-0.7-0.5-1-0.8h1c0.2,0,0.4-0.2,0.4-0.4c0-0.1,0-0.2-0.1-0.2c-0.1-0.1-0.2-0.1-0.3-0.1h-1.6h-0.1l0,0 c-0.1,0-0.2,0-0.3,0.1c-0.1,0.1-0.1,0.2-0.1,0.4l0.1,1.7c0,0.2,0.2,0.4,0.4,0.4c0,0,0,0,0,0c0.1,0,0.2,0,0.3-0.1 c0.1-0.1,0.1-0.2,0.1-0.3v-0.7c0.3,0.3,0.6,0.6,1,0.8c0.8,0.5,1.7,0.8,2.7,0.8c1.5,0,2.9-0.6,3.9-1.7c0.9-1,1.3-2.3,1.3-3.6 C32,19.6,31.8,19.5,31.6,19.5z" class="st0"/><path d="M26.7,22.5c0.2,0,0.4-0.2,0.4-0.4v-2.3h2.3c0.2,0,0.4-0.2,0.4-0.4c0-0.2-0.2-0.4-0.4-0.4h-2.3v-2.3 c0-0.2-0.2-0.4-0.4-0.4c-0.2,0-0.4,0.2-0.4,0.4v2.3h-2.3c-0.2,0-0.4,0.2-0.4,0.4c0,0.2,0.2,0.4,0.4,0.4h2.3v2.3 C26.4,22.3,26.5,22.5,26.7,22.5C26.7,22.5,26.7,22.5,26.7,22.5z" class="st0"/><path d="M27.1,11l-4.5-4.1c-0.1-0.1-0.2-0.1-0.3-0.1H7.7C6.8,6.8,6,7.5,6,8.4v6.7l0,0v16.3c0,0.9,0.8,1.7,1.7,1.7 h17.8c0.9,0,1.7-0.8,1.7-1.7v-5.1h-0.8v5c0,0.5-0.4,0.9-0.9,0.9l0,0H7.7c-0.5,0-0.9-0.4-0.9-0.9l0,0V15.2l0,0V8.4 c0-0.5,0.4-0.9,0.9-0.9c0,0,0,0,0,0h14.2v3c0,0.6,0.5,1.2,1.1,1.2h3.4v1.6h0.8v-2.1C27.2,11.2,27.1,11.1,27.1,11z" class="st0"/></g></g></svg>