<svg xmlns="http://www.w3.org/2000/svg" xmlns:xlink="http://www.w3.org/1999/xlink" id="Layer_1" x="0" y="0" version="1.1" viewBox="0 0 38 38" xml:space="preserve" style="enable-background:new 0 0 38 38"><style type="text/css">.st0{fill:#915715}</style><title>Tiếp nhận xử lý hóa đơn phát sinh</title><g><g><path d="M12.3,15.8c-0.4,0-0.7-0.3-0.7-0.7c0-0.4-0.3-0.7-0.7-0.7c-0.4,0-0.7,0.3-0.7,0.7c0,0.8,0.4,1.5,1.1,1.9v0.4 c0,0.4,0.3,0.7,0.7,0.7c0.4,0,0.7-0.3,0.7-0.7v-0.2c1-0.2,1.7-1,1.7-2v-0.3c0-0.9-0.6-1.7-1.5-2l-0.8-0.3 c-0.3-0.1-0.5-0.4-0.5-0.7v-0.3c0-0.4,0.3-0.7,0.7-0.7c0.4,0,0.7,0.3,0.7,0.7c0,0.4,0.3,0.7,0.7,0.7c0.4,0,0.7-0.3,0.7-0.7 c0-0.9-0.6-1.7-1.4-2V9.4c0-0.4-0.3-0.7-0.7-0.7c-0.4,0-0.7,0.3-0.7,0.7v0.3c-0.8,0.3-1.4,1.1-1.4,2V12c0,0.9,0.6,1.7,1.5,2 l0.8,0.3c0.3,0.1,0.5,0.4,0.5,0.7v0.3C13,15.6,12.7,15.8,12.3,15.8z" class="st0"/><path d="M20.1,27h-9.5c-0.2,0-0.4,0.2-0.4,0.4s0.2,0.4,0.4,0.4l0,0h9.5c0.2,0,0.4-0.2,0.4-0.4S20.3,27,20.1,27z" class="st0"/><path d="M29,21.8h-1.9c-0.2,0-0.4,0.2-0.4,0.4s0.2,0.4,0.4,0.4l0,0H29c0.5,0,0.9,0.4,0.9,0.9v5.6 c-0.1,1.2-1.2,2.2-2.4,2.1c-1.1-0.1-2-1-2.1-2.1v-6.9c0-0.2-0.2-0.4-0.5-0.4c-0.2,0-0.4,0.2-0.4,0.4v6.9c0,0.8,0.4,1.6,1,2.2H10.3 c-1.2,0-2.2-1-2.3-2.2V7.5C8.1,7,8.5,6.6,9,6.6c0,0,0,0,0,0h14.6c0.5,0,0.9,0.4,0.9,0.9c0,0.2,0.2,0.4,0.5,0.4 c0.2,0,0.4-0.2,0.4-0.4c0-1-0.8-1.8-1.8-1.8H9c-1,0-1.8,0.8-1.8,1.8v21.7c0,1.7,1.4,3.1,3.2,3.1c0,0,0,0,0,0h17.3 c1.7,0,3.1-1.4,3.2-3.1c0,0,0,0,0,0v-5.6C30.8,22.6,30,21.8,29,21.8C29,21.8,29,21.8,29,21.8z" class="st0"/><path d="M20.1,24.2h-9.5c-0.2,0-0.4,0.2-0.4,0.4s0.2,0.4,0.4,0.4l0,0h9.5c0.2,0,0.4-0.2,0.4-0.4S20.3,24.2,20.1,24.2z" class="st0"/><path d="M10.5,20.9h7.3c0.2,0,0.4,0.2,0.4,0.4v0.2c0,0.2-0.2,0.4-0.4,0.4h-7.3c-0.2,0-0.4-0.2-0.4-0.4v-0.2 C10.1,21.1,10.3,20.9,10.5,20.9z" class="st0"/><path d="M20.2,14.6c-0.2,0-0.4-0.2-0.4-0.4c0,0,0,0,0,0c0-1.3,0.5-2.6,1.4-3.6c1-1.1,2.4-1.7,3.9-1.7 c0.9,0,1.9,0.3,2.7,0.8c0.4,0.2,0.7,0.5,1,0.8V9.9c0-0.2,0.2-0.4,0.4-0.4s0.4,0.2,0.4,0.4c0,0,0,0,0,0l0.1,1.7 c0,0.1,0,0.3-0.1,0.4C29.4,12,29.3,12,29.2,12l0,0h-0.1h-1.6c-0.1,0-0.2,0-0.3-0.1c-0.1-0.2-0.1-0.4,0-0.5 c0.1-0.1,0.2-0.1,0.2-0.1h1c-0.3-0.3-0.6-0.6-1-0.8C26.8,10,26,9.8,25.1,9.8c-1.3,0-2.5,0.5-3.3,1.5c-0.8,0.8-1.2,1.9-1.2,3.1 C20.6,14.5,20.4,14.7,20.2,14.6C20.2,14.6,20.2,14.6,20.2,14.6z" class="st0"/><path d="M25.1,9.6c0.8,0,1.7,0.2,2.4,0.7c0.5,0.3,0.9,0.6,1.2,1h-1.2c-0.1,0-0.3,0.1-0.3,0.3c0,0.1,0.1,0.3,0.3,0.3 l1.7,0.1c0.1,0.1,0.3,0,0.3-0.1c0-0.1,0-0.1,0-0.2l-0.1-1.7c0-0.1-0.1-0.3-0.3-0.3s-0.3,0.1-0.3,0.3l0,0v1c-0.4-0.4-0.8-0.7-1.2-1 c-0.8-0.5-1.7-0.7-2.6-0.8c-1.4,0-2.8,0.6-3.8,1.7c-0.9,1-1.4,2.2-1.4,3.5c0,0.1,0.1,0.3,0.3,0.3s0.3-0.1,0.3-0.3 c0-1.2,0.5-2.3,1.3-3.1C22.5,10.2,23.8,9.6,25.1,9.6z" class="st0"/><path d="M25.1,19.6c-0.9,0-1.9-0.3-2.7-0.8c-0.4-0.2-0.7-0.5-1-0.8v0.7c0,0.1,0,0.2-0.1,0.3c-0.1,0.1-0.4,0.2-0.5,0 c-0.1-0.1-0.1-0.2-0.1-0.3L20.6,17c0-0.1,0-0.3,0.1-0.4c0.1-0.1,0.2-0.1,0.3-0.1l0,0h0.1h1.6c0.1,0,0.2,0,0.3,0.1 c0.1,0.2,0.1,0.4,0,0.5c-0.1,0.1-0.2,0.1-0.2,0.1h-1c0.3,0.3,0.6,0.6,1,0.8c0.7,0.4,1.5,0.7,2.3,0.7c1.3,0,2.5-0.5,3.3-1.5 c0.8-0.8,1.2-1.9,1.2-3.1c0-0.2,0.2-0.4,0.4-0.4c0.2,0,0.4,0.2,0.4,0.4c0,1.3-0.5,2.6-1.3,3.6C28,18.9,26.6,19.6,25.1,19.6z" class="st0"/><path d="M30,14c-0.1,0-0.3,0.1-0.3,0.3l0,0c0,1.2-0.5,2.3-1.3,3.1c-0.9,1-2.1,1.5-3.4,1.5c-0.8,0-1.7-0.2-2.4-0.7 c-0.5-0.3-0.9-0.6-1.2-1h1.2c0.1,0,0.3-0.1,0.3-0.3s-0.1-0.3-0.3-0.3L21,16.7c-0.1-0.1-0.3,0-0.3,0.1c0,0.1,0,0.1,0,0.2l0.1,1.7 c0,0.1,0.1,0.3,0.3,0.3s0.3-0.1,0.3-0.3l0,0v-1c0.4,0.4,0.8,0.7,1.2,1c0.8,0.5,1.7,0.7,2.6,0.8c1.4,0,2.8-0.6,3.8-1.7 c0.9-1,1.4-2.2,1.4-3.5C30.3,14.1,30.2,14,30,14C30,14,30,14,30,14z" class="st0"/><path d="M28.1,13.8h-2.4v-2.4c0-0.2-0.2-0.4-0.5-0.3c-0.2,0-0.3,0.2-0.3,0.3v2.4h-2.4c-0.2,0-0.4,0.1-0.5,0.3 c0,0.2,0.1,0.4,0.3,0.5c0,0,0.1,0,0.1,0h2.4V17c0,0.2,0.2,0.4,0.5,0.3c0.2,0,0.3-0.2,0.3-0.3v-2.4h2.4c0.2,0,0.4-0.1,0.5-0.3 c0-0.2-0.1-0.4-0.3-0.5C28.2,13.8,28.1,13.8,28.1,13.8z" class="st0"/></g></g></svg>