<svg xmlns="http://www.w3.org/2000/svg" xmlns:xlink="http://www.w3.org/1999/xlink" id="Layer_1" x="0" y="0" version="1.1" viewBox="0 0 37.5 36.7" xml:space="preserve" style="enable-background:new 0 0 37.5 36.7"><style type="text/css">.st0{fill:#915715}</style><title>kiểm tra thủ công</title><path d="M12.5,20.4c-1.3,0-2.4-1.1-2.4-2.4c0-1.3,1.1-2.4,2.4-2.4c1.3,0,2.4,1.1,2.4,2.4c0,0.6-0.3,1.2-0.7,1.7	C13.7,20.1,13.1,20.4,12.5,20.4z M12.5,15.9c-1.1,0-2.1,0.9-2.1,2.1c0,1.1,0.9,2.1,2.1,2.1c1.1,0,2-0.9,2.1-2	C14.6,16.9,13.7,15.9,12.5,15.9C12.5,15.9,12.5,15.9,12.5,15.9L12.5,15.9z" class="st0"/><path d="M13.1,18.9c-0.1,0-0.2,0-0.2-0.1l-0.4-0.4l-0.4,0.4c-0.1,0.1-0.3,0.1-0.4,0c-0.1-0.1-0.1-0.3,0-0.5L12,18	l-0.4-0.4c-0.1-0.1-0.1-0.3,0-0.5c0.1-0.1,0.3-0.1,0.4,0l0.4,0.4l0.4-0.4c0.1-0.1,0.3-0.2,0.5,0c0.1,0.1,0.2,0.3,0,0.4c0,0,0,0,0,0	L12.9,18l0.4,0.4c0.1,0.1,0.1,0.3,0,0.5C13.2,18.9,13.1,18.9,13.1,18.9z M11.9,18.6L11.9,18.6z M11.9,17.3L11.9,17.3z" class="st0"/><path d="M12.5,27.7c-1.3,0-2.4-1.1-2.4-2.4c0-1.3,1.1-2.4,2.4-2.4c1.3,0,2.4,1.1,2.4,2.4c0,0.6-0.3,1.2-0.7,1.7	C13.7,27.5,13.1,27.7,12.5,27.7z M12.5,23.3c-1.1,0-2.1,0.9-2.1,2.1s0.9,2.1,2.1,2.1s2.1-0.9,2.1-2.1l0,0	C14.6,24.2,13.6,23.3,12.5,23.3C12.5,23.3,12.5,23.3,12.5,23.3L12.5,23.3z" class="st0"/><path d="M11.9,26L11.9,26z M11.9,24.7L11.9,24.7z" class="st0"/><path d="M12.4,11.5c-0.1,0-0.2,0-0.2-0.1l-0.6-0.6c-0.1-0.1-0.1-0.1-0.1-0.2c0-0.1,0-0.2,0.1-0.2	c0.1-0.1,0.1-0.1,0.2-0.1c0.1,0,0.2,0,0.2,0.1l0.3,0.4l1.2-1.2c0.1-0.1,0.1-0.1,0.2-0.1l0,0c0.2,0,0.3,0.1,0.3,0.3	c0,0.1,0,0.2-0.1,0.2l-1.4,1.4C12.6,11.5,12.5,11.5,12.4,11.5z M11.8,10.7L11.8,10.7z M11.9,10.5L11.9,10.5z M13.9,9.9L13.9,9.9z M13.8,9.7L13.8,9.7z" class="st0"/><path d="M14.8,10.5c-0.1,0-0.2,0.1-0.2,0.2c0,0,0,0,0,0c0,1.1-0.9,2.1-2.1,2.1s-2.1-0.9-2.1-2.1c0-1.1,0.9-2.1,2.1-2.1	c0,0,0,0,0,0c0.1,0,0.2-0.1,0.2-0.2c0-0.1-0.1-0.2-0.2-0.2c-1.4,0-2.4,1.1-2.4,2.4s1.1,2.4,2.4,2.4s2.4-1.1,2.4-2.4l0,0	C15,10.6,14.9,10.5,14.8,10.5C14.8,10.5,14.8,10.5,14.8,10.5z" class="st0"/><path d="M28.4,28.1L28.4,28.1c-0.3,0-0.5,0.2-0.5,0.4c0,0,0,0,0,0v1.2l0,0v1.1c0,0.3-0.3,0.6-0.6,0.6c0,0,0,0,0,0H8.6	c-0.3,0-0.6-0.3-0.6-0.6c0,0,0,0,0,0v-25c0-0.3,0.3-0.6,0.6-0.6c0,0,0,0,0,0h18.7c0.3,0,0.6,0.3,0.6,0.6c0,0,0,0,0,0v13	c0,0.1,0.1,0.2,0.2,0.2c0.1,0,0.1,0.1,0.2,0.1l0,0c0.2,0,0.4-0.1,0.5-0.3l0,0v-13c0-0.7-0.5-1.3-1.1-1.4h-0.3H8.6C7.7,4.4,7,5,7,5.8	v25c0,0.8,0.7,1.5,1.6,1.5h18.7c0.8,0,1.5-0.6,1.6-1.5v-0.6l0,0v-1.8c0-0.1,0-0.2-0.1-0.2C28.7,28.1,28.5,28.1,28.4,28.1z" class="st0"/><path d="M25.4,8.9h-8.3c-0.3,0-0.4,0.3-0.4,0.5c0,0.2,0.2,0.4,0.4,0.4h8.3c0.3,0,0.4-0.3,0.4-0.5	C25.7,9.1,25.6,8.9,25.4,8.9z" class="st0"/><path d="M25.4,10.9h-8.3c-0.3,0-0.4,0.3-0.4,0.5c0,0.2,0.2,0.4,0.4,0.4h8.3c0.3,0,0.4-0.3,0.4-0.5	C25.7,11.1,25.6,10.9,25.4,10.9L25.4,10.9z" class="st0"/><path d="M21.4,15.6h-4.3c-0.3,0-0.4,0.3-0.4,0.5c0,0.2,0.2,0.4,0.4,0.4h4.3c0.3,0,0.4-0.3,0.4-0.5	C21.7,15.7,21.6,15.6,21.4,15.6z" class="st0"/><path d="M18.2,17.5h-1.1c-0.3,0-0.4,0.3-0.4,0.5c0,0.2,0.2,0.4,0.4,0.4h1.1c0.3,0,0.4-0.3,0.4-0.5	C18.5,17.7,18.4,17.5,18.2,17.5L18.2,17.5z" class="st0"/><path d="M17.1,24.3c0.1,0.1,0.2,0.1,0.3,0.1l-0.2,0.3c0,0.1-0.1,0.1-0.1,0.2l-0.3,1.8c0,0.2,0.1,0.4,0.3,0.5	c0.1,0,0.2,0,0.3,0l1.5-0.8c0.3,0.6,1.1,0.8,1.7,0.5c0.1,0,0.2-0.1,0.2-0.2c0.5,0.5,1.3,0.4,1.8-0.1c0.2-0.2,0.3-0.5,0.3-0.9v-0.2	c0.8,0.4,1.6,0.5,2.5,0.5c0.9,0,1.7-0.2,2.5-0.5v1c0,0.2,0.2,0.4,0.4,0.4c0.1,0,0.1,0,0.2,0l1.7-0.8c0.1-0.1,0.2-0.2,0.2-0.4v-5	c0-0.2-0.2-0.4-0.4-0.4h-2.9l-2.9-1.4l1.1-1.6c0.1-0.2,0.1-0.4-0.1-0.6c0,0,0,0,0,0l-1.4-1c-0.2-0.1-0.4-0.1-0.6,0.1c0,0,0,0,0,0	l-1.5,2.1c-0.3-0.2-0.7-0.2-1-0.1l-1.6,0.7c-0.2,0.1-0.4,0.3-0.5,0.5l-2.3,3.6c-0.3,0.6-0.1,1.4,0.5,1.7	C17,24.2,17.1,24.2,17.1,24.3L17.1,24.3z M17.8,25.9L18,25l0.4-0.5c0.2,0.2,0.4,0.4,0.6,0.5l-0.3,0.5L17.8,25.9z M20.1,26.1	c-0.2,0-0.4-0.2-0.4-0.4v-0.2l0.1-0.2h0.7v0.4C20.5,25.9,20.3,26,20.1,26.1L20.1,26.1z M21.8,26.1c-0.2,0-0.4-0.2-0.4-0.4v-0.4h0.8	v0.4C22.2,25.9,22,26,21.8,26.1L21.8,26.1z M29.7,25.4l-0.8,0.4v-4.7h0.8V25.4z M27,21c0.1,0,0.1,0,0.2,0H28v3.5	c-0.8,0.4-1.7,0.7-2.5,0.7c-1,0-1.9-0.3-2.7-0.8c-0.1,0-0.1,0-0.2,0h-2.9c-0.4,0-0.8-0.3-0.8-0.7c0-0.1,0-0.1,0-0.2	c0-0.4,0.4-0.7,0.8-0.8h2.6c0.9,0,1.7-0.3,2.3-1c0.1-0.2,0-0.4-0.2-0.6c-0.1-0.1-0.3-0.1-0.4,0c-0.5,0.5-1.1,0.7-1.7,0.7h-0.1	l1.7-2.4L27,21z M22.9,18l0.7,0.5l-2.4,3.4h-1L22.9,18z M23.9,16.6l0.7,0.5l-0.5,0.7l-0.7-0.5L23.9,16.6z M17.3,23l2.3-3.5	c0-0.1,0.1-0.1,0.2-0.2l1.6-0.7c0.1,0,0.1,0,0.2,0L19,22c-0.5,0.2-0.9,0.7-1,1.3c-0.1,0.2-0.4,0.3-0.6,0.2	C17.2,23.4,17.2,23.2,17.3,23z" class="st0"/><path d="M12.7,20.4c-1.3,0-2.4-1.1-2.4-2.4c0-1.3,1.1-2.4,2.4-2.4c1.3,0,2.4,1.1,2.4,2.4c0,0.6-0.3,1.2-0.7,1.7	C14,20.1,13.3,20.4,12.7,20.4z M12.7,15.9c-1.1,0-2.1,0.9-2.1,2.1c0,1.1,0.9,2.1,2.1,2.1c1.1,0,2-0.9,2.1-2	C14.8,16.9,13.9,15.9,12.7,15.9C12.7,15.9,12.7,15.9,12.7,15.9L12.7,15.9z" class="st0"/><path d="M13.3,18.9c-0.1,0-0.2,0-0.2-0.1l-0.4-0.4l-0.4,0.4c-0.1,0.1-0.3,0.1-0.4,0c-0.1-0.1-0.1-0.3,0-0.5l0.4-0.4	l-0.4-0.4c-0.1-0.1-0.1-0.3,0-0.5c0.1-0.1,0.3-0.1,0.4,0l0.4,0.4l0.4-0.4c0.1-0.1,0.3-0.2,0.5,0c0.1,0.1,0.2,0.3,0,0.4c0,0,0,0,0,0	L13.1,18l0.4,0.4c0.1,0.1,0.1,0.3,0,0.5C13.5,18.8,13.4,18.9,13.3,18.9z M12.1,18.6L12.1,18.6z M12.1,17.3L12.1,17.3z" class="st0"/><path d="M12.7,27.7c-1.3,0-2.4-1-2.4-2.4s1-2.4,2.4-2.4s2.4,1,2.4,2.4c0,0.6-0.2,1.2-0.7,1.7	C14,27.5,13.3,27.7,12.7,27.7z M12.7,23.3c-1.1,0-2.1,0.9-2.1,2.1s0.9,2.1,2.1,2.1s2.1-0.9,2.1-2.1l0,0	C14.8,24.2,13.9,23.3,12.7,23.3C12.7,23.3,12.7,23.3,12.7,23.3L12.7,23.3z" class="st0"/><path d="M12.1,26L12.1,26z M12.1,24.7L12.1,24.7z" class="st0"/><path d="M12.6,11.5c-0.1,0-0.2,0-0.2-0.1l-0.6-0.6c-0.1-0.1-0.1-0.1-0.1-0.2c0-0.1,0-0.2,0.1-0.2	c0.1-0.1,0.1-0.1,0.2-0.1c0.1,0,0.2,0,0.2,0.1l0.3,0.4l1.2-1.2C13.9,9.5,14,9.5,14,9.5l0,0c0.2,0,0.3,0.1,0.3,0.3	c0,0.1,0,0.2-0.1,0.2l-1.4,1.4C12.8,11.5,12.7,11.5,12.6,11.5z M12,10.7L12,10.7z M12.1,10.5L12.1,10.5z M14.1,9.9L14.1,9.9z M14,9.7L14,9.7z" class="st0"/><path d="M15,10.5c-0.1,0-0.2,0.1-0.2,0.2c0,0,0,0,0,0c0,1.1-0.9,2.1-2.1,2.1s-2.1-0.9-2.1-2.1c0-1.1,0.9-2.1,2-2.1	c0.1,0,0.2-0.1,0.2-0.2c0-0.1-0.1-0.2-0.2-0.2c-1.4,0-2.4,1.1-2.4,2.4s1.1,2.4,2.4,2.4s2.4-1.1,2.4-2.4l0,0	C15.2,10.6,15.1,10.5,15,10.5z" class="st0"/><path d="M25.6,8.9h-8.3c-0.3,0-0.4,0.3-0.4,0.5c0,0.2,0.2,0.4,0.4,0.4h8.3c0.3,0,0.4-0.3,0.4-0.5	C25.9,9.1,25.8,8.9,25.6,8.9z" class="st0"/><path d="M25.6,10.9h-8.3c-0.3,0-0.4,0.3-0.4,0.5c0,0.2,0.2,0.4,0.4,0.4h8.3c0.3,0,0.4-0.3,0.4-0.5	C25.9,11.1,25.8,10.9,25.6,10.9z" class="st0"/><path d="M21.6,15.6h-4.3c-0.3,0-0.4,0.3-0.4,0.5c0,0.2,0.2,0.4,0.4,0.4h4.3c0.3,0,0.4-0.3,0.4-0.5	C21.9,15.7,21.8,15.6,21.6,15.6z" class="st0"/><path d="M18.4,17.5h-1.1c-0.3,0-0.4,0.3-0.4,0.5c0,0.2,0.2,0.4,0.4,0.4h1.1c0.3,0,0.4-0.3,0.4-0.5	C18.7,17.7,18.6,17.5,18.4,17.5L18.4,17.5z" class="st0"/><path d="M17.3,24.3c0.1,0.1,0.2,0.1,0.3,0.1l-0.2,0.3c0,0.1-0.1,0.1-0.1,0.2l-0.3,1.8c0,0.2,0.1,0.4,0.3,0.5	c0.1,0,0.2,0,0.3,0l1.5-0.8c0.3,0.6,1.1,0.8,1.7,0.5c0.1,0,0.2-0.1,0.2-0.2c0.5,0.5,1.3,0.4,1.8-0.1c0.2-0.2,0.3-0.5,0.3-0.8v-0.2	c0.8,0.4,1.6,0.6,2.5,0.6c0.9,0,1.7-0.2,2.5-0.6v1c0,0.2,0.2,0.4,0.4,0.4c0.1,0,0.1,0,0.2,0l1.6-0.8c0.1-0.1,0.2-0.2,0.2-0.4v-5	c0-0.2-0.2-0.4-0.4-0.4h-2.9l-2.9-1.4l1.1-1.6c0.1-0.2,0.1-0.4-0.1-0.6c0,0,0,0,0,0l-1.4-1c-0.2-0.1-0.4-0.1-0.6,0.1c0,0,0,0,0,0	l-1.5,2.1c-0.3-0.2-0.7-0.2-1-0.1l-1.6,0.7c-0.2,0.1-0.4,0.3-0.6,0.6l-2.3,3.6C16.4,23.2,16.6,23.9,17.3,24.3	C17.2,24.2,17.3,24.3,17.3,24.3L17.3,24.3z M18,25.9l0.1-0.9l0.4-0.5c0.2,0.2,0.4,0.4,0.6,0.5l-0.3,0.5L18,25.9z M20.3,26.1	c-0.2,0-0.4-0.2-0.4-0.4v-0.2l0.1-0.2h0.7v0.4C20.7,25.8,20.5,26,20.3,26.1L20.3,26.1z M22,26c-0.2,0-0.4-0.2-0.4-0.4v-0.4h0.8v0.4	C22.4,25.8,22.2,26,22,26C22,26,22,26,22,26z M29.9,25.3l-0.8,0.4v-4.7h0.8V25.3z M27.2,21c0.1,0,0.1,0,0.2,0h0.9v3.5	c-0.8,0.4-1.7,0.7-2.5,0.7c-0.9,0-1.9-0.3-2.7-0.7c-0.1,0-0.1,0-0.2,0h-2.9c-0.4,0-0.8-0.3-0.8-0.7c0-0.1,0-0.1,0-0.2	c0-0.4,0.4-0.7,0.8-0.8h2.6c0.9,0,1.7-0.3,2.3-1c0.2-0.2,0.2-0.4,0-0.6s-0.4-0.2-0.6,0c-0.5,0.5-1.1,0.7-1.7,0.7h-0.1l1.7-2.4	L27.2,21z M23.1,18l0.7,0.5l-2.4,3.4h-1L23.1,18z M24.1,16.6l0.7,0.5l-0.5,0.7l-0.7-0.5L24.1,16.6z M17.5,23l2.3-3.5	c0-0.1,0.1-0.1,0.2-0.2l1.6-0.7c0.1,0,0.1,0,0.2,0L19.3,22c-0.5,0.2-0.9,0.7-1,1.3c-0.1,0.2-0.4,0.3-0.6,0.2	C17.5,23.4,17.4,23.2,17.5,23z" class="st0"/></svg>