<svg xmlns="http://www.w3.org/2000/svg" xmlns:xlink="http://www.w3.org/1999/xlink" id="Layer_1" x="0" y="0" version="1.1" viewBox="0 0 38 38" xml:space="preserve" style="enable-background:new 0 0 38 38"><style type="text/css">.st0{fill:#915715}</style><title>quản lý danh mục</title><g><g><path d="M31.2,15.8l-2.4-0.3c-0.2-0.6-0.4-1.1-0.7-1.7l1.5-1.8c0.6-0.7,0.5-1.8-0.1-2.4l-2-1.9 c-0.7-0.7-1.7-0.7-2.5-0.2l-1.9,1.4c-0.6-0.3-1.1-0.5-1.7-0.7L21,5.9c-0.1-0.9-0.9-1.6-1.9-1.6h-2.8c-0.4,0-0.7,0.1-1.1,0.3 c-0.4,0.3-0.6,0.7-0.8,1.1c0,0.1,0,0.1-0.1,0.2l-0.2,1.4c-0.1,0.5-0.1,1.1,0,1.6c0.1,0.2,0.3,0.4,0.6,0.4c0.2-0.1,0.4-0.3,0.4-0.5 L15.7,6c0-0.2,0.1-0.3,0.3-0.4c0.1-0.1,0.2-0.1,0.4-0.1h2.8c0.3,0,0.6,0.2,0.6,0.6l0.4,2.7c0,0.2,0.2,0.4,0.5,0.5 c0.8,0.2,1.5,0.5,2.2,0.9c0.2,0.1,0.5,0.1,0.7-0.1l2.2-1.7c0.2-0.2,0.6-0.2,0.8,0l2,1.9c0.2,0.2,0.2,0.6,0,0.8l-1.7,2.1 c-0.2,0.2-0.2,0.5,0,0.7c0.4,0.7,0.7,1.4,0.9,2.2c0.1,0.2,0.3,0.4,0.5,0.4L31,17c0.3,0,0.5,0.3,0.5,0.6v2.8c0,0.3-0.2,0.6-0.5,0.6 l-2.8,0.3c-0.2,0-0.4,0.2-0.5,0.4c-0.2,0.8-0.5,1.5-0.9,2.2c-0.1,0.2-0.1,0.5,0,0.7l1.7,2.1c0.2,0.2,0.2,0.6,0,0.8l-2,2 c-0.2,0.2-0.6,0.2-0.8,0l-1.5-1.1l-0.7-0.5c-0.2-0.1-0.5-0.2-0.7,0c-0.7,0.4-1.5,0.7-2.2,0.9c-0.2,0.1-0.4,0.3-0.5,0.5L19.8,32 c0,0.1,0,0.1-0.1,0.2c-0.1,0.2-0.3,0.4-0.6,0.4h-2.8c-0.3,0-0.6-0.2-0.6-0.5l-0.4-2.7c0-0.2-0.2-0.4-0.4-0.5 c-0.3-0.1-0.4,0-0.6,0.2s-0.2,0.9-0.2,0.9l0,0l0.3,2.1l0,0v0.2c0,0.1,0.1,0.2,0.1,0.3c0.2,0.4,0.4,0.7,0.7,1 c0.3,0.2,0.7,0.4,1.1,0.4h2.8c0.4,0,0.8-0.1,1.1-0.4c0.3-0.2,0.6-0.6,0.7-1c0-0.1,0.1-0.2,0.1-0.3l0.3-2.3 c0.6-0.2,1.2-0.4,1.7-0.7l0.2,0.1l1,0.7l0.7,0.5c0.7,0.6,1.8,0.5,2.5-0.1l2-1.9c0.7-0.6,0.8-1.7,0.2-2.5l-1.5-1.8 c0.3-0.5,0.5-1.1,0.7-1.7l2.4-0.3c0.9-0.1,1.6-0.9,1.7-1.8v-2.7C32.8,16.7,32.1,15.9,31.2,15.8z" class="st0"/><path d="M10.6,11.2H6.4c-0.9,0-1.6,0.7-1.6,1.6v4.3c0,0.9,0.7,1.6,1.6,1.6h4.3c0.9,0,1.6-0.7,1.6-1.6v-4.3 C12.2,11.9,11.5,11.2,10.6,11.2z M11.7,17.1c0,0.6-0.5,1.1-1.1,1.1H6.4c-0.6,0-1.1-0.5-1.1-1.1v-4.3c0-0.6,0.5-1.1,1.1-1.1h4.3 c0.6,0,1.1,0.5,1.1,1.1L11.7,17.1z" class="st0"/><path d="M10.6,19.8H6.4c-0.9,0-1.6,0.7-1.6,1.6v4.3c0,0.9,0.7,1.6,1.6,1.6h4.3c0.9,0,1.6-0.7,1.6-1.6v-4.3 C12.2,20.5,11.5,19.8,10.6,19.8z M11.7,25.7c0,0.6-0.5,1.1-1.1,1.1H6.4c-0.6,0-1.1-0.5-1.1-1.1v-4.3c0-0.6,0.5-1.1,1.1-1.1h4.3 c0.6,0,1.1,0.5,1.1,1.1L11.7,25.7z" class="st0"/><path d="M19.2,27.3c0.9,0,1.6-0.7,1.6-1.6v-2.5c2.3-1,3.3-3.7,2.3-6c-0.5-1-1.3-1.8-2.3-2.3v-2c0-0.9-0.7-1.6-1.6-1.6 h-4.3c-0.9,0-1.6,0.7-1.6,1.6v4.2c0,0.8,0.6,1.5,1.4,1.6h0.2h4.3c0.9,0,1.6-0.7,1.6-1.6v-1.5c1.9,1,2.6,3.4,1.6,5.3 c-0.4,0.7-0.9,1.2-1.6,1.6v-1.1c0-0.9-0.7-1.6-1.6-1.6h-4.3h-0.2c-0.8,0.1-1.4,0.8-1.4,1.6v4.3c0,0.9,0.7,1.6,1.6,1.6L19.2,27.3z M20.3,17.1c0,0.6-0.5,1.1-1.1,1.1h-4.3c0,0-0.1,0-0.1,0c-0.5,0-0.9-0.5-0.9-1v-4.4c0-0.6,0.5-1.1,1.1-1.1h4.3 c0.6,0,1.1,0.5,1.1,1.1V17.1z M13.9,25.7v-4.3c0-0.6,0.5-1,1.1-1.1h4.3c0.6,0,1.1,0.5,1.1,1.1v4.3c0,0.6-0.5,1.1-1.1,1.1h-4.3 C14.3,26.7,13.9,26.3,13.9,25.7C13.9,25.7,13.9,25.7,13.9,25.7z" class="st0"/></g></g></svg>