<svg xmlns="http://www.w3.org/2000/svg" xmlns:xlink="http://www.w3.org/1999/xlink" id="Layer_1" x="0" y="0" version="1.1" viewBox="0 0 38 38" xml:space="preserve" style="enable-background:new 0 0 38 38"><style type="text/css">.st0{fill:#915715}</style><title>thông báo sử dụng hóa đơn</title><g><g><path d="M20.6,26.3H12c-0.2,0-0.4,0.1-0.5,0.3c0,0.2,0.1,0.4,0.3,0.5c0,0,0.1,0,0.1,0h8.7c0.2,0,0.4-0.1,0.5-0.3 c0-0.2-0.1-0.4-0.3-0.5C20.7,26.3,20.7,26.3,20.6,26.3L20.6,26.3z" class="st0"/><path d="M13.7,16.1c-0.3,0-0.6-0.3-0.6-0.6c0-0.4-0.3-0.6-0.6-0.6c-0.4,0-0.6,0.3-0.6,0.6c0,0.7,0.4,1.3,1,1.7v0.4 c0,0.4,0.3,0.6,0.6,0.6c0.4,0,0.6-0.3,0.6-0.6v-0.2c0.9-0.2,1.5-1,1.5-1.9v-0.3c0-0.8-0.5-1.6-1.4-1.8l-0.8-0.2 c-0.3-0.1-0.4-0.3-0.4-0.6v-0.2c0-0.4,0.3-0.6,0.6-0.6c0.4,0,0.6,0.3,0.6,0.6c0,0.4,0.3,0.6,0.6,0.6c0.4,0,0.6-0.3,0.6-0.6 c0-0.8-0.5-1.5-1.3-1.8v-0.3c0-0.4-0.3-0.6-0.6-0.6c-0.4,0-0.6,0.3-0.6,0.6v0.3c-0.8,0.3-1.3,1-1.3,1.8v0.3c0,0.8,0.5,1.6,1.4,1.8 l0.8,0.2c0.3,0.1,0.4,0.3,0.4,0.6v0.3C14.3,15.8,14.1,16.1,13.7,16.1z" class="st0"/><path d="M28,21.5h-1.8c-0.2,0-0.4,0.1-0.5,0.3c0,0.2,0.1,0.4,0.3,0.5c0,0,0.1,0,0.1,0H28c0.4,0,0.8,0.4,0.8,0.8v5.2 c0,1.1-0.9,2.1-2.1,2.1c-1.1,0-2.1-0.9-2.1-2.1V22c0-0.2-0.2-0.4-0.4-0.4c-0.2,0-0.4,0.2-0.4,0.4v6.3c0,0.8,0.3,1.5,0.9,2H10.9 c-1.1,0-2-0.8-2.1-1.9c0,0,0,0,0-0.1V8.5c0-0.4,0.4-0.8,0.8-0.8H23c0.4,0,0.8,0.4,0.8,0.8c0,0.2,0.2,0.4,0.4,0.4 c0.2,0,0.4-0.2,0.4-0.4c0-0.9-0.7-1.6-1.6-1.6H9.6C8.7,6.9,8,7.6,8,8.5v19.8c0,1.6,1.3,2.9,2.9,2.8c0,0,0,0,0,0h15.8 c1.6,0,2.9-1.3,2.9-2.8c0,0,0,0,0,0v-5.2C29.6,22.3,28.9,21.5,28,21.5z" class="st0"/><path d="M20.6,22.8H12c-0.2,0-0.4,0.1-0.5,0.3c0,0.2,0.1,0.4,0.3,0.5c0,0,0.1,0,0.1,0h8.7c0.2,0,0.4-0.1,0.5-0.3 c0-0.2-0.1-0.4-0.3-0.5C20.7,22.8,20.7,22.8,20.6,22.8L20.6,22.8z" class="st0"/><path d="M11.9,19.9h6.7c0.2,0,0.3,0.1,0.3,0.3v0.2c0,0.2-0.1,0.3-0.3,0.3h-6.7c-0.2,0-0.3-0.1-0.3-0.3v-0.2 C11.6,20,11.7,19.9,11.9,19.9z" class="st0"/><path d="M28.9,14.5c0,0.1,0.1,0.2,0.3,0.2c0.1,0,0.2-0.1,0.2-0.2c0-1.4-0.6-2.8-1.6-3.8c-0.1-0.1-0.2,0-0.3,0.1 c-0.1,0.1-0.1,0.2,0,0.3C28.4,11.9,28.9,13.1,28.9,14.5z" class="st0"/><path d="M19.8,14.5c0-1.3,0.5-2.6,1.5-3.5c0.1-0.1,0-0.3-0.1-0.3c-0.1,0-0.1,0-0.2,0c-1,1-1.6,2.4-1.6,3.9 c0,0.1,0.1,0.2,0.3,0.2C19.8,14.6,19.8,14.5,19.8,14.5L19.8,14.5z" class="st0"/><path d="M23.4,10.8v0.5c-1.4,0.4-2.3,1.7-2.3,3.1v1.4c0,0.9-0.4,1.8-1.1,2.3c-0.3,0.3-0.4,0.8-0.1,1.1 c0.1,0.2,0.4,0.3,0.6,0.3h2.2c0.2,0.9,1.1,1.5,2,1.3c0.7-0.1,1.2-0.7,1.3-1.3h2.2c0.4,0,0.8-0.3,0.8-0.8c0-0.2-0.1-0.5-0.3-0.6 c-0.7-0.6-1.1-1.4-1.1-2.3v-1.4c0-1.4-0.9-2.7-2.3-3.1v-0.5c0-0.6-0.4-1-1-1S23.4,10.3,23.4,10.8L23.4,10.8z M24.4,20.2 c-0.5,0-0.9-0.3-1-0.7h1.9C25.1,19.9,24.8,20.2,24.4,20.2L24.4,20.2z M24.4,10.5c0.2,0,0.4,0.2,0.4,0.3v0v0.4c-0.1,0-0.2,0-0.4,0 H24v-0.4C24,10.6,24.2,10.5,24.4,10.5C24.4,10.5,24.4,10.5,24.4,10.5L24.4,10.5z M28.3,18.7c0.1,0.1,0,0.1,0,0.2c0,0,0,0-0.1,0 h-7.7c-0.1,0-0.1-0.1-0.1-0.1c0,0,0-0.1,0-0.1c0.8-0.7,1.3-1.7,1.3-2.8v-1.4c0-1.4,1.2-2.6,2.6-2.6c1.4,0,2.6,1.2,2.6,2.6v1.4 C26.9,16.9,27.5,18,28.3,18.7L28.3,18.7z" class="st0"/></g></g></svg>