<svg xmlns="http://www.w3.org/2000/svg" viewBox="0 0 13.99 12.02"><title>icon_import</title><g id="Layer_2" data-name="Layer 2"><g id="Layer_1-2" data-name="Layer 1"><path d="M9.86,2.19a.27.27,0,0,0,.27-.27V.27A.27.27,0,0,0,9.86,0H4.13a.27.27,0,0,0-.27.27V1.91a.27.27,0,0,0,.55,0V.55H9.59V1.91A.27.27,0,0,0,9.86,2.19Z"/><path d="M13.72,9.84h-1V3.55a.27.27,0,0,0-.27-.27h-4V1.91a.27.27,0,0,0-.27-.27H5.77a.27.27,0,0,0-.27.27V3.28h-4a.27.27,0,0,0-.27.27V9.84h-1a.27.27,0,0,0-.27.27A1.91,1.91,0,0,0,1.91,12H5.77a.27.27,0,0,0,0-.55H1.91A1.37,1.37,0,0,1,.57,10.38H13.42a1.37,1.37,0,0,1-1.34,1.09H8.22a.27.27,0,0,0,0,.55h3.85A1.91,1.91,0,0,0,14,10.11.27.27,0,0,0,13.72,9.84Zm-8-4.37A.27.27,0,0,0,6,5.19v-3H8v3a.27.27,0,0,0,.27.27h.68L7,8,5.08,5.46ZM12,9.84H2V4.08a.19.19,0,0,1,.19-.19H5.49v1h-1a.27.27,0,0,0-.22.44L6.78,8.63a.27.27,0,0,0,.44,0L9.67,5.36a.27.27,0,0,0-.22-.44h-1V4h3.34a.19.19,0,0,1,.19.19Z"/><circle cx="6.99" cy="11.75" r="0.27"/></g></g></svg>