<svg xmlns="http://www.w3.org/2000/svg" viewBox="0 0 11.81 11.81"><title>icon_xem chi tiết</title><g id="Layer_2" data-name="Layer 2"><g id="Layer_1-2" data-name="Layer 1"><path d="M.55,5.91a5.36,5.36,0,1,1,5.36,5.36A5.36,5.36,0,0,1,.55,5.91ZM0,5.91A5.91,5.91,0,1,0,5.91,0,5.91,5.91,0,0,0,0,5.91Z"/><path d="M4,4.6A6.06,6.06,0,0,0,3.47,5a7.27,7.27,0,0,0-.95.91,7.27,7.27,0,0,0,.95.91A6.06,6.06,0,0,0,4,7.18,2.33,2.33,0,0,1,4,4.6Z"/><path d="M8.41,5a6.06,6.06,0,0,0-.52-.37,2.33,2.33,0,0,1,0,2.57,6.06,6.06,0,0,0,.52-.37,7.26,7.26,0,0,0,.95-.91A7.27,7.27,0,0,0,8.41,5Z"/><path d="M5.94,4A1.93,1.93,0,1,0,7.87,5.89,1.93,1.93,0,0,0,5.94,4Zm0,3A1.09,1.09,0,1,1,7,5.89,1.1,1.1,0,0,1,5.94,7Z"/><path d="M5.94,5.2a.69.69,0,1,0,.69.69A.69.69,0,0,0,5.94,5.2Z"/><path d="M6.45,2.78l-.07.4A2.75,2.75,0,0,1,8,4l.3-.27A3.16,3.16,0,0,0,6.45,2.78Z"/><path d="M5.42,2.78a3.16,3.16,0,0,0-1.81,1l.3.27a2.75,2.75,0,0,1,1.58-.86Z"/><path d="M8,7.74a2.75,2.75,0,0,1-1.58.86l.07.4A3.16,3.16,0,0,0,8.26,8Z"/><path d="M3.91,7.74,3.61,8A3.16,3.16,0,0,0,5.42,9l.07-.4A2.75,2.75,0,0,1,3.91,7.74Z"/></g></g></svg>