<svg xmlns="http://www.w3.org/2000/svg" viewBox="0 0 15.44 16.39"><title>icon_Tạm dừng0</title><g id="Layer_2" data-name="Layer 2"><g id="Layer_1-2" data-name="Layer 1"><path d="M13.68,7.74a3.81,3.81,0,0,0-2.07-.61h0l-.43,0a3.82,3.82,0,0,0-2.44,6.26,3.59,3.59,0,0,0,.9.77,3.82,3.82,0,0,0,4.08-6.45Zm-2.07,6.41a3.17,3.17,0,0,1-2-.73A3.21,3.21,0,0,1,9.18,13a3.14,3.14,0,0,1,0-4.11,3.21,3.21,0,0,1,.43-.42,3.17,3.17,0,0,1,2-.73,3.2,3.2,0,1,1,0,6.4Z"/><path d="M5.52,3.54a.35.35,0,0,0,.35-.35.34.34,0,0,0-.35-.35H2.41a.35.35,0,0,0-.35.35.34.34,0,0,0,.35.35Z"/><path d="M2.41,12.09a.35.35,0,0,0,0,.71H5.52a.35.35,0,0,0,0-.71Z"/><path d="M10.93,15.71H2A1.34,1.34,0,0,1,.68,14.38V2A1.34,1.34,0,0,1,2,.66H9.2v3.1a.34.34,0,0,0,.34.34h2.73V5.92a.34.34,0,0,0,.68,0V3.76s0-.09,0-.12,0,0,0,0l0-.05L9.81.11,9.74.05l0,0a.34.34,0,0,0-.14,0H2A2,2,0,0,0,0,2V14.38a2,2,0,0,0,2,2h8.92a.34.34,0,0,0,.34-.34A.33.33,0,0,0,10.93,15.71ZM9.88,1.21l2,2.23h-2Z"/><rect width="7.1" height=".66" x="2.05" y="5.73" rx=".33" ry=".33"/><rect width="5.18" height=".66" x="2.05" y="8.8" rx=".33" ry=".33"/><rect width=".72" height="3.19" x="10.48" y="9.37" rx=".26" ry=".26"/><rect width=".72" height="3.19" x="11.91" y="9.37" rx=".26" ry=".26"/></g></g></svg>