<svg xmlns="http://www.w3.org/2000/svg" viewBox="0 0 17.63 17.63"><defs><style>.cls-1,.cls-2{fill:#010101}.cls-1{stroke:#010101;stroke-miterlimit:10;stroke-width:.05px}.cls-3{fill:none}</style></defs><title>icon_trình quản lý</title><g id="Layer_2" data-name="Layer 2"><g id="Layer_1-2" data-name="Layer 1"><path d="M8.08.61A3.09,3.09,0,0,0,5,3.75a3.09,3.09,0,0,0,3,3.14,3.09,3.09,0,0,0,3-3.14A3.09,3.09,0,0,0,8.08.61Zm0,5.69A2.51,2.51,0,0,1,5.63,3.75,2.51,2.51,0,0,1,8.08,1.2a2.51,2.51,0,0,1,2.45,2.56A2.51,2.51,0,0,1,8.08,6.31Z" class="cls-1"/><path d="M12.68,10.62a3.16,3.16,0,1,0,3.05,3.16A3.11,3.11,0,0,0,12.68,10.62Zm0,5.73a2.57,2.57,0,1,1,2.47-2.57A2.52,2.52,0,0,1,12.68,16.35Z" class="cls-2"/><path d="M13.86,13.15l-1.41,1.31-.86-.8a.29.29,0,1,0-.4.43l1.06,1a.29.29,0,0,0,.4,0l1.61-1.49a.29.29,0,0,0-.4-.43Z" class="cls-2"/><path d="M9.12,15.44H5l-2.34-1.8c.09-.38.21-.94.35-1.54.18-.78.38-1.63.52-2.26l.14-.64v0h0L4.46,9c.42-.1.86-.19,1.31-.27A2.77,2.77,0,0,0,6.4,8.5a2.52,2.52,0,0,0,.37-.3c.89,1.22,1.13,1.25,1.3,1.25s.43,0,1.27-1.25a2.57,2.57,0,0,0,.4.31,2.84,2.84,0,0,0,.61.21c.43.07.87.17,1.29.27l.74.16h0v0l.14.65a.37.37,0,0,0,.71-.16l-.13-.63a.71.71,0,0,0-.41-.55l-.2-.06-.73-.16c-.43-.1-.88-.2-1.31-.27a2.27,2.27,0,0,1-.4-.13,2.48,2.48,0,0,1-.36-.3L9.6,7.46l-.05,0,0,0a.37.37,0,0,0-.51,0l0,0a8.35,8.35,0,0,1-.89,1.17,9.28,9.28,0,0,1-.93-1.18l0,0a.37.37,0,0,0-.51,0l0,0-.06.05-.12.12A2.92,2.92,0,0,1,6,7.86,2,2,0,0,1,5.62,8c-.45.08-.9.18-1.33.28l-.73.16-.21.06A.71.71,0,0,0,3,9.05l-.13.63c-.14.63-.34,1.48-.51,2.25S2,13.3,1.91,13.67a.37.37,0,0,0,0,.26L2,14a.37.37,0,0,0,.1.11l2.58,2a.37.37,0,0,0,.22.08H9.12a.37.37,0,0,0,0-.73Z" class="cls-2"/><rect width="2.55" height=".71" x="4.71" y="10.68" class="cls-2" rx=".27" ry=".27"/><rect width="17.63" height="17.63" class="cls-3"/></g></g></svg>