<svg xmlns="http://www.w3.org/2000/svg" viewBox="0 0 14.95 16.39"><title>icon_Trình phê duyệt0</title><g id="Layer_2" data-name="Layer 2"><g id="Layer_1-2" data-name="Layer 1"><path d="M13.91,12.05a.48.48,0,1,0,.67-.1A.48.48,0,0,0,13.91,12.05Zm.53.09a.24.24,0,1,1-.34.05A.24.24,0,0,1,14.44,12.15Z"/><path d="M13.56,9.7a.48.48,0,1,0-.1-.67A.48.48,0,0,0,13.56,9.7ZM14,9.12a.24.24,0,1,1-.34.05A.24.24,0,0,1,14,9.12Z"/><path d="M14.18,11.15a.48.48,0,1,0-.1-.67A.48.48,0,0,0,14.18,11.15Zm.43-.58a.24.24,0,1,1-.34.05A.24.24,0,0,1,14.61,10.57Z"/><path d="M13.58,13.31a.48.48,0,1,0,.1.67A.48.48,0,0,0,13.58,13.31Zm-.43.58a.24.24,0,1,1,.34-.05A.24.24,0,0,1,13.15,13.89Z"/><path d="M10.56,13.76a.48.48,0,1,0,.1.67A.48.48,0,0,0,10.56,13.76Zm-.43.58a.24.24,0,1,1,.34-.05A.24.24,0,0,1,10.13,14.34Z"/><path d="M11.56,14.71a.48.48,0,1,0-.1-.67A.48.48,0,0,0,11.56,14.71Zm.43-.58a.24.24,0,1,1-.34.05A.24.24,0,0,1,12,14.13Z"/><path d="M7.93,11.22a3.43,3.43,0,0,0,.7,2A.24.24,0,0,0,9,12.93H9A2.91,2.91,0,0,1,9,9.45a2.85,2.85,0,0,1,1.52-1.06A2.89,2.89,0,0,1,11.6,8.3a.12.12,0,0,1,.06.21l-1.18.92a.24.24,0,0,0,0,.34l0,0a.24.24,0,0,0,.29,0l1.77-1.38a.24.24,0,0,0,0-.34l0,0L11,6.59l0,0a.24.24,0,0,0-.31.37l.7.65a.12.12,0,0,1-.08.21,3.34,3.34,0,0,0-3.33,3.42Z"/><path d="M5.52,3.54a.35.35,0,0,0,.35-.35.34.34,0,0,0-.35-.35H2.41a.35.35,0,0,0-.35.35.34.34,0,0,0,.35.35Z"/><path d="M2.41,12.09a.35.35,0,0,0,0,.71H5.52a.35.35,0,0,0,0-.71Z"/><path d="M10.93,15.71H2A1.34,1.34,0,0,1,.68,14.38V2A1.34,1.34,0,0,1,2,.66H9.2v3.1a.34.34,0,0,0,.34.34h2.73V5.92a.34.34,0,0,0,.68,0V3.76s0-.09,0-.12,0,0,0,0l0-.05L9.81.11,9.74.05l0,0a.34.34,0,0,0-.14,0H2A2,2,0,0,0,0,2V14.38a2,2,0,0,0,2,2h8.92a.34.34,0,0,0,.34-.34A.33.33,0,0,0,10.93,15.71ZM9.88,1.21l2,2.23h-2Z"/><rect x="2.05" y="5.73" width="7.1" height="0.66" rx="0.33" ry="0.33"/><rect x="2.05" y="8.8" width="5.18" height="0.66" rx="0.33" ry="0.33"/></g></g></svg>