<svg xmlns="http://www.w3.org/2000/svg" viewBox="0 0 11.96 11.96"><title>icon_Sửa0</title><g id="Layer_2" data-name="Layer 2"><g id="Layer_1-2" data-name="Layer 1"><path d="M9.83,6a.43.43,0,0,0-.43.43v4.27a.43.43,0,0,1-.43.43H1.28a.43.43,0,0,1-.43-.43V2.14a.43.43,0,0,1,.43-.43H6.41a.43.43,0,1,0,0-.85H1.28A1.28,1.28,0,0,0,0,2.14v8.54A1.28,1.28,0,0,0,1.28,12H9a1.28,1.28,0,0,0,1.28-1.28V6.41A.43.43,0,0,0,9.83,6Z"/><path d="M11.48.48a1.64,1.64,0,0,0-2.31,0L3.54,6.11a.43.43,0,0,0-.1.17L2.59,8.84a.43.43,0,0,0,.27.54L3,9.4l.14,0,2.56-.85a.43.43,0,0,0,.17-.1l5.63-5.63A1.64,1.64,0,0,0,11.48.48Zm-.6,1.71L5.33,7.74,3.67,8.3l.55-1.66L9.77,1.09a.78.78,0,1,1,1.1,1.1Z"/></g></g></svg>