<svg xmlns="http://www.w3.org/2000/svg" viewBox="0 0 11.98 12.81"><title>icon_in0</title><g id="Layer_2" data-name="Layer 2"><g id="Layer_1-2" data-name="Layer 1"><path d="M10.87,4.14l-.06,0h-.06a.31.31,0,0,0-.18,0,.32.32,0,0,0-.11.07.32.32,0,0,0,0,.45.28.28,0,0,0,.11.07l.12,0h.07l.06,0,0,0,.05,0A.33.33,0,0,0,11,4.41a.33.33,0,0,0-.09-.23Z"/><path d="M9.9,4.33v0l0-.08,0,0a.33.33,0,0,0-.35-.07.32.32,0,0,0-.1.07.32.32,0,0,0-.1.23.32.32,0,0,0,0,.12.27.27,0,0,0,.07.1.3.3,0,0,0,.11.07l.13,0a.32.32,0,0,0,.22-.09.29.29,0,0,0,.07-.11.32.32,0,0,0,0-.12.34.34,0,0,0,0,0Zm-.08,0h0Z"/><path d="M11.24,2.89H9.61V.32A.32.32,0,0,0,9.29,0H2.69a.32.32,0,0,0-.32.32V2.89H.75A.75.75,0,0,0,0,3.64V9.11a.75.75,0,0,0,.75.75H2.37v2.63a.32.32,0,0,0,.32.32h6.6a.32.32,0,0,0,.32-.32V9.86h1.62A.75.75,0,0,0,12,9.11V3.64A.75.75,0,0,0,11.24,2.89ZM9.15,7.45v4.71H2.83V7.45ZM2.83,2.84V.52H9.15V2.84Zm6.9,4.65h.75a.33.33,0,0,0,0-.67h-9a.33.33,0,0,0,0,.67h.75V9.31H.57A.11.11,0,0,1,.47,9.2V3.55a.11.11,0,0,1,.11-.11H11.41a.11.11,0,0,1,.11.11V9.2a.11.11,0,0,1-.11.11H9.73Z"/></g></g></svg>