<svg xmlns="http://www.w3.org/2000/svg" viewBox="0 0 13.36 13.36"><title>icon_Xóa 10</title><g id="Layer_2" data-name="Layer 2"><g id="Layer_1-2" data-name="Layer 1"><path d="M6.68,13.36a6.68,6.68,0,1,1,6.68-6.68A6.69,6.69,0,0,1,6.68,13.36Zm0-12.27a5.59,5.59,0,1,0,5.59,5.59A5.6,5.6,0,0,0,6.68,1.08Z"/><path d="M4.39,9.36a.43.43,0,0,1-.3-.74l4.57-4.5a.43.43,0,1,1,.61.62L4.7,9.23A.43.43,0,0,1,4.39,9.36Z"/><path d="M9,9.36a.43.43,0,0,1-.3-.12L4.09,4.74a.43.43,0,1,1,.61-.62l4.57,4.5a.43.43,0,0,1-.3.74Z"/></g></g></svg>