<svg xmlns="http://www.w3.org/2000/svg" viewBox="0 0 15.44 16.39"><title>icon_Phê duyệt và ký0</title><g id="Layer_2" data-name="Layer 2"><g id="Layer_1-2" data-name="Layer 1"><path d="M13.08,9.68l-2,1.88-.94-1a.31.31,0,0,0-.44.43l1.16,1.19a.31.31,0,0,0,.44,0l2.2-2.09a.31.31,0,0,0-.43-.45Z"/><path d="M13.68,7.74a3.81,3.81,0,0,0-2.07-.61h0l-.43,0a3.82,3.82,0,0,0-3.35,3.79A3.75,3.75,0,0,0,8,12.14a9.14,9.14,0,0,1-2-.24.69.69,0,0,1-.08-.23c0-.12-.07-.29-.25-.3a.15.15,0,0,0-.15.05,3.26,3.26,0,0,1,.11-.32c0-.1.13-.32,0-.43s-.4.07-1,.68l0,0a.8.8,0,0,0,.08-.63.51.51,0,0,0-.33-.28c-.55-.18-1.47,1-1.94,1.61h0a.35.35,0,0,0,0,.71H5.52a.35.35,0,0,0,.16-.67v0a.39.39,0,0,0,.18.15,8.91,8.91,0,0,0,2.29.28,3.81,3.81,0,1,0,5.53-4.8ZM4.94,11.62l.2-.21a4.48,4.48,0,0,0-.12.68H4.49Zm-.7-.76a.15.15,0,0,1,.09.05c0,.08-.08.33-.17.52a3.88,3.88,0,0,0-.22.53.26.26,0,0,0,0,.13h-1C3.47,11.41,4.07,10.8,4.24,10.87Zm7.37,3.28a3.17,3.17,0,0,1-2-.73A3.22,3.22,0,0,1,9.18,13a3.14,3.14,0,0,1,0-4.11,3.22,3.22,0,0,1,.43-.42,3.17,3.17,0,0,1,2-.73,3.2,3.2,0,1,1,0,6.4Z"/><path d="M2.41,3.54H5.52a.35.35,0,0,0,.35-.35.34.34,0,0,0-.35-.35H2.41a.35.35,0,0,0-.35.35A.34.34,0,0,0,2.41,3.54Z"/><path d="M10.93,15.71H2A1.34,1.34,0,0,1,.68,14.38V2A1.34,1.34,0,0,1,2,.66H9.2v3.1a.34.34,0,0,0,.34.34h2.73V5.92a.34.34,0,0,0,.68,0V3.76s0-.09,0-.12,0,0,0,0l0-.05L9.81.11,9.74.05l0,0a.34.34,0,0,0-.14,0H2A2,2,0,0,0,0,2V14.38a2,2,0,0,0,2,2h8.92a.34.34,0,0,0,.34-.34A.33.33,0,0,0,10.93,15.71ZM9.88,1.21l2,2.23h-2Z"/><path d="M9.16,6.06a.33.33,0,0,0-.33-.33H2.38a.33.33,0,1,0,0,.66H8.82A.33.33,0,0,0,9.16,6.06Z"/><path d="M2.38,8.8a.33.33,0,1,0,0,.66H6.9a.33.33,0,1,0,0-.66Z"/></g></g></svg>