<svg xmlns="http://www.w3.org/2000/svg" viewBox="0 0 12.98 11.01"><title>icon_Xử lý</title><g id="Layer_2" data-name="Layer 2"><g id="Layer_1-2" data-name="Layer 1"><path d="M7.33,6.68a.41.41,0,1,0-.13-.56A.41.41,0,0,0,7.33,6.68Zm0-.45a.2.2,0,1,1,.06.28A.2.2,0,0,1,7.37,6.23Z"/><path d="M7.9,9.2a.41.41,0,1,0-.13-.56A.41.41,0,0,0,7.9,9.2Zm0-.45A.2.2,0,1,1,8,9,.2.2,0,0,1,7.95,8.75Z"/><path d="M7.28,8a.41.41,0,1,0-.13-.56A.41.41,0,0,0,7.28,8Zm0-.45a.2.2,0,1,1,.06.28A.2.2,0,0,1,7.33,7.56Z"/><path d="M8.64,5.35a.41.41,0,1,0-.56.13A.41.41,0,0,0,8.64,5.35Zm-.17-.11A.2.2,0,1,1,8.41,5,.2.2,0,0,1,8.47,5.25Z"/><path d="M10.47,4.35A.41.41,0,1,0,11,4.22.41.41,0,0,0,10.47,4.35Zm.51.32a.2.2,0,1,1-.06-.28A.2.2,0,0,1,11,4.67Z"/><path d="M9.82,4.73a.41.41,0,1,0-.56.13A.41.41,0,0,0,9.82,4.73Zm-.51-.32a.2.2,0,1,1,.06.28A.2.2,0,0,1,9.31,4.41Z"/><path d="M13,6.87a2.89,2.89,0,0,0-.72-1.64.2.2,0,1,0-.3.27h0a2.45,2.45,0,0,1,.26,2.93,2.4,2.4,0,0,1-1.21,1,2.43,2.43,0,0,1-.93.15A.1.1,0,0,1,10,9.39l.94-.85a.2.2,0,0,0,0-.29l0,0a.2.2,0,0,0-.24,0L9.27,9.51a.2.2,0,0,0,0,.29l0,0L10.71,11h0a.2.2,0,0,0,.23-.33l-.63-.5a.1.1,0,0,1,.05-.18A2.82,2.82,0,0,0,13,6.87Z"/><path d="M.92,9.76a.24.24,0,0,1-.24-.24V3.3a.24.24,0,0,1,.24-.23H10.3a.24.24,0,0,1,.24.24v.36a3.5,3.5,0,0,1,.68.12c0-.36,0-1.3,0-1.78A.78.78,0,0,0,11,1.37a.92.92,0,0,0-.71-.15L4.12,1.16,3.3.08l0,0L.93,0A.92.92,0,0,0,0,.91V3.28a.26.26,0,0,0,0,0v6.2a.92.92,0,0,0,.92.92h8a3.52,3.52,0,0,1-1-.67ZM.69.92A.24.24,0,0,1,.93.67l2,0,.85,1.11,6.54.05h0a.31.31,0,0,1,.19,0,.19.19,0,0,1,0,.12c0,.12,0,.27,0,.43a.9.9,0,0,0-.27,0H.92a.89.89,0,0,0-.23,0Z"/></g></g></svg>