<svg xmlns="http://www.w3.org/2000/svg" viewBox="0 0 13.88 14.42"><title>icon_Sao chép</title><g id="Layer_2" data-name="Layer 2"><g id="Layer_1-2" data-name="Layer 1"><path d="M11.81,7.88H5.36a.33.33,0,0,0,0,.66h6.44a.33.33,0,1,0,0-.66Z"/><path d="M11.81,5.93H5.36a.33.33,0,0,0,0,.66h6.44a.33.33,0,1,0,0-.66Z"/><path d="M11.81,4.09H5.36a.33.33,0,0,0,0,.66h6.44a.33.33,0,1,0,0-.66Z"/><path d="M1.8,8.9a.32.32,0,0,0,0,.65h1V8.9Z"/><path d="M1.8,7.12a.32.32,0,0,0,0,.65h1V7.12Z"/><path d="M1.8,5.26a.32.32,0,0,0,0,.65h1V5.26Z"/><path d="M9.87,13.67h-.5c0,.25-.64.2-.64.2H1.61A1.07,1.07,0,0,1,.54,12.81V2.92A1.07,1.07,0,0,1,1.61,1.86H2.89A1,1,0,0,1,3,1.33H1.78A1.78,1.78,0,0,0,0,3.11v9.7a1.62,1.62,0,0,0,1.61,1.61H9.19A.72.72,0,0,0,9.87,13.67Z"/><path d="M13.86,2.94s0,0,0,0l0,0L11.34.09l-.06,0h0a.27.27,0,0,0-.12,0H5.21a1.81,1.81,0,0,0-1.8,1.8V10L4,9.61v-8A1.08,1.08,0,0,1,5,.53h5.64a.17.17,0,0,1,.17.17V3a.27.27,0,0,0,.27.27h2a.17.17,0,0,1,.17.17v8.37a.85.85,0,0,1-.84.85H5A1.08,1.08,0,0,1,4,11.62v-.09l-.55-.39v.48A1.64,1.64,0,0,0,5,13.25l7.56,0A1.28,1.28,0,0,0,13.88,12V3S13.86,3,13.86,2.94Zm-2.29-.16a.17.17,0,0,1-.17-.17V1L13,2.78Z"/><path d="M4.91,9.83v.45H7.15a.31.31,0,0,1,0,.62H4.91v.42a.23.23,0,0,1-.4.16l-1-.73a.23.23,0,0,1,0-.33l1-.76A.23.23,0,0,1,4.91,9.83Z"/></g></g></svg>