<svg xmlns="http://www.w3.org/2000/svg" viewBox="0 0 13.35 13.35"><title>icon_Thêm0</title><g id="Layer_2" data-name="Layer 2"><g id="Layer_1-2" data-name="Layer 1"><path d="M11.4,11.4A6.68,6.68,0,1,1,11.4,2,6.69,6.69,0,0,1,11.4,11.4ZM2.72,2.72a5.59,5.59,0,1,0,7.91,0A5.6,5.6,0,0,0,2.72,2.72Z"/><path d="M7,10.19a.43.43,0,0,1-.74-.31l.05-6.41a.43.43,0,0,1,.87,0L7.08,9.88A.43.43,0,0,1,7,10.19Z"/><path d="M10.19,7a.43.43,0,0,1-.3.13l-6.41.05a.43.43,0,1,1,0-.87l6.41-.05a.43.43,0,0,1,.31.74Z"/></g></g></svg>