<svg xmlns="http://www.w3.org/2000/svg" viewBox="0 0 12.9 14.27"><title>icon_Từ chối</title><g id="Layer_2" data-name="Layer 2"><g id="Layer_1-2" data-name="Layer 1"><path d="M3.27,2.78H6.39a.35.35,0,0,0,.35-.35.34.34,0,0,0-.35-.35H3.27a.35.35,0,0,0-.35.35A.34.34,0,0,0,3.27,2.78Z"/><path d="M11,11H3.27a.35.35,0,0,0,0,.71H11A.35.35,0,0,0,11,11Z"/><path d="M12.88,3.17s0,0,0,0l0,0-2.67-3-.06,0,0,0A.29.29,0,0,0,10,0H3.57A2,2,0,0,0,1.63,1.94V12.51a1.76,1.76,0,0,0,1.75,1.75l8.14,0a1.38,1.38,0,0,0,1.38-1.38V3.28S12.88,3.2,12.88,3.17ZM10.23,1.06,12,3H10.42a.19.19,0,0,1-.19-.19Zm2.08,11.71a.91.91,0,0,1-.91.91h-8a1.16,1.16,0,0,1-1.16-1.16V1.74A1.16,1.16,0,0,1,3.38.57H9.46a.19.19,0,0,1,.19.19V3.28a.29.29,0,0,0,.3.29h2.19a.19.19,0,0,1,.19.19Z"/><path d="M1,13.28a1.13,1.13,0,0,1-.42-.88V1.82a1.13,1.13,0,0,1,.56-1A2,2,0,0,1,1.92.11,1.93,1.93,0,0,0,0,2V12.41a1.75,1.75,0,0,0,1.75,1.72h0A1.79,1.79,0,0,1,1,13.28Z"/><path d="M5,4.63A3.29,3.29,0,0,0,4.62,9.3,3.09,3.09,0,0,0,5.4,10a3.3,3.3,0,1,0,1.73-6.1h0l-.37,0A3.28,3.28,0,0,0,5,4.63Zm2.1,5.23A2.72,2.72,0,0,1,4.45,7.17,2.62,2.62,0,0,1,4.9,5.71L9.06,9A2.68,2.68,0,0,1,7.13,9.86Zm0-5.37A2.69,2.69,0,0,1,9.36,8.67L5.21,5.33a2.71,2.71,0,0,1,.24-.24A2.66,2.66,0,0,1,7.13,4.48Z"/><path d="M3.27,8.5a.35.35,0,0,0,0,.71H4a3.64,3.64,0,0,1-.36-.71Z"/><path d="M11,8.5h-.48a3.64,3.64,0,0,1-.36.71H11a.35.35,0,0,0,0-.71Z"/><path d="M11,6.72A.35.35,0,0,0,11,6h-.43a3.62,3.62,0,0,1,.16.71Z"/><path d="M3.27,6a.35.35,0,0,0,0,.71h.19A3.63,3.63,0,0,1,3.62,6Z"/></g></g></svg>