<?xml version="1.0" encoding="utf-8"?>
<!-- Generator: Adobe Illustrator 25.3.1, SVG Export Plug-In . SVG Version: 6.00 Build 0)  -->
<svg version="1.1" id="Layer_1" xmlns="http://www.w3.org/2000/svg" xmlns:xlink="http://www.w3.org/1999/xlink" x="0px" y="0px"
	 viewBox="0 0 415.6 98.8" style="enable-background:new 0 0 415.6 98.8;" xml:space="preserve">
<style type="text/css">
	.st0{opacity:0.3;enable-background:new    ;}
	.st1{fill:#EA3033;stroke:#C40808;stroke-miterlimit:10;}
	.st2{fill:#915715;}
</style>
<g class="st0">
	<path d="M2.1,71.4v-4.6h12.1v4.6h-3.3v20.6H5.3V71.4H2.1z"/>
	<path d="M16.2,69.1v-2.3h5.2v2.3H16.2z M16.2,70h5.2v22h-5.2V70z"/>
	<path d="M37.3,81.9h-7.7v4.2c0,1,0.1,1.6,0.3,1.9c0.2,0.2,0.5,0.4,1,0.4c0.4,0,0.8-0.1,1-0.4c0.2-0.3,0.3-0.9,0.3-1.9v-2.9h5.2v2.2
		c0,2.6-0.5,4.5-1.5,5.5c-1,1-2.6,1.5-5,1.6c-2.3,0-4-0.5-5-1.6c-1-1-1.5-2.9-1.5-5.5v-8.5c0-2.6,0.5-4.5,1.5-5.5
		c1-1.1,2.7-1.6,5-1.6c2.3,0,4,0.5,5,1.6c0.9,1,1.4,2.9,1.5,5.5V81.9z M28.6,64.5h4.5l2.1,3.9h-3.3l-1.1-1.7l-1.1,1.7h-3.3
		L28.6,64.5z M30.6,59.7h4.1l-2.3,3.9h-3.3L30.6,59.7z M29.6,76.2v1.7h2.5v-1.7c0-1.1-0.1-1.8-0.3-2c-0.2-0.3-0.5-0.4-1-0.4
		c-0.5,0-0.8,0.1-1,0.4C29.7,74.4,29.6,75.1,29.6,76.2z"/>
	<path d="M39.2,70h1.3v-2.6l5.2-1V70H47v4h-1.3v12.6c0,0.6,0.1,1,0.3,1.2c0.2,0.1,0.5,0.2,1,0.2v3.8c-0.3,0.1-0.7,0.3-1.3,0.4
		c-0.4,0.1-0.9,0.2-1.4,0.2c-1.4,0-2.4-0.3-2.9-0.9c-0.5-0.6-0.8-2-0.8-4V74.1h-1.3V70z"/>
	<path d="M57.5,66.8h5.2v11.7c0.8-0.7,1.3-1.7,1.7-3.1c0.4-1.4,0.6-3,0.6-4.9V70h5.2v1.3c0,1.2-0.2,2.4-0.5,3.5
		c-0.3,1.1-0.7,2.2-1.3,3.3c0.6,1,1,2.4,1.3,4c0.3,1.6,0.5,3.4,0.5,5.6v3.2v1.2h-5.2v-1.3c0-2.4,0-4.3-0.1-5.6
		c-0.1-1.3-0.3-2.4-0.5-3.4c0,0-0.3,0.3-0.8,0.7c-0.2,0.1-0.3,0.2-0.4,0.3c-0.1,0.1-0.3,0.2-0.4,0.3v9h-5.2V66.8z"/>
	<path d="M73.1,69.1v-2.3h5.2v2.3H73.1z M73.1,70h5.2v22h-5.2V70z"/>
	<path d="M94.2,81.9h-7.7v4.2c0,1,0.1,1.6,0.3,1.9c0.2,0.2,0.5,0.4,1,0.4c0.4,0,0.8-0.1,1-0.4c0.2-0.3,0.3-0.9,0.3-1.9v-2.9h5.2v2.2
		c0,2.6-0.5,4.5-1.5,5.5c-1,1-2.6,1.5-5,1.6c-2.3,0-4-0.5-5-1.6c-1-1-1.5-2.9-1.5-5.5v-8.5c0-2.6,0.5-4.5,1.5-5.5
		c1-1.1,2.7-1.6,5-1.6c2.3,0,4,0.5,5,1.6c0.9,1,1.4,2.9,1.5,5.5V81.9z M85.5,64.5H90l2.1,3.9h-3.3l-1.1-1.7l-1.1,1.7h-3.3L85.5,64.5
		z M85.7,98v-3.6h3.6V98H85.7z M86.5,76.2v1.7H89v-1.7c0-1.1-0.1-1.8-0.3-2c-0.2-0.3-0.5-0.4-1-0.4c-0.5,0-0.8,0.1-1,0.4
		C86.6,74.4,86.5,75.1,86.5,76.2z"/>
	<path d="M96.9,92.1V70h4.9v1.2c0.4-0.5,1-0.8,1.6-1.2c0.5-0.2,1.2-0.4,2-0.4c0.8,0,1.5,0.2,2,0.5c0.5,0.3,1.1,0.7,1.6,1.4
		c0.6-0.7,1.1-1.2,1.7-1.5c0.6-0.3,1.3-0.5,2.1-0.5c1.6,0,2.8,0.5,3.5,1.5c0.7,1,1.1,2.7,1.1,5.3v15.6h-5.2V76
		c0-1.1-0.1-1.7-0.3-1.9c-0.1-0.3-0.5-0.4-0.9-0.4c-0.4,0-0.8,0.1-0.9,0.4c-0.1,0.2-0.2,0.8-0.3,1.9v16h-5.2V76c0-1-0.1-1.7-0.3-1.9
		c-0.2-0.3-0.5-0.4-0.9-0.4c-0.4,0-0.8,0.1-0.9,0.4c-0.1,0.2-0.2,0.8-0.3,1.9v16H96.9z"/>
	<path d="M127.8,83.1v-4.7h12.6v4.7H127.8z"/>
	<path d="M150.8,92.1v-5c0-4.7,0.4-8.7,1.1-12c0.4-1.6,0.8-3.1,1.4-4.5c0.6-1.4,1.2-2.7,2-3.8h5c1.5,2.3,2.6,5.1,3.4,8.4
		c0.4,1.6,0.6,3.4,0.8,5.4c0.2,2,0.3,4.2,0.3,6.6v5H159v-4.2h-2.7v4.2H150.8z M156.3,83.1h2.7c0-2.2-0.2-4.4-0.4-6.4
		c-0.3-2-0.6-3.6-1-4.7c-0.4,1.3-0.7,2.9-1,4.7C156.5,78.3,156.4,80.5,156.3,83.1z"/>
	<path d="M167.3,70h4.9v1.2c0.4-0.5,0.9-0.8,1.5-1.2c0.5-0.2,1.2-0.4,1.9-0.4c1.6,0,2.8,0.5,3.5,1.5c0.3,0.5,0.6,1.1,0.8,2
		s0.3,2,0.3,3.2v15.6h-5.2V76c0-1-0.1-1.7-0.3-1.9c-0.2-0.3-0.5-0.4-0.9-0.4c-0.4,0-0.8,0.1-0.9,0.4c-0.1,0.2-0.2,0.8-0.3,1.9v16
		h-5.2V70z"/>
	<path d="M190,70h1.3v-2.6l5.2-1V70h1.3v4h-1.3v12.6c0,0.6,0.1,1,0.3,1.2c0.2,0.1,0.5,0.2,1,0.2v3.8c-0.3,0.1-0.7,0.3-1.3,0.4
		c-0.4,0.1-0.9,0.2-1.4,0.2c-1.4,0-2.4-0.3-2.9-0.9c-0.5-0.6-0.8-2-0.8-4V74.1H190V70z"/>
	<path d="M200.1,76.8c0-2.6,0.5-4.5,1.5-5.5c1-1.1,2.7-1.6,5-1.6c2.3,0,4,0.5,5,1.6c0.9,1,1.4,2.9,1.5,5.5v8.5
		c0,2.6-0.5,4.5-1.5,5.5c-1,1-2.6,1.5-5,1.6c-2.3,0-4-0.5-5-1.6c-1-1-1.5-2.9-1.5-5.5V76.8z M207.8,86.1V76c0-1.1-0.1-1.7-0.3-1.9
		c-0.2-0.3-0.5-0.4-0.9-0.4c-0.4,0-0.8,0.1-0.9,0.4c-0.1,0.2-0.2,0.8-0.3,1.9v10c0,1,0.1,1.6,0.3,1.9c0.2,0.2,0.5,0.4,0.9,0.4
		c0.4,0,0.7-0.1,0.9-0.4C207.7,87.8,207.8,87.1,207.8,86.1z"/>
	<path d="M215.8,76.7v-1.4c0-1.8,0.5-3.2,1.5-4.1s2.5-1.4,4.6-1.4c2.2,0,3.8,0.5,4.7,1.5c1,0.9,1.5,2.5,1.5,4.8v16h-5v-1.2
		c-0.5,0.5-1,0.9-1.5,1.2c-0.6,0.2-1.2,0.4-1.9,0.4c-1.4,0-2.5-0.4-3.3-1.3c-0.8-0.9-1.1-2.2-1.1-3.8V84c0-1.7,0.4-3,1.2-3.9
		c0.8-0.9,2.9-2.1,6.3-3.5v-0.7c0-0.8-0.1-1.4-0.3-1.6c-0.1-0.3-0.5-0.4-0.9-0.4c-0.4,0-0.8,0.1-0.9,0.4c-0.2,0.2-0.3,0.7-0.3,1.6
		v0.9H215.8z M218.3,64.5h4.1l1.4,3.9h-3.3L218.3,64.5z M222.8,80.5c-0.9,0.5-1.5,1.1-1.8,1.6c-0.4,0.6-0.6,1.4-0.6,2.7v0.3v1
		c0,1,0.1,1.7,0.3,1.9c0.2,0.2,0.5,0.4,0.9,0.4c0.4,0,0.7-0.1,0.9-0.4c0.1-0.3,0.2-0.9,0.3-1.9V80.5z"/>
	<path d="M231,70h4.9v1.2c0.4-0.5,0.9-0.8,1.5-1.2c0.5-0.2,1.2-0.4,1.9-0.4c1.6,0,2.8,0.5,3.5,1.5c0.3,0.5,0.6,1.1,0.8,2
		s0.3,2,0.3,3.2v15.6h-5.2V76c0-1-0.1-1.7-0.3-1.9c-0.2-0.3-0.5-0.4-0.9-0.4c-0.4,0-0.8,0.1-0.9,0.4c-0.1,0.2-0.2,0.8-0.3,1.9v16
		H231V70z"/>
	<path d="M254.3,83.1v-4.7H267v4.7H254.3z"/>
	<path d="M277.7,92.1V70h4.9v1.2c0.4-0.5,1-0.8,1.6-1.2c0.5-0.2,1.2-0.4,2-0.4c0.8,0,1.5,0.2,2,0.5c0.5,0.3,1.1,0.7,1.6,1.4
		c0.6-0.7,1.1-1.2,1.7-1.5c0.6-0.3,1.3-0.5,2.1-0.5c1.6,0,2.8,0.5,3.5,1.5c0.7,1,1.1,2.7,1.1,5.3v15.6h-5.2V76
		c0-1.1-0.1-1.7-0.3-1.9c-0.1-0.3-0.5-0.4-0.9-0.4c-0.4,0-0.8,0.1-0.9,0.4c-0.1,0.2-0.2,0.8-0.3,1.9v16h-5.2V76c0-1-0.1-1.7-0.3-1.9
		c-0.2-0.3-0.5-0.4-0.9-0.4c-0.4,0-0.8,0.1-0.9,0.4c-0.1,0.2-0.2,0.8-0.3,1.9v16H277.7z"/>
	<path d="M300.9,69.1v-2.3h5.2v2.3H300.9z M300.9,70h5.2v22h-5.2V70z"/>
	<path d="M309.4,70h4.9v1.2c0.4-0.5,0.9-0.8,1.5-1.2c0.5-0.2,1.2-0.4,1.9-0.4c1.6,0,2.8,0.5,3.5,1.5c0.3,0.5,0.6,1.1,0.8,2
		s0.3,2,0.3,3.2v15.6H317V76c0-1-0.1-1.7-0.3-1.9c-0.2-0.3-0.5-0.4-0.9-0.4c-0.4,0-0.8,0.1-0.9,0.4c-0.1,0.2-0.2,0.8-0.3,1.9v16
		h-5.2V70z"/>
	<path d="M325.1,66.8h5.2V71c0.3-0.3,0.7-0.6,1.4-0.9c0.5-0.2,1.1-0.3,1.7-0.3c1.6,0,2.8,0.5,3.5,1.5c0.3,0.5,0.6,1.1,0.8,2
		c0.2,0.9,0.3,2,0.3,3.2v15.6h-5.2V76c0-1-0.1-1.7-0.3-1.9c-0.2-0.3-0.5-0.4-0.9-0.4c-0.4,0-0.8,0.1-0.9,0.4
		c-0.1,0.2-0.2,0.8-0.3,1.9v16h-5.2V66.8z"/>
	<path d="M348.8,66.8h5.2V71c0.3-0.4,0.7-0.7,1.3-0.9c0.5-0.2,1.1-0.3,1.8-0.3c1.7,0,2.9,0.5,3.6,1.5c0.7,0.9,1,3,1,6.1v8.3
		c0,2.4-0.3,4.2-1,5.2c-0.6,1-1.7,1.5-3.3,1.6c-0.8,0-1.5-0.1-2.1-0.3c-0.6-0.3-1.1-0.6-1.6-1.1v1.1h-4.9V66.8z M354,86.1
		c0,1,0.1,1.6,0.3,1.9c0.2,0.2,0.5,0.4,0.9,0.4c0.4,0,0.7-0.1,0.9-0.4c0.2-0.3,0.3-0.9,0.3-1.9V76c0-1-0.1-1.6-0.3-1.9
		c-0.2-0.3-0.5-0.4-0.9-0.4c-0.4,0-0.8,0.1-0.9,0.4c-0.1,0.2-0.2,0.8-0.3,1.9V86.1z"/>
	<path d="M364.4,76.7v-1.4c0-1.8,0.5-3.2,1.5-4.1s2.5-1.4,4.6-1.4c2.2,0,3.8,0.5,4.7,1.5c1,0.9,1.5,2.5,1.5,4.8v16h-5v-1.2
		c-0.5,0.5-1,0.9-1.5,1.2c-0.6,0.2-1.2,0.4-1.9,0.4c-1.4,0-2.5-0.4-3.3-1.3c-0.8-0.9-1.1-2.2-1.1-3.8V84c0-1.7,0.4-3,1.2-3.9
		c0.8-0.9,2.9-2.1,6.3-3.5v-0.7c0-0.8-0.1-1.4-0.3-1.6c-0.1-0.3-0.5-0.4-0.9-0.4c-0.4,0-0.8,0.1-0.9,0.4c-0.2,0.2-0.3,0.7-0.3,1.6
		v0.9H364.4z M368.5,98v-3.6h3.6V98H368.5z M371.4,80.5c-0.9,0.5-1.5,1.1-1.8,1.6c-0.4,0.6-0.6,1.4-0.6,2.7v0.3v1
		c0,1,0.1,1.7,0.3,1.9c0.2,0.2,0.5,0.4,0.9,0.4c0.4,0,0.7-0.1,0.9-0.4c0.1-0.3,0.2-0.9,0.3-1.9V80.5z"/>
	<path d="M392.2,79h-5.3V76c0-1.1-0.1-1.7-0.3-1.9c-0.2-0.3-0.5-0.4-0.9-0.4c-0.4,0-0.8,0.1-0.9,0.4c-0.1,0.2-0.2,0.8-0.3,1.9v10
		c0,1,0.1,1.6,0.3,1.9c0.2,0.2,0.5,0.4,0.9,0.4c0.4,0,0.7-0.1,0.9-0.4c0.2-0.2,0.3-0.9,0.3-1.9v-2.9h5.3v2.2c0,2.6-0.5,4.5-1.5,5.5
		c-1,1-2.6,1.5-5,1.6c-2.3,0-4-0.5-5-1.6c-1-1-1.5-2.9-1.5-5.5v-8.5c0-2.6,0.5-4.5,1.5-5.5c1-1.1,2.7-1.6,5-1.6c2.3,0,4,0.5,5,1.6
		c0.9,1,1.4,2.9,1.5,5.5V79z"/>
	<path d="M394.8,66.8h5.2V71c0.3-0.3,0.7-0.6,1.4-0.9c0.5-0.2,1.1-0.3,1.7-0.3c1.6,0,2.8,0.5,3.5,1.5c0.3,0.5,0.6,1.1,0.8,2
		c0.2,0.9,0.3,2,0.3,3.2v15.6h-5.2V76c0-1-0.1-1.7-0.3-1.9c-0.2-0.3-0.5-0.4-0.9-0.4c-0.4,0-0.8,0.1-0.9,0.4
		c-0.1,0.2-0.2,0.8-0.3,1.9v16h-5.2V66.8z"/>
</g>
<g>
	<path class="st1" d="M33.9,14.6v9.5H33c-0.6-2.2-1.2-3.8-1.8-4.7c-0.7-1-1.6-1.7-2.8-2.3c-0.7-0.3-1.8-0.5-3.4-0.5h-2.6v27.1
		c0,1.8,0.1,2.9,0.3,3.4c0.2,0.4,0.6,0.8,1.2,1.2c0.6,0.3,1.4,0.5,2.4,0.5h1.2v1H9v-1h1.2c1,0,1.8-0.2,2.5-0.5
		c0.4-0.2,0.8-0.7,1.1-1.2c0.2-0.4,0.3-1.5,0.3-3.3V16.6h-2.5c-2.4,0-4.1,0.5-5.1,1.5c-1.5,1.4-2.5,3.4-2.8,6h-1v-9.5H33.9z"/>
	<path class="st1" d="M55.6,16.6v14.3h0.7c2.2,0,3.8-0.7,4.8-2.1c1-1.4,1.6-3.5,1.9-6.2h1V41h-1c-0.2-2-0.6-3.6-1.3-4.9
		c-0.7-1.3-1.4-2.1-2.3-2.6c-0.9-0.4-2.2-0.7-3.8-0.7v9.9c0,1.9,0.1,3.1,0.2,3.5c0.2,0.4,0.5,0.8,0.9,1.1c0.4,0.3,1.2,0.4,2.2,0.4
		H61c3.3,0,5.9-0.8,7.9-2.3c2-1.5,3.4-3.8,4.3-6.9h1l-1.6,11.2H42.2v-1h1.2c1,0,1.8-0.2,2.5-0.5c0.4-0.2,0.8-0.7,1-1.2
		c0.2-0.4,0.3-1.5,0.3-3.3V20.6c0-1.6,0-2.6-0.1-2.9c-0.2-0.6-0.5-1.1-1-1.4c-0.7-0.5-1.6-0.7-2.7-0.7h-1.2v-1h29.4V25h-1
		c-0.5-2.5-1.2-4.4-2.1-5.5c-0.9-1.1-2.2-1.9-3.8-2.4c-1-0.3-2.8-0.5-5.4-0.5H55.6z"/>
	<path class="st1" d="M107.1,37.8l9.5-23.1h14.3v1h-1.1c-1,0-1.9,0.2-2.5,0.5c-0.4,0.2-0.8,0.6-1,1.2c-0.2,0.4-0.3,1.5-0.3,3.2v23.1
		c0,1.8,0.1,2.9,0.3,3.4c0.2,0.4,0.6,0.8,1.2,1.2c0.6,0.3,1.4,0.5,2.4,0.5h1.1v1h-18.3v-1h1.1c1,0,1.9-0.2,2.5-0.5
		c0.4-0.2,0.8-0.7,1-1.2c0.2-0.4,0.3-1.5,0.3-3.3v-26l-13.5,32h-0.6L89.7,17.9v24.7c0,1.7,0,2.8,0.1,3.2c0.2,0.9,0.7,1.6,1.5,2.1
		c0.8,0.5,1.9,0.8,3.5,0.8v1h-12v-1h0.4c0.8,0,1.5-0.1,2.2-0.4c0.7-0.3,1.2-0.6,1.5-1.1c0.3-0.4,0.6-1.1,0.8-1.9
		c0-0.2,0.1-1.1,0.1-2.6V20.6c0-1.8-0.1-2.9-0.3-3.3c-0.2-0.4-0.6-0.8-1.2-1.2c-0.6-0.3-1.4-0.5-2.4-0.5h-1.1v-1h14.3L107.1,37.8z"
		/>
	<path class="st1" d="M156.6,49.7v-1h1.2c1,0,1.8-0.2,2.3-0.5c0.5-0.3,0.9-0.8,1.2-1.3c0.2-0.4,0.3-1.5,0.3-3.3V32.2h-5v-1.9h5v-9.6
		c0-1.8-0.1-2.9-0.3-3.4c-0.2-0.4-0.6-0.8-1.2-1.2c-0.6-0.3-1.4-0.5-2.3-0.5h-1.2v-1h15.7c4.2,0,7.6,0.6,10.1,1.7
		c3.1,1.4,5.5,3.5,7.1,6.3c1.6,2.8,2.4,6,2.4,9.6c0,2.5-0.4,4.7-1.2,6.8s-1.8,3.8-3.1,5.1c-1.3,1.4-2.7,2.4-4.4,3.3
		c-1.6,0.8-3.7,1.5-6,1.9c-1,0.2-2.7,0.3-4.9,0.3H156.6z M170,16.6l0,13.6h7.8v1.9H170l0,11.8c0,1.4,0.1,2.3,0.2,2.7
		c0.1,0.3,0.4,0.6,0.7,0.8c0.5,0.3,1.2,0.4,2,0.4c2.9,0,5.1-1,6.6-3c2.1-2.7,3.1-6.8,3.1-12.4c0-4.5-0.7-8.1-2.1-10.8
		c-1.1-2.1-2.5-3.5-4.3-4.3C174.9,16.9,172.9,16.6,170,16.6z"/>
	<path class="st1" d="M218.7,48.8v1h-18.3v-1h1.2c1,0,1.8-0.2,2.5-0.5c0.4-0.2,0.8-0.7,1-1.2c0.2-0.4,0.3-1.5,0.3-3.3V20.6
		c0-1.8-0.1-2.9-0.3-3.4c-0.2-0.4-0.6-0.8-1.2-1.2c-0.6-0.3-1.4-0.5-2.3-0.5h-1.2v-1h18.3v1h-1.2c-1,0-1.8,0.2-2.5,0.5
		c-0.4,0.2-0.8,0.7-1.1,1.2c-0.2,0.4-0.3,1.5-0.3,3.3v23.1c0,1.8,0.1,2.9,0.3,3.4c0.2,0.4,0.6,0.8,1.2,1.2c0.6,0.3,1.4,0.5,2.3,0.5
		H218.7z"/>
	<path class="st1" d="M239.6,16.6v14.3h0.7c2.2,0,3.8-0.7,4.8-2.1c1-1.4,1.6-3.5,1.9-6.2h1V41h-1c-0.2-2-0.6-3.6-1.3-4.9
		c-0.7-1.3-1.4-2.1-2.3-2.6c-0.9-0.4-2.2-0.7-3.8-0.7v9.9c0,1.9,0.1,3.1,0.2,3.5c0.2,0.4,0.5,0.8,0.9,1.1c0.4,0.3,1.2,0.4,2.2,0.4
		h2.1c3.3,0,5.9-0.8,7.9-2.3c2-1.5,3.4-3.8,4.3-6.9h1l-1.6,11.2h-30.3v-1h1.2c1,0,1.8-0.2,2.5-0.5c0.4-0.2,0.8-0.7,1-1.2
		c0.2-0.4,0.3-1.5,0.3-3.3V20.6c0-1.6,0-2.6-0.1-2.9c-0.2-0.6-0.5-1.1-1-1.4c-0.7-0.5-1.6-0.7-2.7-0.7h-1.2v-1h29.4V25h-1
		c-0.5-2.5-1.2-4.4-2.1-5.5c-0.9-1.1-2.2-1.9-3.8-2.4c-1-0.3-2.8-0.5-5.4-0.5H239.6z M240.7,7.8h4.8l4.2,3.8h-1.2L243,9.8l-5.2,1.8
		h-1.2L240.7,7.8z M241.6,52.4c1.2,0,2.2,0.4,3.1,1.3s1.3,1.9,1.3,3.1c0,1.2-0.4,2.2-1.3,3c-0.8,0.8-1.9,1.3-3.1,1.3s-2.2-0.4-3-1.3
		c-0.8-0.8-1.3-1.9-1.3-3s0.4-2.2,1.3-3.1C239.4,52.8,240.4,52.4,241.6,52.4z"/>
	<path class="st1" d="M279,14.6l17.3,21.8V21.3c0-2.1-0.3-3.5-0.9-4.3c-0.8-1-2.2-1.5-4.2-1.4v-1h11.6v1c-1.5,0.2-2.5,0.4-3,0.7
		c-0.5,0.3-0.9,0.8-1.2,1.5c-0.3,0.7-0.4,1.9-0.4,3.5v29.2h-0.9l-23.7-29.2v22.3c0,2,0.5,3.4,1.4,4.1c0.9,0.7,2,1.1,3.2,1.1h0.8v1
		h-12.4v-1c1.9,0,3.3-0.4,4-1.2c0.8-0.8,1.1-2.1,1.1-4V18.8l-0.8-0.9c-0.7-0.9-1.4-1.5-2-1.8c-0.6-0.3-1.4-0.5-2.5-0.5v-1H279z"/>
	<path class="st1" d="M360.4,14.6v9.5h-0.9c-0.6-2.2-1.2-3.8-1.8-4.7c-0.7-1-1.6-1.7-2.8-2.3c-0.7-0.3-1.8-0.5-3.4-0.5h-2.6v27.1
		c0,1.8,0.1,2.9,0.3,3.4c0.2,0.4,0.6,0.8,1.2,1.2c0.6,0.3,1.4,0.5,2.4,0.5h1.2v1h-18.4v-1h1.2c1,0,1.8-0.2,2.5-0.5
		c0.4-0.2,0.8-0.7,1.1-1.2c0.2-0.4,0.3-1.5,0.3-3.3V16.6h-2.5c-2.4,0-4.1,0.5-5.1,1.5c-1.5,1.4-2.5,3.4-2.8,6h-1v-9.5H360.4z"/>
	<path class="st1" d="M404.3,15.6c-2,0-3.3,0.8-3.9,2.4c-0.2,0.6-0.3,1.6-0.3,3v13.3c0,4.3-0.3,7.2-0.8,8.9c-0.6,1.9-1.9,3.6-4,5
		c-2.1,1.5-5,2.3-8.6,2.3c-3,0-5.4-0.4-7-1.2c-2.2-1.1-3.8-2.5-4.8-4.2s-1.4-4-1.4-7V20.9c0-1.9-0.1-3.1-0.3-3.8
		c-0.2-0.4-0.5-0.8-1.1-1.1c-0.6-0.3-1.6-0.5-3.1-0.4v-1H387v1h-0.9c-2.1,0-3.4,0.5-3.9,1.6c-0.2,0.5-0.3,1.8-0.3,3.8v17.2
		c0,3,0.2,5,0.7,6.2c0.4,1,1.2,1.8,2.3,2.5c1.1,0.7,2.5,1,4.1,1c3.8,0,6.4-1.6,7.9-4.8c0.7-1.5,1-4.1,1-7.8V20.9
		c0-2.6-0.6-4.2-1.7-4.8c-0.8-0.4-1.9-0.6-3.3-0.6v-1H405c0.9,0,1.7-0.2,2.4-0.5c0.2-0.1,0.4-0.3,0.5-0.6c0.1-0.2,0.1-0.3,0-0.4
		c0,0-0.3-0.2-0.7-0.5s-0.8-0.6-1-1c-0.4-0.7-0.5-1.4-0.3-2.1c0.2-0.7,0.6-1.2,1.4-1.6c0.7-0.4,1.5-0.5,2.3-0.2
		c1.6,0.5,2.4,1.6,2.4,3.3c0,0.5-0.1,1-0.3,1.5c-0.4,1.2-1.3,2-2.8,2.6c-1,0.4-2.3,0.6-3.9,0.6H404.3z M393.9,8
		c-1.4,0.8-2.3,1.4-2.6,1.8c-0.3,0.3-0.5,0.9-0.6,1.6h-1.4c0.2-1.5,0.8-2.8,1.8-3.8c0.8-0.8,1.1-1.5,1.1-2.2c0-1.3-0.9-1.9-2.6-1.9
		c-0.6,0-1.1,0.1-1.5,0.3c-0.4,0.2-0.6,0.3-0.6,0.5c0,0.1,0.2,0.4,0.5,0.7c0.3,0.3,0.5,0.5,0.5,0.7c0,0.6-0.5,0.9-1.6,0.9
		c-0.7,0-1.2-0.1-1.7-0.4s-0.6-0.6-0.6-1.1c0-0.7,0.5-1.3,1.6-1.8c1.1-0.5,2.5-0.7,4.1-0.7c2.2,0,3.8,0.3,4.8,1
		c0.8,0.5,1.2,1.1,1.2,1.7C396.3,6.1,395.5,7,393.9,8z"/>
</g>
<g>
	<path class="st2" d="M1.1,70.4v-4.6h12.1v4.6H9.9v20.6H4.3V70.4H1.1z"/>
	<path class="st2" d="M15.2,68.1v-2.3h5.2v2.3H15.2z M15.2,69h5.2v22h-5.2V69z"/>
	<path class="st2" d="M36.3,80.9h-7.7v4.2c0,1,0.1,1.6,0.3,1.9c0.2,0.2,0.5,0.4,1,0.4c0.4,0,0.8-0.1,1-0.4c0.2-0.3,0.3-0.9,0.3-1.9
		v-2.9h5.2v2.2c0,2.6-0.5,4.5-1.5,5.5c-1,1-2.6,1.5-5,1.6c-2.3,0-4-0.5-5-1.6c-1-1-1.5-2.9-1.5-5.5v-8.5c0-2.6,0.5-4.5,1.5-5.5
		c1-1.1,2.7-1.6,5-1.6c2.3,0,4,0.5,5,1.6c0.9,1,1.4,2.9,1.5,5.5V80.9z M27.6,63.5h4.5l2.1,3.9h-3.3l-1.1-1.7l-1.1,1.7h-3.3
		L27.6,63.5z M29.6,58.7h4.1l-2.3,3.9h-3.3L29.6,58.7z M28.6,75.2v1.7h2.5v-1.7c0-1.1-0.1-1.8-0.3-2c-0.2-0.3-0.5-0.4-1-0.4
		c-0.5,0-0.8,0.1-1,0.4C28.7,73.4,28.6,74.1,28.6,75.2z"/>
	<path class="st2" d="M38.2,69h1.3v-2.6l5.2-1V69H46v4h-1.3v12.6c0,0.6,0.1,1,0.3,1.2c0.2,0.1,0.5,0.2,1,0.2v3.8
		c-0.3,0.1-0.7,0.3-1.3,0.4c-0.4,0.1-0.9,0.2-1.4,0.2c-1.4,0-2.4-0.3-2.9-0.9c-0.5-0.6-0.8-2-0.8-4V73.1h-1.3V69z"/>
	<path class="st2" d="M56.5,65.8h5.2v11.7c0.8-0.7,1.3-1.7,1.7-3.1c0.4-1.4,0.6-3,0.6-4.9V69h5.2v1.3c0,1.2-0.2,2.4-0.5,3.5
		c-0.3,1.1-0.7,2.2-1.3,3.3c0.6,1,1,2.4,1.3,4c0.3,1.6,0.5,3.4,0.5,5.6v3.2v1.2h-5.2v-1.3c0-2.4,0-4.3-0.1-5.6
		c-0.1-1.3-0.3-2.4-0.5-3.4c0,0-0.3,0.3-0.8,0.7c-0.2,0.1-0.3,0.2-0.4,0.3c-0.1,0.1-0.3,0.2-0.4,0.3v9h-5.2V65.8z"/>
	<path class="st2" d="M72.1,68.1v-2.3h5.2v2.3H72.1z M72.1,69h5.2v22h-5.2V69z"/>
	<path class="st2" d="M93.2,80.9h-7.7v4.2c0,1,0.1,1.6,0.3,1.9c0.2,0.2,0.5,0.4,1,0.4c0.4,0,0.8-0.1,1-0.4c0.2-0.3,0.3-0.9,0.3-1.9
		v-2.9h5.2v2.2c0,2.6-0.5,4.5-1.5,5.5c-1,1-2.6,1.5-5,1.6c-2.3,0-4-0.5-5-1.6c-1-1-1.5-2.9-1.5-5.5v-8.5c0-2.6,0.5-4.5,1.5-5.5
		c1-1.1,2.7-1.6,5-1.6c2.3,0,4,0.5,5,1.6c0.9,1,1.4,2.9,1.5,5.5V80.9z M84.5,63.5H89l2.1,3.9h-3.3l-1.1-1.7l-1.1,1.7h-3.3L84.5,63.5
		z M84.7,97v-3.6h3.6V97H84.7z M85.5,75.2v1.7H88v-1.7c0-1.1-0.1-1.8-0.3-2c-0.2-0.3-0.5-0.4-1-0.4c-0.5,0-0.8,0.1-1,0.4
		C85.6,73.4,85.5,74.1,85.5,75.2z"/>
	<path class="st2" d="M95.9,91.1V69h4.9v1.2c0.4-0.5,1-0.8,1.6-1.2c0.5-0.2,1.2-0.4,2-0.4c0.8,0,1.5,0.2,2,0.5
		c0.5,0.3,1.1,0.7,1.6,1.4c0.6-0.7,1.1-1.2,1.7-1.5c0.6-0.3,1.3-0.5,2.1-0.5c1.6,0,2.8,0.5,3.5,1.5c0.7,1,1.1,2.7,1.1,5.3v15.6h-5.2
		V75c0-1.1-0.1-1.7-0.3-1.9c-0.1-0.3-0.5-0.4-0.9-0.4c-0.4,0-0.8,0.1-0.9,0.4c-0.1,0.2-0.2,0.8-0.3,1.9v16h-5.2V75
		c0-1-0.1-1.7-0.3-1.9c-0.2-0.3-0.5-0.4-0.9-0.4c-0.4,0-0.8,0.1-0.9,0.4c-0.1,0.2-0.2,0.8-0.3,1.9v16H95.9z"/>
	<path class="st2" d="M126.8,82.1v-4.7h12.6v4.7H126.8z"/>
	<path class="st2" d="M149.8,91.1v-5c0-4.7,0.4-8.7,1.1-12c0.4-1.6,0.8-3.1,1.4-4.5c0.6-1.4,1.2-2.7,2-3.8h5
		c1.5,2.3,2.6,5.1,3.4,8.4c0.4,1.6,0.6,3.4,0.8,5.4c0.2,2,0.3,4.2,0.3,6.6v5H158v-4.2h-2.7v4.2H149.8z M155.3,82.1h2.7
		c0-2.2-0.2-4.4-0.4-6.4c-0.3-2-0.6-3.6-1-4.7c-0.4,1.3-0.7,2.9-1,4.7C155.5,77.3,155.4,79.5,155.3,82.1z"/>
	<path class="st2" d="M166.3,69h4.9v1.2c0.4-0.5,0.9-0.8,1.5-1.2c0.5-0.2,1.2-0.4,1.9-0.4c1.6,0,2.8,0.5,3.5,1.5
		c0.3,0.5,0.6,1.1,0.8,2s0.3,2,0.3,3.2v15.6h-5.2V75c0-1-0.1-1.7-0.3-1.9c-0.2-0.3-0.5-0.4-0.9-0.4c-0.4,0-0.8,0.1-0.9,0.4
		c-0.1,0.2-0.2,0.8-0.3,1.9v16h-5.2V69z"/>
	<path class="st2" d="M189,69h1.3v-2.6l5.2-1V69h1.3v4h-1.3v12.6c0,0.6,0.1,1,0.3,1.2c0.2,0.1,0.5,0.2,1,0.2v3.8
		c-0.3,0.1-0.7,0.3-1.3,0.4c-0.4,0.1-0.9,0.2-1.4,0.2c-1.4,0-2.4-0.3-2.9-0.9c-0.5-0.6-0.8-2-0.8-4V73.1H189V69z"/>
	<path class="st2" d="M199.1,75.8c0-2.6,0.5-4.5,1.5-5.5c1-1.1,2.7-1.6,5-1.6c2.3,0,4,0.5,5,1.6c0.9,1,1.4,2.9,1.5,5.5v8.5
		c0,2.6-0.5,4.5-1.5,5.5c-1,1-2.6,1.5-5,1.6c-2.3,0-4-0.5-5-1.6c-1-1-1.5-2.9-1.5-5.5V75.8z M206.8,85.1V75c0-1.1-0.1-1.7-0.3-1.9
		c-0.2-0.3-0.5-0.4-0.9-0.4c-0.4,0-0.8,0.1-0.9,0.4c-0.1,0.2-0.2,0.8-0.3,1.9v10c0,1,0.1,1.6,0.3,1.9c0.2,0.2,0.5,0.4,0.9,0.4
		c0.4,0,0.7-0.1,0.9-0.4C206.7,86.8,206.8,86.1,206.8,85.1z"/>
	<path class="st2" d="M214.8,75.7v-1.4c0-1.8,0.5-3.2,1.5-4.1s2.5-1.4,4.6-1.4c2.2,0,3.8,0.5,4.7,1.5c1,0.9,1.5,2.5,1.5,4.8v16h-5
		v-1.2c-0.5,0.5-1,0.9-1.5,1.2c-0.6,0.2-1.2,0.4-1.9,0.4c-1.4,0-2.5-0.4-3.3-1.3c-0.8-0.9-1.1-2.2-1.1-3.8V83c0-1.7,0.4-3,1.2-3.9
		c0.8-0.9,2.9-2.1,6.3-3.5v-0.7c0-0.8-0.1-1.4-0.3-1.6c-0.1-0.3-0.5-0.4-0.9-0.4c-0.4,0-0.8,0.1-0.9,0.4c-0.2,0.2-0.3,0.7-0.3,1.6
		v0.9H214.8z M217.3,63.5h4.1l1.4,3.9h-3.3L217.3,63.5z M221.8,79.5c-0.9,0.5-1.5,1.1-1.8,1.6c-0.4,0.6-0.6,1.4-0.6,2.7v0.3v1
		c0,1,0.1,1.7,0.3,1.9c0.2,0.2,0.5,0.4,0.9,0.4c0.4,0,0.7-0.1,0.9-0.4c0.1-0.3,0.2-0.9,0.3-1.9V79.5z"/>
	<path class="st2" d="M230,69h4.9v1.2c0.4-0.5,0.9-0.8,1.5-1.2c0.5-0.2,1.2-0.4,1.9-0.4c1.6,0,2.8,0.5,3.5,1.5
		c0.3,0.5,0.6,1.1,0.8,2s0.3,2,0.3,3.2v15.6h-5.2V75c0-1-0.1-1.7-0.3-1.9c-0.2-0.3-0.5-0.4-0.9-0.4c-0.4,0-0.8,0.1-0.9,0.4
		c-0.1,0.2-0.2,0.8-0.3,1.9v16H230V69z"/>
	<path class="st2" d="M253.3,82.1v-4.7H266v4.7H253.3z"/>
	<path class="st2" d="M276.7,91.1V69h4.9v1.2c0.4-0.5,1-0.8,1.6-1.2c0.5-0.2,1.2-0.4,2-0.4c0.8,0,1.5,0.2,2,0.5
		c0.5,0.3,1.1,0.7,1.6,1.4c0.6-0.7,1.1-1.2,1.7-1.5c0.6-0.3,1.3-0.5,2.1-0.5c1.6,0,2.8,0.5,3.5,1.5c0.7,1,1.1,2.7,1.1,5.3v15.6h-5.2
		V75c0-1.1-0.1-1.7-0.3-1.9c-0.1-0.3-0.5-0.4-0.9-0.4c-0.4,0-0.8,0.1-0.9,0.4c-0.1,0.2-0.2,0.8-0.3,1.9v16h-5.2V75
		c0-1-0.1-1.7-0.3-1.9c-0.2-0.3-0.5-0.4-0.9-0.4c-0.4,0-0.8,0.1-0.9,0.4c-0.1,0.2-0.2,0.8-0.3,1.9v16H276.7z"/>
	<path class="st2" d="M299.9,68.1v-2.3h5.2v2.3H299.9z M299.9,69h5.2v22h-5.2V69z"/>
	<path class="st2" d="M308.4,69h4.9v1.2c0.4-0.5,0.9-0.8,1.5-1.2c0.5-0.2,1.2-0.4,1.9-0.4c1.6,0,2.8,0.5,3.5,1.5
		c0.3,0.5,0.6,1.1,0.8,2s0.3,2,0.3,3.2v15.6H316V75c0-1-0.1-1.7-0.3-1.9c-0.2-0.3-0.5-0.4-0.9-0.4c-0.4,0-0.8,0.1-0.9,0.4
		c-0.1,0.2-0.2,0.8-0.3,1.9v16h-5.2V69z"/>
	<path class="st2" d="M324.1,65.8h5.2V70c0.3-0.3,0.7-0.6,1.4-0.9c0.5-0.2,1.1-0.3,1.7-0.3c1.6,0,2.8,0.5,3.5,1.5
		c0.3,0.5,0.6,1.1,0.8,2c0.2,0.9,0.3,2,0.3,3.2v15.6h-5.2V75c0-1-0.1-1.7-0.3-1.9c-0.2-0.3-0.5-0.4-0.9-0.4c-0.4,0-0.8,0.1-0.9,0.4
		c-0.1,0.2-0.2,0.8-0.3,1.9v16h-5.2V65.8z"/>
	<path class="st2" d="M347.8,65.8h5.2V70c0.3-0.4,0.7-0.7,1.3-0.9c0.5-0.2,1.1-0.3,1.8-0.3c1.7,0,2.9,0.5,3.6,1.5c0.7,0.9,1,3,1,6.1
		v8.3c0,2.4-0.3,4.2-1,5.2c-0.6,1-1.7,1.5-3.3,1.6c-0.8,0-1.5-0.1-2.1-0.3c-0.6-0.3-1.1-0.6-1.6-1.1v1.1h-4.9V65.8z M353,85.1
		c0,1,0.1,1.6,0.3,1.9c0.2,0.2,0.5,0.4,0.9,0.4c0.4,0,0.7-0.1,0.9-0.4c0.2-0.3,0.3-0.9,0.3-1.9V75c0-1-0.1-1.6-0.3-1.9
		c-0.2-0.3-0.5-0.4-0.9-0.4c-0.4,0-0.8,0.1-0.9,0.4c-0.1,0.2-0.2,0.8-0.3,1.9V85.1z"/>
	<path class="st2" d="M363.4,75.7v-1.4c0-1.8,0.5-3.2,1.5-4.1s2.5-1.4,4.6-1.4c2.2,0,3.8,0.5,4.7,1.5c1,0.9,1.5,2.5,1.5,4.8v16h-5
		v-1.2c-0.5,0.5-1,0.9-1.5,1.2c-0.6,0.2-1.2,0.4-1.9,0.4c-1.4,0-2.5-0.4-3.3-1.3c-0.8-0.9-1.1-2.2-1.1-3.8V83c0-1.7,0.4-3,1.2-3.9
		c0.8-0.9,2.9-2.1,6.3-3.5v-0.7c0-0.8-0.1-1.4-0.3-1.6c-0.1-0.3-0.5-0.4-0.9-0.4c-0.4,0-0.8,0.1-0.9,0.4c-0.2,0.2-0.3,0.7-0.3,1.6
		v0.9H363.4z M367.5,97v-3.6h3.6V97H367.5z M370.4,79.5c-0.9,0.5-1.5,1.1-1.8,1.6c-0.4,0.6-0.6,1.4-0.6,2.7v0.3v1
		c0,1,0.1,1.7,0.3,1.9c0.2,0.2,0.5,0.4,0.9,0.4c0.4,0,0.7-0.1,0.9-0.4c0.1-0.3,0.2-0.9,0.3-1.9V79.5z"/>
	<path class="st2" d="M391.2,78h-5.3V75c0-1.1-0.1-1.7-0.3-1.9c-0.2-0.3-0.5-0.4-0.9-0.4c-0.4,0-0.8,0.1-0.9,0.4
		c-0.1,0.2-0.2,0.8-0.3,1.9v10c0,1,0.1,1.6,0.3,1.9c0.2,0.2,0.5,0.4,0.9,0.4c0.4,0,0.7-0.1,0.9-0.4c0.2-0.2,0.3-0.9,0.3-1.9v-2.9
		h5.3v2.2c0,2.6-0.5,4.5-1.5,5.5c-1,1-2.6,1.5-5,1.6c-2.3,0-4-0.5-5-1.6c-1-1-1.5-2.9-1.5-5.5v-8.5c0-2.6,0.5-4.5,1.5-5.5
		c1-1.1,2.7-1.6,5-1.6c2.3,0,4,0.5,5,1.6c0.9,1,1.4,2.9,1.5,5.5V78z"/>
	<path class="st2" d="M393.8,65.8h5.2V70c0.3-0.3,0.7-0.6,1.4-0.9c0.5-0.2,1.1-0.3,1.7-0.3c1.6,0,2.8,0.5,3.5,1.5
		c0.3,0.5,0.6,1.1,0.8,2c0.2,0.9,0.3,2,0.3,3.2v15.6h-5.2V75c0-1-0.1-1.7-0.3-1.9c-0.2-0.3-0.5-0.4-0.9-0.4c-0.4,0-0.8,0.1-0.9,0.4
		c-0.1,0.2-0.2,0.8-0.3,1.9v16h-5.2V65.8z"/>
</g>
</svg>
