<svg xmlns="http://www.w3.org/2000/svg" xmlns:xlink="http://www.w3.org/1999/xlink" width="602" height="85" viewBox="0 0 602 85"><defs><linearGradient id="linear-gradient" x1=".537" x2=".463" y1=".001" y2=".999" gradientUnits="objectBoundingBox"><stop offset="0" stop-color="#f4cd49"/><stop offset=".315" stop-color="#f9c122"/><stop offset=".69" stop-color="#f6c911"/><stop offset="1" stop-color="#f39d20"/></linearGradient><filter id="Ellipse_1" width="93" height="93" x="-5.5" y="-3.5" filterUnits="userSpaceOnUse"><feOffset dy="3" input="SourceAlpha"/><feGaussianBlur result="blur" stdDeviation="3.5"/><feFlood flood-opacity=".502"/><feComposite in2="blur" operator="in"/><feComposite in="SourceGraphic"/></filter><radialGradient id="radial-gradient" cx=".854" cy=".916" r=".994" gradientUnits="objectBoundingBox"><stop offset="0" stop-color="#ed302a"/><stop offset=".414" stop-color="#ec1c24"/><stop offset="1" stop-color="#be151b"/></radialGradient><radialGradient id="radial-gradient-2" cx=".5" cy=".5" r=".386" gradientTransform="translate(-0.65) scale(2.299 1)" gradientUnits="objectBoundingBox"><stop offset=".145" stop-color="#fdcd08"/><stop offset="1" stop-color="#f4ce35"/></radialGradient><radialGradient id="radial-gradient-3" cx=".5" cy=".5" r=".393" gradientTransform="translate(-0.524) scale(2.048 1)" xlink:href="#radial-gradient-2"/><radialGradient id="radial-gradient-4" cx=".5" cy=".5" r=".392" gradientTransform="translate(-0.54) scale(2.081 1)" xlink:href="#radial-gradient-2"/><radialGradient id="radial-gradient-5" cx=".5" cy=".5" r=".379" gradientTransform="translate(-0.79) scale(2.581 1)" xlink:href="#radial-gradient-2"/><radialGradient id="radial-gradient-6" cx=".5" cy=".5" r=".403" gradientTransform="translate(-0.417) scale(1.835 1)" xlink:href="#radial-gradient-2"/><radialGradient id="radial-gradient-7" cx=".5" cy=".5" r=".393" gradientTransform="translate(-0.524) scale(2.048 1)" xlink:href="#radial-gradient-2"/><radialGradient id="radial-gradient-8" cx=".5" cy=".5" r=".388" gradientTransform="translate(-0.601) scale(2.202 1)" xlink:href="#radial-gradient-2"/><radialGradient id="radial-gradient-10" cx=".5" cy=".5" r=".401" gradientTransform="translate(-0.437) scale(1.873 1)" xlink:href="#radial-gradient-2"/><radialGradient id="radial-gradient-11" cx=".5" cy=".5" r=".384" gradientTransform="translate(-0.677) scale(2.355 1)" xlink:href="#radial-gradient-2"/><radialGradient id="radial-gradient-12" cx=".5" cy=".5" r=".391" gradientTransform="translate(-0.557) scale(2.113 1)" xlink:href="#radial-gradient-2"/><radialGradient id="radial-gradient-13" cx=".505" cy=".568" r=".586" gradientTransform="translate(0.024) scale(0.951 1)" gradientUnits="objectBoundingBox"><stop offset="0" stop-color="#f6ea89"/><stop offset=".315" stop-color="#f9c122"/><stop offset=".69" stop-color="#f6c911"/><stop offset="1" stop-color="#f6b11b"/></radialGradient><radialGradient id="radial-gradient-14" cx=".479" cy="1.143" r=".953" gradientTransform="translate(0.284) scale(0.433 1)" xlink:href="#radial-gradient-13"/><radialGradient id="radial-gradient-15" cx="14.917" cy="5.698" r="6.526" gradientTransform="translate(-0.759) scale(2.518 1)" gradientUnits="objectBoundingBox"><stop offset="0" stop-color="#f7f2bb"/><stop offset=".724" stop-color="#fdcd08"/><stop offset="1" stop-color="#f4ce35"/></radialGradient><radialGradient id="radial-gradient-16" cx="6.874" cy="12.404" r="16.713" gradientTransform="translate(0.302) scale(0.396 1)" xlink:href="#radial-gradient-15"/><radialGradient id="radial-gradient-17" cx="7.412" cy="14.613" r="17.576" gradientTransform="translate(0.313) scale(0.373 1)" xlink:href="#radial-gradient-15"/><radialGradient id="radial-gradient-18" cx="7.873" cy="15.912" r="17.222" gradientTransform="translate(0.31) scale(0.381 1)" xlink:href="#radial-gradient-15"/><radialGradient id="radial-gradient-19" cx="8.279" cy="17.445" r="16.79" gradientTransform="translate(0.307) scale(0.387 1)" xlink:href="#radial-gradient-15"/><radialGradient id="radial-gradient-20" cx="8.533" cy="17.644" r="15.511" gradientTransform="translate(0.291) scale(0.418 1)" xlink:href="#radial-gradient-15"/><radialGradient id="radial-gradient-21" cx="9.834" cy="13.344" r="10.381" gradientTransform="translate(0.149) scale(0.703 1)" xlink:href="#radial-gradient-15"/><radialGradient id="radial-gradient-22" cx="11.024" cy="12.302" r="8.585" gradientTransform="translate(0.032) scale(0.936 1)" xlink:href="#radial-gradient-15"/><radialGradient id="radial-gradient-23" cx="12.955" cy="12.317" r="7.789" gradientTransform="translate(-0.107) scale(1.214 1)" xlink:href="#radial-gradient-15"/><radialGradient id="radial-gradient-24" cx="17.79" cy="11.158" r="6.494" gradientTransform="translate(-0.527) scale(2.054 1)" xlink:href="#radial-gradient-15"/><radialGradient id="radial-gradient-25" cx="18.471" cy="11.688" r="6.316" gradientTransform="translate(-0.621) scale(2.242 1)" xlink:href="#radial-gradient-15"/><radialGradient id="radial-gradient-26" cx="18.964" cy="11.136" r="5.64" gradientTransform="translate(-0.835) scale(2.671 1)" xlink:href="#radial-gradient-15"/><radialGradient id="radial-gradient-27" cx="19.982" cy="11.468" r="5.525" gradientTransform="translate(-1.017) scale(3.033 1)" xlink:href="#radial-gradient-15"/><radialGradient id="radial-gradient-28" cx="20.628" cy="12.905" r="5.997" gradientTransform="translate(-1.028) scale(3.056 1)" xlink:href="#radial-gradient-15"/><radialGradient id="radial-gradient-29" cx="16.084" cy="14.525" r="6.517" gradientTransform="translate(-0.675) scale(2.351 1)" xlink:href="#radial-gradient-15"/><radialGradient id="radial-gradient-30" cx="16.224" cy="6.518" r="6.909" gradientTransform="translate(-0.678) scale(2.355 1)" xlink:href="#radial-gradient-15"/><radialGradient id="radial-gradient-31" cx="17.323" cy="7.316" r="7.143" gradientTransform="translate(-0.639) scale(2.278 1)" xlink:href="#radial-gradient-15"/><radialGradient id="radial-gradient-32" cx="16.412" cy="8.517" r="7.559" gradientTransform="translate(-0.46) scale(1.92 1)" xlink:href="#radial-gradient-15"/><radialGradient id="radial-gradient-33" cx="18.792" cy="9.021" r="7.397" gradientTransform="translate(-0.581) scale(2.162 1)" xlink:href="#radial-gradient-15"/><radialGradient id="radial-gradient-34" cx="16.136" cy="10.606" r="8.072" gradientTransform="translate(-0.32) scale(1.64 1)" xlink:href="#radial-gradient-15"/><radialGradient id="radial-gradient-35" cx="12.736" cy="13.648" r="9.647" gradientTransform="translate(-0.027) scale(1.055 1)" xlink:href="#radial-gradient-15"/><radialGradient id="radial-gradient-36" cx="9.535" cy="16.471" r="10.739" gradientTransform="translate(0.149) scale(0.701 1)" xlink:href="#radial-gradient-15"/><radialGradient id="radial-gradient-37" cx="8.876" cy="19.693" r="12.062" gradientTransform="translate(0.209) scale(0.581 1)" xlink:href="#radial-gradient-15"/><radialGradient id="radial-gradient-38" cx="9.504" cy="25.176" r="14.457" gradientTransform="translate(0.235) scale(0.529 1)" xlink:href="#radial-gradient-15"/><radialGradient id="radial-gradient-39" cx="9.087" cy="27.097" r="14.712" gradientTransform="translate(0.244) scale(0.512 1)" xlink:href="#radial-gradient-15"/><radialGradient id="radial-gradient-40" cx="7.588" cy="29.006" r="14.976" gradientTransform="translate(0.281) scale(0.437 1)" xlink:href="#radial-gradient-15"/><radialGradient id="radial-gradient-41" cx="7.242" cy="30.499" r="15.061" gradientTransform="translate(0.283) scale(0.435 1)" xlink:href="#radial-gradient-15"/><radialGradient id="radial-gradient-42" cx="6.796" cy="32.174" r="15.251" gradientTransform="translate(0.286) scale(0.429 1)" xlink:href="#radial-gradient-15"/><radialGradient id="radial-gradient-43" cx="5.001" cy="19.446" r="8.646" gradientTransform="translate(0.201) scale(0.598 1)" xlink:href="#radial-gradient-15"/><radialGradient id="radial-gradient-44" cx="-4.93" cy="5.773" r="6.525" xlink:href="#radial-gradient-15"/><radialGradient id="radial-gradient-45" cx="-2.252" cy="12.598" r="16.713" gradientTransform="translate(0.302) scale(0.396 1)" xlink:href="#radial-gradient-15"/><radialGradient id="radial-gradient-46" cx="-2.823" cy="14.818" r="17.578" gradientTransform="translate(0.313) scale(0.373 1)" xlink:href="#radial-gradient-15"/><radialGradient id="radial-gradient-47" cx="-3.287" cy="16.112" r="17.221" gradientTransform="translate(0.31) scale(0.381 1)" xlink:href="#radial-gradient-15"/><radialGradient id="radial-gradient-48" cx="-3.726" cy="17.641" r="16.791" gradientTransform="translate(0.307) scale(0.387 1)" xlink:href="#radial-gradient-15"/><radialGradient id="radial-gradient-49" cx="-3.983" cy="17.823" r="15.51" gradientTransform="translate(0.291) scale(0.419 1)" xlink:href="#radial-gradient-15"/><radialGradient id="radial-gradient-50" cx="-4.844" cy="13.464" r="10.381" gradientTransform="translate(0.149) scale(0.703 1)" xlink:href="#radial-gradient-15"/><radialGradient id="radial-gradient-51" cx="-5.631" cy="12.401" r="8.585" gradientTransform="translate(0.032) scale(0.936 1)" xlink:href="#radial-gradient-15"/><radialGradient id="radial-gradient-52" cx="-6.784" cy="12.408" r="7.79" gradientTransform="translate(-0.107) scale(1.214 1)" xlink:href="#radial-gradient-15"/><radialGradient id="radial-gradient-53" cx="-9.493" cy="11.233" r="6.494" gradientTransform="translate(-0.527) scale(2.054 1)" xlink:href="#radial-gradient-15"/><radialGradient id="radial-gradient-54" cx="-9.725" cy="11.761" r="6.316" gradientTransform="translate(-0.621) scale(2.242 1)" xlink:href="#radial-gradient-15"/><radialGradient id="radial-gradient-55" cx="-9.725" cy="11.202" r="5.64" gradientTransform="translate(-0.835) scale(2.671 1)" xlink:href="#radial-gradient-15"/><radialGradient id="radial-gradient-56" cx="-9.816" cy="11.532" r="5.525" gradientTransform="translate(-1.017) scale(3.033 1)" xlink:href="#radial-gradient-15"/><radialGradient id="radial-gradient-57" cx="-9.605" cy="12.975" r="5.997" gradientTransform="translate(-1.028) scale(3.056 1)" xlink:href="#radial-gradient-15"/><radialGradient id="radial-gradient-58" cx="-6.706" cy="14.601" r="6.517" gradientTransform="translate(-0.675) scale(2.351 1)" xlink:href="#radial-gradient-15"/><radialGradient id="radial-gradient-59" cx="-6.324" cy="6.598" r="6.909" gradientTransform="translate(-0.677) scale(2.355 1)" xlink:href="#radial-gradient-15"/><radialGradient id="radial-gradient-60" cx="-7.423" cy="7.399" r="7.143" gradientTransform="translate(-0.639) scale(2.278 1)" xlink:href="#radial-gradient-15"/><radialGradient id="radial-gradient-61" cx="-7.475" cy="8.605" r="7.559" gradientTransform="translate(-0.46) scale(1.92 1)" xlink:href="#radial-gradient-15"/><radialGradient id="radial-gradient-62" cx="-9.045" cy="9.107" r="7.397" gradientTransform="translate(-0.581) scale(2.162 1)" xlink:href="#radial-gradient-15"/><radialGradient id="radial-gradient-63" cx="-7.895" cy="10.7" r="8.072" gradientTransform="translate(-0.32) scale(1.64 1)" xlink:href="#radial-gradient-15"/><radialGradient id="radial-gradient-64" cx="-6.17" cy="13.76" r="9.647" gradientTransform="translate(-0.027) scale(1.055 1)" xlink:href="#radial-gradient-15"/><radialGradient id="radial-gradient-65" cx="-4.416" cy="16.596" r="10.739" gradientTransform="translate(0.149) scale(0.701 1)" xlink:href="#radial-gradient-15"/><radialGradient id="radial-gradient-66" cx="-4.042" cy="19.833" r="12.062" gradientTransform="translate(0.209) scale(0.581 1)" xlink:href="#radial-gradient-15"/><radialGradient id="radial-gradient-67" cx="-4.318" cy="25.343" r="14.456" gradientTransform="translate(0.235) scale(0.529 1)" xlink:href="#radial-gradient-15"/><radialGradient id="radial-gradient-68" cx="-3.971" cy="27.269" r="14.713" gradientTransform="translate(0.244) scale(0.511 1)" xlink:href="#radial-gradient-15"/><radialGradient id="radial-gradient-69" cx="-3.006" cy="29.181" r="14.977" gradientTransform="translate(0.281) scale(0.437 1)" xlink:href="#radial-gradient-15"/><radialGradient id="radial-gradient-70" cx="-2.661" cy="30.674" r="15.061" gradientTransform="translate(0.283) scale(0.435 1)" xlink:href="#radial-gradient-15"/><radialGradient id="radial-gradient-71" cx="-2.218" cy="32.351" r="15.251" gradientTransform="translate(0.286) scale(0.429 1)" xlink:href="#radial-gradient-15"/><radialGradient id="radial-gradient-72" cx="-1.175" cy="19.547" r="8.646" gradientTransform="translate(0.201) scale(0.598 1)" xlink:href="#radial-gradient-15"/><linearGradient id="linear-gradient-2" x1=".492" x2=".504" y1="0" y2=".756" gradientTransform="matrix(1, 0, 0, 1, 0, 0)" xlink:href="#radial-gradient-13"/><linearGradient id="linear-gradient-3" x1=".529" x2=".471" y1=".02" y2=".98" gradientTransform="matrix(1, 0, 0, 1, 0, 0)" xlink:href="#radial-gradient-13"/><linearGradient id="linear-gradient-4" x1=".493" x2=".504" y1=".024" y2=".743" gradientTransform="matrix(1, 0, 0, 1, 0, 0)" xlink:href="#radial-gradient-13"/><linearGradient id="linear-gradient-5" x1=".533" x2=".467" y1="-.069" y2="1.069" gradientTransform="matrix(1, 0, 0, 1, 0, 0)" xlink:href="#radial-gradient-13"/><linearGradient id="linear-gradient-6" x1=".493" x2=".503" y1=".025" y2=".743" gradientTransform="matrix(1, 0, 0, 1, 0, 0)" xlink:href="#radial-gradient-13"/><linearGradient id="linear-gradient-7" x1=".531" x2=".469" y1="-.076" y2="1.076" gradientTransform="matrix(1, 0, 0, 1, 0, 0)" xlink:href="#radial-gradient-13"/><linearGradient id="linear-gradient-9" x1=".529" x2=".471" y1=".023" y2=".977" gradientTransform="matrix(1, 0, 0, 1, 0, 0)" xlink:href="#radial-gradient-13"/><linearGradient id="linear-gradient-10" x1=".49" x2=".505" y1=".003" y2=".754" gradientTransform="matrix(1, 0, 0, 1, 0, 0)" xlink:href="#radial-gradient-13"/><linearGradient id="linear-gradient-11" x1=".537" x2=".463" y1=".018" y2=".982" gradientTransform="matrix(1, 0, 0, 1, 0, 0)" xlink:href="#radial-gradient-13"/><linearGradient id="linear-gradient-12" x1=".248" x2=".629" y1=".012" y2=".75" gradientTransform="matrix(1, 0, 0, 1, 0, 0)" xlink:href="#radial-gradient-13"/><linearGradient id="linear-gradient-13" x1="1.083" x2="-.275" y1=".002" y2=".998" gradientTransform="matrix(1, 0, 0, 1, 0, 0)" xlink:href="#radial-gradient-13"/><linearGradient id="linear-gradient-14" x1=".491" x2=".505" y1=".022" y2=".745" gradientTransform="matrix(1, 0, 0, 1, 0, 0)" xlink:href="#radial-gradient-13"/><linearGradient id="linear-gradient-15" x1=".541" x2=".459" y1="-.054" y2="1.054" gradientTransform="matrix(1, 0, 0, 1, 0, 0)" xlink:href="#radial-gradient-13"/><linearGradient id="linear-gradient-16" x1=".493" x2=".504" y1=".024" y2=".743" gradientTransform="matrix(1, 0, 0, 1, 0, 0)" xlink:href="#radial-gradient-13"/><linearGradient id="linear-gradient-17" x1=".533" x2=".467" y1="-.068" y2="1.068" gradientTransform="matrix(1, 0, 0, 1, 0, 0)" xlink:href="#radial-gradient-13"/><linearGradient id="linear-gradient-18" x1=".493" x2=".504" y1="-.001" y2=".756" gradientTransform="matrix(1, 0, 0, 1, 0, 0)" xlink:href="#radial-gradient-13"/><linearGradient id="linear-gradient-19" x1=".525" x2=".475" y1=".022" y2=".978" gradientTransform="matrix(1, 0, 0, 1, 0, 0)" xlink:href="#radial-gradient-13"/><radialGradient id="radial-gradient-73" cx=".896" cy=".125" r="2.209" gradientTransform="translate(-0.003) scale(1.006 1)" gradientUnits="objectBoundingBox"><stop offset="0" stop-color="#fff" stop-opacity=".502"/><stop offset=".083" stop-color="#fff" stop-opacity=".384"/><stop offset=".216" stop-color="#fff" stop-opacity=".22"/><stop offset=".336" stop-color="#fff" stop-opacity=".098"/><stop offset=".439" stop-color="#fff" stop-opacity=".027"/><stop offset=".511" stop-color="#fff" stop-opacity="0"/></radialGradient><clipPath id="clip-Web_1920_1"><rect width="602" height="85"/></clipPath></defs><g id="Web_1920_1" clip-path="url(#clip-Web_1920_1)" data-name="Web 1920 – 1"><g id="Group_469" data-name="Group 469" transform="translate(-686 -170)"><g id="Group_459" data-name="Group 459" transform="translate(691.995 174.5)"><g filter="url(#Ellipse_1)" transform="matrix(1, 0, 0, 1, -5.99, -4.5)"><circle id="Ellipse_1-2" cx="36" cy="36" r="36" fill="url(#linear-gradient)" data-name="Ellipse 1" transform="translate(5 4)"/></g><circle id="Ellipse_2" cx="30.515" cy="30.515" r="30.515" fill="url(#radial-gradient)" data-name="Ellipse 2" transform="translate(4.822 4.822)"/><g id="Group_3" data-name="Group 3" transform="translate(15.018 32.95)"><path id="Path_4539" fill="#be1e2d" d="M82.464,191.582v-1.159h2.612v1.159h-.737v4.845H83.2v-4.845Z" data-name="Path 4539" transform="translate(-82.464 -188.332)"/><path id="Path_4540" fill="#be1e2d" d="M99.07,196.427v-6h1.138v2.248h.655v-2.248H102v6h-1.138v-2.556h-.655v2.556Z" data-name="Path 4540" transform="translate(-95.99 -188.332)"/><path id="Path_4541" fill="#be1e2d" d="M118.394,194.788v-4.365h1.138V194.8a1.561,1.561,0,0,0,.048.458q.045.151.281.15a.29.29,0,0,0,.247-.117.989.989,0,0,0,.079-.491v-4.379h1.138v4.365a1.886,1.886,0,0,1-.4,1.262,1.448,1.448,0,0,1-2.134.007A1.879,1.879,0,0,1,118.394,194.788Z" data-name="Path 4541" transform="translate(-111.73 -188.332)"/><path id="Path_4542" fill="#be1e2d" d="M137.718,181.234h2.53v1.159h-1.392v1.2h1.22v1.159h-1.22v1.335H140.3v1.159h-2.584Zm.377-.36.513-1.02h.872l.444,1.02h-.643l-.272-.572-.308.572Zm1.893-1.724h.866l-.595.913h-.531Z" data-name="Path 4542" transform="translate(-127.47 -179.15)"/><path id="Path_4543" fill="#be1e2d" d="M164.256,196.427v-6H165.5l.915,3.539.012-3.539h1.1v6h-1.238l-.921-3.712-.012,3.712Z" data-name="Path 4543" transform="translate(-149.087 -188.332)"/><path id="Path_4544" fill="#be1e2d" d="M185.419,196.427v-6h1.138v2.248h.655v-2.248h1.138v6h-1.138v-2.556h-.655v2.556Z" data-name="Path 4544" transform="translate(-166.325 -188.332)"/><path id="Path_4545" fill="#be1e2d" d="M204.519,184.326h1.51l.933,6.011h-1.2l-.106-1.067h-.8l-.118,1.067H203.6Zm.9-1.379.272,1.02h-.574l-.673-1.02Zm-.438,5.256h.568l-.266-2.946Z" data-name="Path 4545" transform="translate(-181.137 -182.243)"/><path id="Path_4546" fill="#be1e2d" d="M233.137,196.427v-6h1.244l.915,3.539.012-3.539h1.1v6h-1.238l-.921-3.712-.012,3.712Z" data-name="Path 4546" transform="translate(-205.193 -188.332)"/><path id="Path_4547" fill="#be1e2d" d="M257.078,186.784h.839l0,1-.4.506h-.275l-.006,3.536a1.9,1.9,0,0,1-.4,1.262,1.455,1.455,0,0,1-2.141.007,1.88,1.88,0,0,1-.4-1.269v-4.372h1.138v4.387a1.561,1.561,0,0,0,.048.458q.045.15.281.15a.29.29,0,0,0,.248-.117.992.992,0,0,0,.078-.491v-4.387l.984.014Z" data-name="Path 4547" transform="translate(-222.431 -185.368)"/><path id="Path_4548" fill="#be1e2d" d="M276.432,185.129a2.423,2.423,0,0,1,.13.836V188.7a1.9,1.9,0,0,1-.4,1.262,1.455,1.455,0,0,1-2.14.007,1.879,1.879,0,0,1-.4-1.269v-2.733a1.89,1.89,0,0,1,.414-1.309,1.359,1.359,0,0,1,1.054-.425,1.441,1.441,0,0,1,.872.264v-.836h.839l0,1Zm-1.458-2.182h.957l-.655,1.02h-.595Zm-.211,5.872a.955.955,0,0,0,.076.422.266.266,0,0,0,.254.128.289.289,0,0,0,.284-.213,1.308,1.308,0,0,0,.042-.337v-2.975a1.318,1.318,0,0,0-.036-.345.285.285,0,0,0-.29-.2.289.289,0,0,0-.287.194,1.352,1.352,0,0,0-.042.352Z" data-name="Path 4548" transform="translate(-238.171 -182.243)"/><path id="Path_4549" fill="#be1e2d" d="M292.949,194.368v-2.725a1.874,1.874,0,0,1,.413-1.306,1.353,1.353,0,0,1,1.054-.429,1.376,1.376,0,0,1,1.063.444,1.854,1.854,0,0,1,.4,1.291v.554h-1.138v-.675a1.309,1.309,0,0,0-.036-.345.285.285,0,0,0-.29-.2.289.289,0,0,0-.287.194,1.362,1.362,0,0,0-.042.352v2.967a.952.952,0,0,0,.076.422.266.266,0,0,0,.254.128.289.289,0,0,0,.284-.213,1.3,1.3,0,0,0,.042-.337v-.88h1.138v.759a1.887,1.887,0,0,1-.4,1.262,1.448,1.448,0,0,1-2.134.007A1.879,1.879,0,0,1,292.949,194.368Z" data-name="Path 4549" transform="translate(-253.912 -187.913)"/></g><g id="Group_4" data-name="Group 4" transform="translate(15.203 32.95)"><path id="Path_4550" fill="url(#radial-gradient-2)" d="M83.464,191.582v-1.159h2.612v1.159h-.737v4.845H84.2v-4.845Z" data-name="Path 4550" transform="translate(-83.464 -188.332)"/><path id="Path_4551" fill="url(#radial-gradient-3)" d="M100.07,196.427v-6h1.138v2.248h.655v-2.248H103v6h-1.138v-2.556h-.655v2.556Z" data-name="Path 4551" transform="translate(-96.99 -188.332)"/><path id="Path_4552" fill="url(#radial-gradient-4)" d="M119.394,194.788v-4.365h1.138V194.8a1.562,1.562,0,0,0,.048.458q.045.151.281.15a.29.29,0,0,0,.247-.117.989.989,0,0,0,.079-.491v-4.379h1.138v4.365a1.887,1.887,0,0,1-.4,1.262,1.448,1.448,0,0,1-2.134.007A1.879,1.879,0,0,1,119.394,194.788Z" data-name="Path 4552" transform="translate(-112.73 -188.332)"/><path id="Path_4553" fill="url(#radial-gradient-5)" d="M138.718,181.234h2.53v1.159h-1.392v1.2h1.22v1.159h-1.22v1.335H141.3v1.159h-2.584Zm.377-.36.513-1.02h.872l.444,1.02h-.643l-.272-.572-.308.572Zm1.893-1.724h.866l-.595.913h-.531Z" data-name="Path 4553" transform="translate(-128.47 -179.15)"/><path id="Path_4554" fill="url(#radial-gradient-6)" d="M165.256,196.427v-6H166.5l.915,3.539.012-3.539h1.1v6h-1.238l-.921-3.712-.012,3.712Z" data-name="Path 4554" transform="translate(-150.087 -188.332)"/><path id="Path_4555" fill="url(#radial-gradient-7)" d="M186.419,196.427v-6h1.138v2.248h.655v-2.248h1.138v6h-1.138v-2.556h-.655v2.556Z" data-name="Path 4555" transform="translate(-167.325 -188.332)"/><path id="Path_4556" fill="url(#radial-gradient-8)" d="M205.519,184.326h1.51l.933,6.011h-1.2l-.106-1.067h-.8l-.118,1.067H204.6Zm.9-1.379.272,1.02h-.574l-.673-1.02Zm-.437,5.256h.567l-.266-2.946Z" data-name="Path 4556" transform="translate(-182.137 -182.243)"/><path id="Path_4557" fill="url(#radial-gradient-6)" d="M234.137,196.427v-6h1.244l.915,3.539.012-3.539h1.1v6h-1.238l-.921-3.712-.012,3.712Z" data-name="Path 4557" transform="translate(-206.193 -188.332)"/><path id="Path_4558" fill="url(#radial-gradient-10)" d="M258.078,186.784h.839l0,1-.4.506h-.275l-.006,3.536a1.9,1.9,0,0,1-.4,1.262,1.455,1.455,0,0,1-2.14.007,1.879,1.879,0,0,1-.4-1.269v-4.372h1.138v4.387a1.563,1.563,0,0,0,.048.458q.045.15.281.15a.29.29,0,0,0,.248-.117.992.992,0,0,0,.078-.491v-4.387l.984.014Z" data-name="Path 4558" transform="translate(-223.431 -185.368)"/><path id="Path_4559" fill="url(#radial-gradient-11)" d="M277.432,185.129a2.423,2.423,0,0,1,.13.836V188.7a1.9,1.9,0,0,1-.4,1.262,1.455,1.455,0,0,1-2.14.007,1.879,1.879,0,0,1-.4-1.269v-2.733a1.889,1.889,0,0,1,.414-1.309,1.358,1.358,0,0,1,1.054-.425,1.441,1.441,0,0,1,.872.264v-.836h.839l0,1Zm-1.458-2.182h.957l-.655,1.02h-.595Zm-.211,5.872a.955.955,0,0,0,.076.422.266.266,0,0,0,.254.128.289.289,0,0,0,.284-.213,1.306,1.306,0,0,0,.042-.337v-2.975a1.318,1.318,0,0,0-.036-.345.285.285,0,0,0-.29-.2.289.289,0,0,0-.287.194,1.352,1.352,0,0,0-.042.352Z" data-name="Path 4559" transform="translate(-239.171 -182.243)"/><path id="Path_4560" fill="url(#radial-gradient-12)" d="M293.949,194.368v-2.725a1.875,1.875,0,0,1,.413-1.306,1.353,1.353,0,0,1,1.054-.429,1.376,1.376,0,0,1,1.063.444,1.854,1.854,0,0,1,.4,1.291v.554h-1.138v-.675a1.309,1.309,0,0,0-.036-.345.285.285,0,0,0-.29-.2.289.289,0,0,0-.287.194,1.361,1.361,0,0,0-.042.352v2.967a.952.952,0,0,0,.076.422.266.266,0,0,0,.253.128.289.289,0,0,0,.284-.213,1.3,1.3,0,0,0,.042-.337v-.88h1.138v.759a1.887,1.887,0,0,1-.4,1.262,1.448,1.448,0,0,1-2.134.007A1.879,1.879,0,0,1,293.949,194.368Z" data-name="Path 4560" transform="translate(-254.912 -187.913)"/></g><path id="Path_4561" fill="#fdda2f" d="M192.018,121.962Z" data-name="Path 4561" transform="translate(-156.682 -99.618)"/><path id="Path_4562" fill="#fdda2f" d="M192.018,121.962Z" data-name="Path 4562" transform="translate(-156.682 -99.618)"/><path id="Path_4563" fill="#fdda2f" d="M192.018,121.962Z" data-name="Path 4563" transform="translate(-156.682 -99.618)"/><path id="Path_4564" fill="#fdda2f" d="M192.018,121.962Z" data-name="Path 4564" transform="translate(-156.682 -99.618)"/><path id="Path_4565" fill="url(#radial-gradient-13)" d="M143.71,52.781l-2.5,7.7,6.552-4.761,6.552,4.761-2.5-7.7,6.552-4.76h-8.1l-2.5-7.7-2.5,7.7h-8.1Zm3.2-2.13a1.116,1.116,0,0,0-.138.271l-8.284-2.692h6.664Zm3.121-2.668L148.35,50.3a1.12,1.12,0,0,0-.379-.117V41.646Zm1.743,4.564-2.862-.93a1.123,1.123,0,0,0,.047-.321l8.205-2.666Zm-3.8,3.068v-3.2a1.141,1.141,0,0,0,.189-.039l5.2,7.16Zm-4.093-2.668,3.045-.989a1.12,1.12,0,0,0,.118.138l-5.223,7.189Z" data-name="Path 4565" transform="translate(-111.996 -33.117)"/><path id="Path_4566" fill="url(#radial-gradient-14)" d="M132.969,271.675l-2.311,1.07a17.108,17.108,0,0,0-2.724-3.619l1.431-2.309-4.032-2.985-1.859,2.036a16.926,16.926,0,0,0-4.723-1.57l-.408-2.942h-4.977l-.314,2.905a16.93,16.93,0,0,0-4.636,1.454l-2.068-2.046-3.93,3.053,1.4,2.235a17.111,17.111,0,0,0-2.877,3.76l-2.366-1.071-1.039,1.833a30.437,30.437,0,0,0,6.53,3.49,12.313,12.313,0,0,1,23.272-.531,30.5,30.5,0,0,0,6.272-3.714Z" data-name="Path 4566" transform="translate(-79.72 -213.159)"/><g id="Group_5" data-name="Group 5" transform="translate(6.683 16.088)"><path id="Path_4567" fill="url(#radial-gradient-15)" d="M104,287.691s-1.532-1.517.941-4.037C104.936,283.654,105.763,287.485,104,287.691Z" data-name="Path 4567" transform="translate(-91.285 -247.41)"/><path id="Path_4568" fill="url(#radial-gradient-16)" d="M89.033,302.821s-.742,1.886-3.977.5C85.056,303.322,88.144,301.3,89.033,302.821Z" data-name="Path 4568" transform="translate(-76.24 -262.56)"/><path id="Path_4569" fill="url(#radial-gradient-17)" d="M76.023,290.461s-1.135,1.651-4.015-.439C72.008,290.022,75.477,288.783,76.023,290.461Z" data-name="Path 4569" transform="translate(-65.612 -252.238)"/><path id="Path_4570" fill="url(#radial-gradient-18)" d="M65.938,277.465s-1.246,1.53-4.018-.789C61.92,276.677,65.491,275.76,65.938,277.465Z" data-name="Path 4570" transform="translate(-57.395 -241.527)"/><path id="Path_4571" fill="url(#radial-gradient-19)" d="M55.507,261.24s-1.31,1.429-4.055-1.018C51.452,260.222,55.105,259.536,55.507,261.24Z" data-name="Path 4571" transform="translate(-48.868 -228.213)"/><path id="Path_4572" fill="url(#radial-gradient-20)" d="M49.8,247.489s-1.427,1.277-4.058-1.362C45.743,246.127,49.5,245.788,49.8,247.489Z" data-name="Path 4572" transform="translate(-44.218 -216.821)"/><path id="Path_4573" fill="url(#radial-gradient-21)" d="M44.623,227.546s-1.734.8-3.605-2.451C41.018,225.095,44.785,225.853,44.623,227.546Z" data-name="Path 4573" transform="translate(-40.369 -199.712)"/><path id="Path_4574" fill="url(#radial-gradient-22)" d="M40.752,207.16s-1.962.629-3.231-3.027C37.521,204.133,41.268,205.4,40.752,207.16Z" data-name="Path 4574" transform="translate(-37.521 -182.637)"/><path id="Path_4575" fill="url(#radial-gradient-23)" d="M40.61,186.442s-1.986.344-2.776-3.373C37.834,183.069,40.818,184.312,40.61,186.442Z" data-name="Path 4575" transform="translate(-37.776 -165.48)"/><path id="Path_4576" fill="url(#radial-gradient-24)" d="M44.888,167.671s-2.021-.3-1.822-4.056C43.066,163.614,45.645,165.724,44.888,167.671Z" data-name="Path 4576" transform="translate(-42.027 -149.633)"/><path id="Path_4577" fill="url(#radial-gradient-25)" d="M48.909,149.017s-2.025-.485-1.624-4.17C47.285,144.847,49.776,147.171,48.909,149.017Z" data-name="Path 4577" transform="translate(-45.431 -134.347)"/><path id="Path_4578" fill="url(#radial-gradient-26)" d="M55.077,131.916s-2.119-.861-1.155-4.67C53.922,127.246,56.28,130.123,55.077,131.916Z" data-name="Path 4578" transform="translate(-50.675 -120.01)"/><path id="Path_4579" fill="url(#radial-gradient-27)" d="M64.076,117.609s-1.957-1.288-.334-4.768C63.742,112.841,65.585,116.131,64.076,117.609Z" data-name="Path 4579" transform="translate(-58.354 -108.277)"/><path id="Path_4580" fill="url(#radial-gradient-28)" d="M73.192,106.4s-1.6-1.463.4-4.393C73.592,102.011,74.792,105.281,73.192,106.4Z" data-name="Path 4580" transform="translate(-66.083 -99.455)"/><path id="Path_4581" fill="url(#radial-gradient-29)" d="M83.624,95.139s-1.236-1.891,1.382-4.042C85.006,91.1,85.443,94.577,83.624,95.139Z" data-name="Path 4581" transform="translate(-74.836 -90.565)"/><path id="Path_4582" fill="url(#radial-gradient-30)" d="M91.294,277.49s-1.5-1.567,1.022-3.812C92.316,273.678,93.061,277.418,91.294,277.49Z" data-name="Path 4582" transform="translate(-80.962 -239.284)"/><path id="Path_4583" fill="url(#radial-gradient-31)" d="M81.68,265.892s-1.457-1.563,1.072-3.688C82.752,262.2,83.431,265.865,81.68,265.892Z" data-name="Path 4583" transform="translate(-73.15 -229.938)"/><path id="Path_4584" fill="url(#radial-gradient-32)" d="M72.089,251.1s-1.221-1.827,1.541-3.468C73.63,247.632,73.809,251.4,72.089,251.1Z" data-name="Path 4584" transform="translate(-65.459 -218.069)"/><path id="Path_4585" fill="url(#radial-gradient-33)" d="M65.958,238s-1.408-1.741,1.175-3.554C67.133,234.442,67.7,238.184,65.958,238Z" data-name="Path 4585" transform="translate(-60.372 -207.325)"/><path id="Path_4586" fill="url(#radial-gradient-34)" d="M59.556,224.25s-1.075-2.012,1.792-3.2C61.349,221.046,61.242,224.823,59.556,224.25Z" data-name="Path 4586" transform="translate(-55.309 -196.414)"/><path id="Path_4587" fill="url(#radial-gradient-35)" d="M54.744,209.27s-.509-2.252,2.557-2.537C57.3,206.733,56.214,210.324,54.744,209.27Z" data-name="Path 4587" transform="translate(-51.524 -184.755)"/><path id="Path_4588" fill="url(#radial-gradient-36)" d="M52.619,191.945s.082-2.431,3.5-2.092C56.117,189.853,53.921,193.338,52.619,191.945Z" data-name="Path 4588" transform="translate(-49.819 -170.98)"/><path id="Path_4589" fill="url(#radial-gradient-37)" d="M52.619,177.52s.424-2.4,3.758-1.578C56.377,175.942,53.712,179.082,52.619,177.52Z" data-name="Path 4589" transform="translate(-49.819 -159.536)"/><path id="Path_4590" fill="url(#radial-gradient-38)" d="M56.062,161.6s.554-2.146,3.442-.882C59.5,160.716,56.912,163.207,56.062,161.6Z" data-name="Path 4590" transform="translate(-52.623 -146.948)"/><path id="Path_4591" fill="url(#radial-gradient-39)" d="M60.965,147.172s.7-2.145,3.5-.457C64.465,146.715,61.7,148.948,60.965,147.172Z" data-name="Path 4591" transform="translate(-56.617 -135.341)"/><path id="Path_4592" fill="url(#radial-gradient-40)" d="M67.907,133.592s1-2.1,4.022-.237C71.929,133.355,68.575,135.412,67.907,133.592Z" data-name="Path 4592" transform="translate(-62.272 -124.359)"/><path id="Path_4593" fill="url(#radial-gradient-41)" d="M75.341,121.019s1.007-2.081,4.024-.169C79.365,120.851,76.007,122.85,75.341,121.019Z" data-name="Path 4593" transform="translate(-68.327 -114.142)"/><path id="Path_4594" fill="url(#radial-gradient-42)" d="M84.89,108.924s1.113-2.026,4.027.038C88.917,108.962,85.461,110.787,84.89,108.924Z" data-name="Path 4594" transform="translate(-76.105 -104.362)"/><path id="Path_4595" fill="url(#radial-gradient-43)" d="M95,91.134s.565-3.695,5.1-2.748C100.1,88.386,98.042,92.036,95,91.134Z" data-name="Path 4595" transform="translate(-84.343 -88.231)"/></g><g id="Group_6" data-name="Group 6" transform="translate(48.826 15.782)"><path id="Path_4596" fill="url(#radial-gradient-44)" d="M276.207,286.042s1.532-1.517-.941-4.037C275.266,282.005,274.44,285.836,276.207,286.042Z" data-name="Path 4596" transform="translate(-273.159 -245.761)"/><path id="Path_4597" fill="url(#radial-gradient-45)" d="M280.744,301.172s.742,1.886,3.977.5C284.721,301.674,281.633,299.65,280.744,301.172Z" data-name="Path 4597" transform="translate(-277.778 -260.912)"/><path id="Path_4598" fill="url(#radial-gradient-46)" d="M293.587,288.813s1.135,1.651,4.015-.438C297.6,288.374,294.133,287.135,293.587,288.813Z" data-name="Path 4598" transform="translate(-288.239 -250.59)"/><path id="Path_4599" fill="url(#radial-gradient-47)" d="M303.662,275.817s1.245,1.53,4.017-.789C307.679,275.028,304.108,274.112,303.662,275.817Z" data-name="Path 4599" transform="translate(-296.446 -239.878)"/><path id="Path_4600" fill="url(#radial-gradient-48)" d="M313.928,259.592s1.31,1.429,4.055-1.018C317.983,258.574,314.33,257.888,313.928,259.592Z" data-name="Path 4600" transform="translate(-304.808 -226.565)"/><path id="Path_4601" fill="url(#radial-gradient-49)" d="M319.619,245.84s1.427,1.277,4.058-1.362C323.677,244.478,319.915,244.139,319.619,245.84Z" data-name="Path 4601" transform="translate(-309.443 -215.172)"/><path id="Path_4602" fill="url(#radial-gradient-50)" d="M326.764,225.9s1.734.8,3.605-2.451C330.369,223.446,326.6,224.2,326.764,225.9Z" data-name="Path 4602" transform="translate(-315.259 -198.063)"/><path id="Path_4603" fill="url(#radial-gradient-51)" d="M332.087,205.512s1.962.628,3.231-3.027C335.318,202.485,331.57,203.748,332.087,205.512Z" data-name="Path 4603" transform="translate(-319.559 -180.989)"/><path id="Path_4604" fill="url(#radial-gradient-52)" d="M334.4,184.794s1.986.344,2.776-3.373C337.171,181.421,334.187,182.664,334.4,184.794Z" data-name="Path 4604" transform="translate(-321.471 -163.832)"/><path id="Path_4605" fill="url(#radial-gradient-53)" d="M333.682,166.022s2.021-.3,1.822-4.056C335.5,161.966,332.926,164.076,333.682,166.022Z" data-name="Path 4605" transform="translate(-320.785 -147.985)"/><path id="Path_4606" fill="url(#radial-gradient-54)" d="M330.166,147.368s2.025-.485,1.624-4.17C331.79,143.2,329.3,145.522,330.166,147.368Z" data-name="Path 4606" transform="translate(-317.885 -132.698)"/><path id="Path_4607" fill="url(#radial-gradient-55)" d="M324.487,130.268s2.119-.861,1.155-4.67C325.643,125.6,323.284,128.475,324.487,130.268Z" data-name="Path 4607" transform="translate(-313.13 -118.362)"/><path id="Path_4608" fill="url(#radial-gradient-56)" d="M316.263,115.96s1.957-1.288.334-4.768C316.6,111.192,314.754,114.483,316.263,115.96Z" data-name="Path 4608" transform="translate(-306.226 -106.628)"/><path id="Path_4609" fill="url(#radial-gradient-57)" d="M307.738,104.755s1.6-1.463-.4-4.393C307.338,100.362,306.138,103.632,307.738,104.755Z" data-name="Path 4609" transform="translate(-299.088 -97.806)"/><path id="Path_4610" fill="url(#radial-gradient-58)" d="M296.067,93.491s1.236-1.891-1.382-4.042C294.686,89.449,294.248,92.929,296.067,93.491Z" data-name="Path 4610" transform="translate(-289.096 -88.917)"/><path id="Path_4611" fill="url(#radial-gradient-59)" d="M288.84,275.842s1.5-1.567-1.022-3.812C287.818,272.03,287.073,275.77,288.84,275.842Z" data-name="Path 4611" transform="translate(-283.413 -237.636)"/><path id="Path_4612" fill="url(#radial-gradient-60)" d="M298.454,264.244s1.457-1.563-1.072-3.688C297.382,260.556,296.7,264.217,298.454,264.244Z" data-name="Path 4612" transform="translate(-291.225 -228.29)"/><path id="Path_4613" fill="url(#radial-gradient-61)" d="M307.181,249.452s1.221-1.827-1.541-3.468C305.64,245.984,305.462,249.752,307.181,249.452Z" data-name="Path 4613" transform="translate(-298.053 -216.421)"/><path id="Path_4614" fill="url(#radial-gradient-62)" d="M314.052,236.348s1.408-1.741-1.175-3.554C312.877,232.794,312.306,236.536,314.052,236.348Z" data-name="Path 4614" transform="translate(-303.879 -205.677)"/><path id="Path_4615" fill="url(#radial-gradient-63)" d="M318.949,222.6s1.075-2.012-1.792-3.2C317.157,219.4,317.264,223.175,318.949,222.6Z" data-name="Path 4615" transform="translate(-307.438 -194.766)"/><path id="Path_4616" fill="url(#radial-gradient-64)" d="M321.131,207.622s.509-2.252-2.557-2.537C318.574,205.085,319.661,208.676,321.131,207.622Z" data-name="Path 4616" transform="translate(-308.592 -183.107)"/><path id="Path_4617" fill="url(#radial-gradient-65)" d="M319.261,190.3s-.082-2.431-3.5-2.092C315.763,188.205,317.959,191.69,319.261,190.3Z" data-name="Path 4617" transform="translate(-306.302 -169.331)"/><path id="Path_4618" fill="url(#radial-gradient-66)" d="M318.121,175.871s-.424-2.4-3.758-1.578C314.363,174.293,317.028,177.434,318.121,175.871Z" data-name="Path 4618" transform="translate(-305.162 -157.888)"/><path id="Path_4619" fill="url(#radial-gradient-67)" d="M316.062,159.949s-.554-2.146-3.442-.882C312.62,159.067,315.212,161.558,316.062,159.949Z" data-name="Path 4619" transform="translate(-303.742 -145.299)"/><path id="Path_4620" fill="url(#radial-gradient-68)" d="M310.905,145.524s-.7-2.145-3.5-.457C307.4,145.067,310.168,147.3,310.905,145.524Z" data-name="Path 4620" transform="translate(-299.494 -133.693)"/><path id="Path_4621" fill="url(#radial-gradient-69)" d="M301.672,131.944s-1-2.1-4.022-.237C297.65,131.707,301,133.764,301.672,131.944Z" data-name="Path 4621" transform="translate(-291.549 -122.711)"/><path id="Path_4622" fill="url(#radial-gradient-70)" d="M294.23,119.371s-1.007-2.081-4.024-.169C290.206,119.2,293.564,121.2,294.23,119.371Z" data-name="Path 4622" transform="translate(-285.485 -112.494)"/><path id="Path_4623" fill="url(#radial-gradient-71)" d="M284.666,107.276s-1.113-2.027-4.027.038C280.639,107.313,284.1,109.138,284.666,107.276Z" data-name="Path 4623" transform="translate(-277.693 -102.713)"/><path id="Path_4624" fill="url(#radial-gradient-72)" d="M269.85,89.486s-.564-3.695-5.1-2.748C264.752,86.738,266.813,90.388,269.85,89.486Z" data-name="Path 4624" transform="translate(-264.752 -86.583)"/></g><g id="Group_16" data-name="Group 16" transform="translate(23.51 9.139)"><g id="Group_7" data-name="Group 7" transform="translate(3.507)"><line id="Line_5" x2="4.211" y2="3.375" fill="url(#linear-gradient-2)" data-name="Line 5" transform="translate(0.008 0.01)"/><path id="Path_4625" fill="url(#linear-gradient-3)" d="M147.182,50.764a11.222,11.222,0,0,1,1.127.751c.363.267.693.574,1.036.864l1.028.875,1.02.885-.016.021-1.086-.8-1.077-.813c-.358-.272-.73-.527-1.069-.823a11.189,11.189,0,0,1-.979-.936Z" data-name="Path 4625" transform="translate(-147.165 -50.764)"/></g><g id="Group_8" data-name="Group 8" transform="translate(16.484)"><line id="Line_6" x1="4.598" y2="3.571" fill="url(#linear-gradient-4)" data-name="Line 6" transform="translate(0.008 0.01)"/><path id="Path_4626" fill="url(#linear-gradient-5)" d="M221.748,50.785a13.071,13.071,0,0,1-1.077.986c-.372.312-.775.584-1.165.872l-1.174.861-1.182.851-.016-.021,1.117-.934,1.125-.924c.376-.307.739-.631,1.133-.913a13.037,13.037,0,0,1,1.222-.8Z" data-name="Path 4626" transform="translate(-217.134 -50.764)"/></g><g id="Group_9" data-name="Group 9" transform="translate(19.615 7.092)"><line id="Line_7" x1="4.304" y2="3.13" fill="url(#linear-gradient-6)" data-name="Line 7" transform="translate(0.008 0.011)"/><path id="Path_4627" fill="url(#linear-gradient-7)" d="M238.335,89.025a10.921,10.921,0,0,1-1.007.878c-.348.276-.726.51-1.092.762l-1.1.751-1.107.74-.015-.021,1.045-.825,1.053-.814c.352-.27.691-.558,1.061-.8A10.922,10.922,0,0,1,238.319,89Z" data-name="Path 4627" transform="translate(-234.015 -89.004)"/></g><g id="Group_10" data-name="Group 10" transform="translate(20.348 13.021)"><line id="Line_8" x1="4.745" y1="3.805" fill="url(#linear-gradient-2)" data-name="Line 8" transform="translate(0.008 0.01)"/><path id="Path_4628" fill="url(#linear-gradient-9)" d="M242.713,124.8a14.175,14.175,0,0,1-1.26-.859c-.407-.3-.782-.646-1.17-.972l-1.162-.982-1.153-.992.016-.021,1.219.91,1.211.921c.4.308.819.6,1.2.931a14.214,14.214,0,0,1,1.112,1.044Z" data-name="Path 4628" transform="translate(-237.968 -120.971)"/></g><g id="Group_11" data-name="Group 11" transform="translate(14.624 16.602)"><line id="Line_9" x1="4.158" y1="4.236" fill="url(#linear-gradient-10)" data-name="Line 9" transform="translate(0.009 0.009)"/><path id="Path_4629" fill="url(#linear-gradient-11)" d="M211.263,144.534a13.555,13.555,0,0,1-1.124-.976c-.36-.34-.683-.716-1.021-1.078l-1.011-1.087-1-1.1.019-.019L208.2,141.3l1.068,1.032c.355.345.725.675,1.058,1.041a13.487,13.487,0,0,1,.955,1.142Z" data-name="Path 4629" transform="translate(-207.105 -140.279)"/></g><g id="Group_12" data-name="Group 12" transform="translate(12.776 17.863)"><line id="Line_10" x1=".21" y1="5.527" fill="url(#linear-gradient-12)" data-name="Line 10" transform="translate(0.013 0)"/><path id="Path_4630" fill="url(#linear-gradient-13)" d="M197.351,152.609a11.812,11.812,0,0,1-.171-1.377c-.036-.46-.021-.922-.026-1.383l-.013-1.383v-1.384h.026l.1,1.38.092,1.38c.029.46.08.92.079,1.381a11.784,11.784,0,0,1-.065,1.386Z" data-name="Path 4630" transform="translate(-197.141 -147.081)"/></g><g id="Group_13" data-name="Group 13" transform="translate(6.309 16.827)"><line id="Line_11" x2="4.06" y1="4.011" fill="url(#linear-gradient-14)" data-name="Line 11" transform="translate(0.009 0.009)"/><path id="Path_4631" fill="url(#linear-gradient-15)" d="M162.27,145.506a12.48,12.48,0,0,1,.932-1.087c.325-.348.687-.658,1.033-.984l1.043-.975,1.052-.965.019.019-.978,1.04-.987,1.031c-.33.343-.645.7-1,1.021a12.541,12.541,0,0,1-1.1.919Z" data-name="Path 4631" transform="translate(-162.27 -141.495)"/></g><g id="Group_14" data-name="Group 14" transform="translate(0 13.021)"><line id="Line_12" x2="4.549" y1="3.58" fill="url(#linear-gradient-16)" data-name="Line 12" transform="translate(0.008 0.01)"/><path id="Path_4632" fill="url(#linear-gradient-17)" d="M128.254,124.551a12.875,12.875,0,0,1,1.064-.988c.367-.313.767-.585,1.153-.874l1.162-.864,1.17-.854.016.021-1.1.936-1.113.926c-.372.308-.73.632-1.121.916a12.876,12.876,0,0,1-1.21.8Z" data-name="Path 4632" transform="translate(-128.254 -120.971)"/></g><g id="Group_15" data-name="Group 15" transform="translate(1.028 7.468)"><line id="Line_13" x2="4.353" y2="3.096" fill="url(#linear-gradient-18)" data-name="Line 13" transform="translate(0.008 0.011)"/><path id="Path_4633" fill="url(#linear-gradient-19)" d="M133.81,91.033a11.018,11.018,0,0,1,1.157.678c.374.243.717.528,1.073.8l1.065.806,1.058.817-.015.022-1.119-.731-1.111-.742c-.37-.249-.751-.479-1.1-.753a10.992,10.992,0,0,1-1.02-.87Z" data-name="Path 4633" transform="translate(-133.795 -91.033)"/></g></g><path id="Path_4634" fill="url(#radial-gradient-73)" d="M63.535,13.509a35.612,35.612,0,1,0-49.5,50.432,52.929,52.929,0,0,0,20.7-20.086C44.673,26.914,52.986,16.092,63.535,13.509Z" data-name="Path 4634" transform="translate(-0.276 -0.276)"/></g><path id="Path_4635" fill="#915715" d="M-249.609-27.324h6.035v9.766h2.813v-9.766h6.035V0h-6.035V-12.559h-2.812V0h-6.035ZM-231.055,0V-27.324h12.324v5.2h-6.289v4.648h6.055v5.156h-6.055V-5.2h6.563V0Zm4.395,6.367V2.52h3.926V6.367Zm-.918-39.687h4.883l2.324,4.2h-3.594l-1.172-1.836-1.152,1.836h-3.594Zm19.629,11v-5h13.066v5H-198.4V0h-6.035V-22.324Zm15.547-5h6.035v9.766h2.813v-9.766h6.035V0h-6.035V-12.559h-2.812V0H-192.4Zm24.395,8.008V-7.207a3.824,3.824,0,0,0,.332,2.012,1.447,1.447,0,0,0,1.152.391,1.34,1.34,0,0,0,1.152-.43,4.561,4.561,0,0,0,.332-2.168v-12.52a4.039,4.039,0,0,0-.332-2.109,1.28,1.28,0,0,0-1.152-.449,1.308,1.308,0,0,0-1.152.41,3.66,3.66,0,0,0-.332,1.953Zm-6.113.8a18.357,18.357,0,0,1,.43-4.307,6.9,6.9,0,0,1,1.328-2.822q1.68-2.031,5.84-2.031,4.1,0,5.84,2.031,1.7,2.07,1.758,7.129v9.707q0,5.059-1.758,7.129-1.66,2.031-5.84,2.031-4.121,0-5.84-2.031-1.7-2.07-1.758-7.129Zm7.363-19.961h4.395l-2.441,4.2h-3.555Zm-2.207,5.156h4.883l2.324,4.2h-3.594l-1.172-1.836-1.152,1.836h-3.594Zm13.438,6h5.605q.7,1.133,1.719,3.2.762,1.621,1.68,4v-7.207h6V0h-6V-5.352a27.982,27.982,0,0,0-.762-6.68,24.455,24.455,0,0,0-2.207-6.094V0h-6.035Zm18.438,8.809a18.357,18.357,0,0,1,.43-4.307,6.9,6.9,0,0,1,1.328-2.822q1.68-2.031,5.84-2.031,4.023,0,5.84,1.992,1.7,2.012,1.758,6.6v1.113h-6.113v-1.953a4.039,4.039,0,0,0-.332-2.109,1.28,1.28,0,0,0-1.152-.449,1.308,1.308,0,0,0-1.152.41,3.66,3.66,0,0,0-.332,1.953V-8.086a6.132,6.132,0,0,0,.371,2.7,1.658,1.658,0,0,0,1.348.547,1.445,1.445,0,0,0,1.367-.605A7.571,7.571,0,0,0-127.5-8.32v-3.633h-1.6v-4.492h7.207V0h-2.559l-.762-1.152A7.713,7.713,0,0,1-127.285,0a8.411,8.411,0,0,1-2.6.352q-3.789,0-5.527-2.109-1.621-2.051-1.68-7.051Zm27.559-8.809h6.035v9.766h2.813v-9.766h6.035V0h-6.035V-12.559H-103.5V0h-6.035Zm24.395,8.008V-7.207A3.824,3.824,0,0,0-84.8-5.2a1.447,1.447,0,0,0,1.152.391,1.34,1.34,0,0,0,1.152-.43A4.561,4.561,0,0,0-82.168-7.4v-12.52a4.039,4.039,0,0,0-.332-2.109,1.28,1.28,0,0,0-1.152-.449,1.308,1.308,0,0,0-1.152.41,3.66,3.66,0,0,0-.332,1.953Zm-6.113.8a18.356,18.356,0,0,1,.43-4.307,6.9,6.9,0,0,1,1.328-2.822q1.68-2.031,5.84-2.031,4.1,0,5.84,2.031,1.7,2.07,1.758,7.129v9.707q0,5.059-1.758,7.129Q-79.473.352-83.652.352q-4.121,0-5.84-2.031-1.7-2.07-1.758-7.129Zm7.363-14.8h4.395l-2.441,4.2h-3.555Zm16.68,23.672h2.949q-.059-3.633-.43-6.914a27.455,27.455,0,0,0-1.035-5.117,28.366,28.366,0,0,0-1.055,5.117Q-67.07-14-67.207-9.648ZM-73.2,0V-5.352A62.253,62.253,0,0,1-72.051-18.32a33.062,33.062,0,0,1,1.484-4.873,21.489,21.489,0,0,1,2.148-4.131h5.41a27.618,27.618,0,0,1,3.633,9.043,45.163,45.163,0,0,1,.879,5.83q.293,3.232.293,7.1V0h-6.055V-4.512h-2.949V0Zm33.516-22.129v5.684h1.836v2.773h-1.836V-5.2h1.113a2.49,2.49,0,0,0,1.738-.449q.469-.41.469-2.187V-19.473a3.4,3.4,0,0,0-.469-2.207,2.726,2.726,0,0,0-1.738-.449Zm-6.035-5.2h8.477q3.672,0,5.313,1.758,1.621,1.68,1.68,5.605v12.6q0,3.828-1.641,5.645Q-33.613,0-37.246,0h-8.477V-13.672h-1.836v-2.773h1.836Zm24.707,8.008V-7.207A3.824,3.824,0,0,0-20.684-5.2a1.447,1.447,0,0,0,1.152.391,1.34,1.34,0,0,0,1.152-.43A4.561,4.561,0,0,0-18.047-7.4v-12.52a4.039,4.039,0,0,0-.332-2.109,1.28,1.28,0,0,0-1.152-.449,1.308,1.308,0,0,0-1.152.41,3.66,3.66,0,0,0-.332,1.953Zm-6.113.8a18.356,18.356,0,0,1,.43-4.307,6.9,6.9,0,0,1,1.328-2.822q1.68-2.031,5.84-2.031,4.1,0,5.84,2.031,1.7,2.07,1.758,7.129v9.707q0,5.059-1.758,7.129Q-15.352.352-19.531.352q-4.121,0-5.84-2.031-1.7-2.07-1.758-7.129ZM-14.9-29.9h4.082v5.508l-2.773,2.441-.742-.957,1.074-1.484H-14.9Zm6.367,2.578H-2.93q.7,1.133,1.719,3.2.762,1.621,1.68,4v-7.207h6V0h-6V-5.352a27.982,27.982,0,0,0-.762-6.68A24.455,24.455,0,0,0-2.5-18.125V0H-8.535ZM18.555-9.648v-5.078H32.227v5.078ZM43.086-22.324v-5H56.152v5H52.637V0H46.6V-22.324Zm21.387,3.008V-7.207A3.824,3.824,0,0,0,64.8-5.2a1.447,1.447,0,0,0,1.152.391,1.34,1.34,0,0,0,1.152-.43A4.561,4.561,0,0,0,67.441-7.4v-12.52a4.039,4.039,0,0,0-.332-2.109,1.28,1.28,0,0,0-1.152-.449,1.308,1.308,0,0,0-1.152.41,3.66,3.66,0,0,0-.332,1.953Zm-6.113.8a18.356,18.356,0,0,1,.43-4.307,6.9,6.9,0,0,1,1.328-2.822q1.68-2.031,5.84-2.031,4.1,0,5.84,2.031,1.7,2.07,1.758,7.129v9.707q0,5.059-1.758,7.129Q70.137.352,65.957.352q-4.121,0-5.84-2.031-1.7-2.07-1.758-7.129Zm11.309-13.77a4.526,4.526,0,0,1,.215-1.152,5.957,5.957,0,0,1,.664-1.484,2.317,2.317,0,0,1,.176-.293,3.453,3.453,0,0,0,.645-1.66,1.858,1.858,0,0,0-.078-.684.306.306,0,0,0-.254-.1.281.281,0,0,0-.234.078,2.275,2.275,0,0,0-.078.723v1.133h-2.6v-1.016a3.616,3.616,0,0,1,.664-2.461,2.926,2.926,0,0,1,2.227-.742,3.138,3.138,0,0,1,2.285.781,2.932,2.932,0,0,1,.781,2.227,5.189,5.189,0,0,1-.977,2.773q-.2.273-.234.332a10.411,10.411,0,0,0-.645,1.23,2.877,2.877,0,0,0-.1.313ZM63.516-33.32H68.4l2.324,4.2H67.129l-1.172-1.836L64.8-29.121H61.211Zm13.438,6h5.605q.7,1.133,1.719,3.2.762,1.621,1.68,4v-7.207h6V0h-6V-5.352a27.982,27.982,0,0,0-.762-6.68,24.455,24.455,0,0,0-2.207-6.094V0H76.953Zm18.438,8.809a18.356,18.356,0,0,1,.43-4.307,6.9,6.9,0,0,1,1.328-2.822q1.68-2.031,5.84-2.031,4.023,0,5.84,1.992,1.7,2.012,1.758,6.6v1.113h-6.113v-1.953a4.039,4.039,0,0,0-.332-2.109,1.28,1.28,0,0,0-1.152-.449,1.308,1.308,0,0,0-1.152.41,3.66,3.66,0,0,0-.332,1.953V-8.086a6.132,6.132,0,0,0,.371,2.7,1.658,1.658,0,0,0,1.348.547,1.445,1.445,0,0,0,1.367-.605,7.571,7.571,0,0,0,.391-2.871v-3.633h-1.6v-4.492h7.207V0h-2.559l-.762-1.152A7.713,7.713,0,0,1,105.2,0a8.411,8.411,0,0,1-2.6.352q-3.789,0-5.527-2.109-1.621-2.051-1.68-7.051Zm27.285,0a18.356,18.356,0,0,1,.43-4.307,6.9,6.9,0,0,1,1.328-2.822q1.68-2.031,5.84-2.031,4.1,0,5.84,2.031,1.7,2.07,1.758,7.129v1.953h-6.113v-3.359a4.039,4.039,0,0,0-.332-2.109,1.28,1.28,0,0,0-1.152-.449,1.308,1.308,0,0,0-1.152.41,3.66,3.66,0,0,0-.332,1.953v12.91a3.824,3.824,0,0,0,.332,2.012,1.447,1.447,0,0,0,1.152.391,1.34,1.34,0,0,0,1.152-.43,4.561,4.561,0,0,0,.332-2.168v-4.727h6.113v3.32q0,5.059-1.758,7.129-1.66,2.031-5.84,2.031-4.121,0-5.84-2.031-1.7-2.07-1.758-7.129ZM146.914-8.008v.8a3.824,3.824,0,0,0,.332,2.012A1.447,1.447,0,0,0,148.4-4.8a1.487,1.487,0,0,0,1.211-.469,5.7,5.7,0,0,0,.313-2.4V-27.324h6.035V-8.809q0,5.059-1.758,7.129Q152.539.352,148.4.352q-4.062,0-5.8-2.031-1.719-2.109-1.719-7.129V-27.324h6.035Zm-.449,14.375V2.52h3.926V6.367Zm12.773-24.883a18.357,18.357,0,0,1,.43-4.307A6.9,6.9,0,0,1,161-25.645q1.68-2.031,5.84-2.031,4.1,0,5.84,2.031,1.7,2.07,1.758,7.129v1.953H168.32v-3.359a4.039,4.039,0,0,0-.332-2.109,1.28,1.28,0,0,0-1.152-.449,1.308,1.308,0,0,0-1.152.41,3.66,3.66,0,0,0-.332,1.953v12.91a3.824,3.824,0,0,0,.332,2.012,1.447,1.447,0,0,0,1.152.391,1.34,1.34,0,0,0,1.152-.43A4.561,4.561,0,0,0,168.32-7.4v-4.727h6.113v3.32q0,5.059-1.758,7.129-1.66,2.031-5.84,2.031-4.121,0-5.84-2.031-1.7-2.07-1.758-7.129Zm25.938-3.809v-5h13.066v5h-3.516V0h-6.035V-22.324Zm15.547-5h6.035v9.766h2.813v-9.766h6.035V0H209.57V-12.559h-2.812V0h-6.035ZM225.2-8.008v.8a3.824,3.824,0,0,0,.332,2.012,1.447,1.447,0,0,0,1.152.391,1.487,1.487,0,0,0,1.211-.469,5.7,5.7,0,0,0,.313-2.4V-27.324h6.035V-8.809q0,5.059-1.758,7.129Q230.82.352,226.68.352q-4.062,0-5.8-2.031-1.719-2.109-1.719-7.129V-27.324H225.2ZM237.793,0V-27.324h12.324v5.2h-6.289v4.648h6.055v5.156h-6.055V-5.2h6.563V0Zm5.859-38.477h4.395l-2.441,4.2h-3.555ZM241.27-33.32h4.883l2.324,4.2h-3.594l-1.172-1.836-1.152,1.836h-3.594Z" data-name="Path 4635" transform="translate(1030 214)"/><path id="Path_4636" fill="#ea3033" d="M-213.39-17.521q.435-.2,2.01-.719a19.959,19.959,0,0,1,2.432-.679.652.652,0,0,1,.468.046q.138.1-.059.257a15.761,15.761,0,0,0-2.966,4.324q-.883,1.661-1.773,3.56t-1.6,3.665q-.158.4-.079.448t.3-.3q.91-1.45,2.024-2.953t2.208-2.808q1.094-1.279,2.05-2.215a7.626,7.626,0,0,1,1.549-1.252,15.378,15.378,0,0,1,2.162-.778A13.385,13.385,0,0,1-202-17.534a.888.888,0,0,1,.56.092q.165.119-.138.356a12.987,12.987,0,0,0-3.125,3.421,20.73,20.73,0,0,0-2.123,4.278,17.62,17.62,0,0,0-.989,4.08,4.494,4.494,0,0,0,.277,2.656q.541.923,1.892.053A8.165,8.165,0,0,0-203.278-5q.316-.5.468-.343t-.046.541a11.022,11.022,0,0,1-1,1.463,16.9,16.9,0,0,1-1.707,1.872A13.659,13.659,0,0,1-207.681.191a5.093,5.093,0,0,1-2.241.824,1.73,1.73,0,0,1-2.116-1.549,10.5,10.5,0,0,1,.2-4,25.019,25.019,0,0,1,1.562-4.746,23.248,23.248,0,0,1,2.156-4.008q.211-.3.079-.277a.6.6,0,0,0-.25.119,17.237,17.237,0,0,0-2.307,2.327,34.251,34.251,0,0,0-2.373,3.184,33.687,33.687,0,0,0-2.123,3.7,20.71,20.71,0,0,0-1.384,3.408q0,.013.007.013h.007a.038.038,0,0,1,.013.026h-.013a.038.038,0,0,0-.026.013v.026a.012.012,0,0,1-.013-.013h-.013q-.962.4-3.276,1.371T-222,1.16q.8-1.964,1.661-4.1t1.8-4.331q.943-2.2,1.879-4.1a26.39,26.39,0,0,1,1.411-2.617q.343-.514.145-.521a.9.9,0,0,0-.5.2,18.551,18.551,0,0,0-2.7,2.6,45.8,45.8,0,0,0-3.237,4.067,49.061,49.061,0,0,0-2.769,4.39,25.366,25.366,0,0,1-1.833,2.966A3.259,3.259,0,0,1-227.872.5q-1.338.3-2.867.712-.725.185-.573-.171a7.191,7.191,0,0,1,.705-1.134,40.667,40.667,0,0,0,2.584-4.337q1.358-2.584,2.386-4.838t1.7-4.041q.672-1.786.369-2.182a4.705,4.705,0,0,0-2.538-1.582,15.973,15.973,0,0,0-3.566-.606,12.71,12.71,0,0,0-3.593.323,7.663,7.663,0,0,0-2.894,1.285q-2.333,1.78-2.169,3.6A3.729,3.729,0,0,0-236.7-9.624a5.526,5.526,0,0,0,3.645.916,5.863,5.863,0,0,0,4.028-2.142q.448-.5.468,0a.815.815,0,0,1-.336.751,18.642,18.642,0,0,1-4.931,2.656,10.874,10.874,0,0,1-4.008.653A4.99,4.99,0,0,1-240.8-7.917a2.839,2.839,0,0,1-.817-3.052q.527-2.426,3.665-4.812A15.294,15.294,0,0,1-233.758-18a17.865,17.865,0,0,1,5.01-1,16.735,16.735,0,0,1,5.122.56,11.8,11.8,0,0,1,4.581,2.393q.33.29-.026.976-.751,1.45-2.307,4.113a56.413,56.413,0,0,0-2.742,5.3q-.171.382-.112.442t.3-.31q.883-1.4,2.182-3.23t2.749-3.586a39.5,39.5,0,0,1,2.9-3.164A10.544,10.544,0,0,1-213.39-17.521Zm12.59,8.543q-.936-.079-.521-.791a5.5,5.5,0,0,1,1.365-1.463,7.447,7.447,0,0,1,2.2-1.266q.989-.316.666,1.009a2.886,2.886,0,0,1-1.668,1.971,7.8,7.8,0,0,1-.982.4A2.48,2.48,0,0,1-200.8-8.978Zm-6.17,7.923q-.686.092-.547-.442a1.253,1.253,0,0,1,.864-.811,2.226,2.226,0,0,0,1.859-.962,3.42,3.42,0,0,0,.8-1.187,9.6,9.6,0,0,1,.541-1.266q.29-.554.488-.883a4,4,0,0,1,2.1-1.259q1.694-.587,2.01-.191.079.119-.145.257a2.093,2.093,0,0,0-.382.3,5.53,5.53,0,0,0-1,1.45,5.675,5.675,0,0,0-.567,1.72,2.271,2.271,0,0,0,.04,1.167q.158.343.778.132.514-.145,1.925-1.9.264-.277.343-.04t-.982,1.6a24.82,24.82,0,0,1-2.1,2.38A3.167,3.167,0,0,1-203.2.026a1.293,1.293,0,0,1-1.332-1.371,7.834,7.834,0,0,1,.079-1.305q.026-.264-.171-.066A4.974,4.974,0,0,1-206.969-1.055Zm14.884-7.185a11.613,11.613,0,0,1,2.208-1.233,5.443,5.443,0,0,1,1.483-.4q.554-.04.705.171t-.112.475a7.3,7.3,0,0,0-2.208,4.087q-.349,2.241.481,2.07a2.034,2.034,0,0,0,1.16-.817q.593-.725.844-1.081.211-.277.376-.112t-.231.679a25.857,25.857,0,0,1-2.156,2.6A4.854,4.854,0,0,1-192.322,0a1.507,1.507,0,0,1-1.7-1,3.721,3.721,0,0,1-.079-2.32,8.806,8.806,0,0,1,.883-2.116q.567-.969.9-1.444.277-.4.026-.277a1.631,1.631,0,0,0-.356.211,10.717,10.717,0,0,0-1.964,2.577,16.7,16.7,0,0,1-1.714,2.5,6.656,6.656,0,0,1-1.786,1.279,7.009,7.009,0,0,1-2,.738q-.211.026-.2-.1A2.743,2.743,0,0,1-200-.646q.33-.62.7-1.345a13.516,13.516,0,0,0,.567-1.239,1.811,1.811,0,0,0,.066-.283q.026-.165-.145.059a13.856,13.856,0,0,1-1.575,1.668,3.253,3.253,0,0,1-1.457.824q-.686.079-.56-.455a1.209,1.209,0,0,1,.837-.811A2.835,2.835,0,0,0-199.5-3.448a8.769,8.769,0,0,0,1.589-2.63,2.574,2.574,0,0,1,.3-.659,8.005,8.005,0,0,1,1.694-1.114,14.158,14.158,0,0,1,2.037-.929q.817-.277.725-.086a3.672,3.672,0,0,1-.461.626,12.182,12.182,0,0,0-1.608,3.3q-.145.4-.02.29a1.575,1.575,0,0,0,.257-.29q.5-.672,1.325-1.727A7.42,7.42,0,0,1-192.085-8.24Zm1.042,7.264q-.672.119-.534-.435a1.246,1.246,0,0,1,.85-.831,1.831,1.831,0,0,0,1.411-.541,8.393,8.393,0,0,0,1.424-1.582,3.6,3.6,0,0,0,.435-.883q.633-1.964,1.371-3.8.646-1.622,1.3-2.894a6.127,6.127,0,0,1,1.193-1.747,9.553,9.553,0,0,1,2.716-1.285,30,30,0,0,1,3.27-1.022q.725-.158.58.007a3.909,3.909,0,0,1-.5.442,12.057,12.057,0,0,0-1.879,2.043,34.516,34.516,0,0,0-1.984,2.94q-.936,1.542-1.767,3.157t-1.49,3.276q-.079.224,0,.257t.237-.165q.659-.9,1.51-2.129a6.443,6.443,0,0,1,1.786-1.826q2.914-1.846,3.678-1.668t.277.811a5.77,5.77,0,0,0-1.068,2.2,8,8,0,0,0-.264,2.09,2.3,2.3,0,0,0,.376,1.358q.349.448.969-.013a8.387,8.387,0,0,0,1.022-1.048q.653-.758.745-.6.316.2-.481,1.18a16.535,16.535,0,0,1-1.694,1.8,11.013,11.013,0,0,1-2.05,1.463,4.284,4.284,0,0,1-2.406.567q-.58-.066-.751-.778a4.266,4.266,0,0,1-.079-1.5,8.154,8.154,0,0,1,.363-1.674,12.455,12.455,0,0,1,.626-1.6q.5-1.068.382-1.16t-.514.4q-.145.171-.626.883t-1.068,1.529q-.587.817-1.147,1.529a3.966,3.966,0,0,1-.85.883A16.6,16.6,0,0,1-188.67.132q-.25.092.013-1.068.158-.765.5-2.017.119-.369-.105-.119a13.169,13.169,0,0,1-1.45,1.417A2.824,2.824,0,0,1-191.043-.976ZM-173.667-1q-.686.079-.547-.455a1.253,1.253,0,0,1,.864-.811,1.653,1.653,0,0,0,1.266-.435,7.633,7.633,0,0,0,1.305-1.345,1.629,1.629,0,0,0,.316-.791,21.949,21.949,0,0,1,.646-2.867,26.564,26.564,0,0,1,.976-2.775A15.093,15.093,0,0,1-167.7-12.7a3.876,3.876,0,0,1,1.154-1.272,12.844,12.844,0,0,1,1.4-.646q1-.409,2.024-.771t1.806-.573q.778-.211.751-.053-.053.224-.712.751a9,9,0,0,0-1.088,1.219q-.771.969-1.668,2.314t-1.767,2.96a19.129,19.129,0,0,0-1.345,3.1q-.04.132.125.092a.583.583,0,0,0,.3-.185,14.572,14.572,0,0,1,3.441-3.085,4.714,4.714,0,0,1,3.718-.712q1.912.593-.158,3.678a21.62,21.62,0,0,1-3.916,4.2Q-166.008.3-167.814.185a2.438,2.438,0,0,1-2.156-.85,3.5,3.5,0,0,1-.666-2.419q0-.3-.237-.04a13.169,13.169,0,0,1-1.45,1.417A3.073,3.073,0,0,1-173.667-1Zm6.724-.013q.264.58.857-.119a10.508,10.508,0,0,0,1.2-1.833,24.655,24.655,0,0,0,1.081-2.294,7.7,7.7,0,0,0,.514-1.516q.079-.883-.547-.554a7.489,7.489,0,0,0-1.734,1.569A6.125,6.125,0,0,0-167-3.21,3.276,3.276,0,0,0-166.944-1.015Zm11.008-4.126q-.053.659.277.58.5-.119,1.2-1.272a13.045,13.045,0,0,0,.9-1.655q.686-1.753-.013-1.859-.58-.066-1.074.7a9.168,9.168,0,0,0-.89,1.859A6.936,6.936,0,0,0-155.936-5.142Zm-6.592,4.153q-.554.026-.422-.461a1.3,1.3,0,0,1,.831-.791q.791.132,1.978-1.081a4.116,4.116,0,0,0,.751-1.068,16.3,16.3,0,0,1,2.07-3.2,10.4,10.4,0,0,1,2.439-2.156,3.485,3.485,0,0,1,2.083-.639q1.384.158,1.226,2.624-.04.29.976-.264t.751-.066a18.211,18.211,0,0,0-1.219,2.215,4.022,4.022,0,0,0-.442,2.175q.237.751,1.121.3a6.345,6.345,0,0,0,1.529-1.608q.422-.5.573-.323t-.745,1.3a33.4,33.4,0,0,1-2.564,3.1A2.706,2.706,0,0,1-154.011.171q-.87-.2-.969-1.523a8.533,8.533,0,0,1,.547-3.25q.119-.369.013-.323a.569.569,0,0,0-.2.152q-1,1.2-1.786,2.34A13.36,13.36,0,0,1-157.663-.8a2.159,2.159,0,0,1-1.529.8q-1.318-.092-.857-2.426.053-.29-.158-.079a13.507,13.507,0,0,1-1.187,1.068A1.894,1.894,0,0,1-162.527-.989ZM-156.081.4q.751.132.672.738t-1.134,1.16q-1.305.672-1.74.33-.343-.264.488-1.318A1.845,1.845,0,0,1-156.081.4Zm3.744-1.384q-.672.105-.527-.442a1.226,1.226,0,0,1,.831-.811q.91.079,2.149-1.5a1.7,1.7,0,0,0,.224-.475,8.711,8.711,0,0,1,2.373-3.4,10.059,10.059,0,0,1,2.808-1.74,5.2,5.2,0,0,1,1.78-.4,3.2,3.2,0,0,1,1.714.376q.343.2.29.31t-.237.468a18.02,18.02,0,0,1-1.5,2.248q-1.015,1.338-1.332.969-.158-.171.442-1.292a2.366,2.366,0,0,0,.349-1.846q-.791-.883-2.017.765a4.776,4.776,0,0,0-.943,3.474q.244,1.786,1.325,2.01a2.759,2.759,0,0,0,2.142-.956,8.212,8.212,0,0,0,1.786-2.274q.369-.5.422-.158a1.031,1.031,0,0,1-.145.686,15.547,15.547,0,0,1-3.138,3.507A5.826,5.826,0,0,1-147.788.25a2.042,2.042,0,0,1-1.589-.837,3.467,3.467,0,0,1-.508-2.156q0-.237-.145-.079Q-151.479-1.107-152.336-.989Zm7.765.013q-.672.119-.534-.435a1.246,1.246,0,0,1,.85-.831,1.831,1.831,0,0,0,1.411-.541,8.393,8.393,0,0,0,1.424-1.582,3.6,3.6,0,0,0,.435-.883q.633-1.964,1.371-3.8.646-1.622,1.3-2.894a6.127,6.127,0,0,1,1.193-1.747,9.553,9.553,0,0,1,2.716-1.285,30,30,0,0,1,3.27-1.022q.725-.158.58.007a3.909,3.909,0,0,1-.5.442,12.057,12.057,0,0,0-1.879,2.043,34.516,34.516,0,0,0-1.984,2.94q-.936,1.542-1.767,3.157t-1.49,3.276q-.079.224,0,.257t.237-.165q.659-.9,1.51-2.129a6.443,6.443,0,0,1,1.786-1.826q2.914-1.846,3.678-1.668t.277.811a5.77,5.77,0,0,0-1.068,2.2,8,8,0,0,0-.264,2.09,2.3,2.3,0,0,0,.376,1.358q.349.448.969-.013a8.387,8.387,0,0,0,1.022-1.048q.653-.758.745-.6.316.2-.481,1.18a16.535,16.535,0,0,1-1.694,1.8,11.013,11.013,0,0,1-2.05,1.463,4.284,4.284,0,0,1-2.406.567q-.58-.066-.751-.778a4.266,4.266,0,0,1-.079-1.5,8.154,8.154,0,0,1,.363-1.674,12.455,12.455,0,0,1,.626-1.6q.5-1.068.382-1.16t-.514.4q-.145.171-.626.883t-1.068,1.529q-.587.817-1.147,1.529a3.966,3.966,0,0,1-.85.883A16.6,16.6,0,0,1-142.2.132q-.25.092.013-1.068.158-.765.5-2.017.119-.369-.105-.119a13.169,13.169,0,0,1-1.45,1.417A2.824,2.824,0,0,1-144.571-.976Zm31.047-9.624q-1.767,1.226-2.525,1.74a3.82,3.82,0,0,1-1.681.633,4.375,4.375,0,0,1-2.024-.349,1.8,1.8,0,0,0-1.905.138q-.382.33-.534.033t.428-.613q.488-.277,1.4-.916a15.405,15.405,0,0,1,1.424-.916,3.109,3.109,0,0,1,3.026-.086q1.47.745,2.235-.1a.453.453,0,0,1,.547-.165Q-112.852-11.074-113.524-10.6Zm7.712,10.092q-2.1-3.171-.672-7.706a12.609,12.609,0,0,1,3.1-5.082,19.569,19.569,0,0,1,6.414-4.3,23.842,23.842,0,0,1,4.68-1.483,6.793,6.793,0,0,1,2.914-.02,2.132,2.132,0,0,1,1.437,1.121,3.2,3.2,0,0,1,.2,1.872A8.983,8.983,0,0,1-90.2-11.628a11.479,11.479,0,0,1-2.221,1.839,7.456,7.456,0,0,1-2.551,1.048,2.663,2.663,0,0,1-2.327-.4,2.081,2.081,0,0,1-.732-1.958,5.631,5.631,0,0,1,1.43-2.828,12.946,12.946,0,0,1,4.146-3.026q.185-.079.013-.185a3.49,3.49,0,0,0-1.714-.323,6.56,6.56,0,0,0-2.413.666,10.144,10.144,0,0,0-3.995,3.665A9.963,9.963,0,0,0-102.4-7.646a6.517,6.517,0,0,0,1.015,4.14,4.593,4.593,0,0,0,3.474,2,8.965,8.965,0,0,0,4.41-.56,9.947,9.947,0,0,0,4.377-3.678q.369-.593.527-.376t-.224.811A14.82,14.82,0,0,1-93.412-.4,12.2,12.2,0,0,1-99.154,2Q-103.715,2.663-105.812-.508Zm11.377-9.116a4.442,4.442,0,0,0,1.49-1.127,8.9,8.9,0,0,0,1.391-1.938,5.434,5.434,0,0,0,.653-2.188,2.356,2.356,0,0,0-.488-1.773.261.261,0,0,0-.316-.026,6.413,6.413,0,0,0-2.07,1.958,11.788,11.788,0,0,0-1.417,2.591,4.272,4.272,0,0,0-.356,2.083Q-95.423-9.229-94.434-9.624Zm.646,8.648q-.672.119-.534-.435a1.246,1.246,0,0,1,.85-.831,1.831,1.831,0,0,0,1.411-.541,8.393,8.393,0,0,0,1.424-1.582,3.6,3.6,0,0,0,.435-.883q.633-1.964,1.371-3.8.646-1.622,1.3-2.894a6.127,6.127,0,0,1,1.193-1.747,9.553,9.553,0,0,1,2.716-1.285,30,30,0,0,1,3.27-1.022q.725-.158.58.007a3.909,3.909,0,0,1-.5.442A12.057,12.057,0,0,0-82.154-13.5a34.516,34.516,0,0,0-1.984,2.94Q-85.074-9.018-85.9-7.4t-1.49,3.276q-.079.224,0,.257t.237-.165q.659-.9,1.51-2.129a6.443,6.443,0,0,1,1.786-1.826q2.914-1.846,3.678-1.668t.277.811a5.77,5.77,0,0,0-1.068,2.2,8,8,0,0,0-.264,2.09A2.3,2.3,0,0,0-80.862-3.2q.349.448.969-.013a8.387,8.387,0,0,0,1.022-1.048q.653-.758.745-.6.316.2-.481,1.18a16.535,16.535,0,0,1-1.694,1.8,11.013,11.013,0,0,1-2.05,1.463,4.284,4.284,0,0,1-2.406.567q-.58-.066-.751-.778a4.266,4.266,0,0,1-.079-1.5,8.154,8.154,0,0,1,.363-1.674,12.455,12.455,0,0,1,.626-1.6q.5-1.068.382-1.16t-.514.4q-.145.171-.626.883t-1.068,1.529q-.587.817-1.147,1.529a3.966,3.966,0,0,1-.85.883A16.6,16.6,0,0,1-91.415.132q-.25.092.013-1.068.158-.765.5-2.017.119-.369-.105-.119a13.169,13.169,0,0,1-1.45,1.417A2.824,2.824,0,0,1-93.788-.976ZM-81.87-.989q-.686.079-.547-.455a1.253,1.253,0,0,1,.864-.811,1.854,1.854,0,0,0,1.483-.613,9.782,9.782,0,0,0,1.5-1.734A4.266,4.266,0,0,0-78.2-5.28q.138-.323.31-.719A6.4,6.4,0,0,1-76.781-7.91a5.678,5.678,0,0,1,1.747-.877,9.289,9.289,0,0,1,2.221-.6q.936-.079.171.514a8.3,8.3,0,0,0-1.865,2.861q-1.048,2.228-.85,2.848.277.541,1.272-.745t2.05-2.907q.29-.448.494-.811a1.778,1.778,0,0,1,.679-.639,13.267,13.267,0,0,1,3.573-1.252,1.183,1.183,0,0,1,.58-.013q.2.066-.132.33a6.622,6.622,0,0,0-1.5,1.846,7.5,7.5,0,0,0-.817,2.577q-.218,1.5.521,1.615.765.092,1.964-2.07.211-.369.422-.244t-.264.89a18.551,18.551,0,0,1-2.208,3.045A3.972,3.972,0,0,1-71.284-.026a1.519,1.519,0,0,1-1.681-1.246,7.731,7.731,0,0,1,.2-3.395q.053-.33-.119-.079A31.768,31.768,0,0,0-74.7-1.912Q-75.858.04-77.164.04a1.408,1.408,0,0,1-1.4-.923,4.663,4.663,0,0,1-.105-2.426q.04-.343-.158-.105a13.681,13.681,0,0,1-1.582,1.628A3.207,3.207,0,0,1-81.87-.989Zm11.628,0q-.686.079-.547-.448a1.254,1.254,0,0,1,.864-.8,2.38,2.38,0,0,0,1.615-.811,8.836,8.836,0,0,0,1.562-1.984q.369-.62.8-1.5A4.769,4.769,0,0,1-65-7.91a5.8,5.8,0,0,1,1.615-.8,10.19,10.19,0,0,1,2.142-.6q.962-.132.145.5a8.821,8.821,0,0,0-1.879,2.551,4.938,4.938,0,0,0-.89,2.8q.105.712.837-.112A20.734,20.734,0,0,0-61.462-5.6q.633-.923,1.2-1.78a7.458,7.458,0,0,1,.831-1.107,5.593,5.593,0,0,1,1.865-.831,9.479,9.479,0,0,1,2.116-.488q.686,0,.237.435a6.536,6.536,0,0,0-1.938,2.782,41.18,41.18,0,0,0-1.582,4.206Q-59.7.593-60.717,3.171a9.97,9.97,0,0,1-4.252,4.594,11.583,11.583,0,0,1-2.3,1.055,5.272,5.272,0,0,1-2.459.3A2.311,2.311,0,0,1-71.4,8.167a2.539,2.539,0,0,1-.369-1.852A5.157,5.157,0,0,1-70.7,4.061,8.526,8.526,0,0,1-68.08,1.9,15.545,15.545,0,0,1-62.543.185a.215.215,0,0,0,.171-.171q.145-.541.283-1.107t.283-1.134q.316-1.332.62-2.228.066-.211.007-.264t-.191.145a32.853,32.853,0,0,1-2.5,3.012Q-65.391.079-66.485,0a1.038,1.038,0,0,1-1.061-.831,4.33,4.33,0,0,1,.033-1.938q.066-.343-.171-.079A5.433,5.433,0,0,1-70.242-.989Zm7.5,2.03a6.856,6.856,0,0,0-3.573.646,4.544,4.544,0,0,0-2.156,1.839,5.619,5.619,0,0,0-.837,2.366,2.95,2.95,0,0,0,.264,1.7,1.312,1.312,0,0,0,1.173.751,3.356,3.356,0,0,0,2.432-1.173,8.517,8.517,0,0,0,1.681-2.637,12.533,12.533,0,0,0,.639-1.622q.257-.817.468-1.687Q-62.609,1.055-62.741,1.042Zm3.467-2.017q-.7.04-.409-.554a1.208,1.208,0,0,1,.844-.712q1.028.053,2.386-1.437a2.606,2.606,0,0,0,.382-.633,14.073,14.073,0,0,1,1.233-2.221A10.95,10.95,0,0,1-52.6-8.873a4.8,4.8,0,0,1,3.059-1.187q1.081.132,1.088.784a2.467,2.467,0,0,1-.626,1.47A8.926,8.926,0,0,1-50.757-6.2,9.084,9.084,0,0,1-52.8-5a.318.318,0,0,0-.185.316A2.7,2.7,0,0,0-52.6-3.448a1.068,1.068,0,0,0,1.074.435,2.607,2.607,0,0,0,1.5-.712,8.1,8.1,0,0,0,1.444-1.747q.277-.382.442-.191t-.112.56A13.578,13.578,0,0,1-51.2-1.463,4.815,4.815,0,0,1-54.87.026a1.548,1.548,0,0,1-1.246-.6A3.213,3.213,0,0,1-56.61-2.6q.04-.29-.158-.092a13.7,13.7,0,0,1-1.3,1.2A2.035,2.035,0,0,1-59.273-.976Zm6.249-4.68q0,.171.132.066a3.691,3.691,0,0,0,1.279-1.424,2.24,2.24,0,0,0,.264-1q.013-.527-.5-.448a1.055,1.055,0,0,0-.626.541,4.223,4.223,0,0,0-.323.712A4.481,4.481,0,0,0-53.024-5.656Zm3.177-7.844.224-.2a5.1,5.1,0,0,0,1.042-1.463.471.471,0,0,1,.132-.178q.105-.1.382.033a.489.489,0,0,1-.046.231.39.39,0,0,0,.026.29,3.4,3.4,0,0,0,.336.613,6.251,6.251,0,0,0,.666.844,4.843,4.843,0,0,0,1.022.817l.29-.25.224.105L-47.1-11.074a4.254,4.254,0,0,1-1.411-1.173l-.5-.725q-.751.488-1.806,1.279a6.37,6.37,0,0,1-2.254,1.121.45.45,0,0,1-.389-.382q-.059-.316.336-.409a6.064,6.064,0,0,0,1.542-.831A16.618,16.618,0,0,0-49.847-13.5Zm7.08,5.26a11.613,11.613,0,0,1,2.208-1.233,5.443,5.443,0,0,1,1.483-.4q.554-.04.705.171t-.112.475a7.3,7.3,0,0,0-2.208,4.087q-.349,2.241.481,2.07a2.034,2.034,0,0,0,1.16-.817q.593-.725.844-1.081.211-.277.376-.112t-.231.679a25.857,25.857,0,0,1-2.156,2.6A4.854,4.854,0,0,1-43,0a1.507,1.507,0,0,1-1.7-1,3.721,3.721,0,0,1-.079-2.32A8.806,8.806,0,0,1-43.9-5.438q.567-.969.9-1.444.277-.4.026-.277a1.631,1.631,0,0,0-.356.211A10.717,10.717,0,0,0-45.3-4.37a16.7,16.7,0,0,1-1.714,2.5A6.656,6.656,0,0,1-48.8-.593a7.009,7.009,0,0,1-2,.738q-.211.026-.2-.1a2.743,2.743,0,0,1,.323-.692q.33-.62.7-1.345a13.516,13.516,0,0,0,.567-1.239,1.811,1.811,0,0,0,.066-.283q.026-.165-.145.059a13.856,13.856,0,0,1-1.575,1.668,3.253,3.253,0,0,1-1.457.824q-.686.079-.56-.455a1.209,1.209,0,0,1,.837-.811,2.835,2.835,0,0,0,2.063-1.219,8.769,8.769,0,0,0,1.589-2.63,2.574,2.574,0,0,1,.3-.659A8.005,8.005,0,0,1-46.6-7.851a14.158,14.158,0,0,1,2.037-.929q.817-.277.725-.086a3.672,3.672,0,0,1-.461.626,12.182,12.182,0,0,0-1.608,3.3q-.145.4-.02.29a1.575,1.575,0,0,0,.257-.29q.5-.672,1.325-1.727A7.42,7.42,0,0,1-42.768-8.24Zm16.137,0a11.613,11.613,0,0,1,2.208-1.233,5.443,5.443,0,0,1,1.483-.4q.554-.04.705.171t-.112.475a7.3,7.3,0,0,0-2.208,4.087q-.349,2.241.481,2.07a2.034,2.034,0,0,0,1.16-.817q.593-.725.844-1.081.211-.277.376-.112t-.231.679A25.857,25.857,0,0,1-24.08-1.8,4.854,4.854,0,0,1-26.868,0a1.507,1.507,0,0,1-1.7-1,3.721,3.721,0,0,1-.079-2.32,8.806,8.806,0,0,1,.883-2.116q.567-.969.9-1.444.277-.4.026-.277a1.631,1.631,0,0,0-.356.211A10.717,10.717,0,0,0-29.162-4.37a16.7,16.7,0,0,1-1.714,2.5A6.656,6.656,0,0,1-32.662-.593a7.009,7.009,0,0,1-2,.738q-.211.026-.2-.1a2.743,2.743,0,0,1,.323-.692q.33-.62.7-1.345a13.516,13.516,0,0,0,.567-1.239,1.811,1.811,0,0,0,.066-.283q.026-.165-.145.059A13.856,13.856,0,0,1-34.93-1.786a3.253,3.253,0,0,1-1.457.824q-.686.079-.56-.455a1.209,1.209,0,0,1,.837-.811,2.835,2.835,0,0,0,2.063-1.219,8.769,8.769,0,0,0,1.589-2.63,2.574,2.574,0,0,1,.3-.659,8.005,8.005,0,0,1,1.694-1.114,14.158,14.158,0,0,1,2.037-.929q.817-.277.725-.086a3.672,3.672,0,0,1-.461.626,12.182,12.182,0,0,0-1.608,3.3q-.145.4-.02.29a1.575,1.575,0,0,0,.257-.29q.5-.672,1.325-1.727A7.42,7.42,0,0,1-26.631-8.24ZM-25.4,9.09a2.1,2.1,0,0,1-1.687-2.413A5.926,5.926,0,0,1-24.8,2.749Q-22.61.778-17.956.105a.4.4,0,0,0,.33-.316q.2-.962.4-1.964a19.778,19.778,0,0,1,.488-1.951q.119-.448-.132-.119-.33.461-.923,1.154T-19.077-1.74a10.618,10.618,0,0,1-1.51,1.2,2.54,2.54,0,0,1-1.4.488,1,1,0,0,1-1.015-.758,3.64,3.64,0,0,1,0-1.852q.066-.343-.211-.04A14.865,14.865,0,0,1-24.4-1.562,2.283,2.283,0,0,1-25.5-.989q-.7.119-.573-.428a1.222,1.222,0,0,1,.877-.824A1.56,1.56,0,0,0-24-2.709a9.513,9.513,0,0,0,1.246-1.272,2.888,2.888,0,0,0,.422-.679q.185-.4.369-.732A12.584,12.584,0,0,1-20.929-7.02a9.984,9.984,0,0,1,1.3-1.325,7,7,0,0,1,3.2-1.7q1.121-.237,1.542.448a5.016,5.016,0,0,1,.58,1.991q.04.211.211.119.475-.237,1.6-.719t.824-.007A16.41,16.41,0,0,0-13.526-4.37q-.593,1.865-1.147,4a14.517,14.517,0,0,1-2.254,4.733,12.552,12.552,0,0,1-4.087,3.678A6.042,6.042,0,0,1-25.4,9.09Zm.765-3.843q-.369,1.846.461,2.544a2.173,2.173,0,0,0,2.386,0A5.633,5.633,0,0,0-19.815,6a12.228,12.228,0,0,0,1.2-2.518A16.811,16.811,0,0,0-18,1.332q.092-.382-.224-.4A6.765,6.765,0,0,0-22.57,2.241,5.216,5.216,0,0,0-24.64,5.247ZM-18.681-3.3q.461.185,2.228-2.254a7.754,7.754,0,0,0,.633-1.865q.4-1.523-.158-1.707-.277-.092-.732.389a5.093,5.093,0,0,0-.837,1.259,17.5,17.5,0,0,0-1.094,2.729Q-19.037-3.428-18.681-3.3Zm3.533,2.32q-.672.119-.534-.435a1.246,1.246,0,0,1,.85-.831,1.831,1.831,0,0,0,1.411-.541A8.393,8.393,0,0,0-12-4.364a3.6,3.6,0,0,0,.435-.883q.633-1.964,1.371-3.8.646-1.622,1.3-2.894A6.127,6.127,0,0,1-7.7-13.685,9.553,9.553,0,0,1-4.983-14.97a30,30,0,0,1,3.27-1.022q.725-.158.58.007a3.909,3.909,0,0,1-.5.442A12.057,12.057,0,0,0-3.513-13.5,34.516,34.516,0,0,0-5.5-10.56Q-6.434-9.018-7.264-7.4t-1.49,3.276q-.079.224,0,.257t.237-.165q.659-.9,1.51-2.129A6.443,6.443,0,0,1-5.221-7.989q2.914-1.846,3.678-1.668t.277.811a5.769,5.769,0,0,0-1.068,2.2A8,8,0,0,0-2.6-4.562,2.3,2.3,0,0,0-2.221-3.2q.349.448.969-.013A8.387,8.387,0,0,0-.231-4.265q.653-.758.745-.6.316.2-.481,1.18a16.535,16.535,0,0,1-1.694,1.8A11.013,11.013,0,0,1-3.711-.422,4.284,4.284,0,0,1-6.117.145Q-6.7.079-6.869-.633a4.266,4.266,0,0,1-.079-1.5A8.154,8.154,0,0,1-6.585-3.81a12.455,12.455,0,0,1,.626-1.6q.5-1.068.382-1.16t-.514.4q-.145.171-.626.883T-7.785-3.757q-.587.817-1.147,1.529a3.966,3.966,0,0,1-.85.883A16.6,16.6,0,0,1-12.775.132q-.25.092.013-1.068.158-.765.5-2.017.119-.369-.105-.119a13.169,13.169,0,0,1-1.45,1.417A2.824,2.824,0,0,1-15.148-.976Zm18.193-8q-.936-.079-.521-.791a5.5,5.5,0,0,1,1.365-1.463,7.447,7.447,0,0,1,2.2-1.266q.989-.316.666,1.009A2.886,2.886,0,0,1,5.089-9.519a7.8,7.8,0,0,1-.982.4A2.48,2.48,0,0,1,3.045-8.978Zm-6.17,7.923q-.686.092-.547-.442a1.253,1.253,0,0,1,.864-.811A2.226,2.226,0,0,0-.949-3.27a3.42,3.42,0,0,0,.8-1.187A9.6,9.6,0,0,1,.4-5.722q.29-.554.488-.883a4,4,0,0,1,2.1-1.259Q4.68-8.451,5-8.055q.079.119-.145.257a2.093,2.093,0,0,0-.382.3,5.53,5.53,0,0,0-1,1.45A5.675,5.675,0,0,0,2.9-4.331a2.271,2.271,0,0,0,.04,1.167q.158.343.778.132.514-.145,1.925-1.9.264-.277.343-.04T5-3.375A24.82,24.82,0,0,1,2.907-1,3.167,3.167,0,0,1,.646.026,1.293,1.293,0,0,1-.686-1.345,7.834,7.834,0,0,1-.606-2.65q.026-.264-.171-.066A4.974,4.974,0,0,1-3.125-1.055ZM2.07-.976q-.7.04-.409-.554A1.208,1.208,0,0,1,2.5-2.241q1.028.053,2.386-1.437a2.606,2.606,0,0,0,.382-.633A14.073,14.073,0,0,1,6.506-6.532a10.95,10.95,0,0,1,2.235-2.34A4.8,4.8,0,0,1,11.8-10.059q1.081.132,1.088.784a2.467,2.467,0,0,1-.626,1.47A8.926,8.926,0,0,1,10.586-6.2,9.084,9.084,0,0,1,8.543-5a.318.318,0,0,0-.185.316,2.7,2.7,0,0,0,.382,1.233,1.068,1.068,0,0,0,1.074.435,2.607,2.607,0,0,0,1.5-.712,8.1,8.1,0,0,0,1.444-1.747q.277-.382.442-.191t-.112.56a13.578,13.578,0,0,1-2.947,3.639A4.815,4.815,0,0,1,6.473.026a1.548,1.548,0,0,1-1.246-.6A3.213,3.213,0,0,1,4.733-2.6q.04-.29-.158-.092a13.7,13.7,0,0,1-1.3,1.2A2.035,2.035,0,0,1,2.07-.976Zm6.249-4.68q0,.171.132.066A3.691,3.691,0,0,0,9.729-7.014a2.24,2.24,0,0,0,.264-1q.013-.527-.5-.448a1.055,1.055,0,0,0-.626.541,4.223,4.223,0,0,0-.323.712A4.481,4.481,0,0,0,8.319-5.656ZM11.5-13.5l.224-.2a5.1,5.1,0,0,0,1.042-1.463.471.471,0,0,1,.132-.178q.105-.1.382.033a.489.489,0,0,1-.046.231.39.39,0,0,0,.026.29,3.4,3.4,0,0,0,.336.613,6.251,6.251,0,0,0,.666.844,4.843,4.843,0,0,0,1.022.817l.29-.25.224.105-1.556,1.582a4.254,4.254,0,0,1-1.411-1.173l-.5-.725q-.751.488-1.806,1.279a6.37,6.37,0,0,1-2.254,1.121.45.45,0,0,1-.389-.382q-.059-.316.336-.409a6.064,6.064,0,0,0,1.542-.831A16.618,16.618,0,0,0,11.5-13.5ZM8.424.4q.751.132.672.738T7.963,2.294q-1.305.672-1.74.33Q5.88,2.36,6.71,1.305A1.845,1.845,0,0,1,8.424.4Zm.527-1.411Q8.266-.936,8.4-1.47a1.253,1.253,0,0,1,.864-.811q.936.224,2.268-1.5A15.978,15.978,0,0,0,13.447-6.79a22.785,22.785,0,0,1,1.437-2.65,4.984,4.984,0,0,1,1.523-.837,19.506,19.506,0,0,1,2.663-.877,4.607,4.607,0,0,1,1.562-.277q.079.079-.152.231t-.376.244a10.584,10.584,0,0,0-2.386,2.3A27.248,27.248,0,0,0,15.7-5.643a.245.245,0,0,0-.053.2q.026.086.132-.046a13.28,13.28,0,0,1,3.263-3.151A4.15,4.15,0,0,1,22.6-9.229q1.727.659.369,3.6a15.337,15.337,0,0,1-3.059,4.311,5.42,5.42,0,0,1-4.6,1.556A1.659,1.659,0,0,1,13.948-.883q-.092-.3-.29.158a27.713,27.713,0,0,0-.91,2.762q-.527,1.839-.751,2.7-.105.382-1.833,1.378A13.668,13.668,0,0,1,7.4,7.409a2.2,2.2,0,0,1-.521.079q-.3.013.046-.25A8.007,8.007,0,0,0,8.648,4.885Q9.6,3.151,10.507,1.068q.541-1.226,1.035-2.485t.9-2.366q.04-.092-.02-.1a.1.1,0,0,0-.1.046,15.334,15.334,0,0,1-1.753,1.885A3.61,3.61,0,0,1,8.952-1.015Zm7,.3q.527-.013,1.206-.962a14.565,14.565,0,0,0,1.371-2.5,7.685,7.685,0,0,0,.745-2.366q.066-.883-.573-.58a6.545,6.545,0,0,0-1.734,1.542A6.441,6.441,0,0,0,15.2-2.156Q15.108-.725,15.952-.712Zm23.9-9.888q-1.767,1.226-2.525,1.74a3.82,3.82,0,0,1-1.681.633,4.375,4.375,0,0,1-2.024-.349,1.8,1.8,0,0,0-1.905.138q-.382.33-.534.033t.428-.613q.488-.277,1.4-.916a15.405,15.405,0,0,1,1.424-.916,3.109,3.109,0,0,1,3.026-.086q1.47.745,2.235-.1a.453.453,0,0,1,.547-.165Q40.526-11.074,39.854-10.6Zm24.9-2.465q-.171.461.369.2A8.845,8.845,0,0,0,68.106-15.1a4.055,4.055,0,0,0,.817-2.129q.2-1.417-1.042-1.074-1.028.277-1.925,2.34T64.758-13.065Zm-.5,1.4q-.659,1.9-1.4,3.8A14.69,14.69,0,0,1,60.9-4.351q-.132.158.105.382,1.173,1.081,2.386,2.182T65.813.237a19.79,19.79,0,0,0,2.689,1.8,7.276,7.276,0,0,0,2.558.89,9.537,9.537,0,0,0,2.116.026,3,3,0,0,0,1.918-1.318q.541-.712.62-.171a.812.812,0,0,1-.356.844q-2.65,1.806-4.265,2.769a5.609,5.609,0,0,1-3,.923,5.858,5.858,0,0,1-2.947-1.035,23.7,23.7,0,0,1-3.2-2.485Q61,1.608,60.038.639T58.126-1.332a.324.324,0,0,0-.475-.053,10.912,10.912,0,0,1-2.947,1.5,13.54,13.54,0,0,1-3.619.745,8.754,8.754,0,0,1-3.48-.448,4.254,4.254,0,0,1-2.439-2.136,3.159,3.159,0,0,1,.343-3.612,7.9,7.9,0,0,1,3.533-2.637,9.1,9.1,0,0,1,3.784-.712,7.65,7.65,0,0,1,2.544.62,17.5,17.5,0,0,1,2.755,1.529q.25.185.356-.105.3-1.028.6-2.116t.653-2.156q.079-.237-.3-.224a7.411,7.411,0,0,1-3.171-.428,3.107,3.107,0,0,1-1.615-1.338q-.831-1.516.626-3.474a7.555,7.555,0,0,1,4.608-2.67q.58-.119.547.283T59.6-18.4a2.9,2.9,0,0,0-2.8,1.589,2.821,2.821,0,0,0-.007,3.118,4.358,4.358,0,0,0,3.019,1.753q.25.053.382-.264.316-.831.712-1.622a8.342,8.342,0,0,1,3.21-3.388,28.008,28.008,0,0,1,4.265-2.109q2-.765,2.676-.218a1.661,1.661,0,0,1,.475,1.694,5.67,5.67,0,0,1-2.261,3.3,14.855,14.855,0,0,1-4.66,2.511A.593.593,0,0,0,64.257-11.667ZM56.439-3.006q-.5-.475-1.391-1.285a17.653,17.653,0,0,0-1.931-1.523,10.28,10.28,0,0,0-2.1-1.121,2.738,2.738,0,0,0-1.905-.119,2.313,2.313,0,0,0-1.615,1.437,2.951,2.951,0,0,0,.145,2,5.443,5.443,0,0,0,1.424,1.945A5.727,5.727,0,0,0,51.3-.4a4.378,4.378,0,0,0,2.729-.086,5.254,5.254,0,0,0,2.544-2.05Q56.716-2.716,56.439-3.006ZM72.233-8.978q-.936-.079-.521-.791a5.5,5.5,0,0,1,1.365-1.463,7.447,7.447,0,0,1,2.2-1.266q.989-.316.666,1.009a2.886,2.886,0,0,1-1.668,1.971,7.8,7.8,0,0,1-.982.4A2.48,2.48,0,0,1,72.233-8.978Zm-6.17,7.923q-.686.092-.547-.442a1.253,1.253,0,0,1,.864-.811,2.226,2.226,0,0,0,1.859-.962,3.42,3.42,0,0,0,.8-1.187,9.6,9.6,0,0,1,.541-1.266q.29-.554.488-.883a4,4,0,0,1,2.1-1.259q1.694-.587,2.01-.191.079.119-.145.257a2.093,2.093,0,0,0-.382.3,5.53,5.53,0,0,0-1,1.45,5.675,5.675,0,0,0-.567,1.72,2.271,2.271,0,0,0,.04,1.167q.158.343.778.132.514-.145,1.925-1.9.264-.277.343-.04t-.982,1.6A24.82,24.82,0,0,1,72.094-1,3.167,3.167,0,0,1,69.833.026,1.293,1.293,0,0,1,68.5-1.345a7.834,7.834,0,0,1,.079-1.305q.026-.264-.171-.066A4.974,4.974,0,0,1,66.063-1.055Zm5.194.079q-.7.04-.409-.554a1.208,1.208,0,0,1,.844-.712q1.028.053,2.386-1.437a2.606,2.606,0,0,0,.382-.633,14.073,14.073,0,0,1,1.233-2.221,10.95,10.95,0,0,1,2.235-2.34,4.8,4.8,0,0,1,3.059-1.187q1.081.132,1.088.784a2.467,2.467,0,0,1-.626,1.47A8.926,8.926,0,0,1,79.774-6.2,9.084,9.084,0,0,1,77.73-5a.318.318,0,0,0-.185.316,2.7,2.7,0,0,0,.382,1.233A1.068,1.068,0,0,0,79-3.012a2.607,2.607,0,0,0,1.5-.712,8.1,8.1,0,0,0,1.444-1.747q.277-.382.442-.191t-.112.56a13.578,13.578,0,0,1-2.947,3.639A4.815,4.815,0,0,1,75.661.026a1.548,1.548,0,0,1-1.246-.6A3.213,3.213,0,0,1,73.92-2.6q.04-.29-.158-.092a13.7,13.7,0,0,1-1.3,1.2A2.035,2.035,0,0,1,71.257-.976Zm6.249-4.68q0,.171.132.066a3.691,3.691,0,0,0,1.279-1.424,2.24,2.24,0,0,0,.264-1q.013-.527-.5-.448a1.055,1.055,0,0,0-.626.541,4.223,4.223,0,0,0-.323.712A4.481,4.481,0,0,0,77.506-5.656ZM80.684-13.5l.224-.2a5.1,5.1,0,0,0,1.042-1.463.471.471,0,0,1,.132-.178q.105-.1.382.033a.489.489,0,0,1-.046.231.39.39,0,0,0,.026.29,3.4,3.4,0,0,0,.336.613,6.251,6.251,0,0,0,.666.844,4.843,4.843,0,0,0,1.022.817l.29-.25.224.105-1.556,1.582a4.254,4.254,0,0,1-1.411-1.173l-.5-.725q-.751.488-1.806,1.279a6.37,6.37,0,0,1-2.254,1.121.45.45,0,0,1-.389-.382q-.059-.316.336-.409a6.064,6.064,0,0,0,1.542-.831A16.618,16.618,0,0,0,80.684-13.5ZM78.1-1.028q-.686.119-.547-.428a1.251,1.251,0,0,1,.864-.824A2.038,2.038,0,0,0,80.1-3.072a11.383,11.383,0,0,0,1.628-2.1,3.758,3.758,0,0,0,.356-.758A6.98,6.98,0,0,1,82.4-6.71a3.934,3.934,0,0,1,.7-1.068,5.938,5.938,0,0,1,1.819-1.094q1.345-.593,2.268-.91.87-.29.738-.033a4.093,4.093,0,0,1-.369.573,18.694,18.694,0,0,0-1.1,1.641,12.371,12.371,0,0,0-.969,2.063q-.33.883.237.119a18.087,18.087,0,0,1,1.16-1.437,7.97,7.97,0,0,1,1.358-1.226,13.438,13.438,0,0,1,2.228-1.272,6.532,6.532,0,0,1,1.5-.481q1.371-.185.593.541a6.627,6.627,0,0,0-1.206,1.575,12.066,12.066,0,0,0-.89,1.958q-.224.646.2.119.541-.712,1.121-1.345a7.678,7.678,0,0,1,1.332-1.147A7.18,7.18,0,0,1,95.858-9.36q.33-.053.606-.079,1.358-.132.791.409a6.115,6.115,0,0,0-.811,1.147,9.641,9.641,0,0,0-.85,1.833,4.2,4.2,0,0,0-.25,1.767.753.753,0,0,0,.857.778q.844.092,2.149-1.9.224-.356.4-.165t-.066.521a28.084,28.084,0,0,1-2.3,3.1A4.939,4.939,0,0,1,93.208.092a1.535,1.535,0,0,1-1.7-1.338,5.053,5.053,0,0,1,.04-2.867,10.152,10.152,0,0,1,.58-1.562q.29-.587.461-.864.277-.5-.132-.185a4.64,4.64,0,0,0-1.72,2.149,14.273,14.273,0,0,0-.745,2.149q-.079.356-.086.4t-.31.27A17.869,17.869,0,0,1,87.882-.672a9.22,9.22,0,0,1-1.4.672q-.33.105-.343-.026T86.1-.5a11.694,11.694,0,0,1,.58-3.217A11.528,11.528,0,0,1,87.467-5.7q.389-.719.653-1.114.105-.158-.092-.1a1.475,1.475,0,0,0-.514.363,9.4,9.4,0,0,0-1.839,2.584,7.336,7.336,0,0,1-1.417,2.123,15.054,15.054,0,0,1-1.945,1.3A7.164,7.164,0,0,1,80.169.3q-.211.04-.2-.105a3.309,3.309,0,0,1,.343-.765,13.447,13.447,0,0,0,.751-1.661q.29-.791.488-1.463.092-.382-.132-.092a18,18,0,0,1-1.727,1.859A3.128,3.128,0,0,1,78.1-1.028Zm21.964.04q-.672.105-.527-.442a1.226,1.226,0,0,1,.831-.811q.91.079,2.149-1.5a1.7,1.7,0,0,0,.224-.475,8.711,8.711,0,0,1,2.373-3.4,10.059,10.059,0,0,1,2.808-1.74,5.2,5.2,0,0,1,1.78-.4,3.2,3.2,0,0,1,1.714.376q.343.2.29.31t-.237.468a18.02,18.02,0,0,1-1.5,2.248q-1.015,1.338-1.332.969-.158-.171.442-1.292a2.366,2.366,0,0,0,.349-1.846q-.791-.883-2.017.765a4.776,4.776,0,0,0-.943,3.474q.244,1.786,1.325,2.01a2.759,2.759,0,0,0,2.142-.956,8.212,8.212,0,0,0,1.786-2.274q.369-.5.422-.158a1.031,1.031,0,0,1-.145.686,15.547,15.547,0,0,1-3.138,3.507A5.826,5.826,0,0,1,104.612.25a2.042,2.042,0,0,1-1.589-.837,3.467,3.467,0,0,1-.508-2.156q0-.237-.145-.079Q100.92-1.107,100.063-.989Zm7.765.013q-.672.119-.534-.435a1.246,1.246,0,0,1,.85-.831,1.831,1.831,0,0,0,1.411-.541,8.393,8.393,0,0,0,1.424-1.582,3.6,3.6,0,0,0,.435-.883q.633-1.964,1.371-3.8.646-1.622,1.3-2.894a6.127,6.127,0,0,1,1.193-1.747,9.553,9.553,0,0,1,2.716-1.285,30,30,0,0,1,3.27-1.022q.725-.158.58.007a3.909,3.909,0,0,1-.5.442,12.057,12.057,0,0,0-1.879,2.043,34.516,34.516,0,0,0-1.984,2.94q-.936,1.542-1.767,3.157t-1.49,3.276q-.079.224,0,.257t.237-.165q.659-.9,1.51-2.129a6.443,6.443,0,0,1,1.786-1.826q2.914-1.846,3.678-1.668t.277.811a5.77,5.77,0,0,0-1.068,2.2,8,8,0,0,0-.264,2.09,2.3,2.3,0,0,0,.376,1.358q.349.448.969-.013a8.387,8.387,0,0,0,1.022-1.048q.653-.758.745-.6.316.2-.481,1.18a16.535,16.535,0,0,1-1.694,1.8,11.013,11.013,0,0,1-2.05,1.463,4.284,4.284,0,0,1-2.406.567q-.58-.066-.751-.778a4.266,4.266,0,0,1-.079-1.5,8.154,8.154,0,0,1,.363-1.674,12.455,12.455,0,0,1,.626-1.6q.5-1.068.382-1.16t-.514.4q-.145.171-.626.883t-1.068,1.529q-.587.817-1.147,1.529a3.966,3.966,0,0,1-.85.883A16.6,16.6,0,0,1,110.2.132q-.25.092.013-1.068.158-.765.5-2.017.119-.369-.105-.119a13.169,13.169,0,0,1-1.45,1.417A2.824,2.824,0,0,1,107.829-.976Zm12.023-.079q-.686.092-.547-.442a1.253,1.253,0,0,1,.864-.811,2.226,2.226,0,0,0,1.859-.962,3.42,3.42,0,0,0,.8-1.187,9.6,9.6,0,0,1,.541-1.266q.29-.554.488-.883a4,4,0,0,1,2.1-1.259q1.694-.587,2.01-.191.079.119-.145.257a2.093,2.093,0,0,0-.382.3,5.53,5.53,0,0,0-1,1.45,5.675,5.675,0,0,0-.567,1.72,2.271,2.271,0,0,0,.04,1.167q.158.343.778.132.514-.145,1.925-1.9.264-.277.343-.04t-.982,1.6a24.82,24.82,0,0,1-2.1,2.38A3.167,3.167,0,0,1,123.623.026a1.293,1.293,0,0,1-1.332-1.371,7.834,7.834,0,0,1,.079-1.305q.026-.264-.171-.066A4.974,4.974,0,0,1,119.852-1.055Zm10.23-10.112a2.208,2.208,0,0,1-.758.323q-.547.152-1.187.264a11.533,11.533,0,0,1-1.272.152,6.605,6.605,0,0,1-1.028,0,1.023,1.023,0,0,1-.646-.211.312.312,0,0,1-.066-.33q.066-.171.666-.363t1.49-.5a14.087,14.087,0,0,0,1.747-.745,13.44,13.44,0,0,0,1.562-.923q.705-.488.765-.257a1.714,1.714,0,0,1-.185.857,5.365,5.365,0,0,1-.593,1.127A3.1,3.1,0,0,1,130.083-11.167Zm4.654,2.927a11.613,11.613,0,0,1,2.208-1.233,5.443,5.443,0,0,1,1.483-.4q.554-.04.705.171t-.112.475a7.3,7.3,0,0,0-2.208,4.087q-.349,2.241.481,2.07a2.034,2.034,0,0,0,1.16-.817q.593-.725.844-1.081.211-.277.376-.112t-.231.679a25.857,25.857,0,0,1-2.156,2.6A4.854,4.854,0,0,1,134.5,0a1.507,1.507,0,0,1-1.7-1,3.721,3.721,0,0,1-.079-2.32,8.806,8.806,0,0,1,.883-2.116q.567-.969.9-1.444.277-.4.026-.277a1.631,1.631,0,0,0-.356.211,10.717,10.717,0,0,0-1.964,2.577,16.7,16.7,0,0,1-1.714,2.5A6.656,6.656,0,0,1,128.7-.593a7.009,7.009,0,0,1-2,.738q-.211.026-.2-.1a2.743,2.743,0,0,1,.323-.692q.33-.62.7-1.345a13.516,13.516,0,0,0,.567-1.239,1.811,1.811,0,0,0,.066-.283q.026-.165-.145.059a13.856,13.856,0,0,1-1.575,1.668,3.253,3.253,0,0,1-1.457.824q-.686.079-.56-.455a1.209,1.209,0,0,1,.837-.811,2.835,2.835,0,0,0,2.063-1.219,8.769,8.769,0,0,0,1.589-2.63,2.574,2.574,0,0,1,.3-.659,8.005,8.005,0,0,1,1.694-1.114,14.158,14.158,0,0,1,2.037-.929q.817-.277.725-.086a3.672,3.672,0,0,1-.461.626,12.182,12.182,0,0,0-1.608,3.3q-.145.4-.02.29a1.575,1.575,0,0,0,.257-.29q.5-.672,1.325-1.727A7.42,7.42,0,0,1,134.736-8.24Zm1.042,7.264q-.672.119-.534-.435a1.246,1.246,0,0,1,.85-.831,1.831,1.831,0,0,0,1.411-.541,8.393,8.393,0,0,0,1.424-1.582,3.6,3.6,0,0,0,.435-.883q.633-1.964,1.371-3.8.646-1.622,1.3-2.894a6.127,6.127,0,0,1,1.193-1.747,9.553,9.553,0,0,1,2.716-1.285,30,30,0,0,1,3.27-1.022q.725-.158.58.007a3.909,3.909,0,0,1-.5.442,12.057,12.057,0,0,0-1.879,2.043,34.516,34.516,0,0,0-1.984,2.94q-.936,1.542-1.767,3.157t-1.49,3.276q-.079.224,0,.257t.237-.165q.659-.9,1.51-2.129a6.443,6.443,0,0,1,1.786-1.826q2.914-1.846,3.678-1.668t.277.811a5.77,5.77,0,0,0-1.068,2.2,8,8,0,0,0-.264,2.09A2.3,2.3,0,0,0,148.7-3.2q.349.448.969-.013A8.387,8.387,0,0,0,150.7-4.265q.653-.758.745-.6.316.2-.481,1.18a16.535,16.535,0,0,1-1.694,1.8,11.013,11.013,0,0,1-2.05,1.463,4.284,4.284,0,0,1-2.406.567q-.58-.066-.751-.778a4.266,4.266,0,0,1-.079-1.5,8.154,8.154,0,0,1,.363-1.674,12.455,12.455,0,0,1,.626-1.6q.5-1.068.382-1.16t-.514.4q-.145.171-.626.883t-1.068,1.529q-.587.817-1.147,1.529a3.966,3.966,0,0,1-.85.883A16.6,16.6,0,0,1,138.151.132q-.25.092.013-1.068.158-.765.5-2.017.119-.369-.105-.119a13.169,13.169,0,0,1-1.45,1.417A2.824,2.824,0,0,1,135.778-.976ZM166.825-10.6q-1.767,1.226-2.525,1.74a3.82,3.82,0,0,1-1.681.633,4.375,4.375,0,0,1-2.024-.349,1.8,1.8,0,0,0-1.905.138q-.382.33-.534.033t.428-.613q.488-.277,1.4-.916a15.405,15.405,0,0,1,1.424-.916,3.109,3.109,0,0,1,3.026-.086q1.47.745,2.235-.1a.453.453,0,0,1,.547-.165Q167.5-11.074,166.825-10.6Zm14.542,3.955a16.219,16.219,0,0,0-.8,1.542,9.307,9.307,0,0,0-.633,1.833q-.092.461.185.158a6.473,6.473,0,0,1,.817-.686q.461-.33.9.211a8.183,8.183,0,0,0,2.663,2.294,6.878,6.878,0,0,0,2.966.844,4.89,4.89,0,0,0,2.7-.613,4.547,4.547,0,0,0,1.912-2.156,7.157,7.157,0,0,0,.5-3.968A11.068,11.068,0,0,0,192.085-9a.1.1,0,0,1-.04.013q-2.268.62-4.977,1.213T181.644-6.7Zm8.965-5.392-.105-.145a.692.692,0,0,0-.079-.119,11.113,11.113,0,0,0-2.795-2.426.418.418,0,0,0-.567.079q-.7.791-1.279,1.529-.7.87-2.386,3.573,3.322-1.015,6.434-2.188Q189.949-11.878,190.332-12.037Zm-12.973,6a.741.741,0,0,0-.145.013,11.693,11.693,0,0,1-2.993.059q-.7-.165-.514-.514a2.1,2.1,0,0,1,.9-.725,7.827,7.827,0,0,1,1.252-.547q1.279-.224,2.7-.554l1.661-2.9a.524.524,0,0,0,.066-.079,3.134,3.134,0,0,0,.475-1.252q.066-.58.158-1.371,0-.2,1.5-.659t2.637-.8q.567-.171-.053-.382a19.1,19.1,0,0,0-2.769-.626,17.038,17.038,0,0,0-3.085-.2,10.686,10.686,0,0,0-2.834.461,7.4,7.4,0,0,0-.844.567,2.873,2.873,0,0,0-1.292,2.182,2.6,2.6,0,0,0,.653,1.918,2.231,2.231,0,0,0,1.826.672,3.114,3.114,0,0,0,2.228-1.529q.356-.461.541-.112a.528.528,0,0,1-.04.626,6.433,6.433,0,0,1-2.254,1.549,11.688,11.688,0,0,1-3.2,1.028,3.346,3.346,0,0,1-2.446-.363q-.9-.606.013-2.624a8.223,8.223,0,0,1,1.833-2.439,6.928,6.928,0,0,1,.712-.738,14.563,14.563,0,0,1,2.927-2.07,14.683,14.683,0,0,1,1.885-.857A15.213,15.213,0,0,1,184.4-19.34a13.046,13.046,0,0,1,5.405,1.226,10.922,10.922,0,0,1,4.4,3.8l.3.527q.593-.264,1.16-.541a20.036,20.036,0,0,0,3.823-2.215q.145-.132.428-.363t.363-.125q.119.132-.455,1.134a26.278,26.278,0,0,1-1.437,2.208q-.864,1.206-1.786,2.287a9.346,9.346,0,0,1-.936.976,8.827,8.827,0,0,1-.079,3.045,10.2,10.2,0,0,1-2.175,4.548,10.325,10.325,0,0,1-4.047,2.92,9.752,9.752,0,0,1-5.049.653,10.055,10.055,0,0,1-4.772-1.793q-.356-.264-1.193.283T175.948.751q-.87.541-.264-2.162A21.314,21.314,0,0,1,177.359-6.038ZM193.43-1q-.686.092-.547-.442a1.253,1.253,0,0,1,.864-.811,2.357,2.357,0,0,0,1.7-.923,13.063,13.063,0,0,0,1.661-2.149,9.446,9.446,0,0,1,2.558-3.309,6.369,6.369,0,0,1,3.929-1.714q1.872.053,1.938,1.734a9.172,9.172,0,0,1-.554,3.434,9.724,9.724,0,0,1-2.439,3.85A5.035,5.035,0,0,1,199.006.277a2.526,2.526,0,0,1-1.938-.989,3.32,3.32,0,0,1-.514-2.558q.026-.264-.158-.053a14.8,14.8,0,0,1-1.549,1.556A3.127,3.127,0,0,1,193.43-1ZM201.1-3.889q-.066,1.266.5,1.332T202.9-3.586a8.889,8.889,0,0,0,.864-1.615,11.27,11.27,0,0,0,.56-1.668,6.033,6.033,0,0,0,.218-1.648q-.02-.725-.442-.725-.422.026-1.16.817a6.084,6.084,0,0,0-1.411,2.254,6.676,6.676,0,0,0-.356,1.43Q201.1-4.14,201.1-3.889Zm2.373-9.611.224-.2a5.1,5.1,0,0,0,1.042-1.463.471.471,0,0,1,.132-.178q.105-.1.382.033a.489.489,0,0,1-.046.231.39.39,0,0,0,.026.29,3.4,3.4,0,0,0,.336.613,6.251,6.251,0,0,0,.666.844,4.843,4.843,0,0,0,1.022.817l.29-.25.224.105-1.556,1.582a4.254,4.254,0,0,1-1.411-1.173l-.5-.725q-.751.488-1.806,1.279a6.37,6.37,0,0,1-2.254,1.121.45.45,0,0,1-.389-.382q-.059-.316.336-.409a6.064,6.064,0,0,0,1.542-.831A16.618,16.618,0,0,0,203.476-13.5Zm3.718-1.028q-.686.382-.949.112t.145-.732a2.447,2.447,0,0,1,.409-.415,3.292,3.292,0,0,1,.475-.3q.725-.356,1.219-.626a2.841,2.841,0,0,0,.745-.547,1.244,1.244,0,0,0,.382-.646,1.157,1.157,0,0,0-.04-.527.846.846,0,0,0-.771-.541,2.589,2.589,0,0,0-1.219.211,2.1,2.1,0,0,0-.923.613.475.475,0,0,0-.013.534.878.878,0,0,0,.817.283,1.4,1.4,0,0,0,1.081-.626q.132-.185.191-.073t-.125.27a3.136,3.136,0,0,1-.613.442,7.782,7.782,0,0,1-.877.442,4.113,4.113,0,0,1-1.246.3q-.587.04-.653-.461-.066-.461.626-1.068a5.425,5.425,0,0,1,1.747-.989,7.08,7.08,0,0,1,.969-.257,5.541,5.541,0,0,1,1.088-.112,2.539,2.539,0,0,1,.943.165.815.815,0,0,1,.521.587.946.946,0,0,1-.231.9,4,4,0,0,1-1,.811,12.028,12.028,0,0,1-1.193.633q-.653.3-1.3.58-.29.132.105.2a2.875,2.875,0,0,0,.738.046q.145-.013.105.059a.776.776,0,0,1-.33.191,1.862,1.862,0,0,0-.442.264A2.772,2.772,0,0,1,207.193-14.528Zm1.569,5.55q-.936-.079-.521-.791a5.5,5.5,0,0,1,1.365-1.463,7.447,7.447,0,0,1,2.2-1.266q.989-.316.666,1.009a2.886,2.886,0,0,1-1.668,1.971,7.8,7.8,0,0,1-.982.4A2.48,2.48,0,0,1,208.762-8.978Zm-6.17,7.923q-.686.092-.547-.442a1.253,1.253,0,0,1,.864-.811,2.226,2.226,0,0,0,1.859-.962,3.42,3.42,0,0,0,.8-1.187,9.6,9.6,0,0,1,.541-1.266q.29-.554.488-.883a4,4,0,0,1,2.1-1.259q1.694-.587,2.01-.191.079.119-.145.257a2.093,2.093,0,0,0-.382.3,5.53,5.53,0,0,0-1,1.45,5.675,5.675,0,0,0-.567,1.72,2.271,2.271,0,0,0,.04,1.167q.158.343.778.132.514-.145,1.925-1.9.264-.277.343-.04t-.982,1.6a24.82,24.82,0,0,1-2.1,2.38A3.167,3.167,0,0,1,206.363.026a1.293,1.293,0,0,1-1.332-1.371,7.834,7.834,0,0,1,.079-1.305q.026-.264-.171-.066A4.974,4.974,0,0,1,202.592-1.055Zm10.626.026q-.686.119-.547-.428a1.251,1.251,0,0,1,.864-.824,2.038,2.038,0,0,0,1.681-.791,11.383,11.383,0,0,0,1.628-2.1,3.758,3.758,0,0,0,.356-.758,6.98,6.98,0,0,1,.316-.784,3.934,3.934,0,0,1,.7-1.068,5.938,5.938,0,0,1,1.819-1.094q1.345-.593,2.268-.91.87-.29.738-.033a4.093,4.093,0,0,1-.369.573,18.694,18.694,0,0,0-1.1,1.641,12.371,12.371,0,0,0-.969,2.063q-.33.883.237.119A18.087,18.087,0,0,1,222-6.855a7.97,7.97,0,0,1,1.358-1.226,13.438,13.438,0,0,1,2.228-1.272,6.532,6.532,0,0,1,1.5-.481q1.371-.185.593.541a6.627,6.627,0,0,0-1.206,1.575,12.066,12.066,0,0,0-.89,1.958q-.224.646.2.119.541-.712,1.121-1.345a7.678,7.678,0,0,1,1.332-1.147,7.18,7.18,0,0,1,2.742-1.226q.33-.053.606-.079,1.358-.132.791.409a6.115,6.115,0,0,0-.811,1.147,9.641,9.641,0,0,0-.85,1.833,4.2,4.2,0,0,0-.25,1.767.753.753,0,0,0,.857.778q.844.092,2.149-1.9.224-.356.4-.165t-.066.521a28.084,28.084,0,0,1-2.3,3.1A4.939,4.939,0,0,1,228.327.092a1.535,1.535,0,0,1-1.7-1.338,5.053,5.053,0,0,1,.04-2.867,10.152,10.152,0,0,1,.58-1.562q.29-.587.461-.864.277-.5-.132-.185a4.64,4.64,0,0,0-1.72,2.149,14.273,14.273,0,0,0-.745,2.149q-.079.356-.086.4t-.31.27A17.869,17.869,0,0,1,223-.672,9.22,9.22,0,0,1,221.6,0q-.33.105-.343-.026t-.04-.475a11.694,11.694,0,0,1,.58-3.217,11.528,11.528,0,0,1,.784-1.984q.389-.719.653-1.114.105-.158-.092-.1a1.475,1.475,0,0,0-.514.363,9.4,9.4,0,0,0-1.839,2.584,7.336,7.336,0,0,1-1.417,2.123,15.054,15.054,0,0,1-1.945,1.3,7.164,7.164,0,0,1-2.142.85q-.211.04-.2-.105a3.309,3.309,0,0,1,.343-.765,13.447,13.447,0,0,0,.751-1.661q.29-.791.488-1.463.092-.382-.132-.092a18,18,0,0,1-1.727,1.859A3.128,3.128,0,0,1,213.218-1.028ZM237.3-3.889q-.066,1.266.5,1.332T239.1-3.586a8.889,8.889,0,0,0,.864-1.615,11.27,11.27,0,0,0,.56-1.668,6.033,6.033,0,0,0,.218-1.648q-.02-.725-.442-.725-.422.026-1.16.817a6.084,6.084,0,0,0-1.411,2.254,6.676,6.676,0,0,0-.356,1.43Q237.3-4.14,237.3-3.889Zm4.8-8.556a2.208,2.208,0,0,1-.758.323q-.547.152-1.187.264a11.532,11.532,0,0,1-1.272.152,6.605,6.605,0,0,1-1.028,0,1.023,1.023,0,0,1-.646-.211.312.312,0,0,1-.066-.33q.066-.171.666-.363t1.49-.5a14.087,14.087,0,0,0,1.747-.745,13.441,13.441,0,0,0,1.562-.923q.705-.488.765-.257a1.714,1.714,0,0,1-.185.857,5.365,5.365,0,0,1-.593,1.127A3.1,3.1,0,0,1,242.1-12.445Zm-.369,3.863a9.02,9.02,0,0,1-.554,3.4,9.724,9.724,0,0,1-2.439,3.85A5.035,5.035,0,0,1,235.208.277a2.526,2.526,0,0,1-1.938-.989,3.32,3.32,0,0,1-.514-2.558q.026-.264-.158-.053a14.8,14.8,0,0,1-1.549,1.556A3.127,3.127,0,0,1,229.632-1q-.686.092-.547-.442a1.253,1.253,0,0,1,.864-.811,2.357,2.357,0,0,0,1.7-.923,13.063,13.063,0,0,0,1.661-2.149,9.446,9.446,0,0,1,2.558-3.309,6.369,6.369,0,0,1,3.929-1.714q1.608.04,1.885,1.292a4.808,4.808,0,0,0,.567-.461q.791-.765.461-1.2a.386.386,0,0,0-.435-.132.811.811,0,0,1-.461,0q-1.042-.409.2-.929a6.338,6.338,0,0,1,2.366-.534.714.714,0,0,1,.738.428.841.841,0,0,1-.132.89,6.479,6.479,0,0,1-1.846,1.635,1.474,1.474,0,0,0-.158.092q-.382.224-.751.422Q241.985-8.7,241.734-8.583Zm3.23-.4q-.936-.079-.521-.791a5.5,5.5,0,0,1,1.365-1.463,7.447,7.447,0,0,1,2.2-1.266q.989-.316.666,1.009a2.886,2.886,0,0,1-1.668,1.971,7.8,7.8,0,0,1-.982.4A2.48,2.48,0,0,1,244.964-8.978Zm-6.17,7.923q-.686.092-.547-.442a1.253,1.253,0,0,1,.864-.811,2.226,2.226,0,0,0,1.859-.962,3.42,3.42,0,0,0,.8-1.187,9.6,9.6,0,0,1,.541-1.266q.29-.554.488-.883a4,4,0,0,1,2.1-1.259q1.694-.587,2.01-.191.079.119-.145.257a2.093,2.093,0,0,0-.382.3,5.53,5.53,0,0,0-1,1.45,5.675,5.675,0,0,0-.567,1.72,2.271,2.271,0,0,0,.04,1.167q.158.343.778.132.514-.145,1.925-1.9.264-.277.343-.04t-.982,1.6a24.82,24.82,0,0,1-2.1,2.38A3.167,3.167,0,0,1,242.565.026a1.293,1.293,0,0,1-1.332-1.371,7.834,7.834,0,0,1,.079-1.305q.026-.264-.171-.066A4.974,4.974,0,0,1,238.794-1.055Z" data-name="Path 4636" transform="translate(1023 241)"/></g></g></svg>