<svg xmlns="http://www.w3.org/2000/svg" width="13.017" height="11.036" viewBox="0 0 13.017 11.036">
  <g id="Layer_2" data-name="Layer 2" transform="translate(0 0)">
    <g id="Layer_1" data-name="Layer 1">
      <path id="Path_53186" data-name="Path 53186" d="M7.33,6.68a.41.41,0,1,0-.13-.56.41.41,0,0,0,.13.56Zm0-.45a.144.144,0,1,0,.04,0Z" fill="#444"/>
      <path id="Path_53187" data-name="Path 53187" d="M7.9,9.2a.41.41,0,1,0-.13-.56.41.41,0,0,0,.13.56Zm0-.45a.137.137,0,1,0,.05,0Z" fill="#444"/>
      <path id="Path_53188" data-name="Path 53188" d="M7.28,8a.41.41,0,1,0-.13-.56A.41.41,0,0,0,7.28,8Zm0-.45a.147.147,0,1,0,.05.01Z" fill="#444"/>
      <path id="Path_53189" data-name="Path 53189" d="M8.64,5.35a.41.41,0,1,0-.56.13.41.41,0,0,0,.56-.13Zm-.17-.11a.53.53,0,1,0,0,.01Z" fill="#444"/>
      <path id="Path_53190" data-name="Path 53190" d="M10.47,4.35A.41.41,0,1,0,11,4.22a.41.41,0,0,0-.53.13Zm.51.32a.082.082,0,1,1,.02,0Z" fill="#444"/>
      <path id="Path_53191" data-name="Path 53191" d="M9.82,4.73a.41.41,0,1,0-.56.13A.41.41,0,0,0,9.82,4.73Zm-.51-.32a.2.2,0,1,1-.029.153A.2.2,0,0,1,9.31,4.41Z" fill="#444"/>
      <path id="Path_53192" data-name="Path 53192" d="M13,6.87a2.89,2.89,0,0,0-.72-1.64.2.2,0,1,0-.3.27h0a2.45,2.45,0,0,1,.26,2.93,2.4,2.4,0,0,1-1.21,1,2.43,2.43,0,0,1-.93.15.107.107,0,0,1-.1-.19l.94-.85a.2.2,0,0,0,0-.29h0a.2.2,0,0,0-.24,0L9.27,9.51a.2.2,0,0,0,0,.29h0L10.71,11h0a.2.2,0,1,0,.23-.33l-.63-.5a.1.1,0,0,1,.05-.18A2.82,2.82,0,0,0,13,6.87Z" fill="#444"/>
      <path id="Path_53193" data-name="Path 53193" d="M.92,9.76a.24.24,0,0,1-.24-.24V3.3a.24.24,0,0,1,.24-.23H10.3a.24.24,0,0,1,.24.24v.36a3.5,3.5,0,0,1,.68.12c0-.36,0-1.3,0-1.78A.78.78,0,0,0,11,1.37a.92.92,0,0,0-.71-.15L4.12,1.16,3.3.08h0L.93,0A.92.92,0,0,0,0,.91V9.48a.92.92,0,0,0,.92.92h8a3.52,3.52,0,0,1-1-.67ZM.69.92A.24.24,0,0,1,.93.67h2l.85,1.11,6.54.05h0a.31.31,0,0,1,.19,0,.19.19,0,0,1,0,.12v.43a.9.9,0,0,0-.27,0H.92a.89.89,0,0,0-.23,0Z" fill="#444"/>
    </g>
  </g>
</svg>
