<svg xmlns="http://www.w3.org/2000/svg" width="17.49" height="17.49" viewBox="0 0 17.49 17.49">
  <g id="Layer_2" data-name="Layer 2" transform="translate(0 -1)">
    <g id="Layer_1" data-name="Layer 1" transform="translate(0 1)">
      <path id="Path_53143" data-name="Path 53143" d="M8,.67A3.07,3.07,0,0,0,5,3.78,3.07,3.07,0,0,0,8,6.9a3.07,3.07,0,0,0,3-3.11A3.07,3.07,0,0,0,8,.67ZM8,6.32A2.49,2.49,0,0,1,5.58,3.78,2.49,2.49,0,0,1,8,1.25a2.49,2.49,0,0,1,2.43,2.54A2.49,2.49,0,0,1,8,6.32Z" fill="#444"/>
      <path id="Path_53144" data-name="Path 53144" d="M12.65,10.44a3.13,3.13,0,1,0,3,3.13A3.08,3.08,0,0,0,12.65,10.44Zm0,5.68a2.55,2.55,0,1,1,2.45-2.55,2.5,2.5,0,0,1-2.45,2.55Z" fill="#444"/>
      <path id="Path_53145" data-name="Path 53145" d="M13.82,13l-1.4,1.3-.86-.79a.29.29,0,1,0-.39.43l1.05,1a.29.29,0,0,0,.39,0l1.6-1.48a.29.29,0,0,0-.39-.43Z" fill="#444"/>
      <rect id="Rectangle_1069" data-name="Rectangle 1069" width="17.49" height="17.49" fill="none"/>
      <path id="Path_53146" data-name="Path 53146" d="M13.14,9.6V9.45h0L13,9a.74.74,0,0,0-.26-.46l-.15-.09-.2-.06-.72-.16-.26-.06L10.85,8h-.13l-.36-.07a1.62,1.62,0,0,1-.42-.14,2.17,2.17,0,0,1-.32-.28l-.11-.1h0a.36.36,0,0,0-.49,0h0l-.42.45-.05.05L8.3,8a1.28,1.28,0,0,0-.18.22A1.37,1.37,0,0,0,8,8.73a1.37,1.37,0,0,0-.16-.53A1.28,1.28,0,0,0,7.63,8l-.07-.1-.05-.05L7.09,7.4h0a.36.36,0,0,0-.49,0h0l-.11.1A2.17,2.17,0,0,1,6,7.79a1.62,1.62,0,0,1-.42.14c-.44.08-.89.18-1.32.27l-.72.16-.2.06A.7.7,0,0,0,2.93,9l-.13.6c-.14.62-.33,1.46-.51,2.24s-.29,1.35-.4,1.72a.36.36,0,0,0,0,.25v.07a.36.36,0,0,0,.1.11l2.56,2a.36.36,0,0,0,.22.08h4.7a.365.365,0,0,0,0-.73H5L2.64,13.53c.08-.38.21-.93.35-1.52.18-.78.37-1.62.51-2.25l.14-.64h0l.73-.16c.42-.09.86-.19,1.3-.27a2.28,2.28,0,0,0,.62-.22,2.14,2.14,0,0,0,.41-.33l.3.22H7a1.45,1.45,0,0,1,.15.17.93.93,0,0,1,.1.47c-.15,1.5-.3,2.83-.44,4.34a1,1,0,0,0,0,.17.86.86,0,0,0,0,.15,1,1,0,0,0,.07.17v.07c.17.21.35.41.54.61l.22.24a.35.35,0,0,0,.24.11H8a.35.35,0,0,0,.24-.11l.22-.24c.19-.21.37-.41.54-.61v-.07a1,1,0,0,0,.07-.17.86.86,0,0,0,0-.15,1,1,0,0,0,0-.17C9,11.85,8.84,10.52,8.69,9a.93.93,0,0,1,.06-.45A1.46,1.46,0,0,1,8.9,8.4h0l.24-.26a2.14,2.14,0,0,0,.41.33,2.28,2.28,0,0,0,.62.22l.62.12h.2l.49.11.73.16h0l.14.64a.363.363,0,0,0,.71-.15ZM8.39,13.5,8,14l-.42-.47a.26.26,0,0,1,0-.11c.14-1.5.28-3,.43-4.46h0c.15,1.5.29,3,.43,4.46A.26.26,0,0,1,8.39,13.5Z" fill="#444"/>
    </g>
  </g>
</svg>
