<svg xmlns="http://www.w3.org/2000/svg" viewBox="0 0 23.79 30"><defs><style>.cls-1{fill:#915715;}</style></defs><title>Cấp mã HS</title><g id="Layer_2" data-name="Layer 2"><g id="Layer_1-2" data-name="Layer 1"><path class="cls-1" d="M22.55,0l-.29,0H1.7A1.65,1.65,0,0,0,0,1.58V28.42A1.65,1.65,0,0,0,1.7,30H22.07a1.65,1.65,0,0,0,1.7-1.58v-.53h0V1.5A1.5,1.5,0,0,0,22.55,0Zm.21,28.4a.66.66,0,0,1-.69.64H1.7A.66.66,0,0,1,1,28.42V1.58A.66.66,0,0,1,1.7.94H22.07a.66.66,0,0,1,.69.64V28.42Z"/><path class="cls-1" d="M20.05,22.05H3.75a.5.5,0,0,0,0,1h16.3a.5.5,0,0,0,0-1Z"/><path class="cls-1" d="M20.05,19.08H3.75a.5.5,0,0,0,0,1h16.3a.5.5,0,0,0,0-1Z"/><path class="cls-1" d="M20.05,25.05H3.75a.5.5,0,0,0,0,1h16.3a.5.5,0,0,0,0-1Z"/><path class="cls-1" d="M9.8,5.17H6.4v3.4H9.8ZM9.12,7.89h-2v-2h2Z"/><rect class="cls-1" x="7.76" y="6.53" width="0.68" height="0.68"/><path class="cls-1" d="M17.28,5.17h-3.4v3.4h3.4ZM16.6,7.89h-2v-2h2Z"/><rect class="cls-1" x="15.24" y="6.53" width="0.68" height="0.68"/><path class="cls-1" d="M9.8,12.64H6.4V16H9.8Zm-.68,2.72h-2v-2h2Z"/><rect class="cls-1" x="7.76" y="14" width="0.68" height="0.68"/><rect class="cls-1" x="11.84" y="5.17" width="1.36" height="0.68"/><polygon class="cls-1" points="11.84 7.89 12.52 7.89 12.52 7.21 13.2 7.21 13.2 6.53 11.16 6.53 11.16 5.85 10.48 5.85 10.48 6.53 10.48 6.87 10.48 7.21 11.84 7.21 11.84 7.89"/><rect class="cls-1" x="10.48" y="7.89" width="0.68" height="0.68"/><polygon class="cls-1" points="13.2 8.56 12.52 8.56 12.52 9.24 10.48 9.24 10.48 9.93 13.2 9.93 13.2 8.56"/><polygon class="cls-1" points="7.08 11.28 7.76 11.28 7.76 10.6 7.08 10.6 7.08 9.24 6.4 9.24 6.4 11.96 7.08 11.96 7.08 11.28"/><rect class="cls-1" x="7.76" y="9.24" width="0.68" height="0.68"/><polygon class="cls-1" points="9.12 11.28 9.46 11.28 9.8 11.28 10.48 11.28 10.48 11.96 11.84 11.96 11.84 11.28 11.16 11.28 11.16 10.6 9.8 10.6 9.8 9.24 9.12 9.24 9.12 10.6 8.44 10.6 8.44 11.96 9.12 11.96 9.12 11.28"/><rect class="cls-1" x="12.52" y="10.6" width="0.68" height="1.36"/><polygon class="cls-1" points="12.52 15.36 13.88 15.36 13.88 14.68 12.52 14.68 12.52 12.64 10.48 12.64 10.48 13.32 11.84 13.32 11.84 15.36 10.48 15.36 10.48 16.04 12.52 16.04 12.52 15.36"/><rect class="cls-1" x="10.48" y="14" width="0.68" height="0.68"/><rect class="cls-1" x="13.2" y="12.64" width="0.68" height="1.36"/><polygon class="cls-1" points="16.6 14 14.56 14 14.56 16.04 15.24 16.04 15.24 14.68 16.6 14.68 16.6 14"/><rect class="cls-1" x="15.92" y="15.36" width="1.36" height="0.68"/><rect class="cls-1" x="16.6" y="12.64" width="0.68" height="0.68"/><polygon class="cls-1" points="14.56 13.32 15.24 13.32 15.24 11.28 13.88 11.28 13.88 11.96 14.56 11.96 14.56 13.32"/><polygon class="cls-1" points="16.6 9.93 17.28 9.93 17.28 9.24 15.92 9.24 15.92 9.93 15.24 9.93 15.24 9.24 14.56 9.24 14.56 9.93 13.88 9.93 13.88 10.6 16.6 10.6 16.6 9.93"/><rect class="cls-1" x="15.92" y="11.28" width="1.36" height="0.68"/></g></g></svg>