<svg xmlns="http://www.w3.org/2000/svg" width="13.36" height="13.36" viewBox="0 0 13.36 13.36">
  <g id="Layer_2" data-name="Layer 2" transform="translate(0 0)">
    <g id="Layer_1" data-name="Layer 1">
      <path id="Path_53179" data-name="Path 53179" d="M6.68,13.36a6.68,6.68,0,1,1,6.68-6.68,6.68,6.68,0,0,1-6.68,6.68Zm0-12.27a5.6,5.6,0,1,0,0-.01Z" fill="#444"/>
      <path id="Path_53180" data-name="Path 53180" d="M4.39,9.36a.43.43,0,0,1-.3-.74l4.57-4.5a.435.435,0,0,1,.61.62L4.7,9.23A.43.43,0,0,1,4.39,9.36Z" fill="#444"/>
      <path id="Path_53181" data-name="Path 53181" d="M9,9.36a.43.43,0,0,1-.3-.12L4.09,4.74a.435.435,0,1,1,.61-.62l4.57,4.5a.43.43,0,0,1-.3.74Z" fill="#444"/>
    </g>
  </g>
</svg>
