<svg xmlns="http://www.w3.org/2000/svg" width="15.354" height="16.337" viewBox="0 0 15.354 16.337"><g id="Layer_2" data-name="Layer 2" transform="translate(0 -0.043)"><g id="Layer_1" data-name="Layer 1"><path id="Path_53136" fill="#444" d="M13.68,7.74a3.81,3.81,0,0,0-2.07-.61h-.43a3.82,3.82,0,0,0-2.44,6.26,3.59,3.59,0,0,0,.9.77,3.82,3.82,0,0,0,4.08-6.45Zm-2.07,6.41a3.17,3.17,0,0,1-2-.73A3.21,3.21,0,0,1,9.18,13a3.14,3.14,0,0,1,0-4.11,3.21,3.21,0,0,1,.43-.42,3.191,3.191,0,1,1,2,5.67Z" data-name="Path 53136"/><path id="Path_53137" fill="#444" d="M5.52,3.54a.35.35,0,0,0,.35-.35.34.34,0,0,0-.35-.35H2.41a.35.35,0,0,0-.35.35.34.34,0,0,0,.35.35Z" data-name="Path 53137"/><path id="Path_53138" fill="#444" d="M2.41,12.09a.355.355,0,1,0,0,.71H5.52a.355.355,0,1,0,0-.71Z" data-name="Path 53138"/><path id="Path_53139" fill="#444" d="M10.93,15.71H2A1.34,1.34,0,0,1,.68,14.38V2A1.34,1.34,0,0,1,2,.66H9.2v3.1a.34.34,0,0,0,.34.34h2.73V5.92a.34.34,0,0,0,.68,0V3.64h0V3.59L9.81.11,9.74.05h0a.34.34,0,0,0-.14,0H2A2,2,0,0,0,0,2V14.38a2,2,0,0,0,2,2h8.92a.34.34,0,0,0,.34-.34.33.33,0,0,0-.33-.33ZM9.88,1.21l2,2.23h-2Z" data-name="Path 53139"/><rect id="Rectangle_1065" width="7.1" height=".66" fill="#444" data-name="Rectangle 1065" rx=".33" transform="translate(2.05 5.73)"/><rect id="Rectangle_1066" width="5.18" height=".66" fill="#444" data-name="Rectangle 1066" rx=".33" transform="translate(2.05 8.8)"/><rect id="Rectangle_1067" width=".72" height="3.19" fill="#444" data-name="Rectangle 1067" rx=".26" transform="translate(10.48 9.37)"/><rect id="Rectangle_1068" width=".72" height="3.19" fill="#444" data-name="Rectangle 1068" rx=".26" transform="translate(11.91 9.37)"/></g></g></svg>