<svg xmlns="http://www.w3.org/2000/svg" xmlns:xlink="http://www.w3.org/1999/xlink" width="11" height="12" viewBox="0 0 11 12"><defs><clipPath id="clip-icon_ketxuat"><rect width="11" height="12"/></clipPath></defs><g id="icon_ketxuat" clip-path="url(#clip-icon_ketxuat)"><rect width="11" height="12" fill="none"/><g id="Layer_2" data-name="Layer 2" transform="translate(0 -0.002)"><g id="Layer_1" data-name="Layer 1"><path id="Path_53113" fill="#915715" d="M10.54,4.4a.29.29,0,0,0,.11-.23.3.3,0,0,0-.11-.23L5.84.07A.3.3,0,0,0,5.35.3v2C0,2.53,0,6.61,0,8.6v.24a.3.3,0,0,0,.22.29H.3A.3.3,0,0,0,.56,9c1.59-2.83,2.9-3,4.79-3V8a.3.3,0,0,0,.49.23Zm-.66-.23L6,7.43V5.73a.308.308,0,0,0-.3-.3h0c-2.08,0-3.52.13-5,2.35A6.24,6.24,0,0,1,1.22,5C2,3.63,3.42,2.95,5.65,2.93a.3.3,0,0,0,.29-.3V.93Z" data-name="Path 53113"/><path id="Path_53114" fill="#915715" d="M.3,11.91h10a.3.3,0,0,0,.3-.3V6.12a.3.3,0,0,0-.6,0v5.2H.6v-1a.3.3,0,1,0-.6,0v1.31A.3.3,0,0,0,.3,11.91Z" data-name="Path 53114"/></g></g></g></svg>