<svg xmlns="http://www.w3.org/2000/svg" xmlns:xlink="http://www.w3.org/1999/xlink" width="13" height="12" viewBox="0 0 13 12">
  <defs>
    <clipPath id="clip-icon_sua">
      <rect width="13" height="12"/>
    </clipPath>
  </defs>
  <g id="icon_sua" clip-path="url(#clip-icon_sua)">
    <rect width="13" height="12" fill="none"/>
    <g id="Layer_2" data-name="Layer 2" transform="translate(1 -0.004)">
      <g id="Layer_1" data-name="Layer 1">
        <path id="Path_53134" data-name="Path 53134" d="M9.83,6a.43.43,0,0,0-.43.43V10.7a.43.43,0,0,1-.43.43H1.28a.43.43,0,0,1-.43-.43V2.14a.43.43,0,0,1,.43-.43H6.41a.43.43,0,1,0,0-.85H1.28A1.28,1.28,0,0,0,0,2.14v8.54A1.28,1.28,0,0,0,1.28,12H9a1.28,1.28,0,0,0,1.28-1.28V6.41A.43.43,0,0,0,9.83,6Z" fill="#915715"/>
        <path id="Path_53135" data-name="Path 53135" d="M11.48.48a1.64,1.64,0,0,0-2.31,0L3.54,6.11a.43.43,0,0,0-.1.17L2.59,8.84a.43.43,0,0,0,.27.54L3,9.4h.14L5.7,8.55a.43.43,0,0,0,.17-.1L11.5,2.82A1.64,1.64,0,0,0,11.48.48Zm-.6,1.71L5.33,7.74,3.67,8.3l.55-1.66L9.77,1.09a.78.78,0,1,1,1.1,1.1Z" fill="#915715"/>
      </g>
    </g>
  </g>
</svg>
