<svg xmlns="http://www.w3.org/2000/svg" xmlns:xlink="http://www.w3.org/1999/xlink" width="12" height="13" viewBox="0 0 12 13">
  <defs>
    <clipPath id="clip-Icon_in">
      <rect width="12" height="13"/>
    </clipPath>
  </defs>
  <g id="Icon_in" clip-path="url(#clip-Icon_in)">
    <rect width="12" height="13" fill="none"/>
    <g id="Layer_2" data-name="Layer 2">
      <g id="Layer_1" data-name="Layer 1">
        <path id="Path_53108" data-name="Path 53108" d="M10.87,4.14h-.12a.31.31,0,0,0-.18,0,.315.315,0,0,0-.11.52.28.28,0,0,0,.11.07h.3A.33.33,0,0,0,11,4.41a.33.33,0,0,0-.09-.23Z" fill="#915715"/>
        <path id="Path_53109" data-name="Path 53109" d="M9.9,4.33h0V4.25h0a.33.33,0,0,0-.35-.07.345.345,0,0,0-.2.3.32.32,0,0,0,0,.12.27.27,0,0,0,.07.1.3.3,0,0,0,.11.07h.13a.32.32,0,0,0,.22-.09.29.29,0,0,0,.07-.11.32.32,0,0,0,0-.12Zm-.08,0Z" fill="#915715"/>
        <path id="Path_53110" data-name="Path 53110" d="M11.24,2.89H9.61V.32A.32.32,0,0,0,9.29,0H2.69a.32.32,0,0,0-.32.32V2.89H.75A.75.75,0,0,0,0,3.64V9.11a.75.75,0,0,0,.75.75H2.37v2.63a.32.32,0,0,0,.32.32h6.6a.32.32,0,0,0,.32-.32V9.86h1.62A.75.75,0,0,0,12,9.11V3.64a.75.75,0,0,0-.76-.75ZM9.15,7.45v4.71H2.83V7.45ZM2.83,2.84V.52H9.15V2.84Zm6.9,4.65h.75a.335.335,0,1,0,0-.67h-9a.335.335,0,1,0,0,.67h.75V9.31H.57a.11.11,0,0,1-.1-.11V3.55a.11.11,0,0,1,.11-.11H11.41a.11.11,0,0,1,.11.11V9.2a.11.11,0,0,1-.11.11H9.73Z" fill="#915715"/>
      </g>
    </g>
  </g>
</svg>
