<svg xmlns="http://www.w3.org/2000/svg" xmlns:xlink="http://www.w3.org/1999/xlink" width="14" height="14" viewBox="0 0 14 14"><defs><clipPath id="clip-icon_them"><rect width="14" height="14"/></clipPath></defs><g id="icon_them" clip-path="url(#clip-icon_them)"><rect width="14" height="14" fill="none"/><g id="Layer_2" data-name="Layer 2" transform="translate(0.027 -0.02)"><g id="Layer_1" data-name="Layer 1"><path id="Path_53140" fill="#915715" d="M11.4,11.4a6.68,6.68,0,1,1,0-9.4A6.68,6.68,0,0,1,11.4,11.4ZM2.72,2.72a5.59,5.59,0,1,0,7.91,0,5.59,5.59,0,0,0-7.91,0Z" data-name="Path 53140"/><path id="Path_53141" fill="#915715" d="M7,10.19a.43.43,0,0,1-.74-.31l.05-6.41a.435.435,0,0,1,.87,0l-.1,6.41a.43.43,0,0,1-.08.31Z" data-name="Path 53141"/><path id="Path_53142" fill="#915715" d="M10.19,7a.43.43,0,0,1-.3.13l-6.41.05a.435.435,0,0,1,0-.87l6.41-.05A.43.43,0,0,1,10.2,7Z" data-name="Path 53142"/></g></g></g></svg>