<svg xmlns="http://www.w3.org/2000/svg" xmlns:xlink="http://www.w3.org/1999/xlink" width="14" height="12" viewBox="0 0 14 12">
  <defs>
    <clipPath id="clip-icon_import">
      <rect width="14" height="12"/>
    </clipPath>
  </defs>
  <g id="icon_import" clip-path="url(#clip-icon_import)">
    <rect width="14" height="12" fill="none"/>
    <g id="Layer_2" data-name="Layer 2" transform="translate(0.04)">
      <g id="Layer_1" data-name="Layer 1">
        <path id="Path_53111" data-name="Path 53111" d="M9.86,2.19a.27.27,0,0,0,.27-.27V.27A.27.27,0,0,0,9.86,0H4.13a.27.27,0,0,0-.27.27V1.91a.275.275,0,1,0,.55,0V.55H9.59V1.91a.27.27,0,0,0,.27.28Z" fill="#915715"/>
        <path id="Path_53112" data-name="Path 53112" d="M13.72,9.84h-1V3.55a.27.27,0,0,0-.27-.27h-4V1.91a.27.27,0,0,0-.27-.27H5.77a.27.27,0,0,0-.27.27V3.28h-4a.27.27,0,0,0-.27.27V9.84h-1a.27.27,0,0,0-.27.27A1.91,1.91,0,0,0,1.91,12H5.77a.275.275,0,1,0,0-.55H1.91A1.37,1.37,0,0,1,.57,10.38H13.42a1.37,1.37,0,0,1-1.34,1.09H8.22a.275.275,0,1,0,0,.55h3.85A1.91,1.91,0,0,0,14,10.11a.27.27,0,0,0-.28-.27Zm-8-4.37A.27.27,0,0,0,6,5.19v-3H8v3a.27.27,0,0,0,.27.27h.68L7,8,5.08,5.46ZM12,9.84H2V4.08a.19.19,0,0,1,.19-.19h3.3v1h-1a.27.27,0,0,0-.22.44l2.51,3.3a.27.27,0,0,0,.44,0L9.67,5.36a.27.27,0,0,0-.22-.44h-1V4h3.34a.19.19,0,0,1,.19.19Z" fill="#915715"/>
        <circle id="Ellipse_92" data-name="Ellipse 92" cx="0.27" cy="0.27" r="0.27" transform="translate(6.72 11.48)" fill="#915715"/>
      </g>
    </g>
  </g>
</svg>
