<svg xmlns="http://www.w3.org/2000/svg" viewBox="0 0 26.46 21.52"><defs><style>.cls-1{fill:#915715}</style></defs><title>In Email cấp TK mới</title><g id="Layer_2" data-name="Layer 2"><g id="Layer_1-2" data-name="Layer 1"><path d="M5.47,9s0,0,0,.05h0l0,0H20.93l0,0h0S21,9,21,9s0,0,0-.06h0V.21h0A.22.22,0,0,0,20.8,0H5.67a.23.23,0,0,0-.14.06h0s0,0,0,.07,0,0,0,.06v8.7h0A.19.19,0,0,0,5.47,9ZM7,8.48l4.71-3.65.34.26a2,2,0,0,0,2.43,0l.34-.26,4.74,3.62Zm13.46,0L15.26,4.56,20.42.64ZM19.58.59,14.17,4.48a1.63,1.63,0,0,1-1.89,0L6.88.59ZM6,.64,11.2,4.56,6,8.47Z" class="cls-1"/><path d="M13,20.09a3,3,0,0,0,3.05-3,3,3,0,0,0-.94-2.17h0l-.05,0-.15-.13-.08-.06-.15-.1-.11-.06-.14-.08-.13-.06-.14-.06L14,14.26l-.13,0-.16,0-.13,0-.18,0-.11,0-.3,0-.3,0-.11,0-.18,0-.13,0-.16,0-.13,0-.14.05-.14.06-.13.06-.14.08-.11.06-.15.1-.08.06-.15.13-.05,0h0a3,3,0,0,0-.09,4.24A3.07,3.07,0,0,0,13,20.09Zm-1.72-4.94.12-.1.07-.05.12-.08.09-.05.12-.06.11-.05.11,0,.12,0,.11,0,.13,0,.11,0,.16,0h.69l.16,0,.11,0,.13,0,.11,0,.12,0,.11,0,.11.05.12.06.09.05.12.08.07.05.12.1,0,0a1.72,1.72,0,0,1-1.19,1.61,1.31,1.31,0,0,0-1.11,0,1.72,1.72,0,0,1-1.19-1.61Zm2.48,3.22a.88.88,0,0,1-1.19.33.85.85,0,0,1-.33-1.17.86.86,0,0,1,.33-.33h0l.18-.08h.48l.18.08h0A.85.85,0,0,1,13.73,18.37ZM10.84,15.6A2.16,2.16,0,0,0,12,17.07a1.27,1.27,0,0,0,.08,1.82,1.32,1.32,0,0,0,1.85-.08,1.27,1.27,0,0,0,0-1.74A2.16,2.16,0,0,0,15.1,15.6a2.55,2.55,0,0,1-.62,3.59,2.64,2.64,0,0,1-3.65-.61,2.53,2.53,0,0,1,0-3Z" class="cls-1"/><path d="M24.39,3.33H21.55v.83h2.84A1.24,1.24,0,0,1,25.63,5.4v9.1a1.24,1.24,0,0,1-1.24,1.24H20.26V13.26h.83a.41.41,0,1,0,0-.83H5.38a.41.41,0,1,0,0,.83H6.2v2.48H2.07A1.24,1.24,0,0,1,.83,14.5V5.4A1.24,1.24,0,0,1,2.07,4.16H4.91V3.33H2.07A2.07,2.07,0,0,0,0,5.4v9.1a2.07,2.07,0,0,0,2.07,2.07H6.2v3.72a1.24,1.24,0,0,0,1.24,1.24H19a1.24,1.24,0,0,0,1.24-1.24V16.56h4.13a2.07,2.07,0,0,0,2.07-2.07V5.4A2.07,2.07,0,0,0,24.39,3.33Zm-5,17a.41.41,0,0,1-.41.41H7.44A.41.41,0,0,1,7,20.28v-7h12.4Z" class="cls-1"/><path d="M24.58,6.05a.92.92,0,1,0-.92.92A.92.92,0,0,0,24.58,6.05Zm-1.22,0a.31.31,0,1,1,.31.31A.31.31,0,0,1,23.36,6.05Z" class="cls-1"/></g></g></svg>