<svg xmlns="http://www.w3.org/2000/svg" xmlns:xlink="http://www.w3.org/1999/xlink" width="12" height="12" viewBox="0 0 12 12">
  <defs>
    <clipPath id="clip-icon_xemchitiet">
      <rect width="12" height="12"/>
    </clipPath>
  </defs>
  <g id="icon_xemchitiet" clip-path="url(#clip-icon_xemchitiet)">
    <rect width="12" height="12" fill="none"/>
    <g id="Layer_2" data-name="Layer 2">
      <g id="Layer_1" data-name="Layer 1">
        <path id="Path_53170" data-name="Path 53170" d="M.55,5.91a5.36,5.36,0,1,1,5.36,5.36A5.36,5.36,0,0,1,.55,5.91ZM0,5.91A5.91,5.91,0,1,0,5.91,0,5.91,5.91,0,0,0,0,5.91Z" fill="#915715"/>
        <path id="Path_53171" data-name="Path 53171" d="M4,4.6a6.06,6.06,0,0,0-.53.4,7.27,7.27,0,0,0-.95.91,7.27,7.27,0,0,0,.95.91A6.06,6.06,0,0,0,4,7.18,2.33,2.33,0,0,1,4,4.6Z" fill="#915715"/>
        <path id="Path_53172" data-name="Path 53172" d="M8.41,5a6.06,6.06,0,0,0-.52-.37,2.33,2.33,0,0,1,0,2.57,6.06,6.06,0,0,0,.52-.37,7.26,7.26,0,0,0,.95-.91A7.27,7.27,0,0,0,8.41,5Z" fill="#915715"/>
        <path id="Path_53173" data-name="Path 53173" d="M5.94,4A1.93,1.93,0,1,0,7.87,5.89,1.93,1.93,0,0,0,5.94,4Zm0,3A1.09,1.09,0,1,1,7,5.89,1.09,1.09,0,0,1,5.94,7Z" fill="#915715"/>
        <path id="Path_53174" data-name="Path 53174" d="M5.94,5.2a.69.69,0,1,0,.69.69A.69.69,0,0,0,5.94,5.2Z" fill="#915715"/>
        <path id="Path_53175" data-name="Path 53175" d="M6.45,2.78l-.07.4A2.75,2.75,0,0,1,8,4l.3-.27a3.16,3.16,0,0,0-1.85-.95Z" fill="#915715"/>
        <path id="Path_53176" data-name="Path 53176" d="M5.42,2.78a3.16,3.16,0,0,0-1.81,1l.3.27a2.75,2.75,0,0,1,1.58-.86Z" fill="#915715"/>
        <path id="Path_53177" data-name="Path 53177" d="M8,7.74a2.75,2.75,0,0,1-1.58.86l.07.4A3.16,3.16,0,0,0,8.26,8Z" fill="#915715"/>
        <path id="Path_53178" data-name="Path 53178" d="M3.91,7.74,3.61,8A3.16,3.16,0,0,0,5.42,9l.07-.4a2.75,2.75,0,0,1-1.58-.86Z" fill="#915715"/>
      </g>
    </g>
  </g>
</svg>
