<svg xmlns="http://www.w3.org/2000/svg" xmlns:xlink="http://www.w3.org/1999/xlink" width="13" height="14" viewBox="0 0 13 14"><defs><clipPath id="clip-icon_xoa2"><rect width="13" height="14"/></clipPath></defs><g id="icon_xoa2" clip-path="url(#clip-icon_xoa2)"><rect width="13" height="14" fill="none"/><g id="Layer_2" data-name="Layer 2" transform="translate(1)"><g id="Layer_1" data-name="Layer 1"><path id="Path_53182" fill="#915715" d="M10.07,1.71H7.71V1.29A1.29,1.29,0,0,0,6.43,0H4.71A1.29,1.29,0,0,0,3.43,1.29v.43H1.07A1.07,1.07,0,0,0,0,2.78v1.5a.43.43,0,0,0,.43.43H.66L1,12.48A1.28,1.28,0,0,0,2.28,13.7h6.5a1.28,1.28,0,0,0,1.28-1.22l.37-7.77h.23a.43.43,0,0,0,.43-.43V2.78a1.07,1.07,0,0,0-1.07-1.07ZM4.28,1.29A.43.43,0,0,1,4.71.86H6.43a.43.43,0,0,1,.43.43v.43H4.28ZM.86,2.78a.21.21,0,0,1,.21-.21h9a.21.21,0,0,1,.21.21V3.86H.86Zm8.39,9.66a.43.43,0,0,1-.43.41H2.32a.43.43,0,0,1-.43-.41L1.52,4.71h8.1Z" data-name="Path 53182"/><path id="Path_53183" fill="#915715" d="M5.57,12A.43.43,0,0,0,6,11.57V6a.43.43,0,1,0-.86,0v5.57A.43.43,0,0,0,5.57,12Z" data-name="Path 53183"/><path id="Path_53184" fill="#915715" d="M7.71,12a.43.43,0,0,0,.43-.43V6a.43.43,0,1,0-.86,0v5.57a.43.43,0,0,0,.43.43Z" data-name="Path 53184"/><path id="Path_53185" fill="#915715" d="M3.43,12a.43.43,0,0,0,.43-.43V6A.43.43,0,1,0,3,6v5.57A.43.43,0,0,0,3.43,12Z" data-name="Path 53185"/></g></g></g></svg>