<svg xmlns="http://www.w3.org/2000/svg" xmlns:xlink="http://www.w3.org/1999/xlink" width="14" height="15" viewBox="0 0 14 15">
  <defs>
    <clipPath id="clip-icon_tuchoi">
      <rect width="14" height="15"/>
    </clipPath>
  </defs>
  <g id="icon_tuchoi" clip-path="url(#clip-icon_tuchoi)">
    <rect width="14" height="15" fill="none"/>
    <g id="Layer_2" data-name="Layer 2" transform="translate(1)">
      <g id="Layer_1" data-name="Layer 1">
        <path id="Path_53161" data-name="Path 53161" d="M3.27,2.78H6.39a.35.35,0,0,0,.35-.35.34.34,0,0,0-.35-.35H3.27a.35.35,0,0,0-.35.35.34.34,0,0,0,.35.35Z" fill="#915715"/>
        <path id="Path_53162" data-name="Path 53162" d="M11,11H3.27a.355.355,0,1,0,0,.71H11A.355.355,0,1,0,11,11Z" fill="#915715"/>
        <path id="Path_53163" data-name="Path 53163" d="M12.88,3.17h0l-2.67-3h-.06A.29.29,0,0,0,10,0H3.57A2,2,0,0,0,1.63,1.94V12.51a1.76,1.76,0,0,0,1.75,1.75h8.14a1.38,1.38,0,0,0,1.38-1.38V3.28A.747.747,0,0,1,12.88,3.17ZM10.23,1.06,12,3H10.42a.19.19,0,0,1-.19-.19Zm2.08,11.71a.91.91,0,0,1-.91.91h-8a1.16,1.16,0,0,1-1.16-1.16V1.74A1.16,1.16,0,0,1,3.38.57H9.46a.19.19,0,0,1,.19.19V3.28a.29.29,0,0,0,.3.29h2.19a.19.19,0,0,1,.19.19Z" fill="#915715"/>
        <path id="Path_53164" data-name="Path 53164" d="M1,13.28a1.13,1.13,0,0,1-.42-.88V1.82a1.13,1.13,0,0,1,.56-1A2,2,0,0,1,1.92.11,1.93,1.93,0,0,0,0,2V12.41a1.75,1.75,0,0,0,1.75,1.72h0A1.79,1.79,0,0,1,1,13.28Z" fill="#915715"/>
        <path id="Path_53165" data-name="Path 53165" d="M5,4.63A3.29,3.29,0,0,0,4.62,9.3a3.09,3.09,0,0,0,.78.7A3.3,3.3,0,1,0,7.13,3.9H6.76A3.28,3.28,0,0,0,5,4.63ZM7.1,9.86A2.72,2.72,0,0,1,4.45,7.17,2.62,2.62,0,0,1,4.9,5.71L9.06,9a2.68,2.68,0,0,1-1.93.86Zm0-5.37A2.69,2.69,0,0,1,9.36,8.67L5.21,5.33a2.71,2.71,0,0,1,.24-.24,2.66,2.66,0,0,1,1.68-.61Z" fill="#915715"/>
        <path id="Path_53166" data-name="Path 53166" d="M3.27,8.5a.355.355,0,0,0,0,.71H4a3.64,3.64,0,0,1-.36-.71Z" fill="#915715"/>
        <path id="Path_53167" data-name="Path 53167" d="M11,8.5h-.48a3.64,3.64,0,0,1-.36.71H11a.355.355,0,1,0,0-.71Z" fill="#915715"/>
        <path id="Path_53168" data-name="Path 53168" d="M11,6.72A.36.36,0,0,0,11,6h-.43a3.62,3.62,0,0,1,.16.71Z" fill="#915715"/>
        <path id="Path_53169" data-name="Path 53169" d="M3.27,6a.355.355,0,1,0,0,.71h.19A3.63,3.63,0,0,1,3.62,6Z" fill="#915715"/>
      </g>
    </g>
  </g>
</svg>
