<svg xmlns="http://www.w3.org/2000/svg" viewBox="0 0 354.76 214.38"><defs><style>.cls-1{fill:#915715;}</style></defs><g id="Layer_2" data-name="Layer 2"><g id="Capa_1" data-name="Capa 1"><path class="cls-1" d="M90.21,91.69h9a3,3,0,0,0,3-3V84.06h65.66a7.7,7.7,0,0,0,7.81-7.27,7.5,7.5,0,0,0-7.5-7.73H94.71a7.5,7.5,0,0,0-7.5,7.5V88.69A3,3,0,0,0,90.21,91.69Z"/><path class="cls-1" d="M352,101.36,228.81,1.67a7.5,7.5,0,0,0-9.93.43,7.66,7.66,0,0,0-2.29,5.61V76.22a7.73,7.73,0,0,0,7.3,7.84,7.5,7.5,0,0,0,7.7-7.5V23.29s0,0,.06,0L335.3,107.16s0,0,0,.06L231.65,191.11a0,0,0,0,1-.06,0V137.85a7.54,7.54,0,0,0-7.54-7.54H102.25s0,0,0,0v-4.59a3,3,0,0,0-3-3h-9a3,3,0,0,0-3,3v4.6H42.59a7.5,7.5,0,0,0,0,15H94.37l.38,0h121.8a0,0,0,0,1,0,0v61.33a7.48,7.48,0,0,0,7.5,7.7,7.5,7.5,0,0,0,4.72-1.67L352,113a7.49,7.49,0,0,0,0-11.66Z"/><path class="cls-1" d="M158.05,107.19a7.5,7.5,0,0,0-7.5-7.5H23.88a7.5,7.5,0,1,0,0,15H150.55A7.5,7.5,0,0,0,158.05,107.19Z"/><path class="cls-1" d="M57.16,75.59a7.5,7.5,0,0,0-7.5-7.5H7.5a7.5,7.5,0,0,0,0,15H49.66A7.5,7.5,0,0,0,57.16,75.59Z"/></g></g></svg>