<svg xmlns="http://www.w3.org/2000/svg" xmlns:xlink="http://www.w3.org/1999/xlink" width="17" height="17" viewBox="0 0 17 17">
  <defs>
    <clipPath id="clip-icon_trinhpheduyet">
      <rect width="17" height="17"/>
    </clipPath>
  </defs>
  <g id="icon_trinhpheduyet" clip-path="url(#clip-icon_trinhpheduyet)">
    <rect width="17" height="17" fill="none"/>
    <g id="Layer_2" data-name="Layer 2" transform="translate(1 -0.043)">
      <g id="Layer_1" data-name="Layer 1">
        <path id="Path_53147" data-name="Path 53147" d="M13.91,12.05a.48.48,0,1,0,.67-.1.48.48,0,0,0-.67.1Zm.53.09a.1.1,0,1,0,0,.01Z" fill="#915715"/>
        <path id="Path_53148" data-name="Path 53148" d="M13.56,9.7a.48.48,0,1,0-.1-.67.48.48,0,0,0,.1.67ZM14,9.12a.24.24,0,1,1-.181-.047A.24.24,0,0,1,14,9.12Z" fill="#915715"/>
        <path id="Path_53149" data-name="Path 53149" d="M14.18,11.15a.48.48,0,1,0-.1-.67.48.48,0,0,0,.1.67Zm.43-.58a.24.24,0,1,1-.181-.047.24.24,0,0,1,.181.047Z" fill="#915715"/>
        <path id="Path_53150" data-name="Path 53150" d="M13.58,13.31a.48.48,0,1,0,.1.67.48.48,0,0,0-.1-.67Zm-.43.58a.24.24,0,1,1,.181.047.24.24,0,0,1-.181-.047Z" fill="#915715"/>
        <path id="Path_53151" data-name="Path 53151" d="M10.56,13.76a.48.48,0,1,0,.1.67.48.48,0,0,0-.1-.67Zm-.43.58a.24.24,0,1,1,.181.047A.24.24,0,0,1,10.13,14.34Z" fill="#915715"/>
        <path id="Path_53152" data-name="Path 53152" d="M11.56,14.71a.48.48,0,1,0-.1-.67.48.48,0,0,0,.1.67Zm.43-.58a.341.341,0,1,1,.01,0Z" fill="#915715"/>
        <path id="Path_53153" data-name="Path 53153" d="M7.93,11.22a3.43,3.43,0,0,0,.7,2A.24.24,0,0,0,9,12.93H9A2.91,2.91,0,0,1,9,9.45a2.85,2.85,0,0,1,1.52-1.06A2.89,2.89,0,0,1,11.6,8.3a.12.12,0,0,1,.06.21l-1.18.92a.24.24,0,0,0,0,.34h0a.24.24,0,0,0,.29,0l1.77-1.38a.24.24,0,0,0,0-.34h0L11,6.59h0a.241.241,0,1,0-.31.37l.7.65a.12.12,0,0,1-.08.21,3.34,3.34,0,0,0-3.33,3.42Z" fill="#915715"/>
        <path id="Path_53154" data-name="Path 53154" d="M5.52,3.54a.35.35,0,0,0,.35-.35.34.34,0,0,0-.35-.35H2.41a.35.35,0,0,0-.35.35.34.34,0,0,0,.35.35Z" fill="#915715"/>
        <path id="Path_53155" data-name="Path 53155" d="M2.41,12.09a.355.355,0,1,0,0,.71H5.52a.355.355,0,1,0,0-.71Z" fill="#915715"/>
        <path id="Path_53156" data-name="Path 53156" d="M10.93,15.71H2A1.34,1.34,0,0,1,.68,14.38V2A1.34,1.34,0,0,1,2,.66H9.2v3.1a.34.34,0,0,0,.34.34h2.73V5.92a.34.34,0,0,0,.68,0V3.64h0V3.59L9.81.11,9.74.05h0a.34.34,0,0,0-.14,0H2A2,2,0,0,0,0,2V14.38a2,2,0,0,0,2,2h8.92a.34.34,0,0,0,.34-.34.33.33,0,0,0-.33-.33ZM9.88,1.21l2,2.23h-2Z" fill="#915715"/>
        <rect id="Rectangle_1070" data-name="Rectangle 1070" width="7.1" height="0.66" rx="0.33" transform="translate(2.05 5.73)" fill="#915715"/>
        <rect id="Rectangle_1071" data-name="Rectangle 1071" width="5.18" height="0.66" rx="0.33" transform="translate(2.05 8.8)" fill="#915715"/>
      </g>
    </g>
  </g>
</svg>
