<svg xmlns="http://www.w3.org/2000/svg" xmlns:xlink="http://www.w3.org/1999/xlink" width="16" height="17" viewBox="0 0 16 17">
  <defs>
    <clipPath id="clip-icon_pheduyetvaky">
      <rect width="16" height="17"/>
    </clipPath>
  </defs>
  <g id="icon_pheduyetvaky" clip-path="url(#clip-icon_pheduyetvaky)">
    <rect width="16" height="17" fill="none"/>
    <g id="Layer_2" data-name="Layer 2" transform="translate(0 -0.043)">
      <g id="Layer_1" data-name="Layer 1">
        <path id="Path_53119" data-name="Path 53119" d="M13.08,9.68l-2,1.88-.94-1a.31.31,0,0,0-.44.43l1.16,1.19a.31.31,0,0,0,.44,0l2.2-2.09a.311.311,0,0,0-.43-.45Z" fill="#915715"/>
        <path id="Path_53120" data-name="Path 53120" d="M13.68,7.74a3.81,3.81,0,0,0-2.07-.61h-.43a3.82,3.82,0,0,0-3.35,3.79A3.75,3.75,0,0,0,8,12.14a9.14,9.14,0,0,1-2-.24.69.69,0,0,1-.08-.23.282.282,0,0,0-.25-.3.15.15,0,0,0-.15.05,3.26,3.26,0,0,1,.11-.32c0-.1.13-.32,0-.43s-.4.07-1,.68h0a.8.8,0,0,0,.08-.63.51.51,0,0,0-.33-.28c-.55-.18-1.47,1-1.94,1.61h0a.355.355,0,0,0,0,.71H5.52a.35.35,0,0,0,.16-.67h0a.39.39,0,0,0,.18.15,8.91,8.91,0,0,0,2.29.28,3.81,3.81,0,1,0,5.53-4.8ZM4.94,11.62l.2-.21a4.48,4.48,0,0,0-.12.68H4.49Zm-.7-.76a.15.15,0,0,1,.09.05,1.889,1.889,0,0,1-.17.52,3.88,3.88,0,0,0-.22.53.26.26,0,0,0,0,.13h-1c.53-.68,1.13-1.29,1.3-1.22Zm7.37,3.28a3.17,3.17,0,0,1-2-.73A3.22,3.22,0,0,1,9.18,13a3.14,3.14,0,0,1,0-4.11,3.22,3.22,0,0,1,.43-.42,3.191,3.191,0,1,1,2,5.67Z" fill="#915715"/>
        <path id="Path_53121" data-name="Path 53121" d="M2.41,3.54H5.52a.35.35,0,0,0,.35-.35.34.34,0,0,0-.35-.35H2.41a.35.35,0,0,0-.35.35.34.34,0,0,0,.35.35Z" fill="#915715"/>
        <path id="Path_53122" data-name="Path 53122" d="M10.93,15.71H2A1.34,1.34,0,0,1,.68,14.38V2A1.34,1.34,0,0,1,2,.66H9.2v3.1a.34.34,0,0,0,.34.34h2.73V5.92a.34.34,0,0,0,.68,0V3.64h0V3.59L9.81.11,9.74.05h0a.34.34,0,0,0-.14,0H2A2,2,0,0,0,0,2V14.38a2,2,0,0,0,2,2h8.92a.34.34,0,0,0,.34-.34.33.33,0,0,0-.33-.33ZM9.88,1.21l2,2.23h-2Z" fill="#915715"/>
        <path id="Path_53123" data-name="Path 53123" d="M9.16,6.06a.33.33,0,0,0-.33-.33H2.38a.33.33,0,0,0,0,.66H8.82a.33.33,0,0,0,.34-.33Z" fill="#915715"/>
        <path id="Path_53124" data-name="Path 53124" d="M2.38,8.8a.33.33,0,0,0,0,.66H6.9a.33.33,0,1,0,0-.66Z" fill="#915715"/>
      </g>
    </g>
  </g>
</svg>
