<svg xmlns="http://www.w3.org/2000/svg" viewBox="0 0 26.46 21.87"><defs><style>.cls-1{fill:#915715;}</style></defs><title>In Email cấp Mã</title><g id="Layer_2" data-name="Layer 2"><g id="Layer_1-2" data-name="Layer 1"><path class="cls-1" d="M14.3,15.6H13.07v1.23H14.3Zm-.25,1h-.74v-.74h.74Z"/><rect class="cls-1" x="13.56" y="16.09" width="0.25" height="0.25"/><path class="cls-1" d="M17,15.6H15.78v1.23H17Zm-.25,1H16v-.74h.74Z"/><rect class="cls-1" x="16.28" y="16.09" width="0.25" height="0.25"/><path class="cls-1" d="M14.3,18.31H13.07v1.23H14.3Zm-.25,1h-.74v-.74h.74Z"/><rect class="cls-1" x="13.56" y="18.8" width="0.25" height="0.25"/><rect class="cls-1" x="15.04" y="15.6" width="0.49" height="0.25"/><polygon class="cls-1" points="15.04 16.58 15.29 16.58 15.29 16.34 15.54 16.34 15.54 16.09 14.8 16.09 14.8 15.84 14.55 15.84 14.55 16.09 14.55 16.21 14.55 16.34 15.04 16.34 15.04 16.58"/><rect class="cls-1" x="14.55" y="16.58" width="0.25" height="0.25"/><polygon class="cls-1" points="15.54 16.83 15.29 16.83 15.29 17.08 14.55 17.08 14.55 17.32 15.54 17.32 15.54 16.83"/><polygon class="cls-1" points="13.32 17.82 13.56 17.82 13.56 17.57 13.32 17.57 13.32 17.08 13.07 17.08 13.07 18.06 13.32 18.06 13.32 17.82"/><rect class="cls-1" x="13.56" y="17.08" width="0.25" height="0.25"/><polygon class="cls-1" points="14.06 17.82 14.18 17.82 14.3 17.82 14.55 17.82 14.55 18.06 15.04 18.06 15.04 17.82 14.8 17.82 14.8 17.57 14.3 17.57 14.3 17.08 14.06 17.08 14.06 17.57 13.81 17.57 13.81 18.06 14.06 18.06 14.06 17.82"/><rect class="cls-1" x="15.29" y="17.57" width="0.25" height="0.49"/><polygon class="cls-1" points="15.29 18.31 14.55 18.31 14.55 18.56 15.04 18.56 15.04 19.3 14.55 19.3 14.55 19.54 15.29 19.54 15.29 19.3 15.78 19.3 15.78 19.05 15.29 19.05 15.29 18.31"/><rect class="cls-1" x="14.55" y="18.8" width="0.25" height="0.25"/><rect class="cls-1" x="15.54" y="18.31" width="0.25" height="0.49"/><polygon class="cls-1" points="16.77 18.8 16.03 18.8 16.03 19.54 16.28 19.54 16.28 19.05 16.77 19.05 16.77 18.8"/><rect class="cls-1" x="16.52" y="19.3" width="0.49" height="0.25"/><rect class="cls-1" x="16.77" y="18.31" width="0.25" height="0.25"/><polygon class="cls-1" points="16.03 18.56 16.28 18.56 16.28 17.82 15.78 17.82 15.78 18.06 16.03 18.06 16.03 18.56"/><polygon class="cls-1" points="16.77 17.32 17.02 17.32 17.02 17.08 16.52 17.08 16.52 17.32 16.28 17.32 16.28 17.08 16.03 17.08 16.03 17.32 15.78 17.32 15.78 17.57 16.77 17.57 16.77 17.32"/><rect class="cls-1" x="16.52" y="17.82" width="0.49" height="0.25"/><path class="cls-1" d="M5.47,9s0,0,0,.05h0l0,0H20.93l0,0h0S21,9,21,9s0,0,0-.06h0V.21h0A.22.22,0,0,0,20.8,0H5.67a.22.22,0,0,0-.14.06h0s0,0,0,.07,0,0,0,.06v8.7h0A.19.19,0,0,0,5.47,9ZM7,8.48l4.71-3.65.34.26a2,2,0,0,0,2.43,0l.34-.26,4.74,3.62Zm13.46,0L15.26,4.56,20.42.64ZM19.58.59,14.17,4.48a1.63,1.63,0,0,1-1.89,0L6.88.59ZM6,.64,11.2,4.56,6,8.48Z"/><path class="cls-1" d="M24.39,3.68H21.55v.83h2.84a1.24,1.24,0,0,1,1.24,1.24v9.1a1.24,1.24,0,0,1-1.24,1.24H20.26V13.6h.83a.41.41,0,1,0,0-.83H5.38a.41.41,0,1,0,0,.83H6.2v2.48H2.07A1.24,1.24,0,0,1,.83,14.84V5.75A1.24,1.24,0,0,1,2.07,4.51H4.91V3.68H2.07A2.07,2.07,0,0,0,0,5.75v9.1a2.07,2.07,0,0,0,2.07,2.07H6.2v3.72a1.24,1.24,0,0,0,1.24,1.24H19a1.24,1.24,0,0,0,1.24-1.24V16.91h4.13a2.07,2.07,0,0,0,2.07-2.07V5.75A2.07,2.07,0,0,0,24.39,3.68Zm-5,17A.41.41,0,0,1,19,21H7.44A.41.41,0,0,1,7,20.63v-7h12.4Z"/><path class="cls-1" d="M24.51,6.62a.92.92,0,1,0-.92.92A.92.92,0,0,0,24.51,6.62Zm-1.22,0a.31.31,0,1,1,.31.31A.31.31,0,0,1,23.28,6.62Z"/></g></g></svg>