<svg xmlns="http://www.w3.org/2000/svg" xmlns:xlink="http://www.w3.org/1999/xlink" viewBox="0 0 30 25"><defs><style>.cls-1{fill:none;}.cls-2{clip-path:url(#clip-path);}.cls-3{fill:#915715;}</style><clipPath id="clip-path" transform="translate(-1 -3.5)"><rect class="cls-1" width="32" height="32"/></clipPath></defs><g id="Layer_2" data-name="Layer 2"><g id="Layer_1-2" data-name="Layer 1"><g class="cls-2"><path class="cls-3" d="M15.84,19.51a.86.86,0,0,1-.29,0,.63.63,0,0,1-.41-.37.74.74,0,0,1,0-.63l5.92-11a.7.7,0,0,1,.56-.41h0a.63.63,0,0,1,.56.26.65.65,0,0,1,.09.16l6,11.07a.52.52,0,0,1,.06.16v.21a.71.71,0,0,1-.76.57Zm10.78-1.33L21.72,9.1l-4.89,9.08Z" transform="translate(-1 -3.5)"/><path class="cls-3" d="M28.06,18.54q-3-5.47-5.9-10.94l-.08-.13a.42.42,0,0,0-.39-.19.51.51,0,0,0-.4.31l-4.68,8.67c-.41.78-.83,1.55-1.24,2.32a.45.45,0,0,0,.24.7.58.58,0,0,0,.23,0H27.6a.52.52,0,0,0,.56-.37v-.2Zm-11.57-.15,5.23-9.71L27,18.39Z" transform="translate(-1 -3.5)"/><path class="cls-3" d="M21.72,16a.72.72,0,0,1-.49-.19.73.73,0,0,1-.26-.62V11.9a.77.77,0,0,1,.76-.75.77.77,0,0,1,.75.82v3.26a.75.75,0,0,1-.45.69A.73.73,0,0,1,21.72,16Z" transform="translate(-1 -3.5)"/><path class="cls-3" d="M21.17,11.9c0,.56,0,1.12,0,1.67h0v1.61a.6.6,0,0,0,.19.47.52.52,0,0,0,.59.08.53.53,0,0,0,.33-.5V12a.59.59,0,0,0-.25-.52.52.52,0,0,0-.56,0A.53.53,0,0,0,21.17,11.9Z" transform="translate(-1 -3.5)"/><path class="cls-3" d="M21.71,17.78a.78.78,0,0,1-.77-.8.81.81,0,0,1,.78-.81.8.8,0,0,1,.56.24.81.81,0,0,1,.23.57.8.8,0,0,1-.79.8Z" transform="translate(-1 -3.5)"/><path class="cls-3" d="M21.72,16.38a.6.6,0,1,0,.59.6A.6.6,0,0,0,21.72,16.38Z" transform="translate(-1 -3.5)"/><path class="cls-3" d="M5.11,16.09h7.1a.42.42,0,0,0,0-.83H5.11a.42.42,0,0,0,0,.83Z" transform="translate(-1 -3.5)"/><path class="cls-3" d="M5.11,19.27h7.1a.39.39,0,0,0,.34-.42.38.38,0,0,0-.34-.41H5.11a.38.38,0,0,0-.34.41A.39.39,0,0,0,5.11,19.27Z" transform="translate(-1 -3.5)"/><path class="cls-3" d="M30.52,3.5H1.6a.6.6,0,0,0-.6.6V22.88a1.44,1.44,0,0,0,1.44,1.44H12.9v1.4a1.47,1.47,0,0,1-.52,1.15l-.6.51H10a.56.56,0,0,0,0,1.12H21.64a.56.56,0,0,0,0-1.12h-2l-.6-.51a1.48,1.48,0,0,1-.53-1.15v-1.4H29.56A1.44,1.44,0,0,0,31,22.88V4A.48.48,0,0,0,30.52,3.5ZM15.92,22.76h0a.53.53,0,0,1,.25,0l0,0a.36.36,0,0,1,.15.15.08.08,0,0,1,0,0,.22.22,0,0,1,0,.11.36.36,0,0,1,0,.14h0a.36.36,0,0,1-.11.22.4.4,0,0,1-.23.12h0a.36.36,0,0,1-.25,0l0,0a.36.36,0,0,1-.15-.15l0,0a.38.38,0,0,1,0-.25h0a.39.39,0,0,1,.11-.22h0A.43.43,0,0,1,15.92,22.76Zm-2.48,4.62A2.62,2.62,0,0,0,14,25.72v-1.4h3.41v1.4A2.62,2.62,0,0,0,18,27.38ZM29.82,22H2.18a.1.1,0,0,1-.1-.1V5.06a.48.48,0,0,1,.48-.48h27a.36.36,0,0,1,.36.36v17A.09.09,0,0,1,29.82,22Z" transform="translate(-1 -3.5)"/><path class="cls-3" d="M15.48,7.36a.91.91,0,0,0-.9.91.93.93,0,0,0,.28.67L13,12.39a.81.81,0,0,0-.51,0L10.8,9.79a.91.91,0,0,0-.07-1.28.87.87,0,0,0-1.25.07.91.91,0,0,0-.14,1L8,10.72a.87.87,0,0,0-1.18.14l-1.13-.57A.91.91,0,0,0,5,9.21.91.91,0,0,0,4.62,11a.65.65,0,0,0,.19,0,.87.87,0,0,0,.67-.31l1.13.58a.9.9,0,0,0,.67,1.08.89.89,0,0,0,1.06-.69.92.92,0,0,0-.07-.59L9.62,9.93a.84.84,0,0,0,.81.11l1.71,2.63A.93.93,0,0,0,12.21,14a.88.88,0,0,0,1.25-.07.92.92,0,0,0-.05-1.27l1.84-3.45a.78.78,0,0,0,.22,0,.9.9,0,0,0,.9-.91A.92.92,0,0,0,15.48,7.36ZM4.81,10.55a.45.45,0,0,1-.44-.45.45.45,0,1,1,.89,0A.45.45,0,0,1,4.81,10.55Zm2.67,1.36A.45.45,0,0,1,7,11.46a.45.45,0,1,1,.89,0A.45.45,0,0,1,7.48,11.91Zm2.66-2.27a.45.45,0,0,1,0-.9.45.45,0,0,1,0,.9Zm2.66,4.08a.45.45,0,1,1,.45-.45A.45.45,0,0,1,12.8,13.72Zm2.67-5A.46.46,0,0,1,15,8.28a.45.45,0,1,1,.89,0A.45.45,0,0,1,15.47,8.74Z" transform="translate(-1 -3.5)"/></g></g></g></svg>