<svg xmlns="http://www.w3.org/2000/svg" xmlns:xlink="http://www.w3.org/1999/xlink" viewBox="0 0 30 25"><defs><style>.cls-1{fill:none}.cls-2{clip-path:url(#clip-path)}.cls-3{fill:#915715}</style><clipPath id="clip-path" transform="translate(-1 -3.5)"><rect width="32" height="32" class="cls-1"/></clipPath></defs><g id="Layer_2" data-name="Layer 2"><g id="Layer_1-2" data-name="Layer 1"><g class="cls-2"><path d="M5.11,9.63h7.1a.42.42,0,0,0,0-.83H5.11a.42.42,0,0,0,0,.83Z" class="cls-3" transform="translate(-1 -3.5)"/><path d="M5.11,12.8h7.1a.42.42,0,0,0,0-.82H5.11a.42.42,0,0,0,0,.82Z" class="cls-3" transform="translate(-1 -3.5)"/><path d="M5.11,16.07h7.1a.38.38,0,0,0,.34-.41.39.39,0,0,0-.34-.42H5.11a.39.39,0,0,0-.34.42A.38.38,0,0,0,5.11,16.07Z" class="cls-3" transform="translate(-1 -3.5)"/><path d="M5.11,19.34h7.1a.39.39,0,0,0,.34-.42.38.38,0,0,0-.34-.41H5.11a.38.38,0,0,0-.34.41A.39.39,0,0,0,5.11,19.34Z" class="cls-3" transform="translate(-1 -3.5)"/><path d="M30.52,3.5H1.6a.6.6,0,0,0-.6.6V22.88a1.44,1.44,0,0,0,1.44,1.44H12.9v1.4a1.47,1.47,0,0,1-.52,1.15l-.6.51H10a.56.56,0,0,0,0,1.12H21.64a.56.56,0,0,0,0-1.12h-2l-.6-.51a1.48,1.48,0,0,1-.53-1.15v-1.4H29.56A1.44,1.44,0,0,0,31,22.88V4A.48.48,0,0,0,30.52,3.5ZM15.92,22.76h0a.53.53,0,0,1,.25,0l0,0a.36.36,0,0,1,.15.15.08.08,0,0,1,0,0,.22.22,0,0,1,0,.11.36.36,0,0,1,0,.14h0a.43.43,0,0,1-.12.22.4.4,0,0,1-.23.12h0a.36.36,0,0,1-.25,0l0,0a.36.36,0,0,1-.15-.15l0,0a.38.38,0,0,1,0-.25h0a.39.39,0,0,1,.11-.22h0A.43.43,0,0,1,15.92,22.76Zm-2.48,4.62A2.62,2.62,0,0,0,14,25.72v-1.4h3.41v1.4A2.62,2.62,0,0,0,18,27.38ZM29.82,22H2.18a.1.1,0,0,1-.1-.1V5.06a.49.49,0,0,1,.48-.48h27a.36.36,0,0,1,.36.36v17A.09.09,0,0,1,29.82,22Z" class="cls-3" transform="translate(-1 -3.5)"/><path d="M22.28,12.74H20.5a.22.22,0,0,0-.22.22v6.35a.23.23,0,0,0,.22.23h1.78a.23.23,0,0,0,.22-.23V13A.22.22,0,0,0,22.28,12.74Zm-.23,6.34H20.72V13.19h1.33Z" class="cls-3" transform="translate(-1 -3.5)"/><path d="M27.6,11.83H25.83a.22.22,0,0,0-.22.23v7.25a.23.23,0,0,0,.22.23H27.6a.23.23,0,0,0,.23-.23V12.06A.23.23,0,0,0,27.6,11.83Zm-.22,7.25H26.05v-6.8h1.33Z" class="cls-3" transform="translate(-1 -3.5)"/><path d="M24.94,16.82H23.16a.22.22,0,0,0-.22.22v2.27a.23.23,0,0,0,.22.23h1.78a.23.23,0,0,0,.22-.23V17A.22.22,0,0,0,24.94,16.82Zm-.22,2.26H23.39V17.27h1.33Z" class="cls-3" transform="translate(-1 -3.5)"/><path d="M17,13.64H15.17a.23.23,0,0,0-.22.23v5.44a.23.23,0,0,0,.22.23H17a.23.23,0,0,0,.22-.23V13.87A.23.23,0,0,0,17,13.64Zm-.22,5.44H15.39v-5h1.34Z" class="cls-3" transform="translate(-1 -3.5)"/><path d="M19.61,15H17.84a.23.23,0,0,0-.23.23v4.08a.23.23,0,0,0,.23.23h1.77a.23.23,0,0,0,.22-.23V15.23A.23.23,0,0,0,19.61,15Zm-.22,4.08H18.06V15.46h1.33Z" class="cls-3" transform="translate(-1 -3.5)"/><path d="M26.72,5.57a.92.92,0,0,0-.62,1.58L24.26,10.6a.78.78,0,0,0-.5,0L22,8A.92.92,0,0,0,22,6.72a.89.89,0,0,0-1.26.07.94.94,0,0,0-.14,1L19.23,8.93a.87.87,0,0,0-1.18.14L16.92,8.5a.91.91,0,0,0-.68-1.08.9.9,0,0,0-.37,1.77.55.55,0,0,0,.18,0,.87.87,0,0,0,.67-.31l1.13.58a.9.9,0,0,0,.67,1.08.88.88,0,0,0,1.06-.69.92.92,0,0,0-.06-.59l1.34-1.14a.84.84,0,0,0,.81.11l1.71,2.63a.93.93,0,0,0,.07,1.28.89.89,0,0,0,1.26-.07.92.92,0,0,0-.06-1.27l1.84-3.45a.83.83,0,0,0,.22,0,.92.92,0,0,0,0-1.83ZM16.05,8.76a.45.45,0,0,1-.44-.45.45.45,0,1,1,.89,0A.45.45,0,0,1,16.05,8.76Zm2.67,1.36a.45.45,0,0,1-.45-.45.45.45,0,1,1,.89,0A.45.45,0,0,1,18.72,10.12Zm2.66-2.27a.45.45,0,1,1,.45-.45A.45.45,0,0,1,21.38,7.85Zm2.67,4.08a.45.45,0,1,1,.44-.45A.45.45,0,0,1,24.05,11.93Zm2.66-5a.45.45,0,0,1-.44-.46A.44.44,0,0,1,26.71,6a.45.45,0,0,1,.44.45A.45.45,0,0,1,26.71,7Z" class="cls-3" transform="translate(-1 -3.5)"/><rect width="1.55" height="5.28" x="14.33" y="10.36" class="cls-3"/><rect width="1.58" height="4" x="16.96" y="11.71" class="cls-3"/><rect width="1.55" height="6.12" x="19.57" y="9.62" class="cls-3"/><rect width="1.51" height="1.99" x="22.21" y="13.6" class="cls-3"/><rect width="1.52" height="7.1" x="24.98" y="8.62" class="cls-3"/></g></g></g></svg>