<svg xmlns="http://www.w3.org/2000/svg" xmlns:xlink="http://www.w3.org/1999/xlink" viewBox="0 0 30 28"><defs><style>.cls-1{fill:none}.cls-2{clip-path:url(#clip-path)}.cls-3{fill:#915715}</style><clipPath id="clip-path" transform="translate(-1 -2)"><rect width="32" height="32" class="cls-1"/></clipPath></defs><g id="Layer_2" data-name="Layer 2"><g id="Layer_1-2" data-name="Layer 1"><g class="cls-2"><path d="M30.5,25.4a4.15,4.15,0,0,0-.85-.74,6.83,6.83,0,0,0-2.18-.87l-.31-.07.6-.84a32.79,32.79,0,0,0,2-2.94A8.57,8.57,0,0,0,31,14.82a7.35,7.35,0,0,0-5-6.48A6.71,6.71,0,0,0,25,8.15l-.46-.08h-1l-.25,0-.55.1a7.48,7.48,0,0,0-5.42,8.64,9.11,9.11,0,0,0,1.43,3.53c.57.85,1.16,1.68,1.75,2.52l.57.8a8.55,8.55,0,0,0-1.85.6,3.79,3.79,0,0,0-1.59,1.19,1.92,1.92,0,0,0,0,2.41,3.93,3.93,0,0,0,.78.74,7.5,7.5,0,0,0,2.92,1.09A14.41,14.41,0,0,0,24.1,30a16.12,16.12,0,0,0,2.07-.14,9.42,9.42,0,0,0,3-.85,3.81,3.81,0,0,0,1.35-1A2,2,0,0,0,30.5,25.4Zm-6.06,3h-.31a11.11,11.11,0,0,1-4.22-.76A4.27,4.27,0,0,1,19,27c-.13-.11-.2-.21-.2-.29s0-.15.21-.34a3.47,3.47,0,0,1,1.52-.8c.36-.11.73-.19,1.14-.28l.51-.11,1.28,1.88a.87.87,0,0,0,.69.45c.26,0,.49-.15.73-.5.41-.59.81-1.19,1.28-1.82a7.34,7.34,0,0,1,2.61.8,2.8,2.8,0,0,1,.59.45.44.44,0,0,1,.15.24.5.5,0,0,1-.16.29,3,3,0,0,1-1.06.66,9.31,9.31,0,0,1-2.63.63C25.23,28.31,24.83,28.33,24.44,28.35Zm1.77-6-1.59,2.26-.49.69L23,23.75l-2.36-3.33a12.25,12.25,0,0,1-1.51-2.71,6.3,6.3,0,0,1,.13-4.66A5.52,5.52,0,0,1,22.48,10a4.6,4.6,0,0,1,1.63-.29,5.52,5.52,0,0,1,5.3,4.88,6.59,6.59,0,0,1-1,4.47c-.55.89-1.18,1.78-1.73,2.57Z" class="cls-3" transform="translate(-1 -2)"/><path d="M24.12,12.44a2.94,2.94,0,0,0-2.82,3.05,3.11,3.11,0,0,0,.83,2.15,2.69,2.69,0,0,0,2,.9h0A3,3,0,0,0,27,15.48,2.94,2.94,0,0,0,24.12,12.44Zm0,4.94a1.83,1.83,0,0,1-1.76-1.88,2,2,0,0,1,.51-1.35,1.68,1.68,0,0,1,1.24-.55h0a1.9,1.9,0,0,1,0,3.78Z" class="cls-3" transform="translate(-1 -2)"/><path d="M15.14,13.57a1.62,1.62,0,0,0-.31,0H5.52a1.51,1.51,0,0,0-.3,0,.56.56,0,0,0-.44.55.57.57,0,0,0,.45.58l.27,0h9.36a1.33,1.33,0,0,0,.28,0,.58.58,0,0,0,0-1.12Z" class="cls-3" transform="translate(-1 -2)"/><path d="M15.14,8.7a1.62,1.62,0,0,0-.31,0H5.52a1.51,1.51,0,0,0-.3,0,.58.58,0,0,0-.44.56.56.56,0,0,0,.45.57,1.23,1.23,0,0,0,.27,0h9.36a1.32,1.32,0,0,0,.28,0,.58.58,0,0,0,0-1.13Z" class="cls-3" transform="translate(-1 -2)"/><path d="M15,18.17H5.54c-.5,0-.76.21-.76.59s.26.58.76.58H15a.58.58,0,0,0,.55-.59A.58.58,0,0,0,15,18.17Z" class="cls-3" transform="translate(-1 -2)"/><path d="M14.83,22.5H5.52a1.51,1.51,0,0,0-.3,0,.56.56,0,0,0-.44.55.55.55,0,0,0,.45.57,1.23,1.23,0,0,0,.27,0q4.68,0,9.36,0a1.32,1.32,0,0,0,.28,0,.58.58,0,0,0,0-1.12A1.62,1.62,0,0,0,14.83,22.5Z" class="cls-3" transform="translate(-1 -2)"/><path d="M10.48,28.71H3.89a1.71,1.71,0,0,1-1.81-1.94V5.06a1.7,1.7,0,0,1,1.69-1.9q10.2,0,20.38,0a1.56,1.56,0,0,1,1.47.93,2.24,2.24,0,0,1,.23,1V7a.74.74,0,0,0,.53.23A.7.7,0,0,0,26.92,7V4.5c0-.14-.07-.29-.11-.43a2.87,2.87,0,0,0-1.19-1.61A2.56,2.56,0,0,0,24.31,2H3.81A2.73,2.73,0,0,0,1.08,4.24,3.45,3.45,0,0,0,1,5V26.89a2.84,2.84,0,0,0,2.24,2.93l.09.05H16.05a.89.89,0,0,0,.21-.57.93.93,0,0,0-.22-.59Z" class="cls-3" transform="translate(-1 -2)"/></g></g></g></svg>