<svg xmlns="http://www.w3.org/2000/svg" xmlns:xlink="http://www.w3.org/1999/xlink" viewBox="0 0 26.58 30"><defs><style>.cls-1{fill:none;}.cls-2{clip-path:url(#clip-path);}.cls-3{fill:#915715;}</style><clipPath id="clip-path" transform="translate(-2.71 -1)"><rect class="cls-1" width="32" height="32"/></clipPath></defs><g id="Layer_2" data-name="Layer 2"><g id="Layer_1-2" data-name="Layer 1"><g class="cls-2"><path class="cls-3" d="M7.58,31a.74.74,0,0,1-.69-.37l0-8.08a.25.25,0,0,1,0-.11.76.76,0,0,1,.68-.35c.15,0,.83,0,.83,0h.17a.61.61,0,0,1,.68.56.6.6,0,0,1-.67.58h-.5v6.58H9.65V17.51c0-.56.21-.76.79-.76H19c.58,0,.79.19.79.74V29.83H21.3V23.24h-.64a.55.55,0,0,1-.51-.49.56.56,0,0,1,.14-.46.49.49,0,0,1,.33-.15l.69,0,.75,0a.52.52,0,0,1,.46.57v7.14h1.35s0-9.41,0-13c-1.64-.53-3.23-1-4.82-1.45L17.63,15v.42a.61.61,0,1,1-1.21,0V14.24a.57.57,0,0,1,.6-.62.71.71,0,0,1,.24,0l7.32,2.1a.62.62,0,0,1,.51.71V29.83h3V12.44H20.65v.7c0,.18,0,.28,0,.38a.56.56,0,0,1-.55.49h0a.59.59,0,0,1-.62-.41.88.88,0,0,1,0-.24V11.94a.62.62,0,0,1,.7-.67h8.46a.62.62,0,0,1,.7.67V30.33c0,.45-.23.67-.71.67Zm10.93-1.16V17.92H10.88V29.84H12V27.23c0-.46.23-.68.73-.68h4c.52,0,.74.21.74.71v2.58Zm-2.33,0V27.71h-3v2.12Z" transform="translate(-2.71 -1)"/><path class="cls-3" d="M28.59,11.49H20.13c-.32,0-.45.13-.46.45v1.42a1.13,1.13,0,0,0,0,.18.36.36,0,0,0,.7,0c0-.11,0-.23,0-.35v-.92h7.9V30.05H24.84V16.47c0-.32-.06-.43-.33-.5l-7.32-2.11a.37.37,0,0,0-.53.38v1.15a.37.37,0,0,0,.37.42c.22,0,.36-.16.36-.43v-.71l.26.07,6.26,1.79c.17,0,.21.12.21.29q0,6.49,0,13v.24H22.28V22.7c0-.17-.07-.34-.24-.35a10.9,10.9,0,0,0-1.4,0,.29.29,0,0,0-.25.36.34.34,0,0,0,.31.31h.84v7H19.49V17.49c0-.42-.1-.52-.54-.52H10.44c-.45,0-.55.09-.55.54V30.05h-2v-7l.05,0h.68c.28,0,.44-.15.44-.36s-.17-.35-.44-.36-.65,0-1,0a.51.51,0,0,0-.5.24v8a.48.48,0,0,0,.47.25h21c.34,0,.47-.12.47-.45V11.94C29.05,11.62,28.92,11.49,28.59,11.49ZM16.42,30.05H13V27.49h3.45Zm2.33,0H17.17v-2.8c0-.38-.12-.49-.5-.49h-4c-.36,0-.48.12-.48.46,0,.86,0,1.71,0,2.57v.26H10.64V17.7h8.11Z" transform="translate(-2.71 -1)"/><path class="cls-3" d="M26.68,13.86H23.56c-.29,0-.47.23-.37.47a.38.38,0,0,0,.41.24h3.08c.28,0,.45-.14.44-.37S27,13.86,26.68,13.86Z" transform="translate(-2.71 -1)"/><path class="cls-3" d="M22.55,19.22a.32.32,0,0,0,.28-.36.34.34,0,0,0-.33-.32h-.88a.33.33,0,0,0-.33.31.33.33,0,0,0,.28.38A6.41,6.41,0,0,0,22.55,19.22Z" transform="translate(-2.71 -1)"/><path class="cls-3" d="M26.79,17.42q-.37,0-.75,0a.35.35,0,0,0-.33.35.36.36,0,0,0,.35.35h.72a.34.34,0,0,0,.34-.33A.34.34,0,0,0,26.79,17.42Z" transform="translate(-2.71 -1)"/><path class="cls-3" d="M26.08,20.54h0a.36.36,0,0,0-.33.33.32.32,0,0,0,.27.35,5.06,5.06,0,0,0,.87,0,.32.32,0,0,0,.27-.37.34.34,0,0,0-.33-.32h-.71Z" transform="translate(-2.71 -1)"/><path class="cls-3" d="M26.05,27.48h.73a.35.35,0,0,0,.34-.35.35.35,0,0,0-.34-.36h-.73a.36.36,0,0,0-.34.37A.37.37,0,0,0,26.05,27.48Z" transform="translate(-2.71 -1)"/><path class="cls-3" d="M26.8,24.35a.32.32,0,0,0,.32-.32.31.31,0,0,0-.28-.36,6,6,0,0,0-.85,0,.32.32,0,0,0-.28.35.34.34,0,0,0,.32.33,2.44,2.44,0,0,0,.38,0h0A2.54,2.54,0,0,0,26.8,24.35Z" transform="translate(-2.71 -1)"/><path class="cls-3" d="M14.34,25.36a.33.33,0,0,0,.34.29.32.32,0,0,0,.36-.26,1.23,1.23,0,0,0,0-.27V19.69a1.23,1.23,0,0,0,0-.27.32.32,0,0,0-.36-.26.34.34,0,0,0-.34.29,1.77,1.77,0,0,0,0,.23v5.45A1.85,1.85,0,0,0,14.34,25.36Z" transform="translate(-2.71 -1)"/><path class="cls-3" d="M12.41,25.26c.23,0,.36-.17.36-.45V20c0-.27-.13-.43-.35-.44S12,19.72,12,20v4.82C12,25.09,12.19,25.26,12.41,25.26Z" transform="translate(-2.71 -1)"/><path class="cls-3" d="M17,25.26c.22,0,.37-.17.37-.45V20a.39.39,0,0,0-.38-.42.37.37,0,0,0-.35.42v4.84C16.62,25.09,16.75,25.25,17,25.26Z" transform="translate(-2.71 -1)"/><path class="cls-3" d="M10.3,13.15A4.37,4.37,0,0,0,12,12.88a9.23,9.23,0,0,0,.9-.42.36.36,0,0,0,.14-.51.37.37,0,0,0-.5-.15l-.14.08a3.91,3.91,0,0,1-2.48.48A4.08,4.08,0,0,1,6.52,7.3,4.07,4.07,0,0,1,11.7,4.45,4.45,4.45,0,0,1,12.77,5a.37.37,0,0,0,.51-.12.38.38,0,0,0-.11-.52,4.67,4.67,0,0,0-1.78-.75l-.68-.1h-.55l-.54.08A4.64,4.64,0,0,0,7,4.93,4.75,4.75,0,0,0,5.72,7.42l-.06.37v1.1A4.68,4.68,0,0,0,6.83,11.5,4.73,4.73,0,0,0,10.3,13.15Z" transform="translate(-2.71 -1)"/><path class="cls-3" d="M14.71,4.31a.8.8,0,0,0-.21.2L10.69,9.27c-.15.19-.25.19-.43,0L8.38,7.51a.37.37,0,0,0-.55,0,.38.38,0,0,0,0,.55L9.79,9.89a1.05,1.05,0,0,0,.75.28.94.94,0,0,0,.7-.38c1.18-1.47,2.35-2.94,3.53-4.4.14-.18.28-.35.41-.54a.36.36,0,0,0,0-.46A.37.37,0,0,0,14.71,4.31Z" transform="translate(-2.71 -1)"/><path class="cls-3" d="M14,10.64a.39.39,0,1,0,.66.4,5.09,5.09,0,0,0,.82-2.76,5,5,0,0,0-.16-1.19A.36.36,0,0,0,15,6.81a.35.35,0,0,0-.37.12.4.4,0,0,0-.08.38,4.19,4.19,0,0,1,0,2A4.46,4.46,0,0,1,14,10.64Z" transform="translate(-2.71 -1)"/><path class="cls-3" d="M28.36,6.83l-.6-.54h0l-.2-.18h0L27.43,6l0,0h0C25.6,4.41,23.82,2.84,22,1.26A1,1,0,0,0,21.32,1H4.9A2,2,0,0,0,2.72,2.84c0,.1,0,1.27,0,1.66V28.71a1.83,1.83,0,0,0,.26,1,1.75,1.75,0,0,0,.62.65,2.24,2.24,0,0,0,1,.34H5a.45.45,0,0,0,.28-.4A.44.44,0,0,0,5,29.91a.47.47,0,0,0-.22-.05H4.46A1,1,0,0,1,3.64,29a2.91,2.91,0,0,1,0-.51V3.07c0-.88.45-1.28,1.44-1.28H21a.11.11,0,0,1,.12.11V5.66c0,1.27.86,2,2.3,2h4.24a.12.12,0,0,1,.12.11V9a.35.35,0,0,0,0,.17.51.51,0,0,0,.46.26.52.52,0,0,0,.45-.24V7.57A.88.88,0,0,0,28.36,6.83Zm-1.62.07H23.23a1.12,1.12,0,0,1-1.22-1c0-.77,0-1.54,0-2.29v-.9a.11.11,0,0,1,.08-.1h0a.18.18,0,0,1,.09,0l4.62,4.06a.09.09,0,0,1,0,.11S26.79,6.9,26.74,6.9Z" transform="translate(-2.71 -1)"/></g></g></g></svg>