<svg xmlns="http://www.w3.org/2000/svg" xmlns:xlink="http://www.w3.org/1999/xlink" viewBox="0 0 30 28"><defs><style>.cls-1{fill:none;}.cls-2{clip-path:url(#clip-path);}.cls-3{fill:#915715;}</style><clipPath id="clip-path" transform="translate(-1 -2)"><rect class="cls-1" width="32" height="32"/></clipPath></defs><g id="Layer_2" data-name="Layer 2"><g id="Layer_1-2" data-name="Layer 1"><g class="cls-2"><path class="cls-3" d="M24.27,11.7a.41.41,0,0,0-.49-.43.43.43,0,0,0-.36.23l-4.5,7.72s0,0,0,0,0,0,0,0l0,.1a.32.32,0,0,0,0,.21q0,.42.51.39a.37.37,0,0,0,.34-.21l4.52-7.72A.69.69,0,0,0,24.27,11.7Z" transform="translate(-1 -2)"/><path class="cls-3" d="M29.34,12.88l-2.19-.27a9.68,9.68,0,0,0-.63-1.48l1.34-1.68A1.79,1.79,0,0,0,27.71,7L25.83,5.19a1.88,1.88,0,0,0-1.33-.54A1.89,1.89,0,0,0,23.33,5l-1.74,1.3a11.52,11.52,0,0,0-1.54-.62l-.28-2.1A1.87,1.87,0,0,0,17.9,2H15.22a1.89,1.89,0,0,0-1.06.35,2.47,2.47,0,0,0-.77,1.11.88.88,0,0,0-.05.15l-.17,1.33a4.75,4.75,0,0,0,0,1.55.66.66,0,0,0,.57.43l.12,0a.66.66,0,0,0,.5-.56l.34-2.56a.45.45,0,0,1,.21-.32.53.53,0,0,1,.28-.1H17.9a.5.5,0,0,1,.49.43l.33,2.55a.7.7,0,0,0,.5.57,10,10,0,0,1,2.1.84.69.69,0,0,0,.34.09.68.68,0,0,0,.43-.15l2.09-1.57A.51.51,0,0,1,24.49,6a.45.45,0,0,1,.35.15L26.74,8a.46.46,0,0,1,0,.62l-1.63,2a.68.68,0,0,0-.06.76,9.14,9.14,0,0,1,.87,2,.72.72,0,0,0,.58.49l2.64.32a.5.5,0,0,1,.44.47v2.6a.5.5,0,0,1-.45.47l-2.63.32a.72.72,0,0,0-.58.49,9.14,9.14,0,0,1-.87,2,.66.66,0,0,0,.06.76l1.63,2a.46.46,0,0,1,0,.63l-1.9,1.83a.48.48,0,0,1-.34.14.51.51,0,0,1-.31-.11l-2.09-1.57a.8.8,0,0,0-.31-.12h-.15a.64.64,0,0,0-.31.07,9.93,9.93,0,0,1-2.1.85.67.67,0,0,0-.5.56l-.33,2.56a.5.5,0,0,1-.05.13.49.49,0,0,1-.44.29H15.22a.53.53,0,0,1-.28-.1.45.45,0,0,1-.21-.33l-.34-2.55a.66.66,0,0,0-.5-.56l-.17,0a.77.77,0,0,0-.45.2c-.29.2-.24.77-.21.94l.28,2.17a.85.85,0,0,0,.06.19l0,.11.07.14a2.35,2.35,0,0,0,.64.83,1.89,1.89,0,0,0,1.07.35H17.9a1.92,1.92,0,0,0,1.82-1.44.84.84,0,0,0,.05-.17l.28-2.12a10.28,10.28,0,0,0,1.54-.61L23.33,27a1.89,1.89,0,0,0,1.17.39h0a1.85,1.85,0,0,0,1.32-.54L27.7,25a1.78,1.78,0,0,0,.16-2.44l-1.34-1.68a9.68,9.68,0,0,0,.63-1.48l2.18-.27A1.86,1.86,0,0,0,31,17.3V14.7A1.85,1.85,0,0,0,29.34,12.88Z" transform="translate(-1 -2)"/><path class="cls-3" d="M11.7,18.79h3.37a.3.3,0,0,0,.31-.3.3.3,0,0,0-.31-.3H11.7a.31.31,0,0,0-.31.3A.3.3,0,0,0,11.7,18.79Z" transform="translate(-1 -2)"/><path class="cls-3" d="M11.7,17.33h3.37a.3.3,0,0,0,.31-.3.3.3,0,0,0-.31-.3H11.7a.3.3,0,0,0-.31.3A.31.31,0,0,0,11.7,17.33Z" transform="translate(-1 -2)"/><path class="cls-3" d="M11.7,15.86h3.37a.3.3,0,0,0,.31-.3.3.3,0,0,0-.31-.3H11.7a.31.31,0,0,0-.31.3A.3.3,0,0,0,11.7,15.86Z" transform="translate(-1 -2)"/><path class="cls-3" d="M7.72,21.12H4.35a.31.31,0,0,0-.31.3.3.3,0,0,0,.31.3H7.72a.3.3,0,0,0,.31-.3A.31.31,0,0,0,7.72,21.12Z" transform="translate(-1 -2)"/><path class="cls-3" d="M7.72,19.66H4.35A.3.3,0,0,0,4,20a.31.31,0,0,0,.31.3H7.72A.31.31,0,0,0,8,20,.3.3,0,0,0,7.72,19.66Z" transform="translate(-1 -2)"/><path class="cls-3" d="M7.72,18.19H4.35a.31.31,0,0,0-.31.3.3.3,0,0,0,.31.3H7.72a.3.3,0,0,0,.31-.3A.31.31,0,0,0,7.72,18.19Z" transform="translate(-1 -2)"/><path class="cls-3" d="M11.7,14.4h3.37a.3.3,0,0,0,.31-.3.3.3,0,0,0-.31-.3H11.7a.3.3,0,0,0-.31.3A.31.31,0,0,0,11.7,14.4Z" transform="translate(-1 -2)"/><path class="cls-3" d="M11.7,12.93h3.37a.3.3,0,0,0,.31-.3.3.3,0,0,0-.31-.3H11.7a.31.31,0,0,0-.31.3A.3.3,0,0,0,11.7,12.93Z" transform="translate(-1 -2)"/><rect class="cls-1" x="11" y="18.43" width="1.11" height="2.69"/><polygon class="cls-1" points="1.83 21.12 8.5 21.12 8.5 12.63 1.83 15.11 1.83 21.12"/><rect class="cls-1" x="12.66" y="18.43" width="1.11" height="2.69"/><path class="cls-1" d="M10.05,23.12h1.39v-3a.28.28,0,0,1,.28-.27h3.36a1.51,1.51,0,0,0,.18.09.26.26,0,0,1,.07.17v3h1.39V7.64l-6.67,2.48Z" transform="translate(-1 -2)"/><path class="cls-3" d="M17.27,21.09V7.24A.28.28,0,0,0,17,7l-.1,0L9.68,9.68a.27.27,0,0,0-.18.25v4.12l-7,2.63a.27.27,0,0,0-.18.25v6.19H1.45a.15.15,0,0,0-.08,0l-.08,0-.05,0a.5.5,0,0,0-.24.42.52.52,0,0,0,.53.52H18a.52.52,0,0,0,.53-.52.51.51,0,0,0-.4-.49l-.06,0h-.84v-2Zm-7.77,2H2.83v-6L9.5,14.63Zm3.61,0H12V20.43h1.11Zm1.67,0H13.66V20.43h1.12Zm1.94-10.68V23.12H15.33v-3a.26.26,0,0,0-.07-.17,1.51,1.51,0,0,1-.18-.09H11.72a.28.28,0,0,0-.28.27v3H10.05v-13l6.67-2.48Z" transform="translate(-1 -2)"/><path class="cls-3" d="M24.63,17.43a2.1,2.1,0,0,0-2.9,0,2.16,2.16,0,0,0,0,2.88,2.08,2.08,0,0,0,2.9,0,2.16,2.16,0,0,0,0-2.88Zm-1.45,2.39a.95.95,0,1,1,.91-.95A.93.93,0,0,1,23.18,19.82Z" transform="translate(-1 -2)"/><path class="cls-3" d="M21.48,10.89A1.94,1.94,0,0,0,20,10.31a1.91,1.91,0,0,0-1.45.58,2.16,2.16,0,0,0,0,2.88,1.92,1.92,0,0,0,1.45.59,1.94,1.94,0,0,0,1.46-.59A2,2,0,0,0,22,12.33,2,2,0,0,0,21.48,10.89ZM20,13.28a.95.95,0,1,1,.92-.95A.94.94,0,0,1,20,13.28Z" transform="translate(-1 -2)"/></g></g></g></svg>