<svg xmlns="http://www.w3.org/2000/svg" xmlns:xlink="http://www.w3.org/1999/xlink" viewBox="0 0 30 28"><defs><style>.cls-1{fill:none}.cls-2{clip-path:url(#clip-path)}.cls-3{fill:#915715}</style><clipPath id="clip-path" transform="translate(-1 -2)"><rect width="32" height="32" class="cls-1"/></clipPath></defs><g id="Layer_2" data-name="Layer 2"><g id="Layer_1-2" data-name="Layer 1"><g class="cls-2"><path d="M27.63,26.16a.81.81,0,0,1-.31-.05,1.11,1.11,0,0,1-.76-.83,1.33,1.33,0,0,1,.29-1.18l.32-.36H25.5a4.86,4.86,0,0,1-1-.09,4.36,4.36,0,0,1-2.37-1.49,4.42,4.42,0,0,1-.76.79,4.11,4.11,0,0,1-2.62.89H15.72A1.22,1.22,0,0,1,14.5,23a.5.5,0,0,1,0-.12l0-.39a.59.59,0,0,1,0-.14,1.22,1.22,0,0,1,1.23-.94h3.1A2.22,2.22,0,0,0,21,19.78a2.72,2.72,0,0,0,.09-.43.52.52,0,0,1,0-.21,3.79,3.79,0,0,0-.14-1,2.21,2.21,0,0,0-2.14-1.66H15.65L6,16.36a1.14,1.14,0,0,1,0-2.27h9.45l2.27,0h1a4.09,4.09,0,0,1,2.62.89,4.32,4.32,0,0,1,.85.9,4.31,4.31,0,0,1,2.45-1.59,4.58,4.58,0,0,1,1-.1h1.67l-.32-.36a1.28,1.28,0,0,1-.29-1.18,1.14,1.14,0,0,1,.76-.84,1,1,0,0,1,1.06.3c.74.81,1.48,1.62,2.21,2.44a1.24,1.24,0,0,1,0,1.68c-.73.82-1.47,1.63-2.21,2.43a1,1,0,0,1-.53.33,1.08,1.08,0,0,1,.44.3c.74.8,1.48,1.62,2.21,2.43a1.24,1.24,0,0,1,0,1.68c-.73.82-1.47,1.63-2.21,2.43A1,1,0,0,1,27.63,26.16Zm-2.07-9.59a2.28,2.28,0,0,0-2.23,1.88,4.51,4.51,0,0,0-.06.6,1,1,0,0,1,0,.25v.16a2.3,2.3,0,0,0,2.23,1.89h1.7l-.35-.4a1.32,1.32,0,0,1-.32-.87,1.26,1.26,0,0,1,.34-.83,1.06,1.06,0,0,1,.51-.31,1,1,0,0,1-.42-.28,1.26,1.26,0,0,1-.34-.83,1.32,1.32,0,0,1,.32-.87l.35-.39Z" class="cls-3" transform="translate(-1 -2)"/><path d="M28.14,19.52a.75.75,0,0,0-.55-.25.71.71,0,0,0-.52.23.9.9,0,0,0,0,1.2c.3.34.6.67.91,1H25.47a2.59,2.59,0,0,1-2.54-2.16l0-.16c0-.12,0-.22.05-.34a3.32,3.32,0,0,1,.07-.67,2.59,2.59,0,0,1,2.54-2.16h2.49c-.31.33-.61.66-.91,1a.9.9,0,0,0,0,1.2.71.71,0,0,0,.52.23.75.75,0,0,0,.55-.25L30.44,16a.88.88,0,0,0,0-1.18c-.74-.82-1.47-1.63-2.21-2.43a.72.72,0,0,0-.53-.25.52.52,0,0,0-.21,0,.79.79,0,0,0-.54.58,1,1,0,0,0,.21.84l.88,1H25.59a4.37,4.37,0,0,0-.91.08,4.1,4.1,0,0,0-2.53,1.84,4.54,4.54,0,0,0-1-1.21,3.89,3.89,0,0,0-2.43-.82h-1l-2.27,0H6A.78.78,0,0,0,6,16l9.69.12h3.07A2.52,2.52,0,0,1,21.17,18a4.8,4.8,0,0,1,.16,1.11,2.85,2.85,0,0,0,0,.29,2.84,2.84,0,0,1-.1.49,2.52,2.52,0,0,1-2.45,1.89h-3.1a.89.89,0,0,0-.92.7v.39a.9.9,0,0,0,.92.61h3.06a3.87,3.87,0,0,0,2.42-.82,4.35,4.35,0,0,0,.95-1.07,4.09,4.09,0,0,0,2.44,1.69,3.83,3.83,0,0,0,.91.09H28q-.45.46-.87,1a.92.92,0,0,0-.22.84.79.79,0,0,0,.54.58.78.78,0,0,0,.22,0,.72.72,0,0,0,.52-.25c.74-.81,1.48-1.61,2.21-2.43a.88.88,0,0,0,0-1.18Z" class="cls-3" transform="translate(-1 -2)"/><path d="M6,9.78a.78.78,0,0,0,0,1.55H20.12a.78.78,0,0,0,0-1.55Z" class="cls-3" transform="translate(-1 -2)"/><path d="M13,23.31a.73.73,0,0,0,.7-.77.74.74,0,0,0-.7-.78H6a.75.75,0,0,0-.71.78.74.74,0,0,0,.71.77Z" class="cls-3" transform="translate(-1 -2)"/><path d="M24.39,25h-.1a.68.68,0,0,0-.63.46v.69a3,3,0,0,1-.06.52,2.18,2.18,0,0,1-2.07,1.81h-17a2.23,2.23,0,0,1-2.12-2.33V5.89a2.46,2.46,0,0,1,.36-1.3A2.34,2.34,0,0,1,3.35,4a2,2,0,0,1,1.19-.39h17a2.24,2.24,0,0,1,2.13,2.33v4.67a.74.74,0,0,0,.7.77.75.75,0,0,0,.71-.77V5.89A3.73,3.73,0,0,0,21.53,2h-17A3.73,3.73,0,0,0,1,5.89V26.11A3.73,3.73,0,0,0,4.54,30h17a3.26,3.26,0,0,0,2.07-.75,4,4,0,0,0,1.47-3.14v-.4A.72.72,0,0,0,24.39,25Z" class="cls-3" transform="translate(-1 -2)"/></g></g></g></svg>