<svg xmlns="http://www.w3.org/2000/svg" xmlns:xlink="http://www.w3.org/1999/xlink" viewBox="0 0 28 30"><defs><style>.cls-1{fill:none}.cls-2{clip-path:url(#clip-path)}.cls-3{fill:#915715}</style><clipPath id="clip-path" transform="translate(-2 -1)"><rect width="32" height="32" class="cls-1"/></clipPath></defs><g id="Layer_2" data-name="Layer 2"><g id="Layer_1-2" data-name="Layer 1"><g class="cls-2"><path d="M28.27,12.66,26,12.37a11.76,11.76,0,0,0-.67-1.6L26.73,9a1.93,1.93,0,0,0-.16-2.59l-2-2a1.89,1.89,0,0,0-1.39-.58A2,2,0,0,0,22,4.25L20.18,5.66A11.89,11.89,0,0,0,18.57,5l-.29-2.26a2,2,0,0,0-2-1.73H13.53a1.93,1.93,0,0,0-1.11.38,2.72,2.72,0,0,0-.8,1.18.42.42,0,0,0,0,.16l-.19,1.42a5.81,5.81,0,0,0,0,1.66.71.71,0,0,0,.6.46l.12,0a.72.72,0,0,0,.52-.6L13,2.9a.55.55,0,0,1,.23-.36.56.56,0,0,1,.29-.1h2.79a.54.54,0,0,1,.52.47l.35,2.73a.72.72,0,0,0,.52.6,10.41,10.41,0,0,1,2.19.91.73.73,0,0,0,.35.09.81.81,0,0,0,.45-.15L22.88,5.4a.54.54,0,0,1,.33-.12.52.52,0,0,1,.37.16l2,2a.5.5,0,0,1,0,.67l-1.7,2.18a.71.71,0,0,0-.06.79,10.24,10.24,0,0,1,.91,2.18.73.73,0,0,0,.6.52l2.75.35a.52.52,0,0,1,.46.51v2.78a.54.54,0,0,1-.46.52l-2.75.34a.72.72,0,0,0-.6.52A10.24,10.24,0,0,1,23.83,21a.73.73,0,0,0,.06.8l1.7,2.17a.52.52,0,0,1,0,.68l-2,2a.49.49,0,0,1-.36.15.52.52,0,0,1-.33-.12L20.7,24.92a.72.72,0,0,0-.32-.13h-.16a.59.59,0,0,0-.32.08,10.29,10.29,0,0,1-2.19.9.73.73,0,0,0-.52.6l-.35,2.74a.88.88,0,0,1-.05.15.52.52,0,0,1-.47.31H13.53a.56.56,0,0,1-.29-.1.55.55,0,0,1-.23-.37l-.35-2.73a.72.72,0,0,0-.52-.6.57.57,0,0,0-.18,0c-.16,0-.26.08-.46.22s-.24.92-.22,1l.3,2.33a.59.59,0,0,0,.05.2l0,.12.07.15a2.51,2.51,0,0,0,.66.88,1.94,1.94,0,0,0,1.12.38h2.79a2,2,0,0,0,1.18-.41,2,2,0,0,0,.72-1.13.48.48,0,0,0,.06-.18L18.57,27a12.69,12.69,0,0,0,1.61-.67L22,27.74a2,2,0,0,0,1.21.42,1.94,1.94,0,0,0,1.39-.57l2-2a2,2,0,0,0,.17-2.6l-1.41-1.8A12.11,12.11,0,0,0,26,19.62l2.28-.28A2,2,0,0,0,30,17.39V14.61A2,2,0,0,0,28.27,12.66Z" class="cls-3" transform="translate(-2 -1)"/><path d="M7.85,8.13H3.6A1.62,1.62,0,0,0,2,9.76v4.32a1.62,1.62,0,0,0,1.6,1.63H7.85a1.62,1.62,0,0,0,1.6-1.63V9.76A1.62,1.62,0,0,0,7.85,8.13Zm1.07,5.95a1.07,1.07,0,0,1-1.07,1.08H3.6a1.07,1.07,0,0,1-1.07-1.08V9.76A1.08,1.08,0,0,1,3.6,8.67H7.85A1.08,1.08,0,0,1,8.92,9.76Z" class="cls-3" transform="translate(-2 -1)"/><path d="M7.85,16.79H3.6A1.61,1.61,0,0,0,2,18.41v4.33a1.62,1.62,0,0,0,1.6,1.62H7.85a1.62,1.62,0,0,0,1.6-1.62V18.41A1.61,1.61,0,0,0,7.85,16.79Zm1.07,5.95a1.08,1.08,0,0,1-1.07,1.08H3.6a1.08,1.08,0,0,1-1.07-1.08V18.41A1.07,1.07,0,0,1,3.6,17.33H7.85a1.07,1.07,0,0,1,1.07,1.08Z" class="cls-3" transform="translate(-2 -1)"/><path d="M16.37,24.36A1.61,1.61,0,0,0,18,22.74V20.19a4.63,4.63,0,0,0,0-8.38V9.76a1.61,1.61,0,0,0-1.59-1.63H12.11a1.62,1.62,0,0,0-1.6,1.63v4.32a1.65,1.65,0,0,0,.78,1.39,1.59,1.59,0,0,0,.6.21l.22,0h4.26A1.61,1.61,0,0,0,18,14.08V12.52a4,4,0,0,1,0,7V18.41a1.6,1.6,0,0,0-1.59-1.62H11.94a1.7,1.7,0,0,0-.59.19,1.63,1.63,0,0,0-.84,1.42v4.33a1.62,1.62,0,0,0,1.6,1.62Zm1.06-10.28a1.07,1.07,0,0,1-1.06,1.08H12.11l-.15,0a1,1,0,0,1-.57-.26,1.08,1.08,0,0,1-.35-.79V9.76a1.08,1.08,0,0,1,1.07-1.09h4.26a1.08,1.08,0,0,1,1.06,1.09v4.32ZM11,22.74V18.41a1.08,1.08,0,0,1,.48-.88,1,1,0,0,1,.59-.2h4.26a1.07,1.07,0,0,1,1.06,1.08v4.33a1.08,1.08,0,0,1-1.06,1.08H12.11A1.08,1.08,0,0,1,11,22.74Z" class="cls-3" transform="translate(-2 -1)"/></g></g></g></svg>