<svg xmlns="http://www.w3.org/2000/svg" xmlns:xlink="http://www.w3.org/1999/xlink" viewBox="0 0 28 28"><defs><style>.cls-1{fill:none}.cls-2{clip-path:url(#clip-path)}.cls-3{fill:#915715}</style><clipPath id="clip-path" transform="translate(-2 -2)"><rect width="32" height="32" class="cls-1"/></clipPath></defs><g id="Layer_2" data-name="Layer 2"><g id="Layer_1-2" data-name="Layer 1"><g class="cls-2"><path d="M14.7,30a1.83,1.83,0,0,1-1.81-1.61l-.27-2.12a11,11,0,0,1-1.5-.62L9.44,27a1.81,1.81,0,0,1-1.14.39A1.78,1.78,0,0,1,7,26.81L5.19,25A1.81,1.81,0,0,1,5,22.57l1.31-1.69a11,11,0,0,1-.62-1.5l-2.12-.26A1.84,1.84,0,0,1,2,17.3V14.7a1.83,1.83,0,0,1,1.61-1.81l2.12-.27a11.55,11.55,0,0,1,.62-1.5L5,9.44A1.83,1.83,0,0,1,5.19,7L7,5.19A1.74,1.74,0,0,1,8.3,4.65,1.84,1.84,0,0,1,9.43,5l1.69,1.31a11.55,11.55,0,0,1,1.5-.62l.27-2.12A1.83,1.83,0,0,1,14.7,2h2.6a1.83,1.83,0,0,1,1.81,1.61l.27,2.12a11,11,0,0,1,1.5.62L22.57,5A1.82,1.82,0,0,1,25,5.19L26.81,7A1.8,1.8,0,0,1,27,9.43l-1.31,1.69a9.86,9.86,0,0,1,.62,1.5l2.12.27A1.83,1.83,0,0,1,30,14.7v2.6a1.83,1.83,0,0,1-1.61,1.81l-2.12.27a9.86,9.86,0,0,1-.62,1.5L27,22.56A1.82,1.82,0,0,1,26.81,25L25,26.81a1.74,1.74,0,0,1-1.28.54A1.84,1.84,0,0,1,22.57,27l-1.69-1.31a11,11,0,0,1-1.5.62l-.27,2.12A1.83,1.83,0,0,1,17.3,30Zm-3.65-5.82a.66.66,0,0,1,.33.09,9.41,9.41,0,0,0,2,.84.71.71,0,0,1,.48.56l.32,2.55a.49.49,0,0,0,.48.44h2.6a.49.49,0,0,0,.48-.43l.32-2.56a.71.71,0,0,1,.48-.56,9.41,9.41,0,0,0,2-.84.63.63,0,0,1,.33-.09.68.68,0,0,1,.41.14l2,1.58a.5.5,0,0,0,.3.11.44.44,0,0,0,.33-.14L25.86,24a.48.48,0,0,0,0-.64l-1.58-2a.68.68,0,0,1-.05-.74,9.54,9.54,0,0,0,.84-2,.7.7,0,0,1,.56-.49l2.55-.32a.49.49,0,0,0,.44-.48V14.7a.49.49,0,0,0-.43-.48l-2.56-.32a.71.71,0,0,1-.56-.48,9.41,9.41,0,0,0-.84-2,.68.68,0,0,1,.05-.74l1.58-2a.47.47,0,0,0,0-.63L24,6.14A.47.47,0,0,0,23.7,6a.5.5,0,0,0-.31.1l-2,1.58a.66.66,0,0,1-.41.14.63.63,0,0,1-.33-.09,9.63,9.63,0,0,0-2-.84.68.68,0,0,1-.49-.56l-.32-2.55a.5.5,0,0,0-.48-.44H14.7a.49.49,0,0,0-.48.43L13.9,6.33a.71.71,0,0,1-.48.56,9.41,9.41,0,0,0-2,.84.63.63,0,0,1-.33.09.68.68,0,0,1-.41-.14l-2-1.58A.51.51,0,0,0,8.3,6,.43.43,0,0,0,8,6.13L6.14,8a.48.48,0,0,0,0,.64l1.58,2a.66.66,0,0,1,.05.74,9.94,9.94,0,0,0-.84,2,.71.71,0,0,1-.56.48l-2.55.32a.49.49,0,0,0-.44.48v2.6a.49.49,0,0,0,.43.48l2.56.32a.7.7,0,0,1,.56.49,9.54,9.54,0,0,0,.84,2,.68.68,0,0,1-.05.74l-1.58,2a.47.47,0,0,0,0,.63L8,25.86A.47.47,0,0,0,8.3,26h0a.5.5,0,0,0,.31-.1l2-1.58A.68.68,0,0,1,11.05,24.18Z" class="cls-3" transform="translate(-2 -2)"/><path d="M17.3,29.91H14.7A1.73,1.73,0,0,1,13,28.38L12.7,26.2a11.09,11.09,0,0,1-1.59-.66L9.38,26.89a1.73,1.73,0,0,1-2.3-.15L5.25,24.92a1.73,1.73,0,0,1-.14-2.29l1.35-1.74A10.63,10.63,0,0,1,5.8,19.3L3.62,19A1.73,1.73,0,0,1,2.09,17.3V14.7A1.74,1.74,0,0,1,3.62,13L5.8,12.7a11.09,11.09,0,0,1,.66-1.59L5.11,9.38a1.73,1.73,0,0,1,.15-2.3L7.08,5.25a1.74,1.74,0,0,1,2.3-.14l1.73,1.35A11.09,11.09,0,0,1,12.7,5.8L13,3.62A1.73,1.73,0,0,1,14.7,2.09h2.6A1.73,1.73,0,0,1,19,3.62L19.3,5.8a11.09,11.09,0,0,1,1.59.66l1.73-1.35a1.73,1.73,0,0,1,2.3.15l1.83,1.82a1.74,1.74,0,0,1,.14,2.3l-1.35,1.73a11.09,11.09,0,0,1,.66,1.59l2.18.28a1.74,1.74,0,0,1,1.53,1.72v2.6A1.73,1.73,0,0,1,28.38,19l-2.18.28a11.09,11.09,0,0,1-.66,1.59l1.35,1.73a1.73,1.73,0,0,1-.15,2.3l-1.82,1.83a1.74,1.74,0,0,1-2.3.14l-1.73-1.35a11.09,11.09,0,0,1-1.59.66L19,28.38a1.73,1.73,0,0,1-1.72,1.53Zm-6.25-5.63a.53.53,0,0,1,.28.07,9.6,9.6,0,0,0,2.06.85.61.61,0,0,1,.42.48l.32,2.55a.58.58,0,0,0,.57.52h2.6a.58.58,0,0,0,.57-.51l.33-2.55a.58.58,0,0,1,.41-.49,9.6,9.6,0,0,0,2.06-.85.58.58,0,0,1,.63,0l2,1.57a.57.57,0,0,0,.76,0l1.84-1.84a.58.58,0,0,0,0-.77l-1.57-2a.56.56,0,0,1,0-.64,10.14,10.14,0,0,0,.85-2.06.57.57,0,0,1,.48-.41l2.55-.33a.59.59,0,0,0,.52-.57V14.7a.59.59,0,0,0-.51-.57l-2.55-.32a.61.61,0,0,1-.49-.42,9.6,9.6,0,0,0-.85-2.06.56.56,0,0,1,0-.63l1.57-2a.57.57,0,0,0,0-.76L24.1,6.07a.58.58,0,0,0-.77,0l-2,1.57a.56.56,0,0,1-.64.05,10.14,10.14,0,0,0-2.06-.85.57.57,0,0,1-.41-.48l-.33-2.55a.59.59,0,0,0-.57-.52H14.7a.59.59,0,0,0-.57.51l-.32,2.55a.61.61,0,0,1-.42.49,10.14,10.14,0,0,0-2.06.85.54.54,0,0,1-.63-.05L8.67,6a.57.57,0,0,0-.76,0L6.07,7.9a.58.58,0,0,0,0,.77l1.57,2a.54.54,0,0,1,.05.63,9.6,9.6,0,0,0-.85,2.06.58.58,0,0,1-.48.42l-2.55.32a.59.59,0,0,0-.52.57v2.6a.59.59,0,0,0,.51.57l2.55.33a.58.58,0,0,1,.49.41,9.6,9.6,0,0,0,.85,2.06.56.56,0,0,1-.05.63L6,23.33a.57.57,0,0,0,0,.76L7.9,25.93a.58.58,0,0,0,.77,0l2-1.57a.62.62,0,0,1,.36-.12Z" class="cls-3" transform="translate(-2 -2)"/><path d="M16,9.91a6.45,6.45,0,1,0,6.34,6.45A6.39,6.39,0,0,0,16,9.91Zm0,12a5.53,5.53,0,1,1,5.43-5.53A5.48,5.48,0,0,1,16,21.89Z" class="cls-3" transform="translate(-2 -2)"/></g></g></g></svg>