<svg xmlns="http://www.w3.org/2000/svg" xmlns:xlink="http://www.w3.org/1999/xlink" viewBox="0 0 28 30"><defs><style>.cls-1{fill:none;}.cls-2{clip-path:url(#clip-path);}.cls-3{fill:#915715;}</style><clipPath id="clip-path" transform="translate(-2 -1)"><rect class="cls-1" width="32" height="32"/></clipPath></defs><g id="Layer_2" data-name="Layer 2"><g id="Layer_1-2" data-name="Layer 1"><g class="cls-2"><path class="cls-3" d="M11.42,31a2.34,2.34,0,0,1-1.25-.38,2.44,2.44,0,0,1-.74-.87l-.09-.16-.05-.11a.66.66,0,0,1-.06-.2L8.89,27c0-.08-.11-.77.24-1a1,1,0,0,1,.53-.21.75.75,0,0,1,.2,0,.77.77,0,0,1,.58.6l.39,2.73a.51.51,0,0,0,.26.37.6.6,0,0,0,.33.1h3.16a.6.6,0,0,0,.53-.31.67.67,0,0,0,.06-.15l.39-2.74a.76.76,0,0,1,.58-.6,12.61,12.61,0,0,0,2.48-.9.78.78,0,0,1,.35-.08h.18a.93.93,0,0,1,.36.13L22,26.62a.7.7,0,0,0,.38.11.59.59,0,0,0,.41-.15l2.23-2a.46.46,0,0,0,0-.69l-1.91-2.18a.63.63,0,0,1-.07-.78,9.74,9.74,0,0,0,1-2.19.79.79,0,0,1,.67-.51l3.1-.35a.56.56,0,0,0,.53-.52V14.61a.56.56,0,0,0-.52-.52l-3.11-.35a.79.79,0,0,1-.67-.51,9.67,9.67,0,0,0-1-2.18.65.65,0,0,1,.07-.79L25,8.08a.47.47,0,0,0,0-.68l-2.23-2a.63.63,0,0,0-.42-.16.64.64,0,0,0-.38.12L19.51,7.08a1,1,0,0,1-.5.15,1,1,0,0,1-.39-.09,12,12,0,0,0-2.48-.91.76.76,0,0,1-.58-.6L15.17,2.9a.6.6,0,0,0-.59-.47H11.42a.6.6,0,0,0-.33.1.51.51,0,0,0-.26.36l-.39,2.74a.77.77,0,0,1-.58.6H9.72a.76.76,0,0,1-.66-.44A5.22,5.22,0,0,1,9,4.14l.21-1.42a.75.75,0,0,1,0-.16,2.71,2.71,0,0,1,.9-1.19A2.32,2.32,0,0,1,11.42,1h3.16a2.13,2.13,0,0,1,2.19,1.72L17.1,5a15.28,15.28,0,0,1,1.83.67L21,4.25a2.43,2.43,0,0,1,1.37-.41,2.26,2.26,0,0,1,1.56.58l2.22,2A1.76,1.76,0,0,1,26.31,9l-1.59,1.81a10.7,10.7,0,0,1,.75,1.61l2.59.29A2.06,2.06,0,0,1,30,14.61v2.78a2.06,2.06,0,0,1-1.95,1.94l-2.58.29a11.17,11.17,0,0,1-.75,1.61L26.31,23a1.78,1.78,0,0,1-.19,2.59l-2.21,2a2.3,2.3,0,0,1-1.56.57h0A2.43,2.43,0,0,1,21,27.74l-2.05-1.4A15.94,15.94,0,0,1,17.1,27l-.33,2.27a.48.48,0,0,1-.06.18l0,.09a1.93,1.93,0,0,1-.78,1,2.39,2.39,0,0,1-1.32.41Z" transform="translate(-2 -1)"/><path class="cls-3" d="M28,12.76l-2.64-.3a10.6,10.6,0,0,0-.81-1.7L26.23,8.9a1.7,1.7,0,0,0-.17-2.46L23.84,4.49a2.3,2.3,0,0,0-2.79-.16L18.94,5.77A14.73,14.73,0,0,0,17,5.06l-.34-2.33a2,2,0,0,0-2.09-1.64H11.42a2.25,2.25,0,0,0-1.18.36,2.45,2.45,0,0,0-.85,1.12.44.44,0,0,0-.06.16l-.2,1.42a5.06,5.06,0,0,0,0,1.62.67.67,0,0,0,.68.37.65.65,0,0,0,.5-.52l.4-2.74a.6.6,0,0,1,.3-.43.77.77,0,0,1,.39-.11h3.16a.68.68,0,0,1,.69.55l.4,2.73a.64.64,0,0,0,.5.52,12.36,12.36,0,0,1,2.5.91.8.8,0,0,0,.78,0l2.46-1.69a.77.77,0,0,1,.93.05l2.23,2a.55.55,0,0,1,.05.81L23.2,10.32a.57.57,0,0,0-.06.68,9.24,9.24,0,0,1,1,2.2.69.69,0,0,0,.59.45l3.1.35a.65.65,0,0,1,.62.61v2.78a.67.67,0,0,1-.63.62l-3.09.34a.71.71,0,0,0-.59.45,9.64,9.64,0,0,1-1,2.2.57.57,0,0,0,.06.69l1.92,2.17a.56.56,0,0,1-.06.82l-2.23,2a.76.76,0,0,1-.92,0l-1.68-1.15L19.44,25a.67.67,0,0,0-.31-.1.73.73,0,0,0-.46.05,12.82,12.82,0,0,1-2.5.91.65.65,0,0,0-.5.52l-.4,2.74a.64.64,0,0,1-.06.18.74.74,0,0,1-.63.37H11.42a.78.78,0,0,1-.39-.12.6.6,0,0,1-.3-.44l-.4-2.73a.64.64,0,0,0-.5-.52c-.29-.07-.4,0-.64.18s-.2.9-.2.9H9l.31,2.11h0l0,.22a1.57,1.57,0,0,0,.1.28,2.61,2.61,0,0,0,.8,1,2.18,2.18,0,0,0,1.19.37h3.16a2.27,2.27,0,0,0,1.26-.4,1.85,1.85,0,0,0,.74-1,1.34,1.34,0,0,0,.09-.26L17,26.94a14.73,14.73,0,0,0,1.93-.71l.19.13,1.1.75.82.56a2.28,2.28,0,0,0,2.78-.15l2.22-2a1.69,1.69,0,0,0,.18-2.46l-1.64-1.86a10.3,10.3,0,0,0,.81-1.71L28,19.24a2,2,0,0,0,1.86-1.85V14.61A2,2,0,0,0,28,12.76Z" transform="translate(-2 -1)"/><path class="cls-3" d="M14.06,7.81a.87.87,0,0,1,.68.62,1,1,0,0,1,0,.25V10H15c.44,0,.88,0,1.32,0a.81.81,0,0,1,.86.77V20a1.92,1.92,0,0,1-.74,1.53l-2.17,1.84a2.62,2.62,0,0,1-1.8.65H5.36c-.64,0-1-.3-1-.89V21.85H2.89A.83.83,0,0,1,2,21V8.62a.83.83,0,0,1,.7-.81ZM12.82,23.39v-.2c0-.59,0-1.19,0-1.78a1.13,1.13,0,0,1,1.25-1.12h2.08c.34,0,.34,0,.34-.3V10.86c0-.28,0-.32-.36-.32H5.39c-.31,0-.36.05-.36.32V23.09c0,.27,0,.32.35.32h7.1ZM14.12,10V8.74c0-.31,0-.34-.38-.34H3c-.35,0-.38,0-.38.34V21.06a.2.2,0,0,0,.21.2H4.38V10.84c0-.58.34-.88,1-.88h8.76Zm2.07,10.92H14.06a.53.53,0,0,0-.6.54v1.72l0,0Z" transform="translate(-2 -1)"/><path class="cls-3" d="M10.77,12.68h3a1,1,0,0,1,.24,0,.28.28,0,0,1,.2.27.27.27,0,0,1-.21.27.71.71,0,0,1-.21,0H7.57a.29.29,0,0,1,0-.57h3.19Z" transform="translate(-2 -1)"/><path class="cls-3" d="M10.76,17.17H7.67c-.27,0-.44-.19-.34-.39a.52.52,0,0,1,.25-.18s.13,0,.19,0h6c.33,0,.48.09.48.29s-.15.29-.47.29Z" transform="translate(-2 -1)"/><path class="cls-3" d="M10.77,14.64h3.08c.24,0,.4.14.37.32a.3.3,0,0,1-.28.25H7.76c-.31,0-.46-.1-.46-.3s.16-.28.45-.28Z" transform="translate(-2 -1)"/><path class="cls-3" d="M9.36,18.53H11a.83.83,0,0,1,.22,0,.27.27,0,0,1,0,.53.58.58,0,0,1-.23,0H7.7c-.24,0-.4-.12-.4-.29s.15-.3.39-.3H9.36Z" transform="translate(-2 -1)"/></g></g></g></svg>