<svg xmlns="http://www.w3.org/2000/svg" xmlns:xlink="http://www.w3.org/1999/xlink" viewBox="0 0 28 30"><defs><style>.cls-1{fill:none;}.cls-2{clip-path:url(#clip-path);}.cls-3{fill:#915715;}</style><clipPath id="clip-path" transform="translate(-2 -1)"><rect class="cls-1" width="32" height="32"/></clipPath></defs><g id="Layer_2" data-name="Layer 2"><g id="Layer_1-2" data-name="Layer 1"><g class="cls-2"><path class="cls-3" d="M30,8.21a.36.36,0,0,0-.4-.35.35.35,0,0,0-.39.36c0,.1,0,.2,0,.3V19.24h-4c-.74,0-1.08.35-1.08,1.1v4.13l-.12,0H21.74a6.75,6.75,0,0,1-1-1.24l-.08-.15c-.08-.15-.17-.3-.24-.46s-.13-.32-.19-.48a.94.94,0,0,1-.06-.15,7,7,0,0,1-.39-2.28V16.68q0-.34,0-.69a7.4,7.4,0,0,0-.48-2,7.71,7.71,0,0,0-.39-.82A6.82,6.82,0,0,0,18,11.85a5.2,5.2,0,0,0-.57-.58,7.39,7.39,0,0,0-1.71-1.14h0L15.3,10c-.12-.05-.24-.12-.37-.16V8.64a2.3,2.3,0,0,0-.14-.79l0-.08A2.19,2.19,0,0,0,13.7,6.61c0-1.48,0-3,0-4.46,0-.27.08-.33.33-.33H28.86c.26,0,.34.07.34.34,0,1.28,0,2.56,0,3.84a1.16,1.16,0,0,0,0,.32.35.35,0,0,0,.4.29.34.34,0,0,0,.35-.3A1.83,1.83,0,0,0,30,6c0-1.27,0-2.54,0-3.81A1.08,1.08,0,0,0,29.28,1H13.59a1.14,1.14,0,0,0-.69,1.22c0,1.39,0,2.78,0,4.17h-.14a2.09,2.09,0,0,0-1.08.31,2.21,2.21,0,0,0-1,1.24,2.17,2.17,0,0,0-.11.69V9.8a6.56,6.56,0,0,0-1,.44l-.08,0,0,0a6.06,6.06,0,0,0-.76.48l-.06,0a3.11,3.11,0,0,1-.28.23,7.84,7.84,0,0,0-.83.8A7.3,7.3,0,0,0,5.7,16.69v3.06a6.84,6.84,0,0,1-2.35,5.18,1.76,1.76,0,0,0-.46,2A1.7,1.7,0,0,0,4.45,28H9.2c0,.1.06.19.09.29a3.18,3.18,0,0,0,.09.33,3.68,3.68,0,0,0,.23.49,3.55,3.55,0,0,0,6.3,0,3.7,3.7,0,0,0,.33-.82c0-.1.06-.19.08-.29h4.76a1.71,1.71,0,0,0,1.68-1.73,1.58,1.58,0,0,0,0-.38,2.13,2.13,0,0,0-.23-.56h1.72A1,1,0,0,0,25,25q2.36-2.41,4.73-4.82a.93.93,0,0,0,.29-.7q0-5.51,0-11Zm-16.47.43v.85a4.77,4.77,0,0,0-.76-.07,5.11,5.11,0,0,0-.76.07h0V8.64a.77.77,0,0,1,.76-.78.75.75,0,0,1,.7.47A.81.81,0,0,1,13.52,8.64ZM14,29.09a2.08,2.08,0,0,1-1.28.45,2.1,2.1,0,0,1-1.29-.45,2.2,2.2,0,0,1-.65-.82A1.48,1.48,0,0,1,10.7,28h4.12l-.12.29A2.22,2.22,0,0,1,14,29.09ZM21.26,26a.2.2,0,0,1,.06.09.27.27,0,0,1,0,.12.27.27,0,0,1-.27.28H4.45a.28.28,0,0,1-.28-.28h0a.32.32,0,0,1,.1-.22A8.28,8.28,0,0,0,7.1,19.82s0-.05,0-.07V16.69a5.9,5.9,0,0,1,1.59-4,5.23,5.23,0,0,1,.49-.45.6.6,0,0,0,.08-.08L9.45,12l.37-.26,0,0,.41-.23.4-.19.38-.14a5.5,5.5,0,0,1,.58-.16l.43-.07.36,0c.11,0,.22,0,.34,0a5.59,5.59,0,0,1,2,.37,5.93,5.93,0,0,1,.72.34,5.59,5.59,0,0,1,1.39,1.08,5.3,5.3,0,0,1,.42.52,6.31,6.31,0,0,1,.52.82,5.88,5.88,0,0,1,.6,2c0,.23,0,.45,0,.69v3.05s0,.07,0,.1a8.36,8.36,0,0,0,.75,3.41c0,.09.1.18.14.27l.26.49c.1.17.23.33.34.49a8.57,8.57,0,0,0,.64.82A8.12,8.12,0,0,0,21.26,26Zm3.63-2.2V23c0-.91,0-1.81,0-2.71,0-.19.05-.27.24-.27h3.4Z" transform="translate(-2 -1)"/><path class="cls-3" d="M3,16.69A11.17,11.17,0,0,1,6.13,8.86a.51.51,0,0,0,0-.71.47.47,0,0,0-.69,0A12.16,12.16,0,0,0,2,16.69a.49.49,0,1,0,1,0Z" transform="translate(-2 -1)"/><path class="cls-3" d="M4.46,16.36A.34.34,0,0,0,4.79,16,7.45,7.45,0,0,1,6.9,10.79a.34.34,0,0,0,0-.48.32.32,0,0,0-.46,0A8.11,8.11,0,0,0,4.14,16,.33.33,0,0,0,4.46,16.36Z" transform="translate(-2 -1)"/><path class="cls-3" d="M24.29,9.83a3.56,3.56,0,0,0,.86-2l0-.15V7.2c0-.14,0-.29-.06-.42A3.58,3.58,0,0,0,24,4.66a3.42,3.42,0,0,0-2-.92l-.15,0h-.42c-.13,0-.27,0-.4.06A3.53,3.53,0,0,0,18.89,5,3.64,3.64,0,0,0,18,7a3.64,3.64,0,0,0,.69,2.58,3.35,3.35,0,0,0,2,1.36A3.42,3.42,0,0,0,24.29,9.83Zm-4.8-4.61a2.91,2.91,0,0,1,4-.19l-4.2,4.31A3.12,3.12,0,0,1,19.49,5.22Zm.22,4.58q2.09-2.16,4.2-4.32a3.13,3.13,0,0,1-.22,4.11A2.91,2.91,0,0,1,19.71,9.8Z" transform="translate(-2 -1)"/><path class="cls-3" d="M26.58,14h-5.5a.41.41,0,0,1-.41-.42h0a.42.42,0,0,1,.41-.43h5.5a.42.42,0,0,1,.42.43h0A.42.42,0,0,1,26.58,14Z" transform="translate(-2 -1)"/><path class="cls-3" d="M26.09,16.81H21.63a.42.42,0,0,1-.41-.43h0a.42.42,0,0,1,.41-.43h4.46a.42.42,0,0,1,.42.43h0A.42.42,0,0,1,26.09,16.81Z" transform="translate(-2 -1)"/><path class="cls-3" d="M22.5,19.77H21.35a.42.42,0,0,1-.41-.43h0a.42.42,0,0,1,.41-.43H22.5a.43.43,0,0,1,.42.43h0A.42.42,0,0,1,22.5,19.77Z" transform="translate(-2 -1)"/></g></g></g></svg>