<svg xmlns="http://www.w3.org/2000/svg" xmlns:xlink="http://www.w3.org/1999/xlink" viewBox="0 0 28 30"><defs><style>.cls-1{fill:none}.cls-2{clip-path:url(#clip-path)}.cls-3{fill:#915715}</style><clipPath id="clip-path" transform="translate(-2 -1)"><rect width="32" height="32" class="cls-1"/></clipPath></defs><g id="Layer_2" data-name="Layer 2"><g id="Layer_1-2" data-name="Layer 1"><g class="cls-2"><path d="M18.4,25.07H7.2a.51.51,0,0,0-.53.5.52.52,0,0,0,.53.5H18.4a.52.52,0,0,0,.53-.5A.51.51,0,0,0,18.4,25.07Z" class="cls-3" transform="translate(-2 -1)"/><path d="M9.47,12.41a.81.81,0,0,1-.83-.78.84.84,0,0,0-1.67,0A2.32,2.32,0,0,0,8.32,13.7v.46a.84.84,0,0,0,1.67,0v-.25a2.38,2.38,0,0,0,2-2.28v-.32a2.35,2.35,0,0,0-1.75-2.23l-1-.29a.77.77,0,0,1-.58-.74V7.73a.83.83,0,0,1,1.66,0,.83.83,0,0,0,1.66,0,2.36,2.36,0,0,0-1.66-2.2V5.2a.83.83,0,0,0-1.66,0v.33A2.36,2.36,0,0,0,7,7.73v.32a2.36,2.36,0,0,0,1.75,2.23l1,.29a.78.78,0,0,1,.59.74v.32A.81.81,0,0,1,9.47,12.41Z" class="cls-3" transform="translate(-2 -1)"/><path d="M27.87,19.12H25.6a.51.51,0,1,0,0,1h2.27a1,1,0,0,1,1.06,1V27.5a2.67,2.67,0,0,1-5.33,0V19.69a.54.54,0,0,0-1.07,0V27.5A3.37,3.37,0,0,0,23.66,30H5.73a2.58,2.58,0,0,1-2.66-2.5V3A1,1,0,0,1,4.13,2H21.47a1,1,0,0,1,1.06,1A.54.54,0,0,0,23.6,3a2.08,2.08,0,0,0-2.13-2H4.13A2.08,2.08,0,0,0,2,3V27.5A3.62,3.62,0,0,0,5.73,31H26.27A3.62,3.62,0,0,0,30,27.5V21.12A2.08,2.08,0,0,0,27.87,19.12Z" class="cls-3" transform="translate(-2 -1)"/><path d="M18.4,20.69H7.2a.51.51,0,0,0-.53.5.52.52,0,0,0,.53.5H18.4a.52.52,0,0,0,.53-.5A.51.51,0,0,0,18.4,20.69Z" class="cls-3" transform="translate(-2 -1)"/><path d="M6.67,17.45v.22a.4.4,0,0,0,.41.39h8.69a.39.39,0,0,0,.4-.39v-.22a.4.4,0,0,0-.4-.39H7.08A.4.4,0,0,0,6.67,17.45Z" class="cls-3" transform="translate(-2 -1)"/><path d="M17.37,11.42a.78.78,0,0,1-.79-.76,6.34,6.34,0,0,1,1.77-4.23,6.56,6.56,0,0,1,4.83-2.06,6.83,6.83,0,0,1,3.37.9,5.82,5.82,0,0,1,.66.44v0a.77.77,0,0,1,.22-.55A.83.83,0,0,1,28,4.91a.79.79,0,0,1,.81.74l.06,1.85a.68.68,0,0,1-.21.71.78.78,0,0,1-.56.22l-.24,0L26,8.35a.8.8,0,0,1-.55-.24.77.77,0,0,1-.22-.54A.78.78,0,0,1,26,6.84h.18c-.14-.09-.28-.19-.43-.27a5.17,5.17,0,0,0-2.55-.69,5,5,0,0,0-3.66,1.56,4.87,4.87,0,0,0-1.36,3.22A.77.77,0,0,1,17.37,11.42Z" class="cls-3" transform="translate(-2 -1)"/><path d="M17.37,11.08a.43.43,0,0,1-.44-.42,6.05,6.05,0,0,1,1.68-4A6.25,6.25,0,0,1,23.18,4.7a6.43,6.43,0,0,1,3.18.86,6.53,6.53,0,0,1,1.23.91l0-.79a.37.37,0,0,1,.12-.3.43.43,0,0,1,.3-.13.43.43,0,0,1,.45.4l.07,1.91A.36.36,0,0,1,28.4,8a.44.44,0,0,1-.31.13h0l-.14,0L26,8a.43.43,0,0,1-.3-.13.41.41,0,0,1,.31-.7l1.16,0a5.94,5.94,0,0,0-1.23-.93,5.44,5.44,0,0,0-2.73-.74,5.33,5.33,0,0,0-3.92,1.67,5.18,5.18,0,0,0-1.45,3.45A.43.43,0,0,1,17.37,11.08Z" class="cls-3" transform="translate(-2 -1)"/><path d="M23.18,5.41a5.69,5.69,0,0,1,2.8.76,6,6,0,0,1,1.46,1.18L26,7.3a.3.3,0,0,0-.32.28.3.3,0,0,0,.3.31L28,8a.31.31,0,0,0,.33-.06.28.28,0,0,0,.07-.32l-.07-1.91A.3.3,0,0,0,28,5.37a.29.29,0,0,0-.3.3h0l0,1.1A6.45,6.45,0,0,0,26.3,5.67a6.29,6.29,0,0,0-3.12-.84,6.08,6.08,0,0,0-4.47,1.91,5.89,5.89,0,0,0-1.65,3.92.31.31,0,0,0,.62,0,5.31,5.31,0,0,1,1.48-3.53A5.46,5.46,0,0,1,23.18,5.41Z" class="cls-3" transform="translate(-2 -1)"/><path d="M23.26,17a6.84,6.84,0,0,1-3.37-.91c-.23-.13-.45-.28-.67-.43h0a.7.7,0,0,1-.22.55.75.75,0,0,1-.55.23.77.77,0,0,1-.81-.73l-.06-1.85a.71.71,0,0,1,.2-.72.82.82,0,0,1,.56-.22l.25,0,1.89.05a.78.78,0,0,1,.55.23.74.74,0,0,1,.21.54.78.78,0,0,1-.79.74h-.18a5.08,5.08,0,0,0,.43.27,5.14,5.14,0,0,0,2.56.7,5,5,0,0,0,3.65-1.56,4.89,4.89,0,0,0,1.36-3.23.8.8,0,0,1,1.59,0,6.38,6.38,0,0,1-1.77,4.24A6.56,6.56,0,0,1,23.26,17Z" class="cls-3" transform="translate(-2 -1)"/><path d="M23.26,16.62a6.44,6.44,0,0,1-3.19-.86,7.33,7.33,0,0,1-1.23-.9l0,.78a.43.43,0,0,1-.12.31.49.49,0,0,1-.31.13.43.43,0,0,1-.45-.41l-.06-1.91a.37.37,0,0,1,.1-.41.47.47,0,0,1,.31-.12h0l.14,0,1.95.05a.49.49,0,0,1,.31.13.44.44,0,0,1,.12.3.43.43,0,0,1-.44.41l-1.15,0a5.92,5.92,0,0,0,1.22.94,5.58,5.58,0,0,0,2.74.74,5.34,5.34,0,0,0,3.92-1.68,5.23,5.23,0,0,0,1.45-3.45.42.42,0,0,1,.43-.41.43.43,0,0,1,.44.41,6,6,0,0,1-1.67,4A6.21,6.21,0,0,1,23.26,16.62Z" class="cls-3" transform="translate(-2 -1)"/><path d="M23.26,16.83A6.63,6.63,0,0,1,20,16a7.58,7.58,0,0,1-.88-.6v.29a.65.65,0,0,1-.64.65h0a.66.66,0,0,1-.68-.62l-.06-1.85a.6.6,0,0,1,.16-.62.7.7,0,0,1,.47-.19.52.52,0,0,1,.18,0l1.95.06a.65.65,0,0,1,.46.2.59.59,0,0,1,.18.45.64.64,0,0,1-.66.61l-.57,0a4.87,4.87,0,0,0,.76.52,5.21,5.21,0,0,0,2.62.71A5.12,5.12,0,0,0,27,14a5,5,0,0,0,1.39-3.31.67.67,0,0,1,1.33,0A6.23,6.23,0,0,1,28,14.81,6.41,6.41,0,0,1,23.26,16.83Z" class="cls-3" transform="translate(-2 -1)"/><path d="M29.06,10.37a.29.29,0,0,0-.3.29,5.31,5.31,0,0,1-1.49,3.53,5.44,5.44,0,0,1-4,1.72,5.58,5.58,0,0,1-2.8-.76A6,6,0,0,1,19,14l1.45,0a.29.29,0,1,0,0-.58l-2-.07a.31.31,0,0,0-.33.07.28.28,0,0,0-.07.32l.06,1.91a.31.31,0,0,0,.62,0h0l0-1.1a6.82,6.82,0,0,0,1.44,1.11,6.29,6.29,0,0,0,3.12.84,6.08,6.08,0,0,0,4.47-1.91,5.91,5.91,0,0,0,1.64-3.93A.3.3,0,0,0,29.06,10.37Z" class="cls-3" transform="translate(-2 -1)"/></g></g></g></svg>