<svg xmlns="http://www.w3.org/2000/svg" xmlns:xlink="http://www.w3.org/1999/xlink" viewBox="0 0 28 30"><defs><style>.cls-1{fill:none;}.cls-2{clip-path:url(#clip-path);}.cls-3{fill:#915715;}</style><clipPath id="clip-path" transform="translate(-2 -1)"><rect class="cls-1" width="32" height="32"/></clipPath></defs><g id="Layer_2" data-name="Layer 2"><g id="Layer_1-2" data-name="Layer 1"><g class="cls-2"><path class="cls-1" d="M24.58,21.29c-.21,0-.26.09-.26.28,0,1,0,1.92,0,2.89v.85l4-4-.08,0C27.05,21.29,25.82,21.3,24.58,21.29Z" transform="translate(-2 -1)"/><path class="cls-1" d="M21.38,8.19a1.78,1.78,0,0,1-1.53,0,2.42,2.42,0,0,0-1.64,2.25s0,0,0,0l.17.13.1.08.17.11.12.08L19,11l.15.07.16.07.16.06.15.05.19,0,.15,0,.21,0,.13,0,.35,0,.35,0,.12,0,.22,0,.14,0,.19,0,.15-.05.17-.06.15-.07.15-.07.16-.09.13-.08.16-.11a.39.39,0,0,0,.1-.08l.17-.13,0,0A2.41,2.41,0,0,0,21.38,8.19Z" transform="translate(-2 -1)"/><path class="cls-1" d="M9.35,19.65c0,.57,0,1.14,0,1.73h1.73V19.5a15.43,15.43,0,0,1,.58-4.27,18.53,18.53,0,0,1,1.27-3.1,2.94,2.94,0,0,0-1.14-3.82,3,3,0,0,0-3.94.75,2.82,2.82,0,0,0-.25,3.26,13.47,13.47,0,0,1,1.52,4.43C9.25,17.71,9.29,18.68,9.35,19.65Z" transform="translate(-2 -1)"/><path class="cls-1" d="M20,7.61a1.3,1.3,0,0,0,.25.1l0,0,.09,0h.39l.09,0,.05,0a1.09,1.09,0,0,0,.25-.1h0a1.08,1.08,0,0,0,.45-.45A1.2,1.2,0,1,0,19.57,6,1.19,1.19,0,0,0,20,7.6Z" transform="translate(-2 -1)"/><path class="cls-1" d="M19.29,7.78a1.8,1.8,0,1,1,2.65,0,3,3,0,0,1,1.61,2.07,3.56,3.56,0,0,0,.67-2.09,3.6,3.6,0,1,0-6.54,2.09A3,3,0,0,1,19.29,7.78Z" transform="translate(-2 -1)"/><path class="cls-3" d="M17.79,10.86c.07.06.13.13.2.18l.12.09.21.15.14.09.2.11.17.09.19.08.19.07.19.07.22.05.18.05.25,0,.15,0,.42,0L21,12l.16,0,.25,0,.18-.05.22-.05.18-.07.2-.07.19-.08.17-.09.19-.11.15-.09.2-.15.12-.09a1.68,1.68,0,0,0,.21-.18l.07-.06h0a4.21,4.21,0,1,0-5.82,0h0ZM23,10.48l-.17.13a.39.39,0,0,1-.1.08l-.16.11-.13.08-.16.09-.15.07-.15.07-.17.06-.15.05-.19,0-.14,0-.22,0-.12,0-.35,0-.35,0-.13,0-.21,0-.15,0-.19,0-.15-.05-.16-.06L19.12,11,19,11l-.16-.09-.12-.08-.17-.11-.1-.08-.17-.13s0,0,0,0a2.42,2.42,0,0,1,1.64-2.25,1.78,1.78,0,0,0,1.53,0A2.41,2.41,0,0,1,23,10.44ZM19.57,6a1.2,1.2,0,1,1,2.09,1.18,1.08,1.08,0,0,1-.45.45h0a1.09,1.09,0,0,1-.25.1l-.05,0-.09,0h-.39l-.09,0,0,0a1.3,1.3,0,0,1-.25-.1h0A1.19,1.19,0,0,1,19.57,6ZM17.68,9.85a3.6,3.6,0,1,1,6.54-2.09,3.56,3.56,0,0,1-.67,2.09,3,3,0,0,0-1.61-2.07,1.8,1.8,0,1,0-2.65,0A3,3,0,0,0,17.68,9.85Z" transform="translate(-2 -1)"/><path class="cls-3" d="M14.93,14a.37.37,0,0,0-.38.37c0,.31.14.5.5.5h11a.42.42,0,0,0,.38-.47c0-.27-.17-.4-.54-.4h-11Z" transform="translate(-2 -1)"/><path class="cls-3" d="M26,17.83a.42.42,0,0,0,.45-.41.44.44,0,0,0-.41-.46,2.43,2.43,0,0,0-.27,0q-5.31,0-10.62,0a2.43,2.43,0,0,0-.27,0,.43.43,0,0,0-.31.67.7.7,0,0,0,.48.19c1.8,0,3.61,0,5.42,0h3.84C24.92,17.83,25.48,17.84,26,17.83Z" transform="translate(-2 -1)"/><path class="cls-3" d="M18,20H15a.41.41,0,0,0-.48.34c-.06.34.13.53.55.53h5.77c.37,0,.57-.16.56-.45s-.18-.42-.54-.42Z" transform="translate(-2 -1)"/><path class="cls-3" d="M18.44,28.2a.53.53,0,0,0-.58-.56h-.47v-.52a5.6,5.6,0,0,0-.15-1.35,3.08,3.08,0,0,0-2-2.05,2.72,2.72,0,0,0-.49-.13l-.17,0a2.06,2.06,0,0,0-.7-1.73,2.27,2.27,0,0,0-1.6-.52h-.23s0-1.22,0-1.55a14.59,14.59,0,0,1,1.7-7.09,3.88,3.88,0,0,0-1.59-5.25A5.21,5.21,0,0,0,11,7a5.83,5.83,0,0,0-.84-.07A3.81,3.81,0,0,0,9.3,7,4,4,0,0,0,6.6,9.24a3.9,3.9,0,0,0,.11,3.52,16.74,16.74,0,0,1,1,2.34,17.93,17.93,0,0,1,.7,6.21H8.15a2.33,2.33,0,0,0-1.62.52,2.2,2.2,0,0,0-.7,1.74A3.1,3.1,0,0,0,3.08,26.8v.84h-.5A.51.51,0,0,0,2,28.2q0,1.11,0,2.22A.52.52,0,0,0,2.6,31H17.75c.29,0,.68-.07.69-.58Q18.45,29.31,18.44,28.2Zm-9-8.56,0-.33c0-.85-.09-1.72-.21-2.58a13.11,13.11,0,0,0-1.53-4.45,2.75,2.75,0,0,1,.24-3.16A2.84,2.84,0,0,1,10.22,8a2.94,2.94,0,0,1,1.52.43,2.84,2.84,0,0,1,1.11,3.7,17.76,17.76,0,0,0-1.28,3.12A15.93,15.93,0,0,0,11,19.5v1.79H9.45v-.46C9.46,20.43,9.46,20,9.44,19.64Zm-2.5,3.88a1.08,1.08,0,0,1,.23-.84A1.09,1.09,0,0,1,8,22.37h4.38a1.16,1.16,0,0,1,.88.3,1.17,1.17,0,0,1,.25.85Zm-.29,1,0,.09h7.37a2,2,0,0,1,2.15,1.53,6.06,6.06,0,0,1,.09,1.06c0,.14,0,.28,0,.42H4.13c0-.14,0-.28,0-.42a5.35,5.35,0,0,1,.1-1.08,1.94,1.94,0,0,1,1.81-1.5l.59,0v-.09ZM3.39,29.93l-.06,0,0,0h-.2V28.72H17.34v1.21H3.39Z" transform="translate(-2 -1)"/><path class="cls-1" d="M24.58,21.29c-.21,0-.26.09-.26.28,0,1,0,1.92,0,2.89v.85l4-4-.08,0C27.05,21.29,25.82,21.3,24.58,21.29Z" transform="translate(-2 -1)"/><path class="cls-3" d="M29.11,2.23c0,1.36,0,2.72,0,4.09a1.3,1.3,0,0,0,0,.34.4.4,0,0,0,.44.32.39.39,0,0,0,.4-.33,2,2,0,0,0,0-.35C30,5,30,3.59,30,2.24A1.14,1.14,0,0,0,29.2,1H11.78A1.21,1.21,0,0,0,11,2.3c0,.66,0,1.32,0,2,0,.42,0,.85,0,1.27a.43.43,0,0,0,.43.35h0a.46.46,0,0,0,.43-.35V2.23c0-.29.09-.36.37-.36H28.74C29,1.87,29.11,2,29.11,2.23Z" transform="translate(-2 -1)"/><path class="cls-3" d="M30,8.68a.44.44,0,0,0-.87,0c0,.11,0,.21,0,.32V20.42h-.38c-1.36,0-2.72,0-4.09,0-.82,0-1.2.37-1.2,1.17V26l-.13,0H18.82a.44.44,0,0,0-.31.42v0a.45.45,0,0,0,.41.44h4.65a1.1,1.1,0,0,0,.85-.35l5.26-5.14a1,1,0,0,0,.32-.74q0-5.86,0-11.71A2.17,2.17,0,0,0,30,8.68ZM24.32,25.31v-.85c0-1,0-1.93,0-2.89,0-.19.05-.28.26-.28,1.24,0,2.47,0,3.7,0l.08,0Z" transform="translate(-2 -1)"/></g></g></g></svg>