<svg xmlns="http://www.w3.org/2000/svg" xmlns:xlink="http://www.w3.org/1999/xlink" viewBox="0 0 28 30"><defs><style>.cls-1{fill:none;}.cls-2{clip-path:url(#clip-path);}.cls-3{fill:#915715;}</style><clipPath id="clip-path" transform="translate(-2 -1)"><rect class="cls-1" width="32" height="32"/></clipPath></defs><g id="Layer_2" data-name="Layer 2"><g id="Layer_1-2" data-name="Layer 1"><g class="cls-2"><path class="cls-3" d="M15.77,19.81H5a.47.47,0,1,0,0,.94H15.77a.47.47,0,1,0,0-.94Z" transform="translate(-2 -1)"/><path class="cls-3" d="M25.16,23h0a.49.49,0,0,0-.51.47v1.32h0v4.6a.67.67,0,0,1-.69.64H3.69A.67.67,0,0,1,3,29.42V2.58a.67.67,0,0,1,.68-.64H24a.67.67,0,0,1,.69.64V8a.43.43,0,0,0,.22.22.49.49,0,0,0,.25.07h0a.5.5,0,0,0,.48-.35h0V2.5A1.49,1.49,0,0,0,24.44,1l-.29,0H3.69A1.64,1.64,0,0,0,2,2.58V29.42A1.64,1.64,0,0,0,3.69,31H24a1.64,1.64,0,0,0,1.7-1.58v-.6h0V23.5a.42.42,0,0,0-.09-.24A.49.49,0,0,0,25.16,23Z" transform="translate(-2 -1)"/><path class="cls-3" d="M14.61,6.47A5.78,5.78,0,0,0,10.4,4.64a5.89,5.89,0,0,0-5.84,5.93,6,6,0,0,0,1.8,4.3h0l.11.09.29.25.16.13.28.21.2.12.28.16.24.12.26.13.27.1.26.09.3.08.25.06.34,0,.22,0a5.49,5.49,0,0,0,.58,0l.58,0a1.52,1.52,0,0,0,.21,0l.35,0,.25-.06.3-.08.25-.09.28-.1.26-.13.24-.12.27-.16.2-.12.29-.21.16-.13.29-.25.1-.09h0A6,6,0,0,0,14.61,6.47Zm-.93,8-.24.2-.14.1a1.88,1.88,0,0,1-.23.16L12.9,15l-.22.13-.21.1-.21.09L12,15.4l-.22.07-.25.07-.2.05-.31,0-.17,0-.48,0-.49,0-.17,0-.3,0-.21-.05L9,15.47l-.21-.07-.23-.09-.22-.09-.2-.1L7.89,15l-.17-.11a1.88,1.88,0,0,1-.23-.16l-.14-.1-.24-.2-.05-.05a3.4,3.4,0,0,1,2.27-3.18,2.42,2.42,0,0,0,2.13,0,3.4,3.4,0,0,1,2.27,3.18ZM8.94,8.05a1.65,1.65,0,0,1,2.27-.65,1.71,1.71,0,0,1,.64,2.31,1.67,1.67,0,0,1-.64.65h0a2.17,2.17,0,0,1-.35.15l-.07,0-.13,0-.24,0h-.05l-.24,0-.13,0-.07,0a2.07,2.07,0,0,1-.34-.15h0A1.72,1.72,0,0,1,8.94,8.05Zm5.53,5.48h0a4.28,4.28,0,0,0-2.23-2.93A2.59,2.59,0,0,0,12.09,7a2.48,2.48,0,0,0-3.54.16,2.59,2.59,0,0,0,0,3.44,4.28,4.28,0,0,0-2.23,2.93A5.15,5.15,0,0,1,7.5,6.43a4.94,4.94,0,0,1,7,1.2,5.14,5.14,0,0,1,0,5.9Z" transform="translate(-2 -1)"/><path class="cls-3" d="M20.16,15.35a4.34,4.34,0,0,1,1.12-2.79,4,4,0,0,1,3-1.35,4.11,4.11,0,0,1,2.1.6l.11.07a.76.76,0,0,0-.61.73.8.8,0,0,0,.2.55.81.81,0,0,0,.54.24l1.58,0,.22,0a.76.76,0,0,0,.54-.23.7.7,0,0,0,.2-.7l-.05-1.65a.76.76,0,0,0-1.32-.51.82.82,0,0,0-.2.38l-.42-.28a5.58,5.58,0,0,0-2.89-.82,5.51,5.51,0,0,0-4.14,1.86,5.91,5.91,0,0,0-1.51,3.82.77.77,0,1,0,1.53,0Z" transform="translate(-2 -1)"/><path class="cls-3" d="M29.23,14.58a.77.77,0,0,0-.76.77,4.34,4.34,0,0,1-1.12,2.79,4,4,0,0,1-3,1.35,4.11,4.11,0,0,1-2.1-.6l-.11-.07a.77.77,0,0,0,.4-1.28A.77.77,0,0,0,22,17.3l-1.58,0-.22,0a.76.76,0,0,0-.54.23.7.7,0,0,0-.2.7l.05,1.65a.76.76,0,0,0,1.32.51.78.78,0,0,0,.2-.38c.13.1.28.19.42.28a5.58,5.58,0,0,0,2.89.82,5.51,5.51,0,0,0,4.14-1.86A5.94,5.94,0,0,0,30,15.35.77.77,0,0,0,29.23,14.58Z" transform="translate(-2 -1)"/><path class="cls-3" d="M21.93,24.05H5a.5.5,0,0,1-.5-.5h0a.5.5,0,0,1,.5-.5H21.93a.5.5,0,0,1,.5.5h0A.5.5,0,0,1,21.93,24.05Z" transform="translate(-2 -1)"/><path class="cls-3" d="M21.93,27.05H5a.5.5,0,0,1-.5-.5h0a.5.5,0,0,1,.5-.5H21.93a.5.5,0,0,1,.5.5h0A.5.5,0,0,1,21.93,27.05Z" transform="translate(-2 -1)"/></g></g></g></svg>