<svg xmlns="http://www.w3.org/2000/svg" xmlns:xlink="http://www.w3.org/1999/xlink" viewBox="0 0 28 30"><defs><style>.cls-1{fill:none;}.cls-2{clip-path:url(#clip-path);}.cls-3{fill:#915715;}</style><clipPath id="clip-path" transform="translate(-2 -1)"><rect class="cls-1" width="32" height="32"/></clipPath></defs><g id="Layer_2" data-name="Layer 2"><g id="Layer_1-2" data-name="Layer 1"><g class="cls-2"><path class="cls-3" d="M8.09,12.41a.81.81,0,0,1-.83-.78.83.83,0,0,0-1.66,0A2.32,2.32,0,0,0,7,13.7v.46a.83.83,0,0,0,1.66,0v-.25a2.38,2.38,0,0,0,2-2.28v-.32A2.37,2.37,0,0,0,8.84,9.08l-1-.29a.78.78,0,0,1-.59-.74V7.73a.83.83,0,0,1,1.66,0,.84.84,0,0,0,1.67,0,2.36,2.36,0,0,0-1.67-2.2V5.2a.83.83,0,0,0-1.66,0v.33A2.36,2.36,0,0,0,5.6,7.73v.32a2.35,2.35,0,0,0,1.75,2.23l1,.29a.77.77,0,0,1,.58.74v.32A.81.81,0,0,1,8.09,12.41Z" transform="translate(-2 -1)"/><path class="cls-3" d="M17.26,25.07H6.06a.51.51,0,0,0-.53.5.52.52,0,0,0,.53.5h11.2a.52.52,0,0,0,.54-.5A.52.52,0,0,0,17.26,25.07Z" transform="translate(-2 -1)"/><path class="cls-3" d="M27.87,19.12H25.6a.51.51,0,1,0,0,1h2.27a1,1,0,0,1,1.06,1V27.5a2.67,2.67,0,0,1-5.33,0V19.69a.54.54,0,0,0-1.07,0V27.5A3.37,3.37,0,0,0,23.66,30H5.73a2.58,2.58,0,0,1-2.66-2.5V3A1,1,0,0,1,4.13,2H21.47a1,1,0,0,1,1.06,1A.54.54,0,0,0,23.6,3a2.08,2.08,0,0,0-2.13-2H4.13A2.08,2.08,0,0,0,2,3V27.5A3.62,3.62,0,0,0,5.73,31H26.27A3.62,3.62,0,0,0,30,27.5V21.12A2.08,2.08,0,0,0,27.87,19.12Z" transform="translate(-2 -1)"/><path class="cls-3" d="M17.26,21.82H6.06a.51.51,0,0,0-.53.5.52.52,0,0,0,.53.5h11.2a.52.52,0,0,0,.54-.5A.52.52,0,0,0,17.26,21.82Z" transform="translate(-2 -1)"/><path class="cls-3" d="M5.53,18.58v.22a.4.4,0,0,0,.41.39h8.69A.4.4,0,0,0,15,18.8v-.22a.4.4,0,0,0-.41-.39H5.94A.4.4,0,0,0,5.53,18.58Z" transform="translate(-2 -1)"/><path class="cls-3" d="M17.41,11.94a.78.78,0,0,1-.8-.75A6.36,6.36,0,0,1,18.38,7a6.56,6.56,0,0,1,4.83-2.06,6.74,6.74,0,0,1,3.37.91,6.9,6.9,0,0,1,.67.43h0a.75.75,0,0,1,.21-.55A.84.84,0,0,1,28,5.43a.78.78,0,0,1,.81.74L28.89,8a.7.7,0,0,1-.21.72.78.78,0,0,1-.55.22l-.25,0L26,8.87a.77.77,0,0,1-.55-.24.7.7,0,0,1-.21-.53A.77.77,0,0,1,26,7.36h.18c-.14-.1-.29-.19-.44-.28a5.17,5.17,0,0,0-2.55-.69A5,5,0,0,0,19.56,8a4.89,4.89,0,0,0-1.36,3.23A.78.78,0,0,1,17.41,11.94Z" transform="translate(-2 -1)"/><path class="cls-3" d="M23.21,6.06a5.62,5.62,0,0,1,4,1.68L26,7.7a.43.43,0,0,0-.44.4.41.41,0,0,0,.12.3.43.43,0,0,0,.3.13l2,.06.14,0h0a.47.47,0,0,0,.31-.12.37.37,0,0,0,.1-.41l-.07-1.91A.42.42,0,0,0,28,5.77a.49.49,0,0,0-.31.13.43.43,0,0,0-.12.31l0,.78a7.19,7.19,0,0,0-1.23-.9,6.44,6.44,0,0,0-3.19-.86,6.21,6.21,0,0,0-4.57,1.95,6,6,0,0,0-1.67,4,.44.44,0,0,0,.87,0,5.18,5.18,0,0,1,1.45-3.45A5.34,5.34,0,0,1,23.21,6.06Z" transform="translate(-2 -1)"/><path class="cls-3" d="M23.29,17.48a6.83,6.83,0,0,1-3.37-.9,7.57,7.57,0,0,1-.66-.44v0a.8.8,0,0,1-.22.55.88.88,0,0,1-.56.23.79.79,0,0,1-.81-.74l-.06-1.85a.68.68,0,0,1,.21-.71.79.79,0,0,1,.56-.23l.24,0,1.89.05a.82.82,0,0,1,.55.24.75.75,0,0,1,.22.54.78.78,0,0,1-.8.73h-.17a4.55,4.55,0,0,0,.43.28,5.17,5.17,0,0,0,2.55.69A5,5,0,0,0,27,14.41a4.87,4.87,0,0,0,1.36-3.22.79.79,0,0,1,1.58,0,6.34,6.34,0,0,1-1.77,4.23A6.56,6.56,0,0,1,23.29,17.48Z" transform="translate(-2 -1)"/><path class="cls-3" d="M29.1,10.77a.43.43,0,0,0-.44.42,5.22,5.22,0,0,1-1.45,3.45,5.33,5.33,0,0,1-3.92,1.67,5.54,5.54,0,0,1-2.73-.74,5.68,5.68,0,0,1-1.23-.93l1.15,0a.43.43,0,0,0,.44-.4.42.42,0,0,0-.12-.3.43.43,0,0,0-.3-.13l-2-.06-.14,0h0a.48.48,0,0,0-.31.12.37.37,0,0,0-.11.42l.07,1.9a.43.43,0,0,0,.45.41.43.43,0,0,0,.3-.13.41.41,0,0,0,.12-.3l0-.79a6.94,6.94,0,0,0,1.24.91,6.42,6.42,0,0,0,3.18.85,6.21,6.21,0,0,0,4.57-2,6,6,0,0,0,1.67-4A.42.42,0,0,0,29.1,10.77Z" transform="translate(-2 -1)"/><path class="cls-3" d="M26.79,10.66H23.92V7.91a.48.48,0,0,0-.48-.46.47.47,0,0,0-.48.46v2.75H20.08a.46.46,0,1,0,0,.91H23v2.75a.46.46,0,0,0,.48.45.47.47,0,0,0,.48-.45V11.57h2.87a.46.46,0,1,0,0-.91Z" transform="translate(-2 -1)"/></g></g></g></svg>