<svg xmlns="http://www.w3.org/2000/svg" xmlns:xlink="http://www.w3.org/1999/xlink" viewBox="0 0 28 30"><defs><style>.cls-1{fill:none}.cls-2{clip-path:url(#clip-path)}.cls-3{fill:#915715}</style><clipPath id="clip-path" transform="translate(-2 -1)"><rect width="32" height="32" class="cls-1"/></clipPath></defs><g id="Layer_2" data-name="Layer 2"><g id="Layer_1-2" data-name="Layer 1"><g class="cls-2"><path d="M18.4,25.07H7.2a.51.51,0,0,0-.53.5.52.52,0,0,0,.53.5H18.4a.52.52,0,0,0,.53-.5A.51.51,0,0,0,18.4,25.07Z" class="cls-3" transform="translate(-2 -1)"/><path d="M9.47,12.41a.81.81,0,0,1-.83-.78.84.84,0,0,0-1.67,0A2.32,2.32,0,0,0,8.32,13.7v.46a.84.84,0,0,0,1.67,0v-.25a2.38,2.38,0,0,0,2-2.28v-.32a2.35,2.35,0,0,0-1.75-2.23l-1-.29a.77.77,0,0,1-.58-.74V7.73a.83.83,0,0,1,1.66,0,.83.83,0,0,0,1.66,0,2.36,2.36,0,0,0-1.66-2.2V5.2a.83.83,0,0,0-1.66,0v.33A2.36,2.36,0,0,0,7,7.73v.32a2.36,2.36,0,0,0,1.75,2.23l1,.29a.78.78,0,0,1,.59.74v.32A.81.81,0,0,1,9.47,12.41Z" class="cls-3" transform="translate(-2 -1)"/><path d="M27.87,19.13H25.6a.5.5,0,1,0,0,1h2.27a1,1,0,0,1,1.06,1V27.5a2.67,2.67,0,0,1-5.33,0V19.69a.54.54,0,0,0-1.07,0V27.5A3.37,3.37,0,0,0,23.66,30H5.73a2.58,2.58,0,0,1-2.66-2.5V3A1,1,0,0,1,4.13,2H21.47a1,1,0,0,1,1.06,1A.54.54,0,0,0,23.6,3a2.08,2.08,0,0,0-2.13-2H4.13A2.08,2.08,0,0,0,2,3V27.5A3.62,3.62,0,0,0,5.73,31H26.27A3.62,3.62,0,0,0,30,27.5V21.12A2.07,2.07,0,0,0,27.87,19.13Z" class="cls-3" transform="translate(-2 -1)"/><path d="M18.4,20.69H7.2a.51.51,0,0,0-.53.5.52.52,0,0,0,.53.5H18.4a.52.52,0,0,0,.53-.5A.51.51,0,0,0,18.4,20.69Z" class="cls-3" transform="translate(-2 -1)"/><path d="M6.67,17.45v.22a.4.4,0,0,0,.41.39h8.69a.39.39,0,0,0,.4-.39v-.22a.4.4,0,0,0-.4-.39H7.08A.4.4,0,0,0,6.67,17.45Z" class="cls-3" transform="translate(-2 -1)"/><path d="M29.46,12.09l-1.19-.17h-.05a.35.35,0,0,0-.35.28l0,.14A4.84,4.84,0,0,1,23,16.06a5.93,5.93,0,0,1-.83-.07A5.05,5.05,0,0,1,19,14a4.36,4.36,0,0,1-.78-3.45,4.75,4.75,0,0,1,3.63-3.83l.34-.08a.33.33,0,0,0,.28-.38l-.17-1.13a.42.42,0,0,0-.2-.22.48.48,0,0,0-.22,0h-.09a7,7,0,0,0-3.59,1.89,6.43,6.43,0,0,0-1.85,3.47c0,.16,0,.33-.08.49l0,.23v.79l0,.23c0,.16,0,.32.07.48A6.44,6.44,0,0,0,19,16.59a7.06,7.06,0,0,0,3.62,1.27h.8l.25,0a3.55,3.55,0,0,0,.47-.06,6.56,6.56,0,0,0,5.45-4.61,4.41,4.41,0,0,0,.16-.67.34.34,0,0,0-.05-.26A.35.35,0,0,0,29.46,12.09Z" class="cls-3" transform="translate(-2 -1)"/><path d="M28.75,7.62a.36.36,0,0,0-.24-.13h-.05a.38.38,0,0,0-.21.07l-.94.67a.34.34,0,0,0-.1.44l.08.14a6.1,6.1,0,0,1,.39.71,6.91,6.91,0,0,1,.25.77l.05.15a.35.35,0,0,0,.34.25h.05l1.16-.16a.42.42,0,0,0,.24-.14.31.31,0,0,0,.06-.26A6.12,6.12,0,0,0,28.75,7.62Z" class="cls-3" transform="translate(-2 -1)"/><path d="M24,6.65a4.43,4.43,0,0,1,1.79.71.46.46,0,0,0,.2,0,.36.36,0,0,0,.28-.12l.7-.84a.29.29,0,0,0,.07-.25A.3.3,0,0,0,26.93,6a6.75,6.75,0,0,0-2.6-1.11h-.07a.36.36,0,0,0-.2.06.31.31,0,0,0-.15.23l-.17,1.12A.34.34,0,0,0,24,6.65Z" class="cls-3" transform="translate(-2 -1)"/><path d="M25.05,8.77l-2,1.94L21,8.77a.48.48,0,0,0-.67,0,.44.44,0,0,0,0,.65l2,1.94-2,1.94a.44.44,0,0,0,0,.65A.48.48,0,0,0,21,14L23,12l2,1.94a.51.51,0,0,0,.68,0,.44.44,0,0,0,0-.65l-2-1.94,2-1.94a.44.44,0,0,0,0-.65A.5.5,0,0,0,25.05,8.77Z" class="cls-3" transform="translate(-2 -1)"/></g></g></g></svg>