<svg xmlns="http://www.w3.org/2000/svg" xmlns:xlink="http://www.w3.org/1999/xlink" viewBox="0 0 28 30"><defs><style>.cls-1{fill:none;}.cls-2{clip-path:url(#clip-path);}.cls-3{fill:#915715;}</style><clipPath id="clip-path" transform="translate(-2 -1)"><rect class="cls-1" width="32" height="32"/></clipPath></defs><g id="Layer_2" data-name="Layer 2"><g id="Layer_1-2" data-name="Layer 1"><g class="cls-2"><path class="cls-3" d="M6.65,10.18a1.09,1.09,0,0,1-1-1.13V6.45a1.09,1.09,0,0,1,1-1.13h7.58a1.09,1.09,0,0,1,1,1.13v2.6a1.09,1.09,0,0,1-1,1.13Zm7.26-1.45v-2h-7v2Z" transform="translate(-2 -1)"/><path class="cls-3" d="M6,15.32h8.1a.41.41,0,0,0,0-.82H6a.41.41,0,0,0,0,.82Z" transform="translate(-2 -1)"/><path class="cls-3" d="M5.92,18.11H16.85c.17,0,.31-.18.31-.41a.37.37,0,0,0-.31-.4H5.92c-.17,0-.3.18-.3.4S5.75,18.11,5.92,18.11Z" transform="translate(-2 -1)"/><path class="cls-3" d="M5.92,21H16.85c.17,0,.31-.19.31-.41s-.14-.41-.31-.41H5.92c-.17,0-.3.18-.3.41S5.75,21,5.92,21Z" transform="translate(-2 -1)"/><path class="cls-3" d="M6,23.77h12.3a.38.38,0,0,0,.35-.41.38.38,0,0,0-.35-.41H6a.38.38,0,0,0-.34.41A.38.38,0,0,0,6,23.77Z" transform="translate(-2 -1)"/><path class="cls-3" d="M6,26.64H20.54a.42.42,0,0,0,.41-.41.41.41,0,0,0-.41-.41H6a.41.41,0,0,0-.41.41A.41.41,0,0,0,6,26.64Z" transform="translate(-2 -1)"/><path class="cls-3" d="M18.78,17.59a.71.71,0,0,1-.71-.71,6.14,6.14,0,0,1,1.58-4A5.79,5.79,0,0,1,24,11a5.94,5.94,0,0,1,3,.85,6.34,6.34,0,0,1,.6.41h0a.75.75,0,0,1,.2-.52.71.71,0,0,1,1.23.47l.06,1.74a.7.7,0,0,1-.7.88l-.21,0-1.7-.05a.68.68,0,0,1-.5-.22.69.69,0,0,1-.19-.51.71.71,0,0,1,.71-.69h.16a3.77,3.77,0,0,0-.39-.26A4.51,4.51,0,0,0,24,12.38a4.38,4.38,0,0,0-3.29,1.47,4.71,4.71,0,0,0-1.22,3A.71.71,0,0,1,18.78,17.59Z" transform="translate(-2 -1)"/><path class="cls-3" d="M24,12.06a4.76,4.76,0,0,1,2.46.7,5.45,5.45,0,0,1,1.1.88l-1,0a.4.4,0,0,0-.39.38.39.39,0,0,0,.1.28.43.43,0,0,0,.28.13l1.76,0,.12,0h0a.36.36,0,0,0,.28-.12.35.35,0,0,0,.1-.38l-.06-1.8a.4.4,0,0,0-.68-.26.44.44,0,0,0-.11.29l0,.74a6.06,6.06,0,0,0-1.11-.85A5.56,5.56,0,0,0,24,11.28a5.49,5.49,0,0,0-4.11,1.83,5.85,5.85,0,0,0-1.51,3.77.4.4,0,0,0,.79,0,5,5,0,0,1,1.31-3.24A4.66,4.66,0,0,1,24,12.06Z" transform="translate(-2 -1)"/><path class="cls-3" d="M24.07,22.8A6,6,0,0,1,21,22c-.21-.13-.41-.27-.6-.41h0a.7.7,0,0,1-.19.52.79.79,0,0,1-.5.22.72.72,0,0,1-.73-.7L19,19.86a.7.7,0,0,1,.19-.68.71.71,0,0,1,.5-.21l.22,0,1.7,0a.76.76,0,0,1,.49.22.74.74,0,0,1,.2.52.71.71,0,0,1-.71.68h-.17l.39.26a4.58,4.58,0,0,0,2.3.65,4.36,4.36,0,0,0,3.28-1.47,4.67,4.67,0,0,0,1.23-3,.71.71,0,1,1,1.42,0,6.1,6.1,0,0,1-1.59,4A5.79,5.79,0,0,1,24.07,22.8Z" transform="translate(-2 -1)"/><path class="cls-3" d="M29.29,16.49a.38.38,0,0,0-.39.39,5,5,0,0,1-1.31,3.24,4.68,4.68,0,0,1-3.52,1.58,4.85,4.85,0,0,1-2.46-.7,5,5,0,0,1-1.1-.88l1,0a.4.4,0,0,0,.39-.38.44.44,0,0,0-.11-.29.4.4,0,0,0-.27-.12l-1.76-.05-.13,0h0a.39.39,0,0,0-.28.12.36.36,0,0,0-.09.38l.06,1.79a.39.39,0,0,0,.4.39.45.45,0,0,0,.27-.12.36.36,0,0,0,.11-.29l0-.74a5.74,5.74,0,0,0,1.11.85,5.56,5.56,0,0,0,2.86.81,5.45,5.45,0,0,0,4.1-1.83,5.8,5.8,0,0,0,1.51-3.77A.39.39,0,0,0,29.29,16.49Z" transform="translate(-2 -1)"/><path class="cls-3" d="M24.07,19.72a.41.41,0,0,0,.41-.41V16.89h2.43a.4.4,0,0,0,.4-.4.41.41,0,0,0-.4-.41H24.48V13.66a.41.41,0,0,0-.81,0v2.42H21.24a.42.42,0,0,0-.41.41.41.41,0,0,0,.41.4h2.43v2.42A.4.4,0,0,0,24.07,19.72Z" transform="translate(-2 -1)"/><path class="cls-3" d="M24.43,6.14l-4.82-5A.44.44,0,0,0,19.3,1H3.81A1.81,1.81,0,0,0,2,2.77v9.14H2V29.2A1.81,1.81,0,0,0,3.81,31h19a1.8,1.8,0,0,0,1.79-1.78V23.85h-.82v5.36a1,1,0,0,1-1,1h-19a1,1,0,0,1-1-1V11.92h0V2.77a1,1,0,0,1,1-.95h15.1V5.61a1.25,1.25,0,0,0,1.26,1.25h3.59V10h.82V6.43A.4.4,0,0,0,24.43,6.14Zm-4.31-.09a.46.46,0,0,1-.42-.44V2.43l3.46,3.62Z" transform="translate(-2 -1)"/></g></g></g></svg>