<svg xmlns="http://www.w3.org/2000/svg" xmlns:xlink="http://www.w3.org/1999/xlink" viewBox="0 0 30 25"><defs><style>.cls-1{fill:none}.cls-2{clip-path:url(#clip-path)}.cls-3{fill:#915715}</style><clipPath id="clip-path" transform="translate(-1 -3.5)"><rect width="32" height="32" class="cls-1"/></clipPath></defs><g id="Layer_2" data-name="Layer 2"><g id="Layer_1-2" data-name="Layer 1"><g class="cls-2"><path d="M19.18,10.44l-.6-.18a.37.37,0,0,1-.28-.35V9.72a.4.4,0,0,1,.8,0,.6.6,0,0,0,.62.59.61.61,0,0,0,.62-.59,1.56,1.56,0,0,0-1-1.44V8.16a.61.61,0,0,0-.62-.6.62.62,0,0,0-.62.65v.07a1.55,1.55,0,0,0-1,1.44v.19a1.56,1.56,0,0,0,1.15,1.49l.61.17a.38.38,0,0,1,.28.35v.2a.4.4,0,0,1-.8,0,.62.62,0,0,0-1.24,0,1.53,1.53,0,0,0,.83,1.35v.21a.6.6,0,0,0,.62.59.6.6,0,0,0,.62-.59v-.06a1.58,1.58,0,0,0,1.21-1.5v-.2A1.56,1.56,0,0,0,19.18,10.44Z" class="cls-3" transform="translate(-1 -3.5)"/><path d="M26.59,21.39a1.85,1.85,0,0,1-1.22-.55L20.78,16.2a5.42,5.42,0,0,1-2.24.5,5.32,5.32,0,0,1-3.8-1.59A5.48,5.48,0,0,1,14,8.46a5.9,5.9,0,0,1,.79-1l.12-.1a5.39,5.39,0,0,1,3.68-1.49,5.29,5.29,0,0,1,3.61,1.44l.18.15a5.45,5.45,0,0,1,.79,1,5.54,5.54,0,0,1,.33,5l4.61,4.66a1.92,1.92,0,0,1,.56,1.36,2,2,0,0,1-.56,1.37,1.9,1.9,0,0,1-1.35.56ZM26.23,20a.68.68,0,0,0,.37.18l.11.23v-.21a.67.67,0,0,0,.48-.2.64.64,0,0,0,.2-.48.67.67,0,0,0-.2-.48L22.8,14.56a5.4,5.4,0,0,1-.94,1ZM18.54,7.08a4.11,4.11,0,0,0-2,.52,4.2,4.2,0,0,0-1,.71,1.94,1.94,0,0,0-.23.27l-.08.12a4.19,4.19,0,0,0,.31,5.52,4.09,4.09,0,0,0,5.85,0,4.2,4.2,0,0,0,.32-5.52l-.09-.12a1.94,1.94,0,0,0-.23-.27,4.3,4.3,0,0,0-2.92-1.23Z" class="cls-3" transform="translate(-1 -3.5)"/><path d="M26.56,16.89l-1.12-1.14L23.21,13.5l.05-.12a5.35,5.35,0,0,0-1.07-5.81A1.3,1.3,0,0,0,22,7.42a5.07,5.07,0,0,0-7,0c-.06,0-.12.09-.18.15a4.84,4.84,0,0,0-.75,1A5.27,5.27,0,0,0,14.88,15a5.11,5.11,0,0,0,3.66,1.53A5,5,0,0,0,20.7,16l.12-.05,3.83,3.86.86.87a1.62,1.62,0,0,0,1,.49l.15,0a1.69,1.69,0,0,0,1.21-.51,1.75,1.75,0,0,0,0-2.44Zm-8-1.24a4.28,4.28,0,0,1-3.07-1.28,4.41,4.41,0,0,1-.33-5.8,4.23,4.23,0,0,1,.33-.41,4.52,4.52,0,0,1,1-.74,4.18,4.18,0,0,1,4.11,0,4.52,4.52,0,0,1,1,.74,3.12,3.12,0,0,1,.33.41,4.41,4.41,0,0,1-.33,5.8A4.27,4.27,0,0,1,18.54,15.65Zm8.79,4.45a.87.87,0,0,1-.62.26.58.58,0,0,1-.14,0,.87.87,0,0,1-.48-.23l-.65-.67-3.88-3.92.16-.13a5.57,5.57,0,0,0,.93-1l.13-.18,2.66,2.68,1.12,1.14.77.78A.89.89,0,0,1,27.33,20.1Z" class="cls-3" transform="translate(-1 -3.5)"/><path d="M5.05,11.75h5.84c.15,0,.28-.19.28-.41s-.13-.42-.28-.42H5.05c-.15,0-.28.19-.28.42S4.9,11.75,5.05,11.75Z" class="cls-3" transform="translate(-1 -3.5)"/><path d="M5.1,15.16h6.82a.43.43,0,0,0,0-.83H5.1a.43.43,0,0,0,0,.83Z" class="cls-3" transform="translate(-1 -3.5)"/><path d="M14.93,18.1H5.23a.42.42,0,1,0,0,.83h9.7a.42.42,0,1,0,0-.83Z" class="cls-3" transform="translate(-1 -3.5)"/><path d="M30.52,3.5H1.6a.6.6,0,0,0-.6.6V22.88a1.44,1.44,0,0,0,1.44,1.44H12.9v1.4a1.47,1.47,0,0,1-.52,1.15l-.6.51H10a.56.56,0,0,0,0,1.12H21.64a.56.56,0,0,0,0-1.12h-2l-.6-.51a1.48,1.48,0,0,1-.53-1.15v-1.4H29.56A1.44,1.44,0,0,0,31,22.88V4A.48.48,0,0,0,30.52,3.5ZM15.92,22.76h0a.53.53,0,0,1,.25,0l0,0a.36.36,0,0,1,.15.15.08.08,0,0,1,0,0,.22.22,0,0,1,0,.11.36.36,0,0,1,0,.14h0a.43.43,0,0,1-.12.22.4.4,0,0,1-.23.12h0a.36.36,0,0,1-.25,0l0,0a.36.36,0,0,1-.15-.15l0,0a.38.38,0,0,1,0-.25h0a.39.39,0,0,1,.11-.22h0A.43.43,0,0,1,15.92,22.76Zm-2.48,4.62A2.62,2.62,0,0,0,14,25.72v-1.4h3.41v1.4A2.62,2.62,0,0,0,18,27.38ZM29.82,22H2.18a.1.1,0,0,1-.1-.1V5.06a.49.49,0,0,1,.48-.48h27a.36.36,0,0,1,.36.36v17A.09.09,0,0,1,29.82,22Z" class="cls-3" transform="translate(-1 -3.5)"/><path d="M5,8.75h5.53a.3.3,0,0,0,.26-.32V8.25a.3.3,0,0,0-.26-.32H5a.3.3,0,0,0-.26.32v.18A.3.3,0,0,0,5,8.75Z" class="cls-3" transform="translate(-1 -3.5)"/></g></g></g></svg>