<svg xmlns="http://www.w3.org/2000/svg" xmlns:xlink="http://www.w3.org/1999/xlink" viewBox="0 0 26 30"><defs><style>.cls-1{fill:none}.cls-2{clip-path:url(#clip-path)}.cls-3{fill:#915715}</style><clipPath id="clip-path" transform="translate(-3 -1)"><rect width="32" height="32" class="cls-1"/></clipPath></defs><g id="Layer_2" data-name="Layer 2"><g id="Layer_1-2" data-name="Layer 1"><g class="cls-2"><path d="M15,13.84a3.71,3.71,0,0,0,2.7,1.24h.15a3.44,3.44,0,0,0,1.2-.21c.23-.09.46-.2.69-.31A.38.38,0,0,0,19.9,14a.39.39,0,0,0-.34-.19.43.43,0,0,0-.19,0l-.11.06a3,3,0,0,1-1.42.37l-.39,0A2.88,2.88,0,0,1,15.37,13,2.73,2.73,0,0,1,15,10.71a2.8,2.8,0,0,1,1.15-1.62,2.92,2.92,0,0,1,1.68-.54,3.52,3.52,0,0,1,.95.14,3.15,3.15,0,0,1,.78.38.39.39,0,0,0,.21.06A.4.4,0,0,0,20.06,9,.38.38,0,0,0,20,8.42a3.77,3.77,0,0,0-1.4-.57l-.35,0-.18,0H17.6l-.42.06a3.64,3.64,0,0,0-2,1,3.59,3.59,0,0,0-1,1.88l-.05.3,0,.81A3.48,3.48,0,0,0,15,13.84Z" class="cls-3" transform="translate(-3 -1)"/><path d="M17.76,12.07l-1.42-1.31a.45.45,0,0,0-.3-.13.44.44,0,0,0-.28.12.4.4,0,0,0-.11.27.47.47,0,0,0,.14.29l1.46,1.35a.91.91,0,0,0,.64.24h0a.86.86,0,0,0,.61-.32l2.74-3.33L21.5,9a.35.35,0,0,0,0-.47.37.37,0,0,0-.29-.13.41.41,0,0,0-.19,0,.62.62,0,0,0-.18.18l-2.88,3.49Z" class="cls-3" transform="translate(-3 -1)"/><path d="M21.23,10.21a.37.37,0,0,0-.29.13.39.39,0,0,0-.09.38,2.92,2.92,0,0,1,0,1.41,3.08,3.08,0,0,1-.43.95.4.4,0,0,0-.06.3.46.46,0,0,0,.17.24.46.46,0,0,0,.22.06.42.42,0,0,0,.35-.19,3.85,3.85,0,0,0,.64-2.09,3.64,3.64,0,0,0-.12-.89C21.59,10.35,21.48,10.25,21.23,10.21Z" class="cls-3" transform="translate(-3 -1)"/><path d="M27.2,4.62H24.64V3.43h0V2.59a1.75,1.75,0,0,0,0-.46A1.51,1.51,0,0,0,23.44,1H4.19A1.49,1.49,0,0,0,3,2.48V25.26a1.44,1.44,0,0,0,1.52,1.48H6.68a.2.2,0,0,0,0,.11v2.2A1.79,1.79,0,0,0,8.7,31h12A4.64,4.64,0,0,0,24,29.72l3.68-3.38a4,4,0,0,0,1.36-3v-17A1.77,1.77,0,0,0,27.2,4.62ZM22.77,26a.6.6,0,0,1,.68-.67h2.78l-3.47,3.18Zm.68-2.38A2.28,2.28,0,0,0,21,25.93c0,.76,0,1.52,0,2.28v1.06H8.48a1.83,1.83,0,0,1,0-.27V6.59c0-.18,0-.24,0-.24a.68.68,0,0,1,.27,0H27.21a.77.77,0,0,1,0,.25v17Zm-19,2.09a.33.33,0,0,1-.35-.36V2.7c0-.57,0-.62.64-.62H22.91c.56,0,.63.06.63.62v.73h0V4.6H8.7a1.78,1.78,0,0,0-2,1.95v19a.21.21,0,0,0,0,.12H4.46Z" class="cls-3" transform="translate(-3 -1)"/><path d="M22.91,21.11H12.78c-.11,0-.24,0-.32,0a1.05,1.05,0,0,0-.43.34c-.17.36.13.7.59.7h10.3c.54,0,.79-.17.8-.53S23.46,21.11,22.91,21.11Z" class="cls-3" transform="translate(-3 -1)"/><path d="M12.77,18.6H23.25a.5.5,0,0,0,.46-.46c.05-.34-.21-.59-.62-.59H12.75c-.5,0-.76.18-.76.53S12.24,18.6,12.77,18.6Z" class="cls-3" transform="translate(-3 -1)"/><path d="M18.58,24.72a1.58,1.58,0,0,0-.38,0H12.65c-.41,0-.67.22-.67.54s.27.53.68.54h5.55a1.2,1.2,0,0,0,.38-.05.48.48,0,0,0,.35-.51A.48.48,0,0,0,18.58,24.72Z" class="cls-3" transform="translate(-3 -1)"/></g></g></g></svg>